<?xml version="1.0" standalone="no"?>
<!DOCTYPE svg PUBLIC "-//W3C//DTD SVG 20010904//EN"
 "http://www.w3.org/TR/2001/REC-SVG-20010904/DTD/svg10.dtd">
<svg version="1.0" xmlns="http://www.w3.org/2000/svg"
 width="1200.000000pt" height="1200.000000pt" viewBox="0 0 1200.000000 1200.000000"
 preserveAspectRatio="xMidYMid meet">
<metadata>
Created by potrace 1.16, written by Peter Selinger 2001-2019
</metadata>
<g transform="translate(0.000000,1200.000000) scale(0.100000,-0.100000)"
fill="#000000" stroke="none">
<path d="M5965 11840 c-261 -31 -518 -147 -711 -322 -136 -122 -222 -233 -297
-383 -100 -200 -141 -370 -142 -583 l0 -143 -35 -9 c-111 -29 -166 -46 -370
-118 -124 -44 -274 -104 -335 -132 -60 -29 -165 -79 -232 -111 -68 -31 -160
-80 -205 -107 -46 -28 -132 -76 -193 -108 -148 -77 -177 -96 -250 -162 -62
-57 -144 -120 -257 -198 -64 -45 -364 -318 -438 -399 -25 -27 -111 -117 -192
-200 -107 -110 -166 -180 -219 -260 -39 -60 -98 -144 -129 -185 -58 -77 -156
-231 -225 -355 -21 -38 -55 -95 -75 -126 -20 -31 -64 -118 -99 -195 -34 -76
-84 -184 -111 -239 -26 -55 -75 -179 -108 -275 -33 -96 -69 -197 -80 -225 -10
-27 -22 -69 -26 -93 -3 -24 -20 -92 -37 -150 -51 -184 -79 -317 -104 -505 -13
-100 -28 -202 -33 -227 -5 -25 -10 -74 -11 -110 -1 -36 -6 -146 -12 -246 -8
-142 -6 -239 6 -454 8 -150 17 -275 19 -279 3 -4 17 -97 31 -206 16 -120 45
-271 71 -377 24 -97 44 -184 44 -192 0 -9 -34 -33 -77 -55 -177 -92 -365 -267
-474 -440 -252 -400 -275 -880 -64 -1299 174 -345 490 -591 880 -684 126 -30
430 -32 550 -4 160 38 315 102 441 182 l56 36 36 -34 c21 -18 71 -64 112 -103
191 -178 273 -243 595 -480 74 -55 452 -274 560 -325 66 -32 170 -81 230 -110
61 -29 146 -65 190 -80 44 -16 150 -54 235 -85 202 -74 378 -129 465 -144 39
-7 102 -18 140 -26 39 -8 135 -23 215 -35 80 -11 186 -27 235 -35 157 -25 610
-39 870 -26 127 7 266 18 310 26 44 7 150 23 235 35 237 32 599 126 890 230
135 49 270 102 301 119 31 17 73 37 95 45 69 25 327 153 399 199 39 24 125 76
191 116 67 39 165 104 217 144 53 39 140 104 194 142 54 39 132 102 173 140
41 39 118 108 170 155 52 46 110 97 127 114 l33 30 42 -31 c103 -74 290 -152
458 -191 81 -19 262 -33 344 -26 407 33 756 231 997 563 122 170 214 437 225
660 20 373 -102 709 -352 971 -121 126 -193 182 -329 259 -83 47 -96 57 -90
75 22 74 85 344 94 406 29 184 53 364 63 470 13 149 12 645 -1 825 -10 136
-15 176 -48 375 -9 52 -19 127 -23 165 -5 39 -15 91 -24 116 -9 26 -22 78 -30
115 -23 114 -74 304 -105 389 -16 44 -47 130 -69 190 -22 61 -46 128 -52 150
-15 48 -235 509 -260 546 -10 14 -52 83 -93 155 -112 196 -179 294 -320 474
-24 30 -59 78 -77 105 -19 28 -80 100 -136 160 -56 61 -130 144 -166 185 -35
41 -97 103 -138 138 -41 36 -125 111 -186 168 -62 57 -143 124 -180 150 -38
26 -84 60 -102 76 -19 16 -51 40 -72 53 -21 13 -63 45 -94 70 -31 25 -73 55
-94 66 -49 27 -96 55 -157 94 -89 56 -274 165 -279 165 -3 0 -93 42 -200 94
-108 52 -269 120 -358 151 -90 32 -203 72 -253 90 -49 18 -121 40 -160 50 -38
9 -75 21 -82 27 -9 7 -13 49 -13 146 0 209 -31 350 -120 537 -68 144 -131 237
-240 349 -242 250 -551 389 -890 400 -74 3 -166 1 -205 -4z m410 -83 c246 -55
462 -174 635 -353 177 -183 278 -374 330 -630 25 -120 28 -331 6 -340 -8 -3
-59 6 -113 21 -54 14 -174 37 -268 50 -93 14 -210 32 -260 40 -71 13 -324 29
-585 37 -79 3 -536 -25 -604 -37 -45 -7 -148 -23 -231 -35 -82 -12 -188 -32
-235 -45 -47 -13 -105 -27 -128 -31 l-42 -7 0 109 c0 204 40 376 127 552 175
357 521 613 913 677 107 18 357 13 455 -8z m-365 -1338 c0 -9 -45 -89 -294
-521 -28 -49 -53 -88 -56 -88 -4 0 -33 34 -65 75 -33 41 -62 72 -65 67 -16
-18 -91 -212 -93 -238 -2 -28 -5 -29 -97 -47 l-95 -18 -48 53 c-95 105 -184
252 -240 398 -29 76 -53 167 -46 175 16 16 289 74 446 94 37 5 115 17 173 26
91 14 268 28 433 33 28 1 47 -2 47 -9z m192 -86 c31 -54 95 -165 143 -248 150
-258 198 -346 191 -352 -7 -7 -231 -4 -249 3 -7 3 -25 27 -42 55 -55 94 -110
173 -122 177 -13 4 -75 -83 -117 -165 -15 -28 -33 -56 -39 -61 -13 -11 -252
-21 -261 -11 -4 3 18 48 47 100 131 229 331 575 340 587 5 6 19 12 31 12 17 0
34 -21 78 -97z m253 87 c88 -5 216 -18 285 -29 69 -11 175 -27 235 -35 136
-20 325 -65 344 -82 40 -36 -101 -350 -228 -509 -44 -54 -86 -102 -94 -107 -8
-4 -37 -3 -63 2 -27 6 -65 13 -84 16 -33 6 -36 10 -59 77 -31 95 -74 197 -83
197 -4 0 -33 -32 -64 -71 -47 -57 -59 -68 -70 -57 -7 7 -44 67 -82 133 -38 66
-112 196 -166 288 -53 92 -94 172 -91 177 7 12 15 12 220 0z m-1604 -191 c55
-185 104 -297 189 -426 27 -40 46 -73 42 -73 -3 0 -32 26 -64 57 -32 31 -60
54 -63 51 -5 -5 -48 -162 -69 -250 -7 -30 -21 -38 -163 -88 l-81 -29 -74 56
c-40 31 -92 71 -115 89 -23 19 -45 34 -50 34 -11 0 -44 -239 -37 -268 6 -20
-4 -27 -112 -78 l-119 -56 -50 26 c-27 15 -83 44 -124 66 -40 22 -78 37 -82
34 -5 -3 -9 -67 -9 -143 l0 -139 -67 -41 c-38 -22 -87 -55 -111 -73 l-42 -32
-78 36 c-84 40 -156 68 -173 68 -13 0 -4 -154 12 -230 l10 -45 -68 -63 c-118
-109 -126 -114 -159 -101 -48 19 -235 56 -240 48 -2 -4 7 -59 22 -121 14 -62
28 -123 31 -134 7 -32 -162 -217 -191 -210 -89 21 -190 37 -224 34 l-40 -3 45
-110 c25 -60 52 -118 61 -128 14 -16 14 -20 -6 -45 -12 -15 -47 -67 -79 -116
l-57 -88 -137 7 c-95 5 -139 3 -144 -4 -7 -12 84 -180 118 -218 l20 -23 -48
-107 c-27 -60 -53 -113 -59 -120 -6 -7 -74 -21 -150 -32 -76 -11 -141 -23
-144 -25 -6 -7 74 -119 130 -181 l45 -50 -46 -130 c-31 -86 -51 -130 -61 -131
-51 -2 -260 -57 -260 -68 0 -6 46 -55 102 -109 l102 -98 -13 -57 c-7 -31 -17
-86 -23 -122 -6 -36 -12 -66 -13 -68 -2 -2 -57 -25 -123 -52 -66 -26 -128 -53
-138 -58 -14 -8 0 -23 86 -91 57 -44 109 -81 116 -81 16 0 18 -73 7 -205 l-7
-80 -105 -53 c-58 -29 -117 -61 -130 -71 l-24 -18 129 -75 129 -74 7 -50 c3
-27 7 -87 7 -134 l1 -85 -53 -34 c-105 -68 -166 -116 -164 -129 2 -11 83 -49
243 -112 16 -6 23 -20 28 -62 4 -29 16 -87 27 -130 22 -90 22 -88 8 -88 -16 0
-199 -169 -199 -184 0 -6 48 -24 108 -40 104 -28 166 -56 92 -42 -19 3 -86 9
-150 13 -155 8 -291 -8 -446 -53 -17 -4 -23 0 -31 23 -34 93 -95 385 -108 511
-3 30 -13 90 -21 135 -8 45 -21 202 -28 350 -10 217 -10 316 0 530 7 144 20
300 29 347 9 47 18 107 21 134 19 187 120 602 210 856 91 259 95 269 214 520
133 282 354 649 482 805 5 6 39 51 76 101 59 81 121 152 352 408 30 34 90 93
134 131 44 39 122 110 175 158 123 113 459 362 604 449 62 36 157 93 212 126
137 81 525 262 665 310 63 22 160 56 215 77 103 38 233 75 249 71 6 -1 13 -13
17 -27z m2639 10 c126 -28 527 -181 747 -285 125 -59 246 -119 268 -133 22
-15 74 -47 115 -71 222 -129 309 -189 590 -402 106 -81 368 -322 468 -431 52
-56 115 -125 140 -152 81 -87 147 -167 208 -251 33 -45 92 -125 132 -178 41
-53 102 -145 137 -204 34 -59 88 -150 120 -202 81 -134 258 -510 315 -670 26
-74 62 -175 80 -225 35 -97 63 -193 85 -289 7 -34 25 -106 40 -161 24 -92 53
-264 89 -525 8 -58 17 -163 20 -235 3 -71 8 -171 12 -220 8 -108 -11 -514 -31
-670 -42 -322 -114 -678 -143 -707 -6 -6 -16 -6 -28 0 -11 6 -80 20 -154 32
-112 19 -155 22 -255 16 -66 -4 -133 -9 -150 -13 -64 -12 -7 15 75 37 47 12
89 24 94 27 11 7 -162 182 -191 193 l-22 9 19 65 c10 36 21 94 25 130 4 36 12
69 19 74 6 5 36 17 66 27 87 28 201 77 198 86 -4 9 -177 142 -207 158 -18 10
-21 20 -21 79 0 37 3 97 7 134 l6 68 116 61 c64 33 122 66 129 73 11 11 -5 24
-90 73 -57 32 -115 64 -129 70 -24 10 -26 17 -32 95 -4 45 -7 106 -7 134 l0
52 115 81 c63 45 115 86 115 91 0 6 -1 10 -3 10 -1 0 -52 20 -111 45 -60 25
-120 45 -132 45 -26 0 -27 3 -44 117 -5 39 -14 83 -20 98 -13 33 -13 75 0 75
16 0 201 183 193 190 -4 4 -39 15 -78 25 -221 57 -198 47 -217 96 -9 24 -29
77 -43 117 l-27 72 46 63 c92 123 119 168 110 176 -8 8 -157 37 -229 45 -16 2
-33 4 -37 5 -6 1 -118 226 -118 236 0 3 22 37 48 77 51 76 89 154 80 163 -3 3
-68 7 -144 9 -82 3 -140 8 -142 14 -2 6 -35 56 -73 112 -59 84 -68 104 -58
116 21 26 110 227 105 239 -5 15 -212 -9 -268 -30 -9 -4 -49 32 -106 94 l-93
100 35 104 c32 95 54 187 45 187 -5 0 -248 -69 -270 -76 -11 -4 -49 23 -113
81 -107 97 -99 75 -76 209 12 70 13 156 2 156 -12 0 -164 -55 -204 -74 -47
-22 -70 -17 -135 31 -28 21 -67 47 -87 58 l-36 20 0 147 c0 86 -4 149 -10 153
-11 7 -219 -110 -235 -132 -8 -11 -33 -3 -138 47 l-127 60 0 66 c0 84 -20 195
-36 201 -14 5 -73 -32 -171 -109 l-62 -48 -83 30 c-148 52 -155 56 -161 92
-10 52 -64 238 -71 245 -4 4 -33 -20 -66 -52 -33 -33 -60 -56 -60 -52 0 5 21
40 46 79 64 97 138 257 164 353 27 96 27 97 48 91 10 -2 42 -10 72 -17z
m-1142 -573 c191 -10 236 -16 250 -29 26 -26 110 -181 105 -194 -5 -14 -73
-43 -191 -83 -306 -102 -585 -89 -899 42 -45 19 -73 37 -73 46 0 18 97 189
113 199 7 4 109 13 227 19 118 6 220 12 225 12 6 1 115 -5 243 -12z m-798 -46
c0 -14 -58 -116 -74 -129 -15 -13 -146 71 -146 94 0 8 1 15 3 16 17 4 169 27
190 28 15 0 27 -4 27 -9z m1263 -4 c92 -14 103 -18 92 -36 -13 -21 -127 -100
-136 -94 -11 7 -79 122 -79 135 0 12 17 11 123 -5z m-1470 -126 c48 -35 87
-70 87 -76 0 -7 -32 -68 -71 -136 -128 -221 -255 -440 -331 -572 l-75 -130
-57 3 c-74 3 -147 -32 -212 -101 -88 -95 -105 -178 -70 -359 l19 -96 -83 -144
c-124 -215 -262 -455 -363 -629 -50 -85 -133 -229 -185 -320 -253 -441 -235
-409 -465 -805 -42 -71 -80 -129 -86 -127 -173 40 -299 10 -391 -95 -113 -128
-108 -201 26 -378 l58 -77 -25 -47 c-37 -65 -352 -613 -494 -856 -48 -82 -121
-210 -162 -283 -42 -73 -79 -135 -85 -138 -5 -3 -14 -1 -21 4 -7 6 -57 28
-111 50 -70 28 -103 47 -111 64 -20 38 -113 424 -130 538 -9 58 -20 132 -26
165 -30 192 -44 546 -30 760 21 319 54 540 126 825 160 640 506 1282 953 1772
157 172 399 396 537 498 55 40 132 97 170 125 193 142 661 390 887 470 57 20
141 50 188 67 47 16 159 49 250 73 128 33 169 40 181 31 9 -6 55 -40 102 -76z
m1841 45 c398 -97 893 -319 1261 -566 209 -140 472 -356 639 -525 423 -428
764 -967 967 -1530 71 -199 158 -520 183 -684 8 -52 25 -156 37 -230 20 -121
22 -172 22 -495 0 -354 0 -364 -32 -580 -31 -207 -125 -625 -154 -683 -8 -16
-37 -33 -87 -53 -41 -16 -91 -38 -112 -49 -32 -18 -38 -19 -51 -6 -8 9 -54 84
-102 168 -81 143 -164 287 -347 603 -182 315 -276 478 -343 595 -73 126 -180
312 -349 605 -51 88 -118 204 -149 257 l-56 96 -2 124 c-1 68 4 153 10 189 21
124 32 401 21 517 -25 262 -105 382 -255 382 -67 0 -99 -15 -150 -71 -36 -40
-125 -211 -125 -240 0 -34 -43 37 -293 476 -43 77 -90 156 -102 175 -20 29
-25 57 -35 168 -29 350 -136 535 -318 551 l-65 6 -37 65 c-20 36 -79 137 -130
225 -172 295 -220 380 -220 392 0 6 17 22 38 34 20 13 65 47 100 76 34 29 68
50 75 48 6 -2 79 -20 161 -40z m-337 -319 c48 -83 126 -218 173 -301 47 -82
94 -163 104 -178 l19 -28 -47 -46 c-134 -132 -197 -373 -197 -758 0 -110 -6
-196 -19 -275 -36 -215 -42 -285 -46 -510 -2 -134 -11 -295 -23 -400 -11 -96
-26 -244 -33 -327 -11 -146 -13 -153 -33 -153 -21 0 -22 6 -28 107 -4 58 -7
148 -7 198 0 129 -29 606 -41 680 -5 33 -14 193 -19 355 -10 320 -23 480 -45
544 -8 23 -15 79 -15 127 0 176 -35 429 -77 564 -33 104 -61 159 -112 217 -55
62 -111 88 -187 88 -130 -1 -216 -83 -273 -261 -43 -133 -52 -222 -62 -594 -5
-198 -13 -436 -17 -530 -10 -192 0 -392 23 -458 14 -40 13 -63 -2 -223 -10
-112 -17 -281 -17 -451 l-1 -273 -55 0 -56 0 -38 158 c-50 202 -99 351 -141
428 -24 45 -40 97 -60 195 -51 257 -101 431 -153 534 -19 38 -33 101 -58 265
-18 118 -37 237 -44 265 -16 70 -58 172 -95 230 -30 48 -118 135 -136 135 -23
0 -25 -4 313 580 50 85 104 179 120 208 16 28 33 52 38 52 4 0 41 -15 82 -34
263 -120 599 -147 875 -71 99 27 259 91 269 107 11 17 33 -13 121 -166z m-561
-192 c124 -59 206 -329 220 -724 3 -93 11 -170 19 -191 22 -58 36 -223 45
-530 4 -156 15 -340 23 -409 14 -119 29 -386 42 -766 l7 -172 -59 -7 c-89 -10
-125 -42 -89 -78 11 -11 25 -13 58 -6 116 22 247 3 347 -51 63 -35 86 -37 100
-11 16 28 -17 63 -88 95 l-61 27 0 57 c0 64 21 294 49 537 12 103 16 197 13
264 -5 125 11 332 44 540 18 116 24 195 24 316 0 448 108 735 276 735 165 0
268 -313 251 -762 -5 -126 -3 -157 10 -182 26 -49 28 -258 7 -516 -21 -255
-22 -289 -5 -345 26 -92 24 -510 -5 -812 l-6 -63 -69 0 c-60 0 -70 -3 -80 -22
-18 -34 15 -54 104 -61 93 -7 200 -54 273 -120 55 -50 87 -59 103 -28 12 21
-11 58 -59 96 -13 11 -35 29 -49 41 l-24 20 63 144 c51 116 67 166 82 255 10
60 36 182 59 270 22 88 53 236 70 328 48 275 94 438 161 570 49 94 85 127 138
127 55 0 83 -15 114 -63 36 -57 54 -120 66 -243 12 -116 0 -379 -25 -546 -8
-53 -12 -103 -9 -111 9 -24 -14 -263 -39 -412 -13 -77 -22 -159 -20 -182 7
-56 -19 -202 -68 -392 -40 -152 -40 -158 -28 -223 17 -96 6 -312 -25 -478 -14
-74 -26 -158 -26 -187 0 -197 -90 -607 -220 -1008 -17 -49 -39 -144 -50 -210
-11 -66 -37 -167 -56 -225 -45 -130 -126 -300 -161 -334 -14 -15 -23 -29 -20
-32 18 -18 -261 -398 -349 -476 -33 -29 -390 -85 -574 -89 -80 -3 -295 69
-372 123 -20 14 -45 -2 -33 -22 12 -20 89 -63 153 -86 60 -21 61 -22 31 -28
-17 -3 -152 -6 -299 -6 l-268 0 -216 45 c-119 25 -220 45 -224 45 -4 0 17 11
46 23 62 26 172 104 172 123 0 29 -22 22 -97 -29 -43 -29 -108 -63 -145 -75
l-68 -22 -217 45 c-155 32 -236 53 -278 74 -101 50 -296 200 -475 366 -165
152 -195 188 -247 290 -128 251 -290 731 -459 1359 -35 132 -64 245 -64 251 0
14 -118 182 -179 255 -25 30 -106 122 -178 204 -73 81 -133 151 -133 155 0 4
-21 29 -47 57 -67 68 -124 159 -130 202 -4 30 2 47 28 86 80 119 191 149 354
94 195 -66 393 -208 668 -478 131 -127 155 -156 140 -162 -10 -4 -46 -18 -81
-31 -111 -44 -262 -150 -262 -186 0 -27 32 -23 63 9 71 73 228 156 307 162 57
5 43 -16 -38 -54 -43 -21 -91 -51 -107 -68 -27 -28 -28 -32 -13 -46 15 -15 18
-14 40 11 12 15 59 45 104 66 l81 38 180 -180 181 -181 -84 -81 c-95 -90 -179
-200 -170 -223 3 -7 16 -14 28 -14 17 0 36 19 73 72 80 114 245 248 307 248
33 0 51 14 46 36 -2 14 -13 20 -46 22 -35 3 -42 6 -38 20 13 40 66 276 84 372
12 59 23 170 26 255 7 175 24 302 56 403 22 69 22 74 7 124 -31 99 -52 324
-73 783 -4 97 -10 145 -20 156 -30 33 -70 243 -94 494 -11 110 -73 466 -112
644 -29 130 -27 199 6 255 51 87 132 133 211 121 98 -14 189 -111 239 -250 32
-90 39 -128 76 -375 25 -170 35 -214 59 -260 52 -98 110 -310 156 -565 18 -96
22 -108 60 -170 14 -22 40 -87 59 -145 32 -98 116 -416 116 -439 0 -6 -22 -22
-49 -35 -57 -29 -70 -52 -43 -79 19 -18 20 -18 78 6 116 49 225 56 350 23 59
-16 84 -7 84 29 0 29 -9 35 -85 55 -59 15 -60 16 -68 60 -12 67 -1 509 18 717
16 172 16 186 0 225 -23 59 -33 241 -23 444 4 93 12 331 17 529 10 363 19 452
57 567 32 100 84 181 128 198 35 14 106 11 142 -6z m1402 -1264 c247 -429 282
-492 282 -509 0 -11 -11 -66 -25 -123 -13 -57 -34 -161 -45 -233 -12 -71 -39
-199 -61 -282 -21 -84 -50 -213 -63 -285 -19 -102 -36 -158 -72 -238 -25 -58
-50 -115 -55 -127 -8 -21 -11 -22 -35 -11 -25 12 -26 14 -20 78 31 345 32 729
1 844 -8 32 -13 66 -11 75 3 9 12 115 22 236 20 257 16 478 -10 539 -13 30
-15 56 -10 118 4 43 8 77 9 76 2 -2 43 -73 93 -158z m-3000 -17 c17 -93 41
-256 53 -362 23 -205 59 -389 83 -426 11 -17 18 -82 26 -251 13 -288 36 -538
56 -629 21 -90 21 -86 -4 -180 -30 -111 -41 -196 -48 -370 -3 -82 -14 -195
-25 -250 -34 -178 -82 -375 -92 -375 -16 0 -299 289 -363 370 -82 105 -318
335 -457 447 -123 99 -247 182 -335 222 -29 14 -52 28 -52 33 0 5 34 68 76
141 42 73 112 195 156 272 44 77 92 160 108 185 15 25 74 126 130 225 57 99
143 248 192 332 48 83 96 167 107 185 19 34 149 260 192 334 13 23 53 91 87
152 35 62 67 112 71 112 4 0 22 -75 39 -167z m3865 -1480 c55 -99 157 -276
324 -563 50 -85 134 -231 188 -325 54 -93 132 -228 173 -300 41 -71 116 -202
167 -290 50 -88 160 -278 243 -422 84 -144 152 -267 152 -275 -1 -7 -26 -29
-56 -48 -118 -75 -268 -233 -357 -378 -98 -159 -177 -394 -192 -574 l-7 -78
-664 0 c-365 0 -664 2 -664 5 0 3 20 49 44 102 58 131 103 273 125 402 11 58
42 183 71 276 114 376 184 694 196 899 3 56 17 164 31 241 29 169 41 398 24
483 -11 56 -9 68 23 193 50 191 76 338 76 426 0 62 37 323 45 323 1 0 27 -44
58 -97z m-5241 -1000 c133 -149 225 -262 290 -353 41 -59 51 -84 93 -245 111
-425 275 -953 376 -1208 67 -171 156 -341 205 -396 l46 -51 -625 0 -625 0 -7
78 c-8 78 -50 262 -79 340 -27 72 -93 198 -148 279 -63 97 -240 274 -330 332
-38 24 -68 46 -68 48 0 5 123 222 226 398 29 50 152 263 274 475 233 404 248
430 254 430 2 0 55 -57 118 -127z m7452 -1074 c49 -11 93 -22 98 -25 16 -10
-1 -71 -111 -374 -38 -107 -105 -269 -149 -360 -44 -91 -93 -195 -110 -232
-18 -39 -38 -68 -46 -68 -8 0 -28 24 -44 53 -42 76 -175 305 -249 431 -35 60
-62 115 -59 122 3 7 35 15 83 19 43 4 83 12 90 17 11 9 -18 52 -138 201 l-31
38 23 71 c14 42 32 76 44 83 85 53 407 66 599 24z m-8754 -4 c41 -10 76 -19
78 -20 2 -2 16 -38 32 -80 l29 -78 -64 -74 c-35 -41 -76 -93 -91 -115 -34 -49
-29 -54 78 -63 54 -5 78 -11 78 -20 0 -14 -324 -582 -345 -603 -10 -11 -17 -5
-39 32 -14 24 -26 47 -26 50 0 3 -41 92 -91 198 -50 106 -98 211 -106 233
-125 342 -165 462 -161 487 3 24 34 34 184 63 104 19 340 14 444 -10z m265
-87 c36 -18 65 -37 64 -43 -1 -18 -74 -130 -84 -128 -9 1 -73 166 -74 191 -1
20 24 14 94 -20z m7784 15 c-1 -28 -63 -186 -74 -189 -13 -4 -87 125 -79 138
8 12 124 68 142 68 6 0 12 -8 11 -17z m1014 -34 c172 -88 364 -261 469 -425
353 -551 226 -1278 -291 -1671 -102 -77 -292 -172 -414 -207 -123 -35 -268
-50 -412 -42 -156 9 -242 27 -392 86 -103 39 -238 120 -238 142 0 9 59 80 130
158 72 78 146 166 165 194 34 51 168 220 242 304 20 24 56 81 79 125 67 131
101 192 109 197 4 3 10 15 14 27 4 11 24 47 44 80 46 72 235 469 274 578 46
125 117 333 140 408 12 37 25 67 30 67 5 0 28 -10 51 -21z m-9830 -28 c13 -62
160 -460 211 -571 29 -63 80 -173 112 -245 33 -71 77 -157 100 -190 22 -33 59
-95 83 -138 67 -124 172 -286 247 -383 38 -49 97 -127 132 -174 35 -47 90
-114 122 -150 172 -193 215 -243 215 -251 0 -25 -217 -134 -345 -172 -137 -42
-206 -51 -370 -50 -208 1 -333 28 -507 108 -264 123 -467 321 -597 583 -196
392 -163 879 84 1242 66 97 169 209 253 275 82 64 235 157 247 150 4 -3 10
-18 13 -34z m1251 -81 c206 -148 366 -368 445 -610 39 -120 49 -166 57 -268
l7 -82 -119 0 -119 0 -66 88 c-92 122 -254 399 -339 579 l-72 152 57 101 c32
55 59 100 62 100 3 0 42 -27 87 -60z m7405 -40 c28 -49 51 -94 51 -99 0 -20
-136 -294 -201 -406 -121 -206 -154 -259 -214 -338 l-57 -77 -109 0 c-59 0
-110 3 -112 8 -9 14 32 248 58 332 30 95 95 232 145 306 63 93 171 214 243
271 83 68 118 91 133 92 7 1 35 -39 63 -89z m189 -327 c43 -76 105 -183 137
-238 31 -55 84 -146 117 -203 46 -78 59 -108 54 -127 l-6 -25 -400 0 c-277 0
-401 3 -406 11 -3 6 8 30 25 52 17 23 49 72 71 109 l40 67 134 -2 c74 -1 138
2 142 6 9 8 -41 115 -87 188 -16 25 -29 52 -29 60 0 26 103 239 116 239 7 0
48 -62 92 -137z m-7775 22 c27 -54 49 -106 49 -115 0 -8 -29 -67 -66 -131 -36
-64 -66 -122 -66 -129 0 -9 38 -11 148 -9 l147 3 40 -65 c22 -36 55 -83 73
-106 17 -22 32 -46 32 -52 0 -8 -115 -11 -404 -11 -345 0 -405 2 -416 15 -7 8
-9 23 -5 32 5 16 148 264 333 581 37 64 59 92 70 90 9 -2 37 -47 65 -103z
m300 -691 c3 -3 -10 -42 -29 -87 -19 -44 -31 -84 -27 -88 4 -4 71 2 148 13
l140 20 57 -64 c32 -35 58 -70 58 -79 0 -58 -101 -278 -181 -394 -60 -87 -166
-205 -184 -205 -7 0 -23 12 -35 28 -12 15 -65 74 -119 132 -122 130 -135 146
-216 256 -35 49 -72 98 -80 109 -103 132 -235 332 -235 357 0 9 693 11 703 2z
m384 -81 c-4 -47 -11 -91 -16 -96 -6 -6 -23 6 -46 31 -53 59 -105 129 -105
141 0 7 32 11 86 11 l87 0 -6 -87z m1484 11 c177 -161 382 -314 483 -359 31
-15 241 -63 546 -125 l495 -102 360 5 c436 7 712 31 950 81 68 14 72 16 147
95 87 92 218 264 299 393 l54 88 687 0 687 0 6 -57 c3 -32 10 -87 16 -122 9
-60 9 -65 -13 -90 -209 -238 -592 -557 -863 -718 -60 -36 -130 -79 -155 -95
-46 -30 -332 -171 -431 -214 -31 -13 -121 -46 -200 -74 -79 -28 -160 -57 -180
-65 -78 -30 -452 -117 -579 -135 -74 -11 -166 -24 -205 -30 -193 -28 -740 -28
-930 1 -38 5 -129 18 -200 28 -122 17 -287 51 -345 71 -14 5 -58 16 -98 25
-122 26 -486 162 -676 252 -379 179 -751 430 -1057 715 -76 71 -161 154 -189
185 -44 50 -51 62 -46 88 3 17 11 76 18 133 l12 102 662 0 662 0 83 -76z
m4929 63 c0 -16 -109 -149 -126 -154 -11 -4 -36 143 -27 160 2 4 38 7 79 7 55
0 74 -3 74 -13z m920 3 c0 -23 -124 -210 -258 -390 -131 -174 -394 -480 -413
-480 -13 0 -96 92 -158 175 -68 90 -149 246 -185 359 l-26 79 52 56 c28 31 54
59 58 64 3 4 49 -1 101 -12 146 -29 189 -33 189 -17 0 7 -13 43 -30 79 -16 37
-30 73 -30 82 0 13 43 15 350 15 218 0 350 -4 350 -10z m-1046 -433 c57 -148
150 -294 271 -424 28 -30 50 -60 50 -66 0 -7 -52 -59 -115 -117 -63 -57 -138
-126 -166 -152 -98 -93 -442 -338 -649 -464 -213 -129 -490 -270 -689 -350
-61 -24 -114 -44 -118 -44 -8 0 -96 -32 -223 -82 -90 -35 -557 -147 -695 -168
-74 -11 -164 -24 -200 -30 -216 -34 -646 -51 -880 -35 -158 10 -325 26 -385
35 -33 6 -123 19 -200 30 -77 11 -156 24 -175 30 -19 6 -64 17 -100 26 -194
47 -260 64 -305 77 -60 17 -188 62 -230 81 -16 7 -75 28 -130 46 -139 45 -555
243 -673 320 -35 23 -89 55 -120 72 -183 100 -500 336 -730 545 -100 91 -182
167 -182 168 0 2 30 34 66 72 73 75 147 175 201 271 19 34 37 62 40 62 3 0 2
-21 -2 -46 -6 -41 -5 -45 12 -40 10 3 47 12 83 21 36 9 93 25 127 37 l61 21
101 -93 c55 -51 98 -96 96 -100 -7 -11 -32 -151 -41 -223 l-6 -58 53 21 c105
41 194 83 197 91 7 17 34 9 71 -20 20 -15 63 -45 96 -66 33 -21 63 -43 67 -49
4 -6 8 -75 8 -153 0 -79 3 -143 6 -143 14 0 191 104 215 127 l26 24 119 -58
119 -58 12 -85 c7 -47 15 -113 19 -147 4 -35 10 -63 15 -63 10 0 166 119 201
153 l29 29 107 -37 c144 -50 148 -53 162 -122 19 -95 52 -213 59 -213 11 0
187 183 193 199 3 12 15 12 74 -2 38 -9 99 -22 136 -28 l67 -11 27 -81 c35
-104 71 -187 82 -187 9 0 141 171 161 208 10 18 18 19 128 14 65 -2 125 -8
133 -12 8 -5 44 -57 80 -117 36 -59 72 -109 80 -110 15 -3 65 69 123 174 33
61 30 60 184 67 l112 5 23 -37 c56 -94 158 -215 158 -189 0 2 20 51 44 109 24
58 46 117 50 132 5 20 14 26 44 31 70 12 177 34 193 40 11 4 42 -20 98 -75
103 -100 129 -119 141 -100 5 8 23 64 40 124 17 61 33 116 34 121 2 6 58 30
125 54 l121 43 45 -38 c65 -56 179 -144 186 -144 7 0 24 110 35 224 l7 68 110
54 c60 30 117 54 126 54 9 0 41 -17 71 -37 99 -66 173 -104 183 -94 6 6 8 66
5 149 l-4 140 38 24 c22 12 69 44 106 71 37 26 69 47 73 47 4 0 53 -22 110
-49 57 -28 116 -53 132 -56 25 -7 27 -5 27 26 0 19 -5 52 -10 74 -5 22 -12 74
-15 115 l-6 75 92 83 c102 92 97 91 207 51 29 -10 78 -22 109 -25 l56 -7 -7
47 c-4 25 -18 84 -31 129 -44 147 -29 144 29 -6z"/>
<path d="M6116 8672 c-2 -4 0 -27 4 -52 5 -25 9 -73 10 -108 0 -59 1 -63 22
-60 18 2 26 16 41 67 10 35 22 60 26 55 5 -5 11 -33 14 -61 6 -51 4 -55 -33
-99 -22 -25 -40 -51 -40 -59 0 -30 24 -27 53 5 25 29 37 34 79 35 77 3 124 59
81 97 -25 22 -45 26 -69 17 -20 -7 -23 -4 -28 39 -17 116 -43 145 -79 85 l-21
-37 -7 30 c-3 17 -9 36 -13 42 -8 13 -32 16 -40 4z"/>
<path d="M7148 8245 c-35 -20 -50 -48 -42 -80 17 -69 124 -51 124 20 0 21 5
25 31 25 34 0 61 -12 102 -46 33 -28 45 -30 54 -8 6 17 -28 51 -80 80 -42 23
-155 28 -189 9z"/>
<path d="M4958 8121 l-33 -39 -24 19 c-30 24 -83 25 -104 1 -36 -40 -34 -132
3 -132 17 0 20 7 20 50 0 116 96 47 115 -82 7 -48 26 -75 45 -63 13 8 13 55
-2 127 -11 53 -10 60 8 85 28 37 42 39 50 6 10 -42 24 -56 40 -42 19 16 17 38
-6 77 -29 47 -68 44 -112 -7z"/>
<path d="M6326 8138 c-27 -5 -90 -12 -139 -16 -71 -6 -92 -11 -101 -25 -9 -15
-6 -22 14 -39 22 -18 34 -20 110 -14 190 13 261 43 214 90 -17 18 -27 18 -98
4z"/>
<path d="M7249 8111 c-17 -17 -29 -40 -29 -55 0 -34 -30 -34 -89 -1 -45 26
-70 22 -58 -9 12 -32 82 -56 163 -56 66 0 82 3 109 25 41 30 49 67 23 100 -28
36 -80 34 -119 -4z"/>
<path d="M6098 7769 c-62 -65 -67 -76 -41 -86 12 -5 27 6 53 35 38 44 50 51
50 28 0 -16 26 -46 40 -46 5 0 21 11 37 24 l28 23 22 -33 c18 -29 19 -35 7
-45 -12 -10 -18 -8 -30 9 -19 28 -26 28 -62 -3 l-29 -24 -11 24 c-16 36 -34
31 -82 -21 -39 -43 -41 -47 -26 -63 16 -15 19 -14 37 12 24 32 35 34 42 7 7
-28 36 -25 68 6 26 25 27 25 33 6 9 -27 36 -36 54 -18 14 13 17 13 27 -1 7
-10 19 -14 29 -10 21 8 23 92 1 104 -12 7 -11 10 5 21 12 7 20 8 20 2 0 -5 9
-10 20 -10 16 0 20 7 22 35 0 19 1 41 2 47 2 25 -32 18 -65 -12 l-34 -31 -3
30 c-4 41 -28 46 -68 16 -39 -30 -44 -31 -44 -7 0 20 -18 42 -34 42 -6 0 -36
-27 -68 -61z"/>
<path d="M7069 7728 c-14 -26 -1 -46 38 -59 48 -16 275 -8 297 10 19 16 21 47
5 57 -7 4 -84 7 -171 8 -140 1 -161 -1 -169 -16z"/>
<path d="M5105 7699 c-16 -6 -75 -18 -129 -28 -115 -20 -138 -38 -97 -72 29
-24 71 -21 211 13 111 26 122 33 118 66 -3 23 -8 27 -38 29 -19 1 -48 -3 -65
-8z"/>
<path d="M7166 7429 c-22 -17 -26 -29 -26 -68 0 -35 -5 -53 -20 -66 -30 -27
-27 -78 6 -104 35 -27 59 -26 89 4 37 36 34 88 -5 112 -19 11 -30 25 -30 39 0
41 11 54 45 54 40 0 42 -5 55 -121 8 -67 14 -88 31 -101 28 -24 64 -23 89 2
36 36 17 78 -20 45 -33 -30 -44 -14 -57 86 -10 81 -15 96 -38 116 -33 29 -84
30 -119 2z"/>
<path d="M5111 7391 c-25 -20 -50 -31 -89 -35 -67 -8 -122 -30 -122 -50 0 -20
18 -30 33 -18 7 6 35 14 63 17 l50 7 -4 -36 c-6 -55 6 -101 35 -130 36 -36 59
-33 105 14 38 38 40 43 35 88 -4 38 -12 53 -41 78 l-37 32 27 19 c28 21 26 43
-4 43 -9 0 -33 -13 -51 -29z"/>
<path d="M6106 7294 c-9 -9 -16 -24 -14 -33 6 -33 51 -41 215 -42 138 0 159 2
170 18 17 22 16 28 -3 47 -13 13 -43 16 -169 16 -84 0 -160 3 -168 6 -8 3 -22
-2 -31 -12z"/>
<path d="M8180 7189 c-48 -19 -70 -49 -70 -95 0 -38 -3 -43 -30 -53 -28 -9
-40 -34 -22 -45 5 -3 30 1 58 8 l49 12 -3 56 c-4 62 9 78 62 78 51 0 77 -84
34 -112 -35 -24 -17 -48 36 -48 49 0 68 16 43 35 -12 8 -17 27 -17 60 0 40 -5
52 -34 81 -35 35 -61 41 -106 23z"/>
<path d="M5220 7034 c-47 -12 -108 -23 -137 -23 -69 -1 -104 -36 -71 -69 18
-18 115 -14 209 9 96 24 129 41 129 69 0 16 -29 43 -42 39 -2 -1 -41 -12 -88
-25z"/>
<path d="M7011 6957 c-22 -27 -4 -55 42 -68 54 -14 345 -28 375 -18 23 9 28
33 13 58 -6 9 -53 15 -172 22 -90 4 -182 11 -204 15 -31 4 -44 2 -54 -9z"/>
<path d="M5349 6773 c-38 -40 -59 -47 -154 -53 -71 -4 -90 -8 -90 -20 0 -10
16 -18 45 -24 25 -5 46 -10 48 -12 2 -1 9 -27 17 -59 l13 -56 -37 -23 c-47
-30 -65 -52 -57 -71 7 -20 35 -19 43 0 12 34 153 85 233 85 20 0 30 5 30 14 0
19 -14 27 -50 28 -17 1 -30 2 -30 3 0 1 -5 26 -10 57 -10 54 -10 56 20 88 16
18 30 38 30 45 0 24 -28 23 -51 -2z"/>
<path d="M6323 6726 c-17 -14 -33 -39 -36 -56 -8 -40 -23 -38 -37 5 -14 42
-50 69 -80 60 -24 -8 -22 -24 6 -39 40 -23 46 -56 10 -56 -14 0 -28 -5 -31
-10 -10 -17 16 -41 36 -35 31 10 23 -35 -12 -71 -30 -31 -32 -54 -5 -54 23 0
86 78 86 106 0 14 4 23 10 19 6 -3 10 -15 10 -27 0 -29 64 -90 91 -86 31 4 35
26 7 37 -28 10 -43 27 -52 59 -7 20 -4 22 36 22 49 0 85 20 73 39 -5 9 -22 11
-56 6 -31 -4 -49 -3 -49 3 0 24 14 44 37 53 16 6 23 15 21 26 -5 27 -32 27
-65 -1z"/>
<path d="M8020 6716 c-6 -8 -10 -25 -8 -37 4 -28 48 -44 192 -69 124 -21 149
-16 144 27 -3 31 -15 35 -138 53 -47 7 -102 19 -124 26 -48 17 -51 17 -66 0z"/>
<path d="M7058 6604 c-31 -16 -47 -59 -29 -77 9 -9 16 -6 30 12 11 14 21 19
25 13 7 -12 2 -28 -26 -91 -20 -46 -18 -71 6 -71 15 0 53 73 63 122 8 41 29
55 36 23 3 -17 -6 -47 -26 -85 -25 -49 -29 -62 -18 -72 17 -17 44 15 83 100
17 34 34 62 39 62 14 0 11 -17 -12 -62 -11 -22 -23 -64 -26 -93 -5 -49 -8 -53
-47 -71 -22 -10 -41 -26 -41 -34 0 -17 18 -17 88 1 43 11 49 11 61 -6 16 -22
36 -12 36 19 0 13 7 37 16 55 9 18 18 58 21 89 5 49 2 60 -16 76 -11 11 -21
25 -21 31 0 24 -34 40 -109 51 -42 6 -83 14 -91 17 -8 3 -27 0 -42 -9z"/>
<path d="M8087 6558 c-40 -15 -32 -44 12 -40 37 3 38 8 -27 -86 -40 -57 -49
-92 -23 -92 11 0 22 11 81 84 25 31 46 52 48 47 2 -5 -15 -37 -37 -71 -47 -72
-57 -98 -43 -112 15 -15 27 -4 76 71 44 69 66 92 66 71 0 -6 -18 -32 -39 -58
-45 -54 -61 -89 -61 -136 0 -38 14 -53 57 -62 26 -5 37 0 70 29 32 30 36 39
27 54 -15 25 -32 22 -47 -7 -14 -29 -67 -42 -67 -16 0 27 23 70 65 121 23 28
45 59 48 69 9 22 -18 56 -43 56 -11 0 -20 10 -24 25 -4 15 -16 27 -31 31 -13
3 -29 12 -36 20 -13 16 -32 17 -72 2z"/>
<path d="M7901 6142 c-15 -29 12 -56 74 -76 104 -32 219 -57 249 -54 27 3 31
7 31 33 l0 30 -140 38 c-191 52 -201 53 -214 29z"/>
<path d="M6054 6071 c-43 -11 -54 -19 -54 -42 0 -12 7 -19 18 -19 17 0 20 -13
26 -139 7 -154 11 -173 35 -169 13 3 15 16 12 84 -2 67 0 82 13 87 9 4 16 13
16 21 0 8 10 22 22 30 43 31 48 23 48 -79 0 -90 1 -96 28 -126 23 -26 36 -32
71 -32 60 0 126 51 86 67 -9 3 -26 -1 -38 -9 -26 -18 -68 -20 -85 -3 -8 8 -12
46 -12 105 0 86 -2 96 -24 118 -21 21 -29 23 -56 15 -18 -5 -41 -17 -51 -26
-18 -16 -19 -15 -19 29 0 33 4 47 14 47 22 0 38 24 24 38 -13 13 -28 14 -74 3z"/>
<path d="M8013 5971 c-56 -22 -68 -34 -50 -50 10 -8 22 -9 41 -1 30 11 30 9
14 -37 -9 -24 -16 -32 -28 -27 -33 14 -58 15 -66 3 -5 -8 -1 -17 10 -23 53
-32 52 -29 31 -90 -10 -30 -16 -59 -11 -63 13 -13 38 12 55 54 14 36 19 40 35
31 30 -17 41 5 21 39 -17 29 -17 32 5 79 l22 49 27 -32 c29 -35 61 -44 61 -17
0 9 -16 36 -36 60 -41 49 -61 53 -131 25z"/>
<path d="M5245 5922 c-40 -25 -58 -49 -51 -67 8 -21 33 -19 45 4 12 21 60 41
101 41 34 0 60 -28 60 -66 -1 -41 -17 -65 -82 -120 -55 -46 -68 -67 -50 -78 5
-3 43 6 86 20 102 32 126 32 126 -1 0 -52 45 -107 64 -77 3 5 -2 33 -12 62
-12 37 -13 55 -6 57 48 16 54 53 8 53 -13 0 -24 6 -24 13 0 6 -5 29 -11 50 -8
31 -14 38 -29 34 -13 -3 -20 2 -24 18 -3 12 -18 34 -32 48 -23 23 -35 27 -83
27 -37 0 -66 -6 -86 -18z"/>
<path d="M6943 5894 c-78 -51 -111 -162 -67 -221 34 -45 117 -83 182 -83 101
0 198 69 209 149 12 87 -88 168 -219 178 -56 4 -68 2 -105 -23z m241 -73 c63
-61 38 -138 -56 -176 -67 -27 -143 -10 -200 43 -40 37 -34 98 15 150 21 22 28
23 114 20 89 -3 93 -4 127 -37z"/>
<path d="M7867 5534 c-4 -4 -7 -22 -7 -40 0 -19 -6 -34 -15 -38 -47 -18 -72
-137 -39 -185 26 -37 3 -48 -44 -21 -22 13 -47 20 -56 17 -29 -11 -17 -37 24
-53 45 -18 46 -21 23 -63 -15 -25 -16 -32 -5 -43 11 -11 17 -9 33 11 11 13 23
31 28 38 6 12 18 11 74 -8 36 -13 69 -20 74 -16 13 14 -12 39 -56 56 -23 10
-41 21 -39 26 2 4 33 7 70 6 63 -2 68 -1 101 32 35 36 51 82 41 122 -4 18 2
26 30 43 20 12 36 26 36 32 0 21 -30 21 -65 0 -37 -23 -55 -19 -78 17 -4 7
-25 16 -47 19 -30 5 -40 11 -42 28 -3 21 -28 33 -41 20z m139 -135 c45 -43 20
-123 -42 -135 -45 -8 -110 11 -124 36 -23 42 -2 101 44 121 33 14 95 3 122
-22z"/>
<path d="M5632 5378 c-20 -20 -15 -27 49 -68 82 -53 451 -196 689 -267 47 -14
89 -29 93 -33 6 -5 -10 -174 -18 -187 -1 -2 -60 29 -131 68 -198 109 -894 455
-942 470 -31 9 -46 9 -53 2 -17 -17 -5 -28 48 -48 68 -25 249 -114 613 -300
341 -174 460 -241 460 -255 0 -6 -57 -10 -139 -10 -175 0 -355 -23 -435 -55
-52 -21 -62 -22 -69 -10 -34 62 -152 202 -266 315 -137 137 -191 175 -214 151
-9 -10 -7 -16 11 -29 66 -47 168 -140 237 -215 76 -84 195 -235 195 -249 0 -4
-19 -17 -42 -29 -51 -25 -163 -108 -232 -171 -36 -32 -48 -49 -43 -61 14 -37
37 -29 109 35 111 98 167 134 279 183 133 56 209 69 439 69 277 1 374 -27 635
-183 55 -32 129 -83 164 -112 49 -39 68 -49 80 -42 27 17 22 30 -36 88 -108
108 -256 191 -478 267 -22 8 -64 32 -94 53 -52 37 -53 39 -47 77 4 22 9 66 13
99 3 33 9 61 12 63 3 2 56 -7 116 -20 271 -58 555 -92 973 -116 220 -12 243
-10 229 26 -5 13 -24 16 -94 16 -196 0 -661 40 -878 76 -116 19 -327 63 -334
69 -2 3 4 57 14 120 14 87 16 118 7 127 -16 16 -42 -8 -42 -41 0 -29 -28 -182
-35 -189 -5 -5 -152 40 -305 93 -203 71 -431 166 -479 200 -36 26 -50 32 -59
23z"/>
<path d="M5083 4908 c-6 -7 -13 -30 -17 -51 -5 -29 -3 -39 9 -43 8 -4 21 -1
29 5 20 17 70 -67 52 -89 -19 -24 -20 -133 -2 -172 35 -74 142 -94 218 -42 86
60 118 151 77 223 -12 23 -33 48 -46 56 -30 20 -107 21 -161 2 l-43 -15 -25
40 c-15 23 -23 47 -19 58 10 31 -51 54 -72 28z m311 -169 c44 -52 30 -117 -39
-178 -44 -38 -98 -42 -139 -10 -22 18 -26 28 -26 75 0 67 9 86 58 119 54 37
112 35 146 -6z"/>
<path d="M5985 4625 c-76 -17 -151 -46 -235 -92 -108 -59 -186 -129 -252 -225
-18 -26 -41 -50 -51 -54 -33 -11 -77 -56 -77 -79 0 -35 26 -49 100 -52 54 -2
78 -8 107 -27 21 -14 58 -32 83 -42 64 -24 66 -29 36 -65 -30 -35 -31 -62 -2
-67 12 -3 31 11 55 38 l37 43 42 -24 c34 -19 41 -28 36 -44 -16 -51 -16 -85 0
-91 23 -9 40 9 56 56 14 43 10 42 100 19 19 -5 47 -9 62 -9 17 0 29 -6 32 -17
33 -114 60 -450 51 -651 -9 -216 -26 -406 -41 -485 -8 -43 -12 -82 -9 -87 16
-26 41 5 57 70 32 134 50 762 27 941 -10 78 -10 90 5 104 10 11 16 34 16 66
l0 49 65 0 65 0 0 -50 c0 -27 -4 -82 -9 -122 -6 -40 -15 -131 -21 -203 -7 -71
-16 -150 -21 -175 -5 -25 -16 -103 -24 -175 -20 -166 -30 -222 -76 -449 -6
-32 -6 -53 0 -59 17 -17 39 12 50 66 33 163 63 337 75 447 8 69 20 157 26 195
6 39 15 115 20 170 5 55 14 157 21 227 l12 126 50 4 50 3 21 -45 c14 -31 28
-46 44 -48 31 -5 38 22 18 64 -12 26 -13 35 -3 38 6 2 48 15 91 30 l79 26 34
-27 c19 -16 45 -36 58 -47 13 -10 31 -16 39 -13 27 11 18 43 -24 81 l-40 36
38 16 c48 20 97 12 133 -22 31 -30 63 -29 67 2 2 15 -9 31 -33 52 l-36 29 63
45 c76 53 87 85 41 121 -15 12 -71 62 -123 112 -140 132 -311 222 -507 265
-106 24 -380 26 -478 5z m698 -144 c129 -66 165 -93 274 -198 l92 -90 -59 -42
c-57 -40 -172 -92 -323 -147 -102 -37 -208 -48 -392 -40 -88 4 -171 7 -184 6
-50 0 -194 41 -268 78 -43 21 -104 49 -135 61 -56 23 -57 23 -39 43 41 43 28
105 -30 151 l-34 27 57 54 c32 29 93 72 136 94 l79 41 -1 -107 c-1 -118 10
-168 52 -230 38 -57 85 -89 167 -115 135 -42 294 -17 383 59 109 93 167 258
128 367 -8 20 -11 37 -7 37 4 0 51 -22 104 -49z m-221 -134 c56 -32 56 -32 44
-62 -7 -16 -37 -55 -67 -87 -47 -49 -63 -59 -128 -78 -80 -24 -137 -22 -232 6
-53 16 -129 79 -129 108 0 9 19 37 41 61 48 52 84 60 99 20 12 -32 62 -57 117
-58 35 0 50 5 74 29 17 16 37 44 44 62 12 27 19 32 47 32 19 0 58 -14 90 -33z"/>
<path d="M7564 4589 c-6 -8 -16 -28 -22 -46 -8 -25 -8 -34 4 -44 11 -9 18 -8
33 5 17 16 20 14 45 -24 19 -29 24 -45 17 -58 -20 -38 -23 -100 -7 -134 23
-47 67 -70 145 -75 54 -3 72 -1 98 16 48 30 85 93 91 152 4 43 1 54 -19 76
-32 34 -91 60 -159 68 -51 6 -57 5 -79 -19 -31 -32 -33 -32 -53 2 -16 27 -16
29 4 41 18 11 19 14 6 28 -21 21 -91 29 -104 12z m313 -133 c16 -8 35 -22 42
-30 28 -34 -23 -143 -78 -166 -39 -16 -111 -6 -145 21 -44 35 -29 132 28 177
32 24 104 24 153 -2z"/>
<path d="M7137 4276 c-6 -16 355 -381 376 -381 37 0 0 47 -166 213 -101 100
-188 182 -194 182 -6 0 -13 -6 -16 -14z"/>
<path d="M5130 3453 c-56 -20 -96 -93 -91 -165 2 -31 61 -87 102 -98 32 -9 39
-15 39 -35 0 -21 -6 -25 -45 -31 -51 -7 -64 -19 -43 -40 10 -11 22 -12 48 -4
18 5 36 8 38 5 3 -3 8 -33 11 -67 4 -47 10 -63 21 -63 12 0 16 16 18 73 l3 72
38 0 c44 0 89 29 77 49 -5 7 -18 10 -30 8 -79 -18 -86 -19 -86 -3 0 10 9 16
23 16 24 0 85 56 106 97 6 12 11 39 11 59 0 32 -7 45 -50 86 -49 47 -51 48
-112 47 -35 0 -70 -3 -78 -6z m162 -73 c40 -43 45 -58 27 -93 -24 -46 -52 -67
-88 -67 -94 0 -158 46 -147 105 10 49 39 79 82 86 78 12 86 10 126 -31z"/>
<path d="M7280 3215 c-6 -8 -9 -19 -5 -24 9 -16 -14 -130 -33 -159 -30 -45
-91 -82 -137 -82 -35 0 -44 -4 -48 -22 -3 -12 -4 -25 -1 -30 3 -4 44 -8 91 -8
77 0 91 3 145 32 73 39 115 88 124 144 8 55 -9 89 -64 131 -49 37 -55 39 -72
18z"/>
</g>
</svg>
