<?xml version="1.0" standalone="no"?>
<!DOCTYPE svg PUBLIC "-//W3C//DTD SVG 20010904//EN"
 "http://www.w3.org/TR/2001/REC-SVG-20010904/DTD/svg10.dtd">
<svg version="1.0" xmlns="http://www.w3.org/2000/svg"
 width="1259.000000pt" height="213.000000pt" viewBox="0 0 1259.000000 213.000000"
 preserveAspectRatio="xMidYMid meet">
<metadata>
Created by potrace 1.16, written by Peter Selinger 2001-2019
</metadata>
<g transform="translate(0.000000,213.000000) scale(0.100000,-0.100000)"
fill="#000000" stroke="none">
<path d="M601 1456 c-68 -71 -81 -88 -72 -103 5 -10 44 -52 85 -93 56 -55 74
-79 70 -93 -3 -10 0 -59 7 -110 11 -87 28 -127 53 -127 14 0 516 502 516 516
0 6 -8 18 -18 27 -17 16 -28 14 -173 -33 -85 -27 -162 -55 -173 -61 -16 -9
-30 1 -105 75 -48 47 -91 86 -97 86 -6 0 -48 -38 -93 -84z m179 -41 l75 -75
-66 -66 -66 -66 -26 28 c-22 24 -24 30 -12 37 8 4 15 14 15 22 0 23 -20 28
-39 11 -15 -14 -20 -14 -29 -3 -9 11 -5 20 18 42 23 22 27 31 18 42 -9 11 -17
8 -43 -17 -25 -25 -34 -28 -43 -18 -8 10 4 28 49 76 33 34 63 62 67 62 4 0 41
-34 82 -75z m203 -207 c-128 -128 -235 -230 -238 -227 -3 3 -10 43 -17 88
l-11 82 98 99 98 98 136 46 c75 25 143 45 151 46 8 0 -89 -104 -217 -232z"/>
<path d="M2630 1506 c-80 -24 -199 -81 -240 -114 l-25 -21 42 -83 c65 -128 61
-125 108 -87 178 143 418 125 360 -27 -25 -65 -56 -101 -377 -430 l-108 -111
0 -60 c0 -33 3 -75 6 -92 l7 -31 403 0 404 0 0 115 0 115 -226 0 -227 0 164
168 c215 220 266 306 256 425 -10 110 -89 198 -213 237 -93 28 -233 27 -334
-4z"/>
<path d="M3680 985 l0 -535 125 0 125 0 2 337 3 337 135 -282 135 -283 93 3
93 3 132 276 132 276 3 -334 2 -333 125 0 125 0 0 535 0 535 -153 0 -153 0
-154 -311 -155 -312 -153 312 -154 311 -154 0 -154 0 0 -535z"/>
<path d="M5771 1493 c-43 -91 -441 -1026 -441 -1034 0 -6 57 -8 141 -7 l142 3
36 92 36 93 231 0 231 0 37 -95 38 -95 148 0 149 0 -16 38 c-8 20 -72 172
-141 337 -69 165 -162 388 -207 495 l-81 195 -145 3 -146 3 -12 -28z m221
-449 c37 -97 65 -180 62 -185 -7 -12 -274 -6 -275 6 0 15 133 355 140 355 3 0
36 -79 73 -176z"/>
<path d="M6930 985 l0 -535 140 0 140 0 0 150 0 150 104 0 105 0 78 -150 78
-150 158 0 c124 0 157 3 151 13 -4 6 -54 86 -111 176 -58 89 -103 164 -101
165 114 66 172 159 184 294 16 169 -55 306 -193 373 -87 42 -143 48 -445 49
l-288 0 0 -535z m591 287 c45 -28 69 -75 69 -137 0 -62 -24 -109 -69 -137 -32
-20 -52 -23 -173 -26 l-138 -4 0 167 0 167 138 -4 c121 -3 141 -6 173 -26z"/>
<path d="M8360 985 l0 -535 140 0 140 0 0 138 1 137 64 70 c35 38 66 68 68 65
3 -3 66 -96 141 -207 l137 -203 165 0 c90 0 164 2 164 5 0 3 -90 140 -200 304
-110 164 -202 304 -205 312 -5 13 79 112 304 358 l83 91 -163 0 -164 0 -195
-226 -195 -226 -3 226 -2 226 -140 0 -140 0 0 -535z"/>
<path d="M9820 985 l0 -535 428 2 427 3 3 108 3 107 -258 1 c-142 1 -271 2
-288 3 l-30 1 -3 103 -3 102 256 0 255 0 0 110 0 110 -255 0 -255 0 0 100 0
100 280 0 280 0 0 110 0 110 -420 0 -420 0 0 -535z"/>
<path d="M11070 1405 l0 -115 160 0 160 0 0 -420 0 -420 140 0 140 0 0 420 0
420 160 0 160 0 0 115 0 115 -460 0 -460 0 0 -115z"/>
<path d="M1033 1155 c-139 -140 -253 -258 -253 -263 0 -5 8 -16 18 -25 22 -20
211 -51 227 -37 7 6 74 -54 201 -181 104 -105 197 -195 207 -200 15 -9 32 3
103 72 46 45 84 87 84 93 0 6 -90 101 -200 211 -124 123 -196 203 -191 209 5
6 32 84 62 173 52 159 53 162 35 182 -11 12 -24 21 -30 21 -6 -1 -125 -115
-263 -255z m218 54 l-48 -144 -101 -101 -100 -101 -74 9 c-40 5 -80 11 -87 14
-10 3 65 85 219 239 129 129 235 233 237 231 1 -1 -19 -67 -46 -147z m319
-589 c0 -7 -77 -88 -106 -113 -21 -18 -23 -18 -53 15 l-30 33 24 25 c46 48 25
75 -25 34 -23 -20 -34 -24 -42 -16 -9 9 -7 17 7 32 16 18 16 20 1 26 -9 3 -23
1 -32 -6 -11 -10 -18 -10 -26 -2 -9 9 -5 19 15 40 49 51 24 73 -31 27 -22 -18
-32 -21 -40 -13 -9 9 -8 16 5 30 24 27 1 49 -25 25 -16 -15 -21 -15 -30 -4 -9
11 -6 19 13 37 25 24 32 45 17 54 -4 3 -22 -8 -39 -24 -27 -25 -33 -27 -43
-14 -10 12 -9 18 5 34 16 18 16 20 1 26 -9 3 -23 1 -32 -6 -11 -10 -18 -10
-27 -1 -8 8 4 27 53 76 l65 65 187 -187 c103 -104 188 -190 188 -193z"/>
</g>
</svg>
