<?xml version="1.0" standalone="no"?>
<!DOCTYPE svg PUBLIC "-//W3C//DTD SVG 20010904//EN"
 "http://www.w3.org/TR/2001/REC-SVG-20010904/DTD/svg10.dtd">
<svg version="1.0" xmlns="http://www.w3.org/2000/svg"
 width="788.000000pt" height="112.000000pt" viewBox="0 0 788.000000 112.000000"
 preserveAspectRatio="xMidYMid meet">
<metadata>
Created by potrace 1.16, written by Peter Selinger 2001-2019
</metadata>
<g transform="translate(0.000000,112.000000) scale(0.100000,-0.100000)"
fill="#000000" stroke="none">
<path d="M604 682 c-54 -64 -102 -121 -106 -127 -4 -5 -46 -56 -94 -113 -51
-62 -83 -109 -80 -118 9 -24 22 -16 71 44 83 100 57 92 316 92 l228 0 35 -37
c19 -21 50 -56 69 -77 20 -23 39 -36 45 -32 22 14 28 6 -126 185 -41 48 -86
100 -100 116 -15 17 -57 65 -94 107 l-66 76 -98 -116z m201 -63 c53 -61 95
-112 92 -115 -2 -2 -90 -3 -195 -2 l-190 3 91 112 c51 62 95 113 99 113 3 0
50 -50 103 -111z"/>
<path d="M3502 553 c3 -204 5 -238 18 -238 12 0 16 16 18 72 l3 73 172 -3 172
-2 107 -73 c100 -68 128 -79 128 -49 0 7 -34 34 -75 62 -41 27 -75 52 -75 56
0 4 14 9 32 13 19 4 49 24 75 51 39 41 43 50 43 95 0 81 -26 127 -92 161 -34
17 -60 19 -283 19 l-245 0 2 -237z m513 174 c22 -12 45 -34 52 -47 29 -57 5
-137 -49 -166 -17 -10 -85 -13 -250 -14 l-228 0 0 118 c0 65 3 122 7 125 3 4
101 7 217 7 200 0 213 -1 251 -23z"/>
<path d="M4250 550 l0 -240 310 0 c303 0 310 0 310 20 0 20 -7 20 -290 20
l-290 0 0 90 0 90 290 0 c283 0 290 0 290 20 0 20 -7 20 -290 20 l-290 0 0 90
0 90 290 0 c283 0 290 0 290 20 0 20 -7 20 -310 20 l-310 0 0 -240z"/>
<path d="M6225 684 c-49 -58 -101 -120 -115 -137 -14 -17 -58 -69 -97 -116
-40 -47 -73 -91 -73 -98 0 -26 24 -25 48 3 13 16 44 50 67 77 l42 47 229 0
229 1 72 -78 c57 -62 74 -75 84 -66 10 10 9 16 -3 30 -8 10 -57 68 -108 128
-214 253 -269 315 -279 315 -4 0 -47 -48 -96 -106z m162 -21 c32 -38 76 -89
97 -115 l38 -48 -196 0 c-108 0 -196 2 -196 5 0 3 8 13 18 24 9 10 51 59 92
109 41 50 78 91 81 91 4 1 34 -29 66 -66z"/>
<path d="M7029 786 c-2 -2 -2 -109 1 -238 4 -198 7 -233 20 -233 12 0 16 16
18 73 l3 72 162 0 163 0 115 -75 c62 -41 117 -75 121 -75 4 0 10 5 14 12 8 12
-13 31 -103 92 l-57 40 34 9 c53 13 96 52 115 102 32 82 -3 167 -82 205 -39
18 -63 20 -281 20 -131 0 -241 -2 -243 -4z m508 -49 c43 -24 68 -68 68 -120 0
-45 -4 -52 -39 -83 l-39 -34 -229 0 -228 0 0 125 0 125 223 0 c155 -1 229 -4
244 -13z"/>
<path d="M1237 773 c-4 -3 -7 -109 -7 -235 l0 -228 308 0 c170 0 312 3 315 7
4 3 2 12 -4 20 -9 10 -69 13 -290 13 -216 0 -279 3 -279 13 -1 6 0 96 0 198 0
102 -2 193 -6 202 -6 17 -25 22 -37 10z"/>
<path d="M1990 758 c0 -13 -1 -119 -3 -236 l-2 -212 310 2 c268 3 310 5 310
18 0 13 -40 15 -287 18 l-288 2 -1 188 c-1 103 -1 191 0 196 1 4 -1 17 -4 27
-9 27 -35 24 -35 -3z"/>
<path d="M2740 615 c0 -146 2 -170 20 -205 38 -74 136 -111 296 -112 120 0
201 23 257 72 l42 38 3 187 c3 176 2 187 -15 183 -16 -3 -18 -19 -23 -173 -3
-94 -9 -178 -14 -187 -4 -10 -33 -30 -64 -45 -54 -26 -65 -28 -192 -28 -124 0
-139 2 -184 25 -77 39 -81 49 -84 242 -3 158 -5 168 -23 168 -18 0 -19 -9 -19
-165z"/>
<path d="M5200 547 c0 -192 3 -236 14 -240 8 -3 17 -3 20 0 3 4 6 53 6 110 l0
103 270 0 270 0 0 -97 c0 -100 10 -137 30 -117 7 7 9 88 8 240 -3 196 -5 229
-18 229 -12 0 -16 -20 -18 -107 l-3 -108 -269 0 -269 0 -3 107 c-3 93 -5 108
-20 111 -17 3 -18 -13 -18 -231z"/>
<path d="M6852 548 c3 -199 5 -233 18 -233 13 0 15 34 18 233 2 228 2 232 -18
232 -20 0 -20 -4 -18 -232z"/>
</g>
</svg>
