<?xml version="1.0" standalone="no"?>
<!DOCTYPE svg PUBLIC "-//W3C//DTD SVG 20010904//EN"
 "http://www.w3.org/TR/2001/REC-SVG-20010904/DTD/svg10.dtd">
<svg version="1.0" xmlns="http://www.w3.org/2000/svg"
 width="639.000000pt" height="131.000000pt" viewBox="0 0 639.000000 131.000000"
 preserveAspectRatio="xMidYMid meet">
<metadata>
Created by potrace 1.16, written by Peter Selinger 2001-2019
</metadata>
<g transform="translate(0.000000,131.000000) scale(0.100000,-0.100000)"
fill="#000000" stroke="none">
<path d="M450 854 c-62 -27 -113 -91 -121 -154 -4 -22 0 -25 24 -25 24 0 31 6
42 38 36 106 160 141 234 66 26 -25 34 -28 51 -19 15 8 18 15 11 28 -12 22
-50 56 -78 71 -31 16 -122 13 -163 -5z"/>
<path d="M780 644 l0 -225 28 3 27 3 3 223 2 222 -30 0 -30 0 0 -226z"/>
<path d="M1080 775 l0 -95 -100 0 -100 0 0 -25 0 -25 100 0 100 0 0 -106 0
-105 28 3 27 3 3 223 2 222 -30 0 -30 0 0 -95z"/>
<path d="M1240 800 l0 -70 30 0 c29 0 30 2 30 45 l0 45 120 0 120 0 0 25 0 25
-150 0 -150 0 0 -70z"/>
<path d="M1622 648 l3 -223 28 -3 27 -3 0 80 c0 80 0 81 25 81 14 0 25 5 25
10 0 6 -11 22 -25 36 -23 23 -25 33 -25 111 l0 85 80 -4 c99 -4 125 -23 125
-92 0 -58 -25 -86 -77 -86 -21 0 -38 -3 -38 -7 0 -5 29 -53 64 -108 57 -90 66
-100 96 -103 40 -4 39 -2 -25 98 -43 68 -45 73 -28 86 10 7 21 14 25 14 13 0
48 78 48 105 0 37 -23 86 -54 115 -26 23 -35 25 -152 28 l-124 4 2 -224z"/>
<path d="M2232 753 c-38 -65 -74 -128 -81 -140 -6 -12 -11 -61 -11 -108 l0
-86 28 3 c27 3 27 4 32 93 l5 90 78 128 c42 71 77 131 77 133 0 2 -13 4 -29 4
-27 0 -35 -10 -99 -117z"/>
<path d="M2560 644 l0 -225 28 3 27 3 3 223 2 222 -30 0 -30 0 0 -226z"/>
<path d="M2720 854 c0 -8 75 -109 168 -225 128 -160 172 -209 190 -209 l22 0
0 225 0 225 -30 0 -30 0 -2 -167 -3 -167 -133 167 c-107 135 -138 167 -157
167 -16 0 -25 -6 -25 -16z"/>
<path d="M3254 851 c-45 -27 -64 -59 -64 -107 0 -63 25 -86 127 -118 112 -36
133 -49 133 -85 0 -44 -31 -64 -99 -64 -44 0 -69 6 -106 26 -45 26 -48 26 -61
10 -7 -10 -12 -22 -11 -28 6 -20 98 -57 157 -62 110 -10 182 38 182 123 0 67
-35 97 -152 128 -86 23 -110 40 -110 74 0 33 8 45 37 61 32 16 92 13 139 -8
31 -14 45 -16 53 -8 21 21 11 38 -31 57 -58 26 -152 27 -194 1z"/>
<path d="M3580 737 c0 -158 14 -218 63 -265 30 -29 89 -56 100 -46 12 12 -8
51 -33 66 -57 33 -65 57 -68 225 l-4 153 -29 0 -29 0 0 -133z"/>
<path d="M3900 725 c0 -166 -14 -212 -70 -236 -23 -11 -30 -20 -30 -42 0 -25
3 -27 23 -21 110 34 137 93 137 307 l0 137 -30 0 -30 0 0 -145z"/>
<path d="M4060 645 l0 -225 30 0 30 0 0 80 c0 79 0 80 25 80 14 0 25 2 25 5 0
16 -26 55 -37 55 -10 0 -13 22 -13 91 l0 91 80 -4 c101 -4 126 -23 124 -95 -1
-55 -28 -83 -80 -83 -39 0 -42 -10 -15 -48 11 -15 40 -60 65 -99 40 -64 49
-73 76 -73 16 0 30 2 30 6 0 3 -23 42 -52 86 -30 47 -47 83 -41 85 37 13 83
86 83 133 0 35 -39 100 -73 120 -27 17 -50 20 -144 20 l-113 0 0 -225z"/>
<path d="M4518 652 c-49 -120 -88 -221 -88 -225 0 -5 12 -7 27 -5 30 3 31 6
148 311 l53 137 -26 0 c-26 0 -31 -11 -114 -218z"/>
<path d="M4900 851 c0 -11 73 -111 163 -223 132 -163 168 -203 188 -203 l24 0
3 223 2 222 -30 0 -30 0 -2 -171 -3 -172 -135 172 c-103 131 -140 171 -157
171 -16 0 -23 -6 -23 -19z"/>
<path d="M5475 853 c-48 -25 -82 -62 -105 -114 -23 -54 -20 -69 13 -69 17 0
28 13 47 53 34 71 79 100 143 94 37 -3 56 -12 81 -37 29 -27 37 -30 55 -21 16
9 19 16 12 29 -12 22 -50 56 -78 71 -32 16 -133 13 -168 -6z"/>
<path d="M5810 800 l0 -70 30 0 c29 0 30 2 30 45 l0 45 120 0 120 0 0 25 0 25
-150 0 -150 0 0 -70z"/>
<path d="M4665 767 c-5 -24 1 -52 19 -97 14 -35 26 -65 26 -66 0 -2 -26 -4
-57 -6 -51 -3 -58 -6 -61 -25 -3 -22 0 -23 66 -23 l70 0 24 -62 c20 -54 28
-63 51 -66 19 -2 27 1 27 13 0 22 -142 365 -151 365 -5 0 -11 -15 -14 -33z"/>
<path d="M2722 583 l3 -158 28 -3 27 -3 0 127 c0 116 -2 131 -22 161 -13 18
-26 33 -31 33 -4 0 -6 -71 -5 -157z"/>
<path d="M4900 579 l0 -160 28 3 27 3 3 119 c3 113 1 121 -23 158 -14 21 -27
38 -30 38 -3 0 -5 -72 -5 -161z"/>
<path d="M1240 605 l0 -75 30 0 c29 0 30 1 30 50 l0 50 105 0 105 0 0 25 0 25
-135 0 -135 0 0 -75z"/>
<path d="M5810 605 l0 -75 30 0 c29 0 30 1 30 50 l0 50 104 0 103 0 -5 25 -4
25 -129 0 -129 0 0 -75z"/>
<path d="M330 605 c0 -27 30 -89 58 -119 82 -87 221 -85 295 4 l28 33 -22 15
c-20 14 -23 14 -38 -5 -41 -49 -113 -71 -164 -49 -40 17 -82 62 -94 101 -7 22
-17 31 -36 33 -19 2 -27 -1 -27 -13z"/>
<path d="M5355 598 c54 -175 232 -233 350 -116 l39 40 -27 15 c-26 13 -29 12
-53 -16 -31 -38 -85 -54 -134 -41 -42 11 -93 62 -107 105 -8 24 -16 31 -42 33
-30 3 -32 2 -26 -20z"/>
<path d="M1242 453 l3 -28 150 0 150 0 0 25 0 25 -153 3 -153 3 3 -28z"/>
<path d="M5810 450 l0 -30 150 0 150 0 0 30 0 30 -150 0 -150 0 0 -30z"/>
</g>
</svg>
