<?xml version="1.0" standalone="no"?>
<!DOCTYPE svg PUBLIC "-//W3C//DTD SVG 20010904//EN"
 "http://www.w3.org/TR/2001/REC-SVG-20010904/DTD/svg10.dtd">
<svg version="1.0" xmlns="http://www.w3.org/2000/svg"
 width="822.000000pt" height="229.000000pt" viewBox="0 0 822.000000 229.000000"
 preserveAspectRatio="xMidYMid meet">
<metadata>
Created by potrace 1.16, written by Peter Selinger 2001-2019
</metadata>
<g transform="translate(0.000000,229.000000) scale(0.100000,-0.100000)"
fill="#000000" stroke="none">
<path d="M2080 1919 c-19 -6 -106 -11 -192 -12 -157 -1 -158 -1 -158 -24 0
-18 6 -23 25 -23 14 0 39 -13 57 -29 l33 -29 0 -660 c0 -637 -1 -661 -19 -681
-11 -12 -37 -24 -58 -27 -30 -5 -38 -11 -38 -28 0 -21 1 -21 257 -19 142 2
259 6 260 10 5 14 -11 28 -42 38 -19 6 -37 23 -48 45 -16 32 -17 66 -15 370 3
330 3 336 27 380 42 80 87 110 167 110 59 0 82 -13 100 -57 22 -51 21 -771 -1
-813 -15 -29 -33 -40 -67 -40 -14 0 -19 -6 -16 -20 3 -20 9 -21 238 -21 129 0
245 0 258 0 33 1 31 41 -3 41 -37 0 -71 19 -86 49 -11 20 -15 114 -20 396 -4
252 -9 382 -18 408 -18 54 -63 101 -123 127 -45 19 -65 22 -152 18 -84 -3
-111 -9 -163 -32 -57 -26 -77 -43 -127 -111 -14 -18 -15 15 -16 313 0 259 -3
332 -12 331 -7 -1 -29 -5 -48 -10z"/>
<path d="M4240 1911 c-97 -32 -159 -76 -209 -148 -28 -42 -57 -156 -66 -265
l-7 -88 -65 0 c-61 0 -64 -1 -61 -22 3 -21 9 -23 66 -26 l63 -3 -3 -438 c-3
-417 -4 -440 -22 -460 -11 -12 -37 -24 -58 -27 -30 -5 -38 -11 -38 -28 0 -21
1 -21 298 -20 286 0 297 1 297 20 0 15 -10 20 -55 27 -33 5 -64 18 -78 30 -52
48 -52 47 -52 487 l0 410 105 0 105 0 0 25 0 25 -106 0 -106 0 4 178 c4 152 7
184 25 224 29 64 97 95 157 72 24 -9 19 -20 -19 -43 -73 -43 -87 -163 -27
-224 26 -26 40 -31 90 -35 71 -5 111 12 141 61 35 58 21 147 -32 206 -63 68
-235 99 -347 62z"/>
<path d="M5103 1920 c-192 -41 -303 -190 -303 -408 0 -101 -1 -102 -77 -102
-61 0 -64 -1 -61 -22 3 -21 9 -23 68 -26 l65 -3 -3 -247 c-6 -646 -5 -628 -26
-651 -11 -12 -37 -24 -58 -28 -31 -4 -38 -10 -36 -25 3 -19 15 -19 298 -20
281 -1 295 0 295 18 0 14 -11 20 -45 26 -70 12 -95 26 -118 67 -22 38 -22 48
-22 450 l0 411 105 0 105 0 0 25 0 25 -106 0 -107 0 5 178 c4 151 8 184 25
224 31 68 106 99 165 67 19 -11 19 -12 -18 -33 -92 -51 -100 -185 -15 -245 35
-25 118 -28 161 -6 38 20 70 74 70 119 0 44 -23 102 -53 135 -55 59 -207 94
-314 71z"/>
<path d="M3280 1911 c-73 -15 -115 -56 -125 -124 -15 -100 57 -177 166 -177
81 0 124 16 159 58 26 32 30 44 30 98 0 58 -2 64 -36 98 -20 20 -46 38 -58 40
-50 11 -103 13 -136 7z"/>
<path d="M770 1789 c-278 -70 -457 -270 -510 -566 -18 -98 -8 -306 18 -395 65
-219 202 -362 416 -435 73 -25 95 -27 226 -28 172 0 218 11 342 87 96 58 106
56 127 -21 10 -38 19 -51 33 -51 17 0 18 11 16 252 -3 233 -4 251 -21 254 -22
3 -32 -21 -41 -101 -14 -132 -58 -223 -138 -286 -95 -75 -120 -84 -238 -84
l-105 0 -60 40 c-33 22 -76 63 -97 90 -192 255 -177 899 25 1106 87 89 169
117 284 99 85 -14 148 -47 213 -111 64 -64 94 -126 115 -246 16 -87 19 -93 41
-93 l24 0 0 240 c0 232 -1 240 -20 240 -14 0 -22 -11 -31 -42 -21 -81 -36 -84
-117 -30 -69 45 -141 78 -202 92 -72 15 -217 10 -300 -11z"/>
<path d="M3425 1418 c-22 -6 -109 -11 -192 -12 -148 -1 -153 -2 -153 -22 0
-15 9 -23 37 -30 25 -6 45 -20 60 -43 23 -34 23 -34 23 -428 l0 -395 -29 -29
c-20 -19 -40 -29 -60 -29 -25 0 -31 -4 -31 -22 l0 -23 268 1 c256 2 267 2 270
21 2 16 -6 21 -44 29 -39 7 -50 15 -65 44 -18 32 -19 66 -19 492 0 360 -3 458
-12 457 -7 -1 -31 -6 -53 -11z"/>
<path d="M5891 1414 c-139 -37 -278 -149 -341 -274 -110 -217 -65 -471 110
-633 183 -170 468 -195 667 -59 105 72 188 180 217 283 89 315 -79 604 -399
688 -56 15 -190 12 -254 -5z m282 -49 c121 -32 246 -139 302 -258 80 -169 66
-344 -41 -494 -106 -149 -287 -228 -467 -204 -177 24 -328 138 -391 295 -56
139 -55 257 2 393 54 130 215 257 360 283 61 11 162 5 235 -15z"/>
<path d="M6077 933 c-4 -3 -7 -69 -7 -145 l0 -138 45 0 45 0 0 129 c0 71 -3
136 -6 145 -6 16 -64 23 -77 9z"/>
<path d="M5860 750 l0 -100 65 0 65 0 0 100 0 100 -65 0 -65 0 0 -100z"/>
<path d="M7180 1418 c-19 -5 -107 -11 -195 -13 -147 -3 -160 -5 -160 -22 0
-11 9 -19 24 -21 39 -6 68 -30 85 -73 23 -56 24 -751 1 -804 -14 -36 -46 -55
-91 -55 -17 0 -24 -5 -24 -20 0 -11 6 -20 13 -20 142 -5 503 2 510 9 12 12 0
31 -18 31 -30 0 -65 24 -75 53 -6 19 -10 155 -10 361 0 327 0 332 24 381 36
78 90 115 164 115 61 0 82 -10 102 -51 19 -36 20 -61 20 -409 0 -421 -2 -434
-64 -446 -26 -4 -36 -11 -36 -25 0 -18 12 -19 235 -21 129 -1 245 -2 258 -2
16 -1 22 5 22 19 0 15 -9 21 -38 26 -21 3 -48 17 -60 30 -22 23 -22 28 -27
404 l-5 380 -30 60 c-50 100 -116 129 -274 123 -73 -3 -107 -9 -141 -26 -53
-26 -100 -66 -126 -107 l-19 -29 -5 79 c-3 43 -9 79 -15 81 -5 1 -26 -2 -45
-8z"/>
</g>
</svg>
