<?xml version="1.0" standalone="no"?>
<!DOCTYPE svg PUBLIC "-//W3C//DTD SVG 20010904//EN"
 "http://www.w3.org/TR/2001/REC-SVG-20010904/DTD/svg10.dtd">
<svg version="1.0" xmlns="http://www.w3.org/2000/svg"
 width="840.000000pt" height="209.000000pt" viewBox="0 0 840.000000 209.000000"
 preserveAspectRatio="xMidYMid meet">
<metadata>
Created by potrace 1.16, written by Peter Selinger 2001-2019
</metadata>
<g transform="translate(0.000000,209.000000) scale(0.100000,-0.100000)"
fill="#000000" stroke="none">
<path d="M3855 1720 c-226 -36 -412 -165 -503 -352 -53 -109 -72 -199 -72
-343 0 -148 20 -249 71 -353 75 -153 204 -263 374 -319 106 -34 320 -44 437
-20 90 19 238 74 243 90 2 7 5 78 7 160 l3 147 -76 0 -76 0 -28 -129 c-32
-145 -28 -141 -133 -161 -167 -33 -314 44 -396 208 -51 101 -68 191 -69 362 0
180 14 261 66 372 48 102 93 150 183 195 67 33 83 37 152 36 85 0 147 -20 155
-50 3 -10 18 -71 32 -135 l27 -118 75 0 75 0 -4 156 c-3 139 -6 158 -23 170
-23 17 -111 50 -185 70 -68 19 -255 26 -335 14z"/>
<path d="M170 1637 l0 -54 72 -7 c39 -3 74 -9 77 -12 8 -8 7 -1071 0 -1079 -4
-3 -24 -8 -45 -11 -113 -15 -104 -8 -104 -71 l0 -56 353 6 c405 6 449 12 597
84 167 81 278 218 327 403 23 90 23 292 -1 380 -50 181 -154 314 -306 388
-151 74 -159 75 -587 80 l-383 3 0 -54z m694 -85 c108 -37 194 -152 233 -308
25 -105 23 -353 -5 -457 -55 -204 -163 -304 -339 -315 l-83 -5 0 558 0 558 73
-7 c39 -4 94 -14 121 -24z"/>
<path d="M1692 1638 c2 -38 7 -53 18 -55 8 -1 40 -5 71 -8 l57 -6 5 -417 c5
-450 9 -488 63 -593 81 -160 234 -239 462 -239 276 0 435 116 504 367 20 73
22 106 26 479 l4 401 45 7 c25 3 63 6 84 6 l39 0 0 55 0 55 -245 0 -245 0 0
-42 c0 -24 4 -48 8 -54 4 -6 46 -15 95 -19 l87 -7 0 -363 c0 -389 -8 -476 -51
-559 -48 -94 -136 -146 -248 -146 -81 0 -143 24 -191 73 -51 53 -76 119 -89
240 -12 106 -15 521 -5 664 l7 91 81 8 81 9 3 53 3 52 -336 0 -336 0 3 -52z"/>
<path d="M5137 1528 c-30 -90 -107 -316 -172 -503 -64 -187 -130 -380 -147
-430 -16 -49 -34 -95 -39 -101 -5 -7 -38 -15 -72 -18 -84 -9 -89 -13 -85 -72
l3 -49 210 0 210 0 3 52 c3 58 5 57 -85 68 -29 4 -55 11 -58 15 -3 4 12 63 32
129 l38 121 210 0 210 0 38 -127 c41 -135 40 -142 -13 -143 -14 0 -42 -3 -62
-6 l-38 -7 0 -53 0 -54 310 0 310 0 0 54 0 54 -59 7 -60 7 -16 46 c-28 81
-274 798 -338 990 l-62 182 -107 0 -106 0 -55 -162z m137 -413 c42 -132 76
-243 76 -248 0 -4 -75 -7 -166 -7 -154 0 -166 1 -161 18 34 123 163 499 168
489 4 -6 41 -120 83 -252z"/>
<path d="M6010 1500 l0 -190 80 0 c74 0 80 1 85 23 4 21 35 232 35 242 0 3 52
5 115 5 l115 0 0 -549 0 -550 -57 -6 c-132 -14 -124 -9 -121 -68 l3 -52 348
-3 347 -3 0 55 c0 62 8 57 -122 71 l-58 6 0 550 0 549 114 0 114 0 6 -27 c3
-16 10 -64 16 -108 20 -149 10 -135 101 -135 l79 0 0 190 0 190 -600 0 -600 0
0 -190z"/>
<path d="M7470 1636 l0 -54 74 -7 74 -7 7 -206 c7 -196 1 -869 -8 -879 -3 -2
-22 -6 -43 -9 -112 -15 -104 -10 -104 -63 0 -35 4 -51 16 -55 9 -3 155 -6 325
-6 l309 0 0 54 c0 59 -8 65 -75 66 -16 0 -40 3 -52 6 l-23 6 0 543 0 543 75 7
75 7 0 54 0 54 -325 0 -325 0 0 -54z"/>
</g>
</svg>
