<?xml version="1.0" standalone="no"?>
<!DOCTYPE svg PUBLIC "-//W3C//DTD SVG 20010904//EN"
 "http://www.w3.org/TR/2001/REC-SVG-20010904/DTD/svg10.dtd">
<svg version="1.0" xmlns="http://www.w3.org/2000/svg"
 width="894.000000pt" height="547.000000pt" viewBox="0 0 894.000000 547.000000"
 preserveAspectRatio="xMidYMid meet">
<metadata>
Created by potrace 1.16, written by Peter Selinger 2001-2019
</metadata>
<g transform="translate(0.000000,547.000000) scale(0.100000,-0.100000)"
fill="#000000" stroke="none">
<path d="M4405 4773 c-44 -21 -86 -44 -93 -50 -7 -7 -19 -13 -26 -13 -8 0 -20
-7 -27 -16 -7 -9 -22 -20 -34 -25 -88 -39 -213 -168 -266 -274 -67 -137 -65
-286 7 -425 19 -35 34 -68 34 -73 0 -16 130 -167 226 -262 52 -51 94 -95 94
-98 0 -3 16 -23 35 -44 19 -20 42 -52 52 -70 10 -18 21 -33 25 -33 5 0 8 -9 8
-20 0 -12 10 -40 22 -63 18 -35 21 -59 21 -144 0 -86 -5 -114 -29 -180 -15
-43 -34 -89 -41 -103 -8 -15 -9 -28 -3 -34 12 -12 61 20 67 45 3 10 13 19 22
19 37 0 281 267 281 307 0 7 5 13 10 13 6 0 10 7 10 15 0 9 7 26 15 39 9 13
22 59 31 102 17 91 7 190 -26 260 -11 22 -20 43 -20 47 0 4 -22 42 -50 84 -27
42 -50 81 -50 85 0 4 -6 8 -14 8 -8 0 -18 9 -21 20 -3 11 -11 20 -16 20 -5 0
-9 4 -9 8 0 5 -26 35 -57 69 -79 83 -103 112 -103 128 0 8 -5 17 -11 21 -14 8
-62 115 -78 176 -28 102 6 308 66 397 39 58 54 101 36 101 -5 0 -44 -17 -88
-37z"/>
<path d="M4531 4715 c-16 -25 -34 -60 -41 -78 -7 -17 -19 -48 -28 -67 -9 -19
-18 -73 -20 -120 -3 -68 0 -98 17 -147 12 -34 21 -69 21 -77 0 -8 6 -21 13
-28 13 -14 45 -58 62 -87 19 -33 64 -81 74 -81 6 0 11 -5 11 -11 0 -7 19 -33
43 -58 81 -88 123 -147 159 -221 7 -14 15 -27 19 -30 18 -16 59 -182 59 -242
0 -81 -41 -212 -88 -282 -30 -45 -39 -66 -26 -66 14 0 93 52 119 80 16 16 32
30 36 30 11 0 44 35 99 101 25 29 47 56 50 59 11 11 50 88 69 140 31 81 29
202 -4 308 -14 44 -32 86 -40 92 -8 7 -15 17 -15 22 0 24 -183 238 -205 238
-2 0 -15 10 -27 23 -13 12 -45 40 -72 62 -83 69 -176 166 -176 184 0 7 -7 22
-15 34 -26 41 -45 120 -45 195 0 42 -4 72 -10 72 -6 0 -23 -20 -39 -45z"/>
<path d="M3890 3775 c-38 -157 -15 -330 57 -440 25 -38 88 -105 99 -105 8 0
101 -78 155 -130 56 -54 119 -164 119 -208 0 -45 12 -40 38 16 47 100 62 162
62 253 0 73 -5 101 -27 156 -15 38 -37 79 -50 93 -13 14 -23 28 -23 32 0 4
-18 26 -40 50 -22 24 -40 46 -40 51 0 4 -7 7 -15 7 -8 0 -15 6 -15 13 0 8 -11
20 -25 27 -14 7 -25 16 -25 19 0 3 -36 44 -80 91 -44 47 -80 90 -80 96 0 6 -9
19 -20 29 -11 10 -20 24 -20 32 0 7 -10 13 -24 13 -21 0 -25 -8 -46 -95z"/>
<path d="M2798 2425 c-2 -3 -143 -6 -312 -7 -255 -3 -308 -5 -316 -18 -15 -24
-1 -30 70 -30 38 0 71 -4 75 -9 3 -6 5 -427 5 -938 l0 -928 -47 -3 c-74 -4
-93 -10 -93 -31 0 -13 9 -21 28 -24 22 -4 731 -3 755 2 4 0 7 10 7 21 0 22
-19 28 -95 32 l-50 3 -5 962 c-3 529 -8 964 -11 967 -3 3 -8 4 -11 1z"/>
<path d="M610 2281 c-18 -5 -25 -14 -25 -31 0 -24 3 -25 73 -28 l72 -3 -2
-857 -3 -857 -67 -3 c-57 -2 -70 -6 -79 -24 -23 -44 -10 -45 493 -43 260 2
480 3 489 4 25 2 31 39 9 51 -10 6 -79 10 -154 10 -74 0 -141 3 -150 6 -14 5
-16 49 -16 393 0 212 4 391 8 397 9 14 161 0 217 -21 45 -17 125 -87 125 -110
0 -8 4 -15 8 -15 10 0 29 -46 57 -140 23 -74 47 -100 65 -69 5 7 9 180 9 384
1 333 0 374 -15 386 -14 11 -18 11 -30 -6 -8 -10 -14 -31 -14 -47 0 -15 -4
-28 -9 -28 -5 0 -12 -13 -16 -30 -4 -16 -17 -45 -31 -65 -13 -20 -24 -42 -24
-50 0 -8 -6 -15 -13 -15 -8 0 -24 -12 -38 -26 -48 -51 -110 -74 -203 -74 -80
0 -86 1 -91 23 -3 12 -4 202 -3 422 l3 400 74 3 c79 3 258 -21 271 -37 3 -3
22 -14 42 -25 48 -24 123 -98 163 -161 35 -54 95 -178 95 -195 0 -5 4 -10 9
-10 5 0 11 -12 13 -27 4 -31 17 -38 40 -21 14 11 15 27 8 128 -5 63 -9 178 -9
256 l-1 141 -25 11 c-29 13 -1279 16 -1325 3z"/>
<path d="M3545 1709 c-49 -6 -127 -26 -180 -45 -39 -14 -96 -58 -126 -98 -72
-95 -73 -254 -1 -328 44 -47 87 -61 177 -61 86 -1 129 17 184 74 l41 43 0 81
c0 109 -6 125 -41 125 -36 0 -51 27 -47 87 4 61 36 87 108 87 106 0 130 -69
137 -390 l5 -221 -148 -7 c-202 -9 -335 -35 -404 -77 -8 -5 -21 -12 -29 -16
-26 -12 -50 -41 -77 -94 -23 -47 -25 -60 -22 -148 5 -145 44 -214 150 -264
100 -47 231 -60 351 -35 68 14 127 58 158 119 10 21 22 39 26 39 11 0 32 -34
33 -52 0 -10 5 -18 10 -18 6 0 21 -10 33 -21 45 -44 122 -69 230 -75 175 -11
286 28 335 115 47 83 80 279 51 297 -19 11 -28 -9 -38 -93 -20 -160 -86 -230
-143 -151 -23 33 -23 36 -29 423 -6 420 -9 448 -63 539 -50 86 -136 134 -286
162 -81 14 -299 16 -395 3z m255 -860 c0 -176 -14 -243 -64 -301 -36 -40 -66
-40 -90 2 -19 31 -21 51 -21 180 1 149 0 147 48 238 6 12 19 22 29 22 9 0 20
5 23 10 3 6 22 10 41 10 l34 0 0 -161z"/>
<path d="M5500 1707 c-25 -7 -61 -21 -80 -31 -47 -26 -124 -106 -146 -153
l-19 -38 -6 39 c-4 22 -3 66 1 99 6 54 5 59 -14 65 -12 4 -157 6 -324 4 l-303
-3 3 -22 c3 -20 9 -22 71 -25 l67 -3 0 -564 c0 -311 1 -568 3 -572 1 -5 -20
-9 -48 -11 -81 -4 -97 -10 -93 -34 l3 -22 363 -3 c316 -3 363 -1 368 12 9 24
-14 44 -54 47 l-37 3 0 432 c0 332 3 435 13 445 6 6 12 22 12 34 0 39 63 134
110 167 52 36 98 7 111 -69 4 -27 8 -265 9 -529 l1 -480 -43 -5 c-35 -4 -44
-9 -46 -27 -2 -13 0 -24 5 -24 39 -7 661 -4 669 3 7 5 10 18 7 28 -4 16 -14
20 -49 20 l-44 0 0 413 c0 440 3 470 52 576 39 86 131 136 172 96 32 -33 36
-89 36 -587 l0 -497 -42 -3 c-38 -3 -43 -6 -43 -28 l0 -25 364 0 c284 0 365 3
368 13 10 26 -18 41 -83 44 l-65 3 1 390 c0 564 -14 643 -133 755 -18 16 -37
30 -44 30 -6 0 -18 6 -25 13 -24 24 -142 40 -236 33 -146 -12 -243 -75 -306
-199 l-32 -65 -38 78 c-40 84 -82 126 -161 161 -57 25 -227 34 -295 16z"/>
<path d="M7570 1711 c-65 -10 -204 -57 -208 -71 -2 -6 -10 -10 -19 -10 -18 0
-130 -84 -156 -117 -10 -13 -25 -29 -32 -36 -27 -28 -83 -155 -99 -226 -18
-83 -22 -281 -6 -342 6 -22 15 -58 21 -81 13 -51 57 -148 76 -166 7 -7 13 -16
13 -20 0 -17 123 -132 140 -132 6 0 18 -7 26 -15 8 -8 58 -28 112 -46 82 -26
118 -32 232 -36 212 -9 367 32 464 122 73 68 169 243 149 273 -17 28 -31 24
-48 -15 -59 -139 -111 -206 -194 -249 -20 -10 -38 -21 -41 -24 -3 -3 -41 -11
-85 -17 -92 -13 -158 -3 -216 33 -39 24 -97 103 -105 144 -2 14 -9 40 -15 57
-26 84 -38 353 -16 371 8 7 137 10 366 11 278 0 356 3 362 13 11 18 0 149 -18
223 -8 33 -27 84 -41 114 -27 54 -124 161 -147 161 -7 0 -18 7 -25 15 -7 8
-49 26 -94 40 -64 20 -108 26 -211 30 -71 2 -155 0 -185 -4z m191 -72 c39 -34
50 -90 56 -286 l6 -183 -136 0 -137 0 5 133 c9 227 23 290 74 334 35 30 99 31
132 2z"/>
</g>
</svg>
