<?xml version="1.0" standalone="no"?>
<!DOCTYPE svg PUBLIC "-//W3C//DTD SVG 20010904//EN"
 "http://www.w3.org/TR/2001/REC-SVG-20010904/DTD/svg10.dtd">
<svg version="1.0" xmlns="http://www.w3.org/2000/svg"
 width="857.000000pt" height="435.000000pt" viewBox="0 0 857.000000 435.000000"
 preserveAspectRatio="xMidYMid meet">
<metadata>
Created by potrace 1.16, written by Peter Selinger 2001-2019
</metadata>
<g transform="translate(0.000000,435.000000) scale(0.100000,-0.100000)"
fill="#000000" stroke="none">
<path d="M3995 3746 c-5 -2 -44 -11 -85 -21 -362 -79 -651 -375 -731 -746 -28
-133 -24 -330 11 -459 43 -160 161 -356 281 -464 179 -162 419 -256 653 -256
135 0 202 11 322 52 l91 31 244 -88 c134 -48 291 -105 348 -126 100 -37 131
-45 131 -34 0 5 -200 305 -210 315 -21 21 -140 210 -140 222 0 9 11 30 25 46
14 17 25 33 25 36 0 4 12 25 26 47 14 23 41 81 60 129 181 469 -44 1024 -498
1229 -139 63 -229 83 -393 87 -82 2 -154 2 -160 0z m368 -170 c154 -46 270
-118 384 -240 58 -63 86 -105 129 -191 67 -136 86 -221 86 -375 0 -201 -54
-353 -182 -516 -28 -35 -50 -69 -50 -76 0 -6 36 -65 80 -130 44 -66 80 -123
80 -128 0 -9 -35 -1 -80 18 -14 6 -85 32 -157 58 -122 43 -135 45 -155 32 -42
-28 -177 -68 -260 -79 -257 -33 -508 54 -696 242 -351 349 -315 929 78 1241
94 75 236 140 355 164 106 21 278 12 388 -20z"/>
<path d="M3889 3070 c-20 -10 -49 -36 -65 -57 -27 -36 -29 -44 -29 -128 1
-103 18 -152 94 -269 58 -90 231 -266 261 -266 16 0 192 174 252 249 32 41 73
104 91 140 28 57 32 76 32 142 0 70 -3 81 -30 120 -60 85 -140 111 -228 74
-36 -15 -97 -79 -97 -102 0 -20 -18 -15 -25 7 -11 34 -55 80 -92 95 -48 20
-121 18 -164 -5z"/>
<path d="M400 1269 c-13 -5 -28 -15 -32 -22 -4 -7 -8 -215 -8 -463 0 -424 1
-452 18 -467 27 -25 78 -22 96 5 13 18 16 57 16 215 l0 193 193 0 c175 0 196
2 210 18 22 24 21 65 -1 85 -16 15 -46 17 -210 17 l-192 0 0 150 0 149 265 3
c282 3 284 4 299 54 4 14 0 30 -13 45 l-19 24 -299 2 c-182 1 -308 -2 -323 -8z"/>
<path d="M1280 1273 c-39 -14 -40 -25 -40 -420 0 -356 1 -386 20 -434 30 -81
80 -119 155 -119 64 0 95 20 95 62 0 37 -23 57 -67 58 -77 0 -83 33 -83 460 0
195 -4 360 -8 366 -7 10 -47 35 -54 33 -2 0 -10 -3 -18 -6z"/>
<path d="M5950 1267 l-25 -13 -3 -461 c-3 -517 -5 -497 67 -491 57 5 61 23 60
249 -2 206 3 230 48 271 53 48 157 62 228 29 92 -42 105 -81 105 -318 0 -215
5 -233 65 -233 65 0 66 7 63 249 -3 208 -4 218 -29 271 -37 78 -90 126 -168
150 -35 11 -80 20 -100 20 -51 0 -131 -25 -174 -54 l-35 -24 -4 164 c-2 129
-6 166 -18 178 -23 22 -53 27 -80 13z"/>
<path d="M2604 1186 c-16 -12 -19 -29 -22 -120 l-4 -106 -32 0 c-41 0 -76 -25
-76 -55 0 -35 26 -55 70 -55 l38 0 4 -187 c4 -206 10 -230 68 -297 42 -47 87
-66 160 -66 64 0 90 18 90 62 0 34 -29 58 -71 58 -48 0 -81 20 -101 60 -15 29
-18 63 -18 203 l0 167 70 0 c63 0 71 2 85 24 13 19 14 29 5 45 -16 31 -43 41
-104 41 l-56 0 0 100 c0 87 -3 103 -20 120 -23 23 -58 26 -86 6z"/>
<path d="M3157 1182 c-14 -15 -17 -40 -17 -120 l0 -102 -29 0 c-72 0 -107 -39
-77 -85 13 -20 25 -25 61 -25 l44 0 3 -193 c3 -183 4 -195 28 -241 44 -85 150
-136 236 -114 41 10 59 49 42 86 -11 22 -22 28 -63 33 -109 13 -115 25 -115
254 l0 175 63 0 c69 0 97 17 97 57 0 32 -28 48 -97 53 l-64 5 -5 100 c-5 109
-17 135 -64 135 -15 0 -34 -8 -43 -18z"/>
<path d="M7776 1184 c-13 -12 -16 -38 -16 -120 l0 -104 -38 0 c-47 0 -82 -24
-82 -55 0 -36 26 -55 76 -55 l44 0 0 -181 c0 -107 5 -197 11 -220 27 -87 109
-149 204 -151 66 -2 95 19 95 67 0 41 -16 55 -62 55 -53 0 -92 22 -112 64 -13
27 -16 67 -16 200 l0 166 69 0 c61 0 72 3 85 22 21 30 20 44 -4 68 -16 16 -33
20 -85 20 l-65 0 0 103 c0 88 -3 106 -18 120 -23 21 -66 22 -86 1z"/>
<path d="M1887 980 c-187 -48 -296 -225 -257 -422 15 -77 30 -108 83 -165 110
-119 300 -136 416 -36 46 39 51 40 51 12 0 -30 18 -59 43 -68 32 -12 76 7 83
34 3 13 4 109 2 212 l-4 188 -31 61 c-57 110 -164 181 -285 189 -34 2 -80 0
-101 -5z m153 -120 c19 -5 54 -31 80 -58 36 -38 49 -60 59 -105 34 -155 -63
-287 -212 -287 -72 0 -111 17 -161 68 -86 90 -78 251 17 341 49 45 142 63 217
41z"/>
<path d="M3887 980 c-148 -38 -245 -157 -255 -316 -16 -254 209 -430 455 -356
121 37 169 87 127 133 -23 25 -50 24 -103 -6 -95 -55 -226 -40 -298 33 -33 34
-63 87 -63 112 0 6 83 10 243 10 298 0 293 -2 284 101 -11 125 -65 212 -163
260 -69 34 -159 46 -227 29z m168 -123 c40 -19 56 -34 78 -74 47 -87 55 -83
-179 -83 l-205 0 7 23 c40 131 175 191 299 134z"/>
<path d="M4750 979 c-19 -6 -54 -24 -78 -40 -24 -16 -44 -29 -46 -29 -2 0 -6
13 -9 30 -7 34 -44 49 -86 34 l-26 -9 -3 -319 c-2 -227 1 -323 9 -332 14 -16
62 -18 90 -4 18 10 19 23 19 221 0 234 5 259 61 302 50 37 102 48 196 40 82
-6 82 -6 88 20 10 40 2 61 -30 76 -37 19 -139 24 -185 10z"/>
<path d="M5322 976 c-52 -13 -130 -61 -165 -101 -85 -97 -105 -282 -43 -404
24 -47 92 -118 137 -141 39 -21 121 -40 175 -40 95 0 234 66 234 112 0 62 -52
75 -126 32 -36 -21 -58 -26 -107 -26 -78 0 -126 20 -169 72 -83 97 -78 240 12
331 79 79 200 81 292 4 80 -67 151 10 76 82 -75 72 -210 106 -316 79z"/>
<path d="M7063 980 c-101 -20 -195 -96 -239 -193 -25 -54 -29 -74 -28 -152 0
-77 4 -99 29 -153 58 -128 185 -203 321 -189 58 6 151 46 180 79 24 26 31 23
32 -14 1 -40 23 -61 62 -60 59 1 60 6 60 218 0 223 -10 268 -82 349 -53 60
-103 91 -175 110 -62 16 -96 17 -160 5z m172 -131 c190 -102 150 -399 -59
-438 -100 -18 -190 29 -236 124 -43 89 -14 230 57 284 15 11 33 25 38 29 36
30 146 30 200 1z"/>
</g>
</svg>
