<?xml version="1.0" standalone="no"?>
<!DOCTYPE svg PUBLIC "-//W3C//DTD SVG 20010904//EN"
 "http://www.w3.org/TR/2001/REC-SVG-20010904/DTD/svg10.dtd">
<svg version="1.0" xmlns="http://www.w3.org/2000/svg"
 width="652.000000pt" height="152.000000pt" viewBox="0 0 652.000000 152.000000"
 preserveAspectRatio="xMidYMid meet">
<metadata>
Created by potrace 1.16, written by Peter Selinger 2001-2019
</metadata>
<g transform="translate(0.000000,152.000000) scale(0.100000,-0.100000)"
fill="#000000" stroke="none">
<path d="M3315 1095 c-77 -24 -142 -44 -145 -45 -3 0 13 -16 35 -35 l40 -34
-22 -43 c-35 -69 -45 -120 -42 -204 5 -101 40 -175 118 -246 81 -74 125 -90
248 -90 93 0 107 3 154 28 93 51 159 149 195 288 21 80 51 153 82 195 93 126
320 68 363 -93 18 -65 -4 -177 -37 -190 -7 -3 -33 11 -58 30 -25 19 -50 34
-55 34 -15 0 -15 -306 -1 -315 6 -4 32 0 58 9 26 8 94 30 152 47 58 18 99 34
93 36 -7 3 -13 11 -13 19 0 8 -6 14 -13 14 -8 0 -22 9 -32 20 -16 18 -17 22
-3 33 52 42 73 263 33 343 -32 62 -93 136 -137 166 -100 66 -255 75 -356 21
-29 -15 -60 -35 -67 -43 -7 -8 -25 -28 -39 -43 -14 -15 -26 -34 -26 -42 0 -8
-4 -17 -10 -20 -15 -9 -38 -64 -59 -145 -41 -157 -81 -220 -153 -244 -64 -20
-91 -20 -152 1 -115 41 -171 162 -131 282 20 61 40 66 99 21 22 -17 43 -30 48
-30 4 0 8 72 8 160 0 146 -2 160 -17 159 -10 -1 -81 -21 -158 -44z"/>
<path d="M405 1122 c-11 -2 -23 -9 -27 -16 -4 -6 -8 -166 -8 -355 0 -339 0
-344 22 -362 26 -24 30 -24 51 1 14 17 17 43 17 175 l0 155 235 0 235 0 1 -32
c0 -18 0 -90 -1 -160 -1 -109 2 -128 15 -128 8 0 15 -7 15 -15 0 -20 13 -19
39 3 21 17 21 23 21 367 1 321 -1 351 -16 362 -25 18 -37 16 -54 -9 -11 -18
-15 -57 -16 -162 -1 -108 -4 -140 -15 -145 -8 -4 -113 -5 -234 -2 l-220 6 -2
135 c-4 182 -7 193 -58 182z"/>
<path d="M4729 1113 c-11 -13 -15 -87 -17 -359 -3 -328 -3 -344 16 -364 16
-17 24 -19 46 -11 26 10 26 12 26 106 0 91 1 95 26 112 26 17 27 16 48 -10 12
-15 27 -27 34 -27 7 0 12 -6 12 -12 0 -7 13 -26 28 -43 15 -16 39 -46 52 -65
47 -67 66 -79 104 -64 16 6 23 49 8 56 -4 2 -29 30 -57 63 -27 33 -60 70 -72
82 -13 12 -23 29 -23 37 0 8 -9 20 -20 26 -28 15 -25 45 7 65 15 10 61 51 102
91 66 63 73 74 62 88 -15 17 -61 22 -61 6 0 -5 -6 -10 -13 -10 -7 0 -23 -11
-35 -25 -12 -14 -26 -25 -32 -25 -5 0 -10 -7 -10 -15 0 -8 -5 -15 -10 -15 -6
0 -21 -10 -33 -23 -26 -27 -102 -87 -111 -87 -3 0 -6 95 -6 210 l0 210 -26 10
c-32 13 -29 13 -45 -7z"/>
<path d="M5631 1106 c-20 -21 -20 -32 -21 -291 0 -269 8 -347 38 -377 7 -7 12
-18 12 -25 0 -7 9 -13 20 -13 11 0 20 -4 20 -10 0 -5 16 -12 36 -16 29 -5 40
-2 57 15 27 26 14 54 -26 59 -15 2 -35 15 -47 31 -18 27 -20 45 -20 316 -1
159 -5 296 -10 306 -15 27 -36 29 -59 5z"/>
<path d="M5945 1097 c-4 -13 -5 -158 -3 -323 3 -276 5 -302 23 -336 14 -26 27
-38 43 -38 12 0 22 -4 22 -9 0 -5 14 -12 30 -16 32 -7 80 15 80 37 0 16 -32
37 -57 38 -13 0 -30 11 -40 27 -16 24 -18 59 -20 328 -1 165 -2 303 -2 308 -1
4 -17 7 -36 7 -28 0 -36 -4 -40 -23z"/>
<path d="M1994 886 c-47 -17 -101 -65 -137 -120 l-32 -50 0 -280 0 -280 32 -3
c18 -2 35 2 39 8 3 6 6 67 6 136 0 68 2 133 5 143 5 17 8 16 37 -10 17 -17 36
-30 42 -30 6 0 26 -7 44 -16 35 -18 134 -14 153 5 6 6 20 11 30 11 23 0 78 58
109 115 17 31 22 57 22 115 0 41 -6 86 -12 100 -36 73 -61 103 -79 96 -7 -3
-13 1 -13 8 0 51 -159 84 -246 52z m190 -91 c39 -28 53 -45 68 -87 22 -65 23
-80 1 -143 -19 -54 -38 -75 -93 -104 -53 -29 -84 -29 -162 1 -68 26 -113 144
-88 231 8 25 26 58 40 71 14 14 34 34 45 45 15 15 35 20 80 20 53 1 66 -3 109
-34z"/>
<path d="M2720 890 c0 -5 -17 -10 -38 -10 -30 0 -46 -8 -80 -40 -23 -22 -42
-44 -42 -49 0 -6 -10 -26 -21 -46 -32 -54 -30 -154 4 -226 29 -61 88 -119 121
-119 12 0 31 -7 42 -15 27 -20 147 -20 168 0 8 8 25 15 39 15 29 0 62 33 53
55 -9 24 -33 28 -67 11 -45 -22 -126 -30 -175 -17 -41 11 -114 73 -114 98 0 7
-4 13 -10 13 -5 0 -6 9 -1 22 8 21 12 22 163 21 198 -2 233 3 246 31 33 73
-55 231 -143 255 -50 14 -145 14 -145 1z m123 -66 c20 -4 37 -11 37 -17 0 -6
9 -20 20 -32 24 -26 43 -82 29 -90 -5 -4 -79 -7 -166 -7 -148 -1 -157 0 -164
19 -5 15 2 30 29 61 60 68 110 83 215 66z"/>
<path d="M5332 888 c-16 -16 -17 -470 -2 -499 13 -23 33 -24 54 -3 14 13 16
50 16 253 0 243 -3 261 -40 261 -9 0 -21 -5 -28 -12z"/>
<path d="M1171 873 c0 -5 11 -28 24 -53 13 -25 34 -66 46 -92 12 -27 26 -48
30 -48 5 0 9 -11 9 -25 0 -14 4 -25 8 -25 4 0 21 -26 37 -57 16 -32 39 -75 53
-97 19 -30 22 -46 17 -75 -4 -20 -12 -42 -18 -49 -23 -29 -60 -129 -61 -167
-1 -36 1 -40 24 -40 20 0 30 11 53 60 16 33 34 71 39 85 6 14 14 32 19 40 5 8
12 22 15 30 3 8 9 24 14 35 9 25 37 87 84 187 20 42 36 81 36 86 0 6 6 23 14
39 36 71 66 141 66 156 0 13 -9 17 -40 17 -32 0 -40 -4 -40 -18 0 -10 -4 -22
-9 -27 -5 -6 -23 -44 -41 -85 -18 -41 -43 -97 -56 -125 -12 -27 -27 -62 -33
-77 -6 -16 -15 -28 -20 -28 -5 0 -25 30 -43 68 -70 137 -99 192 -108 197 -6 4
-10 17 -10 31 0 13 -4 24 -10 24 -5 0 -10 9 -10 20 0 17 -7 20 -45 20 -25 0
-45 -3 -44 -7z"/>
</g>
</svg>
