<?xml version="1.0" standalone="no"?>
<!DOCTYPE svg PUBLIC "-//W3C//DTD SVG 20010904//EN"
 "http://www.w3.org/TR/2001/REC-SVG-20010904/DTD/svg10.dtd">
<svg version="1.0" xmlns="http://www.w3.org/2000/svg"
 width="606.000000pt" height="129.000000pt" viewBox="0 0 606.000000 129.000000"
 preserveAspectRatio="xMidYMid meet">
<metadata>
Created by potrace 1.16, written by Peter Selinger 2001-2019
</metadata>
<g transform="translate(0.000000,129.000000) scale(0.100000,-0.100000)"
fill="#000000" stroke="none">
<path d="M3650 1012 c-8 -3 -58 -17 -110 -32 l-95 -25 -3 -63 -3 -62 -44 0
-45 0 0 -90 0 -90 45 0 45 0 0 -129 c0 -146 11 -186 62 -224 63 -47 194 -59
301 -27 l37 11 0 73 0 74 -53 -2 c-81 -2 -87 7 -87 125 l0 99 70 0 70 0 0 90
0 89 -71 3 -71 3 -2 90 c-1 93 -7 104 -46 87z"/>
<path d="M100 1008 c0 -6 -1 -723 0 -735 0 -10 33 -13 130 -13 l130 0 0 375 0
375 -130 0 c-72 0 -130 -1 -130 -2z"/>
<path d="M600 822 c-69 -26 -108 -53 -135 -94 -48 -73 -27 -167 49 -213 33
-20 44 -24 144 -49 75 -19 105 -33 97 -47 -12 -18 -99 -9 -153 16 -30 14 -58
25 -62 25 -4 0 -32 -28 -61 -61 l-53 -62 28 -22 c70 -56 278 -83 391 -50 54
15 96 36 121 60 34 32 61 125 50 169 -8 32 -51 83 -86 101 -36 19 -172 55
-206 55 -16 0 -24 5 -22 13 8 22 112 21 165 -3 l48 -21 47 53 c26 29 48 56 48
60 0 18 -71 57 -131 72 -85 21 -220 20 -279 -2z"/>
<path d="M2187 818 c-120 -47 -171 -129 -171 -273 0 -76 4 -98 24 -138 33 -65
64 -95 130 -125 69 -30 196 -41 267 -22 60 16 123 47 123 60 0 6 6 10 13 10
18 0 50 60 46 84 -3 13 -30 26 -94 47 -115 37 -129 37 -145 -1 -18 -43 -63
-42 -90 3 -36 58 -20 182 25 193 36 9 65 -4 65 -29 0 -46 10 -47 125 -13 l110
33 -1 37 c-1 28 -10 46 -34 71 -55 57 -109 76 -229 81 -93 4 -113 1 -164 -18z"/>
<path d="M4085 833 c-16 -2 -34 -9 -39 -14 -6 -5 -16 -9 -23 -9 -43 0 -128
-107 -121 -152 3 -20 12 -24 73 -35 112 -19 128 -17 147 17 29 51 98 37 98
-20 0 -24 -6 -27 -92 -47 -178 -43 -238 -92 -238 -194 0 -58 25 -92 85 -115
79 -30 220 -3 264 50 19 22 27 20 58 -13 47 -49 189 -67 222 -28 6 8 13 38 17
68 6 53 6 54 -25 66 l-31 11 0 124 c0 113 -2 129 -25 175 -42 84 -101 112
-245 118 -52 2 -108 1 -125 -2z"/>
<path d="M4930 822 c-37 -18 -90 -66 -90 -82 0 -6 -4 -10 -9 -10 -6 0 -11 21
-13 48 l-3 47 -118 3 -117 3 2 -283 3 -283 128 -3 127 -3 0 161 c0 182 11 230
53 230 40 0 47 -35 47 -221 l0 -170 128 3 127 3 0 225 c0 207 -2 228 -21 265
-38 75 -160 109 -244 67z"/>
<path d="M5485 833 c-16 -2 -34 -9 -39 -14 -6 -5 -19 -9 -29 -9 -11 0 -45 -26
-77 -59 -55 -57 -58 -61 -68 -133 -21 -141 18 -256 108 -313 103 -65 303 -71
393 -12 55 36 102 105 84 123 -2 3 -46 16 -98 30 -91 24 -94 24 -109 6 -20
-25 -54 -33 -90 -20 -28 9 -49 43 -35 56 3 3 81 6 173 5 121 -2 168 1 174 10
15 23 8 116 -12 170 -23 60 -84 123 -141 145 -36 14 -183 24 -234 15z"/>
<path d="M2689 773 c-3 -32 -2 -140 1 -240 l5 -181 31 -38 c72 -89 223 -84
301 10 30 36 30 37 37 14 3 -13 6 -36 6 -51 l0 -28 113 3 112 3 3 283 2 282
-130 0 -130 0 0 -173 c0 -193 -5 -211 -55 -205 l-30 3 -5 185 -5 185 -126 3
-127 3 -3 -58z"/>
</g>
</svg>
