<?xml version="1.0" standalone="no"?>
<!DOCTYPE svg PUBLIC "-//W3C//DTD SVG 20010904//EN"
 "http://www.w3.org/TR/2001/REC-SVG-20010904/DTD/svg10.dtd">
<svg version="1.0" xmlns="http://www.w3.org/2000/svg"
 width="621.000000pt" height="118.000000pt" viewBox="0 0 621.000000 118.000000"
 preserveAspectRatio="xMidYMid meet">
<metadata>
Created by potrace 1.16, written by Peter Selinger 2001-2019
</metadata>
<g transform="translate(0.000000,118.000000) scale(0.100000,-0.100000)"
fill="#000000" stroke="none">
<path d="M5010 958 c0 -4 11 -8 25 -8 l25 0 0 -345 0 -345 -25 0 c-14 0 -25
-4 -25 -10 0 -6 43 -10 109 -10 103 0 109 1 114 22 l6 21 20 -24 c17 -21 27
-24 93 -24 55 0 81 5 108 20 107 63 122 319 24 412 -62 58 -166 54 -219 -8
l-25 -31 0 166 c0 125 -3 166 -12 168 -47 5 -218 3 -218 -4z m334 -310 c13
-18 16 -53 16 -178 0 -172 -8 -203 -52 -208 -46 -6 -62 34 -67 164 -4 132 14
214 51 232 32 15 35 15 52 -10z"/>
<path d="M2840 934 c0 -6 11 -42 24 -82 37 -107 56 -205 65 -331 7 -101 10
-116 31 -133 29 -23 45 -23 70 2 50 50 -6 295 -100 438 -47 70 -89 121 -90
106z"/>
<path d="M185 910 c-4 -6 7 -10 24 -10 l31 0 0 -320 0 -320 -24 0 c-14 0 -28
-4 -31 -10 -4 -6 47 -10 144 -10 94 0 151 4 151 10 0 6 -11 10 -25 10 l-25 0
0 150 c0 83 2 150 5 150 4 0 127 -236 153 -292 2 -5 -6 -8 -17 -8 -12 0 -21
-4 -21 -10 0 -6 58 -10 155 -10 97 0 155 4 155 10 0 6 -12 10 -27 10 -26 0
-35 15 -141 223 -62 122 -113 225 -112 230 0 4 8 15 18 25 9 10 46 50 81 90
51 58 70 72 92 72 16 0 29 5 29 10 0 6 -35 10 -85 10 -50 0 -85 -4 -85 -10 0
-5 16 -10 35 -10 19 0 35 -3 35 -6 0 -3 -61 -73 -135 -155 l-135 -149 0 155 0
155 25 0 c14 0 25 5 25 10 0 6 -55 10 -144 10 -86 0 -147 -4 -151 -10z"/>
<path d="M3915 910 c-3 -5 -3 -11 2 -11 4 -1 13 -2 18 -4 6 -1 16 -3 23 -3 9
-2 12 -72 12 -317 l0 -315 -30 0 c-16 0 -30 -4 -30 -10 0 -6 93 -10 259 -10
l259 0 7 111 c4 60 5 113 1 116 -3 3 -13 -9 -23 -27 -70 -126 -135 -180 -215
-180 l-38 0 0 321 0 321 50 -4 c35 -2 50 1 50 10 0 15 -335 18 -345 2z"/>
<path d="M2453 847 l-83 -21 0 -63 c0 -61 -1 -63 -25 -63 -14 0 -25 -4 -25
-10 0 -5 11 -10 25 -10 l25 0 0 -170 c0 -237 16 -267 143 -277 85 -7 132 14
158 71 20 43 25 81 10 72 -4 -3 -11 -19 -14 -35 -13 -61 -83 -95 -107 -52 -6
12 -10 96 -10 205 l0 186 60 0 c33 0 60 4 60 10 0 6 -27 10 -60 10 l-60 0 0
85 c0 47 -3 85 -7 84 -5 -1 -45 -11 -90 -22z"/>
<path d="M1025 700 c-54 -14 -80 -28 -112 -62 -44 -45 -63 -96 -63 -166 0
-146 76 -229 220 -240 110 -7 191 28 220 97 19 47 5 61 -16 17 -23 -48 -58
-75 -107 -83 -83 -13 -124 38 -129 162 l-3 60 138 3 c155 3 148 -2 126 89 -26
102 -146 156 -274 123z m94 -27 c5 -10 11 -51 14 -90 l5 -73 -49 0 -49 0 0 68
c0 74 17 112 50 112 11 0 23 -8 29 -17z"/>
<path d="M1654 696 c-17 -8 -42 -28 -56 -46 l-26 -33 2 39 1 39 -117 3 c-76 2
-118 -1 -118 -8 0 -5 11 -10 24 -10 15 0 26 -7 28 -16 2 -10 2 -104 0 -210
l-3 -194 -24 0 c-14 0 -25 -4 -25 -10 0 -6 57 -10 150 -10 93 0 150 4 150 10
0 6 -13 10 -29 10 -28 0 -30 3 -37 45 -8 59 2 254 16 291 16 41 50 74 77 74
29 0 33 -39 4 -47 -21 -5 -32 -33 -24 -62 11 -43 100 -58 136 -23 12 13 20 35
21 60 2 91 -65 135 -150 98z"/>
<path d="M1965 703 c-86 -19 -125 -56 -125 -116 0 -35 41 -77 75 -77 77 0 125
75 75 117 -28 25 -25 52 7 64 24 9 30 7 45 -11 10 -12 18 -34 18 -49 0 -14 3
-56 6 -92 l7 -66 -69 -7 c-141 -14 -185 -41 -186 -113 -1 -89 32 -117 135
-118 64 0 71 2 94 29 23 27 26 28 35 12 23 -42 132 -60 187 -31 16 8 33 27 39
42 16 44 23 93 12 93 -6 0 -10 -13 -10 -29 0 -34 -31 -77 -48 -67 -8 5 -12 45
-12 119 0 213 -24 273 -115 296 -43 11 -131 13 -170 4z"/>
<path d="M3614 696 c-17 -7 -40 -29 -52 -47 l-22 -34 0 43 0 42 -115 0 c-70 0
-115 -4 -115 -10 0 -5 11 -10 25 -10 l25 0 0 -210 0 -210 -25 0 c-14 0 -25 -4
-25 -10 0 -6 52 -10 135 -10 83 0 135 4 135 10 0 6 -9 10 -21 10 -21 0 -21 3
-18 163 4 142 7 166 25 197 16 27 27 35 49 35 39 0 42 -16 44 -227 1 -162 0
-168 -19 -168 -11 0 -20 -4 -20 -10 0 -6 52 -10 135 -10 83 0 135 4 135 10 0
6 -11 10 -24 10 l-24 0 -4 173 c-4 186 -10 213 -60 250 -34 26 -121 33 -164
13z"/>
<path d="M4610 695 c-64 -20 -93 -54 -93 -106 0 -32 6 -47 23 -61 52 -42 140
-6 140 58 0 22 -6 37 -15 40 -21 9 -19 51 4 64 47 25 71 -25 71 -146 l0 -72
-67 -7 c-140 -14 -183 -42 -183 -119 0 -74 53 -116 146 -116 39 0 51 5 80 34
31 31 34 32 40 14 14 -47 149 -65 197 -28 25 20 47 73 47 113 0 10 -4 15 -10
12 -5 -3 -10 -17 -10 -31 0 -55 -44 -89 -55 -41 -2 12 -6 85 -7 162 -4 157
-15 193 -70 221 -44 23 -180 28 -238 9z"/>
<path d="M5702 697 c-76 -24 -121 -125 -90 -205 17 -46 62 -77 152 -103 95
-28 116 -43 116 -78 0 -38 -21 -53 -78 -58 -72 -6 -130 27 -162 94 -14 29 -28
52 -32 53 -5 0 -8 -38 -8 -85 0 -47 3 -85 6 -85 4 0 12 8 19 17 12 16 17 16
62 4 132 -39 224 -17 262 63 24 49 27 103 7 150 -17 41 -75 77 -161 101 -77
21 -105 40 -105 69 0 32 22 48 73 53 52 5 103 -19 132 -63 11 -18 25 -40 32
-50 10 -16 12 -5 12 60 1 77 1 79 -18 62 -18 -16 -23 -16 -72 -2 -59 18 -99
19 -147 3z"/>
<path d="M2700 360 l0 -120 290 0 290 0 0 120 0 120 -104 0 -103 0 -7 -50 c-8
-60 -37 -86 -86 -75 -39 8 -60 39 -60 87 l0 38 -110 0 -110 0 0 -120z m200 75
c0 -40 21 -73 57 -90 60 -29 123 10 123 77 l0 38 95 0 96 0 -3 -97 -3 -98
-272 -3 -273 -2 0 100 0 100 90 0 c89 0 90 0 90 -25z"/>
</g>
</svg>
