<?xml version="1.0" standalone="no"?>
<!DOCTYPE svg PUBLIC "-//W3C//DTD SVG 20010904//EN"
 "http://www.w3.org/TR/2001/REC-SVG-20010904/DTD/svg10.dtd">
<svg version="1.0" xmlns="http://www.w3.org/2000/svg"
 width="826.000000pt" height="222.000000pt" viewBox="0 0 826.000000 222.000000"
 preserveAspectRatio="xMidYMid meet">
<metadata>
Created by potrace 1.16, written by Peter Selinger 2001-2019
</metadata>
<g transform="translate(0.000000,222.000000) scale(0.100000,-0.100000)"
fill="#000000" stroke="none">
<path d="M5905 1805 c-76 -27 -122 -112 -93 -172 24 -49 62 -68 133 -66 113 3
175 51 177 136 0 24 -5 54 -12 66 -25 47 -124 65 -205 36z"/>
<path d="M6745 1800 c-166 -36 -257 -158 -280 -377 -7 -63 -7 -63 -46 -73 -51
-14 -66 -45 -71 -140 l-3 -75 49 -3 48 -3 -5 -57 c-21 -197 -28 -379 -18 -419
17 -64 47 -91 110 -103 65 -12 111 -13 129 -2 11 8 42 306 54 527 l3 50 85 5
c85 5 123 19 136 50 13 33 22 155 12 168 -7 8 -43 12 -111 12 l-100 0 6 48
c15 118 58 182 122 182 42 0 56 -18 64 -82 l6 -53 54 -3 c78 -5 153 33 175 88
22 55 20 98 -6 150 -25 48 -69 83 -127 101 -47 14 -235 20 -286 9z"/>
<path d="M4954 1743 c-7 -5 -16 -77 -23 -173 -6 -91 -21 -280 -32 -420 -11
-140 -22 -317 -22 -392 l-2 -136 29 -31 c40 -42 95 -51 314 -51 260 0 280 13
281 173 l1 67 -165 0 -166 0 5 33 c3 17 17 210 32 428 26 384 26 397 9 434
-12 24 -30 42 -51 51 -39 16 -194 29 -210 17z"/>
<path d="M376 1688 c-3 -29 -11 -129 -17 -223 -6 -93 -15 -219 -20 -280 -18
-233 -30 -482 -25 -529 6 -57 18 -73 71 -97 48 -22 196 -27 213 -6 6 7 12 163
17 407 3 217 9 409 13 425 6 29 6 28 13 -15 15 -97 129 -638 144 -679 8 -24
15 -53 15 -65 0 -27 54 -62 116 -76 57 -13 136 -11 156 4 17 13 48 69 48 88 0
7 10 37 21 68 12 30 25 64 29 75 16 41 60 175 110 335 58 184 98 308 99 300 1
-3 -6 -75 -14 -160 -9 -85 -20 -198 -25 -250 -5 -52 -14 -152 -21 -222 -11
-117 -11 -131 6 -167 25 -56 86 -81 194 -81 88 0 84 -3 95 75 6 39 25 284 47
620 7 94 12 230 13 303 l1 133 -37 35 -38 34 -198 0 -198 0 -23 -82 c-12 -46
-31 -111 -42 -146 -10 -34 -19 -72 -19 -83 0 -12 -11 -58 -24 -103 -13 -44
-31 -108 -40 -141 -73 -275 -82 -298 -90 -240 -3 22 -13 83 -22 135 -25 156
-32 202 -39 260 -18 156 -61 306 -102 348 -43 46 -73 52 -252 52 l-170 0 -5
-52z"/>
<path d="M4232 1708 c-11 -14 -66 -148 -77 -188 -11 -37 -24 -50 -52 -50 -13
0 -37 -12 -52 -28 -24 -23 -29 -38 -35 -106 -4 -43 -5 -81 -2 -83 6 -6 31 -10
79 -12 27 -1 28 -3 23 -38 -3 -21 -13 -137 -22 -258 -16 -204 -16 -224 0 -276
28 -98 95 -139 226 -139 141 0 204 43 224 154 4 21 4 56 1 77 -6 35 -10 39
-36 39 -16 0 -29 -4 -29 -8 0 -4 -17 -14 -37 -21 -35 -13 -38 -12 -56 10 -21
26 -21 27 4 325 l12 132 71 4 c121 9 138 26 152 154 5 47 3 64 -7 70 -8 5 -54
11 -102 14 l-88 5 -3 80 c-3 88 -18 124 -62 143 -33 16 -119 15 -132 0z"/>
<path d="M2280 1471 c-77 -21 -135 -56 -192 -114 -56 -58 -80 -99 -114 -192
-26 -74 -28 -91 -29 -230 0 -145 1 -152 28 -204 33 -65 68 -110 85 -110 7 -1
15 -7 18 -15 3 -8 33 -26 67 -42 52 -23 79 -28 170 -32 184 -8 312 34 356 115
16 31 14 105 -5 131 -36 52 -119 68 -151 29 -39 -49 -107 -74 -164 -62 -17 4
-49 23 -70 42 -34 30 -39 41 -39 78 l0 42 88 6 c203 16 351 89 408 203 30 60
27 184 -6 249 -22 43 -34 54 -93 84 -63 33 -74 35 -180 38 -84 2 -128 -2 -177
-16z m160 -238 c30 -38 22 -99 -16 -129 -31 -25 -114 -54 -155 -54 -37 0 -38
19 -4 103 30 74 66 107 117 107 28 0 42 -6 58 -27z"/>
<path d="M3333 1475 c-152 -41 -260 -148 -318 -315 -28 -79 -30 -95 -30 -230
0 -139 1 -147 28 -200 76 -147 200 -207 412 -198 159 7 242 44 284 125 29 56
-5 142 -63 163 -50 17 -72 12 -105 -25 -52 -59 -113 -70 -187 -34 -45 21 -84
81 -84 127 0 20 5 22 53 22 73 0 226 34 292 64 81 37 150 110 171 182 20 70
13 150 -19 208 -28 50 -102 101 -167 115 -69 15 -204 13 -267 -4z m160 -257
c18 -37 18 -39 0 -75 -23 -48 -84 -82 -158 -90 -50 -5 -55 -4 -55 14 0 39 33
122 62 158 29 34 33 36 82 33 48 -3 52 -5 69 -40z"/>
<path d="M7610 1484 c-50 -10 -146 -45 -175 -64 -160 -106 -251 -332 -225
-562 11 -93 35 -151 85 -206 80 -90 189 -127 349 -120 160 7 261 54 292 133
13 36 14 50 4 79 -14 43 -50 73 -97 82 -32 6 -39 3 -75 -34 -43 -45 -84 -58
-146 -48 -63 10 -108 59 -126 139 -6 26 -5 27 31 27 55 0 205 26 266 46 64 21
149 76 173 112 45 66 48 77 49 167 0 73 -4 97 -20 125 -26 43 -93 95 -143 111
-39 12 -200 21 -242 13z m89 -240 c24 -20 31 -34 31 -63 0 -20 -7 -47 -16 -59
-23 -34 -91 -64 -157 -70 l-58 -5 6 39 c13 70 57 147 95 166 48 23 64 22 99
-8z"/>
<path d="M5806 1448 c-3 -12 -17 -190 -32 -394 -28 -400 -27 -429 20 -473 13
-12 41 -27 63 -32 53 -12 150 -11 158 2 7 11 35 322 55 624 13 192 7 232 -43
269 -23 17 -46 22 -122 24 -92 4 -94 3 -99 -20z"/>
</g>
</svg>
