<?xml version="1.0" standalone="no"?>
<!DOCTYPE svg PUBLIC "-//W3C//DTD SVG 20010904//EN"
 "http://www.w3.org/TR/2001/REC-SVG-20010904/DTD/svg10.dtd">
<svg version="1.0" xmlns="http://www.w3.org/2000/svg"
 width="692.000000pt" height="371.000000pt" viewBox="0 0 692.000000 371.000000"
 preserveAspectRatio="xMidYMid meet">
<metadata>
Created by potrace 1.16, written by Peter Selinger 2001-2019
</metadata>
<g transform="translate(0.000000,371.000000) scale(0.100000,-0.100000)"
fill="#000000" stroke="none">
<path d="M3179 3145 c-60 -19 -131 -82 -159 -142 -17 -35 -23 -66 -23 -113 0
-108 19 -137 257 -378 116 -117 222 -215 235 -219 18 -4 32 3 64 35 l41 41
-21 29 c-12 16 -29 53 -37 83 -67 224 178 424 383 313 24 -13 47 -24 51 -24
16 0 30 55 30 119 0 124 -74 221 -197 257 -94 27 -180 5 -258 -67 l-46 -42
-26 24 c-15 13 -33 30 -41 37 -56 51 -172 73 -253 47z"/>
<path d="M3699 2737 c-147 -78 -145 -293 3 -368 46 -23 117 -28 170 -10 54 18
113 87 127 149 37 175 -142 312 -300 229z m131 -107 l0 -40 40 0 c39 0 40 -1
40 -35 0 -34 -1 -35 -40 -35 l-40 0 0 -40 c0 -39 -1 -40 -35 -40 -34 0 -35 1
-35 40 l0 40 -40 0 c-39 0 -40 1 -40 35 0 34 1 35 40 35 l40 0 0 40 c0 39 1
40 35 40 34 0 35 -1 35 -40z"/>
<path d="M3290 2169 c-127 -10 -271 -79 -449 -216 -92 -71 -111 -89 -111 -110
0 -12 121 -164 189 -235 19 -21 41 -38 49 -38 8 0 37 18 64 40 28 22 56 40 64
40 7 0 50 -9 96 -20 125 -29 263 -42 326 -30 113 21 300 114 491 243 119 81
141 112 120 174 -8 26 -21 39 -47 50 -34 14 -42 13 -142 -17 -76 -24 -113 -41
-133 -61 -60 -62 -99 -73 -246 -74 -116 0 -135 2 -145 17 -21 33 6 42 136 42
107 1 128 4 165 24 23 12 47 31 53 41 16 31 12 87 -8 112 -18 22 -24 22 -208
23 -104 1 -223 -1 -264 -5z"/>
<path d="M2865 1291 c-79 -13 -100 -20 -103 -33 -3 -14 3 -18 25 -18 55 0 63
-15 69 -132 3 -60 2 -108 -2 -108 -4 0 -17 9 -29 20 -28 26 -97 38 -155 28
-160 -29 -229 -276 -112 -402 74 -79 228 -88 304 -19 17 15 18 14 18 -15 l0
-32 63 0 c34 0 72 3 85 6 26 8 24 27 -4 33 -44 8 -44 8 -44 352 0 180 -3 329
-7 332 -5 2 -53 -4 -108 -12z m-63 -318 c33 -30 48 -81 48 -165 0 -126 -34
-178 -115 -178 -76 0 -110 68 -103 204 6 121 42 171 117 161 18 -2 42 -12 53
-22z"/>
<path d="M5188 1291 c-69 -10 -98 -18 -98 -28 0 -7 14 -16 30 -20 17 -3 35
-14 40 -24 6 -10 10 -134 10 -288 0 -258 -1 -272 -20 -291 -11 -11 -29 -20
-40 -20 -11 0 -20 -7 -20 -15 0 -13 22 -15 140 -15 118 0 140 2 140 15 0 8 -8
15 -18 15 -10 0 -27 6 -38 14 -18 14 -19 32 -24 343 l-5 328 -97 -14z"/>
<path d="M5833 1291 c-78 -12 -93 -17 -93 -33 0 -12 7 -18 25 -18 14 0 29 -8
35 -19 6 -12 10 -124 10 -295 0 -298 -1 -306 -56 -306 -15 0 -24 -6 -24 -15 0
-13 22 -15 140 -15 112 0 140 3 140 14 0 7 -14 16 -30 20 -40 8 -50 36 -50
147 0 153 27 213 102 225 80 13 116 -77 103 -261 -6 -93 -17 -115 -57 -115
-10 0 -18 -7 -18 -15 0 -13 22 -15 135 -15 107 0 135 3 135 14 0 7 -15 17 -32
22 l-33 10 -6 139 c-7 154 -17 192 -68 239 -25 24 -42 31 -91 34 -74 5 -100
-1 -139 -34 l-30 -25 -3 158 -3 158 -92 -14z"/>
<path d="M555 1250 c-10 -16 2 -27 34 -33 17 -4 35 -16 42 -28 14 -27 25 -368
14 -463 -8 -77 -28 -106 -75 -106 -20 0 -30 -5 -30 -15 0 -13 22 -15 135 -15
113 0 135 2 135 15 0 9 -9 15 -24 15 -13 0 -34 9 -47 19 -24 19 -24 20 -26
268 -3 288 -12 286 100 18 157 -376 138 -340 177 -343 l35 -2 115 285 115 285
3 -232 c3 -269 0 -285 -59 -294 -23 -4 -39 -12 -39 -20 0 -11 32 -14 165 -14
140 0 165 2 165 15 0 9 -9 15 -25 15 -14 0 -37 11 -50 25 l-25 24 0 240 c0
282 6 310 68 311 17 0 23 5 20 18 -3 15 -18 17 -126 20 l-123 3 -18 -43 c-10
-24 -56 -138 -102 -255 -46 -117 -87 -209 -90 -205 -3 4 -48 113 -99 242 -51
129 -97 241 -103 248 -12 15 -253 17 -262 2z"/>
<path d="M3047 1254 c-16 -16 -5 -32 27 -38 60 -11 69 -28 182 -344 48 -130
91 -249 96 -264 8 -24 16 -28 47 -28 l38 0 84 224 c46 124 85 223 88 221 2 -2
36 -102 75 -222 l72 -218 41 -3 c26 -2 42 2 45 10 3 7 49 135 103 283 54 149
109 285 122 303 15 19 37 35 54 39 21 4 29 11 27 22 -3 13 -22 16 -126 19
-117 2 -122 2 -122 -18 0 -14 7 -20 23 -20 35 0 50 -16 49 -51 -1 -30 -117
-384 -131 -401 -11 -12 -133 399 -126 422 4 13 18 23 36 27 20 4 29 11 27 22
-3 14 -23 16 -128 19 -134 3 -170 -1 -170 -21 0 -6 15 -19 32 -27 18 -8 40
-26 50 -40 20 -27 17 -39 -99 -345 l-26 -69 -13 34 c-53 150 -134 385 -134
391 0 16 33 39 56 39 19 0 25 5 22 18 -3 15 -20 17 -159 20 -85 1 -158 -1
-162 -4z"/>
<path d="M5528 1120 c-9 -16 -39 -42 -67 -57 -59 -33 -69 -63 -21 -63 l30 0 0
-166 c0 -193 9 -225 67 -245 77 -25 187 11 170 56 -6 14 -9 14 -32 -1 -20 -13
-31 -14 -49 -6 -30 13 -36 50 -36 225 l0 137 50 0 c47 0 50 2 50 25 0 23 -3
25 -50 25 l-50 0 0 50 c0 45 -2 50 -22 50 -15 0 -29 -11 -40 -30z"/>
<path d="M4753 1048 c-34 -3 -73 -14 -87 -24 -52 -33 -43 -114 13 -114 31 0
45 12 70 63 13 26 23 33 52 35 45 4 67 -19 75 -81 6 -40 4 -48 -12 -53 -11 -4
-64 -28 -119 -54 -105 -51 -135 -80 -135 -135 0 -38 24 -79 55 -93 63 -29 161
-2 204 55 19 26 20 26 21 7 0 -12 9 -33 21 -48 16 -21 29 -26 63 -26 44 0 86
22 86 46 0 8 -10 14 -25 14 -37 0 -45 32 -45 182 0 181 -17 213 -124 227 -28
3 -79 3 -113 -1z m127 -263 c0 -59 -21 -99 -59 -115 -68 -28 -115 23 -74 78
17 24 106 81 126 82 4 0 7 -20 7 -45z"/>
<path d="M1610 1036 c-48 -9 -66 -16 -68 -29 -3 -12 3 -17 21 -17 43 0 51 -23
55 -160 5 -154 -5 -198 -49 -207 -16 -3 -29 -12 -29 -19 0 -11 27 -14 135 -14
101 0 135 3 135 13 0 6 -15 19 -33 27 l-32 15 -3 203 -2 202 -33 -1 c-17 -1
-61 -7 -97 -13z"/>
<path d="M1950 1043 c-14 -2 -42 -9 -62 -14 -46 -12 -52 -39 -8 -39 19 0 33
-7 40 -19 5 -11 10 -85 10 -170 0 -144 -1 -151 -22 -165 -12 -9 -31 -16 -41
-16 -10 0 -17 -5 -15 -12 7 -20 278 -24 278 -5 0 8 -14 17 -30 21 -44 8 -53
41 -48 171 3 77 10 120 21 142 34 65 95 81 143 40 31 -27 42 -81 43 -214 1
-102 -9 -132 -49 -139 -16 -4 -30 -13 -30 -20 0 -11 27 -14 135 -14 113 0 135
2 135 15 0 8 -8 15 -18 15 -41 0 -49 28 -54 170 -5 147 -13 173 -68 225 -30
28 -36 30 -115 30 -79 0 -85 -2 -124 -33 l-40 -32 -7 35 c-7 37 -12 39 -74 28z"/>
<path d="M4265 1043 c-85 -23 -152 -110 -162 -208 -18 -175 141 -297 319 -243
52 15 117 72 101 88 -8 9 -22 6 -58 -16 -116 -67 -225 -6 -229 129 l-1 52 154
3 153 3 -4 50 c-5 53 -26 89 -72 123 -21 16 -44 21 -104 23 -42 1 -86 -1 -97
-4z"/>
</g>
</svg>
