<?xml version="1.0" standalone="no"?>
<!DOCTYPE svg PUBLIC "-//W3C//DTD SVG 20010904//EN"
 "http://www.w3.org/TR/2001/REC-SVG-20010904/DTD/svg10.dtd">
<svg version="1.0" xmlns="http://www.w3.org/2000/svg"
 width="616.000000pt" height="131.000000pt" viewBox="0 0 616.000000 131.000000"
 preserveAspectRatio="xMidYMid meet">
<metadata>
Created by potrace 1.16, written by Peter Selinger 2001-2019
</metadata>
<g transform="translate(0.000000,131.000000) scale(0.100000,-0.100000)"
fill="#000000" stroke="none">
<path d="M3542 778 c3 -224 5 -257 22 -288 36 -67 69 -90 153 -105 l40 -6 6
42 c7 50 3 59 -23 59 -10 0 -32 11 -47 24 l-28 24 -5 249 -5 248 -58 3 -59 3
4 -253z"/>
<path d="M4090 986 c-147 -42 -228 -140 -238 -282 -6 -100 16 -162 82 -230 43
-44 62 -56 125 -74 60 -19 88 -22 155 -17 44 3 96 11 114 17 32 12 33 15 27
49 -9 48 -15 53 -55 41 -45 -13 -145 -13 -192 0 -141 40 -187 247 -78 351 59
56 145 70 294 47 15 -2 22 6 32 39 l12 42 -31 11 c-49 18 -195 22 -247 6z"/>
<path d="M480 984 c0 -8 231 -404 235 -404 5 0 235 396 235 403 0 4 -106 7
-235 7 -129 0 -235 -3 -235 -6z"/>
<path d="M2068 918 c-36 -9 -38 -12 -38 -49 0 -32 -4 -39 -19 -39 -40 0 -51
-11 -51 -50 0 -36 2 -39 33 -42 l32 -3 5 -142 5 -143 31 -31 c34 -34 87 -46
149 -35 35 7 36 8 33 49 -3 41 -4 42 -43 45 -59 4 -65 19 -65 149 l0 113 55 0
55 0 0 45 0 45 -55 0 -55 0 0 50 c0 55 -2 57 -72 38z"/>
<path d="M3121 833 c-31 -4 -33 -6 -27 -35 3 -17 6 -34 6 -39 0 -5 23 -9 50
-9 37 0 55 -5 70 -20 16 -16 27 -48 18 -51 -2 0 -25 -3 -53 -5 -104 -11 -174
-45 -199 -98 -35 -74 -7 -151 64 -180 57 -22 100 -20 154 9 56 30 56 30 56 6
0 -28 14 -33 63 -26 l42 7 -3 141 c-4 162 -12 204 -48 246 -34 41 -114 63
-193 54z m127 -271 c5 -47 -42 -92 -95 -92 -46 0 -63 14 -63 51 0 33 22 57 58
65 15 3 32 7 37 9 6 2 21 3 35 2 20 -2 26 -8 28 -35z"/>
<path d="M4682 829 c-137 -27 -218 -154 -183 -287 14 -49 67 -114 114 -137 46
-23 126 -30 188 -15 95 23 169 120 169 221 0 147 -134 248 -288 218z m120
-105 c27 -25 48 -75 48 -118 0 -82 -47 -136 -120 -136 -77 0 -120 49 -120 135
0 89 55 150 128 142 24 -2 52 -13 64 -23z"/>
<path d="M5345 834 c-5 -1 -22 -5 -36 -8 -14 -3 -37 -16 -52 -30 l-26 -24 -6
30 c-7 28 -9 29 -53 26 l-47 -3 -3 -195 c-1 -107 0 -205 3 -217 5 -20 12 -23
59 -23 l54 0 4 140 c3 135 4 140 29 166 16 16 41 28 67 31 l42 6 0 47 c0 46
-10 61 -35 54z"/>
<path d="M5755 830 c-42 -6 -78 -22 -107 -47 -14 -13 -17 -11 -23 17 -7 32 -7
32 -54 25 -25 -4 -47 -8 -48 -9 -1 -1 -3 -136 -4 -301 l-2 -300 46 -3 c52 -3
51 -6 63 128 3 41 8 78 11 83 2 4 18 -2 34 -14 19 -13 51 -23 87 -26 49 -4 65
0 112 24 73 37 110 96 117 186 12 149 -95 257 -232 237z m81 -124 c34 -34 39
-52 34 -121 -6 -90 -92 -140 -170 -100 -44 23 -60 53 -60 113 0 93 41 142 118
142 37 0 50 -6 78 -34z"/>
<path d="M1404 815 c-4 -9 -5 -80 -2 -158 6 -174 23 -224 87 -256 68 -35 155
-23 208 28 l22 21 7 -35 c7 -37 18 -42 81 -29 29 6 29 6 22 57 -4 29 -8 127
-8 220 l-1 167 -55 0 -55 0 0 -135 c0 -145 -10 -183 -51 -206 -35 -18 -89 -13
-113 10 -19 20 -21 36 -26 174 l-5 152 -53 3 c-41 2 -54 0 -58 -13z"/>
<path d="M2402 656 c3 -191 6 -202 72 -250 43 -33 140 -29 193 6 44 29 53 28
53 -10 0 -24 2 -25 51 -19 29 4 53 8 54 9 1 2 -2 35 -6 73 -5 39 -8 131 -8
205 0 74 0 141 -1 148 0 8 -18 12 -55 12 l-55 0 0 -144 c0 -130 -2 -146 -21
-170 -22 -28 -70 -45 -107 -38 -46 9 -57 44 -60 204 l-4 148 -55 0 -54 0 3
-174z"/>
<path d="M433 788 c-20 -24 -223 -379 -223 -388 0 -6 91 -10 235 -10 l236 0
-12 23 c-12 21 -220 379 -224 385 -1 1 -7 -3 -12 -10z"/>
<path d="M893 642 c-50 -86 -104 -178 -118 -204 l-27 -48 236 0 c140 0 236 4
236 9 0 11 -207 370 -224 388 -8 9 -34 -27 -103 -145z"/>
</g>
</svg>
