<?xml version="1.0" standalone="no"?>
<!DOCTYPE svg PUBLIC "-//W3C//DTD SVG 20010904//EN"
 "http://www.w3.org/TR/2001/REC-SVG-20010904/DTD/svg10.dtd">
<svg version="1.0" xmlns="http://www.w3.org/2000/svg"
 width="742.000000pt" height="417.000000pt" viewBox="0 0 742.000000 417.000000"
 preserveAspectRatio="xMidYMid meet">
<metadata>
Created by potrace 1.16, written by Peter Selinger 2001-2019
</metadata>
<g transform="translate(0.000000,417.000000) scale(0.100000,-0.100000)"
fill="#000000" stroke="none">
<path d="M3295 2941 c-11 -5 -31 -21 -45 -36 -21 -22 -25 -38 -28 -100 -6
-108 22 -148 121 -171 63 -15 18 -24 -115 -24 -131 0 -144 -2 -175 -22 -45
-31 -56 -64 -51 -153 3 -64 7 -79 29 -101 14 -14 42 -29 62 -34 39 -8 941 -11
1015 -3 37 5 43 8 40 27 -2 16 -11 22 -38 24 -48 4 -60 24 -60 102 0 78 19
115 55 106 26 -7 50 16 41 39 -5 13 -44 15 -281 15 -177 0 -275 4 -275 10 0 9
290 13 660 10 102 0 124 6 118 36 -2 14 -13 20 -39 22 -32 3 -37 7 -48 41 -27
91 -4 168 51 173 25 2 33 8 33 23 0 20 -7 20 -525 22 -289 1 -534 -2 -545 -6z
m533 -143 c-3 -10 -44 -14 -147 -16 l-142 -3 2 -57 c1 -31 0 -59 -2 -60 -2 -2
-16 2 -32 9 -23 10 -33 10 -62 -4 l-35 -17 0 65 0 64 -37 3 c-20 2 -38 9 -41
16 -3 9 51 12 248 12 197 0 251 -3 248 -12z"/>
<path d="M3330 2273 c-81 -10 -114 -64 -108 -174 4 -67 6 -73 41 -105 32 -30
43 -34 92 -34 l55 0 0 -35 c0 -47 20 -53 64 -20 l35 27 35 -27 c42 -32 56 -26
56 21 l0 34 385 0 385 0 0 25 c0 22 -4 25 -34 25 -18 0 -39 6 -45 14 -19 23
-25 113 -11 156 11 35 17 39 49 42 26 2 37 8 39 22 2 10 -2 22 -9 26 -13 9
-966 11 -1029 3z m370 -152 c0 -14 -28 -21 -86 -21 l-54 0 0 -82 c0 -78 -1
-80 -18 -65 -23 21 -41 21 -70 1 l-22 -15 0 80 0 81 -60 0 c-47 0 -60 3 -60
15 0 13 27 15 185 15 102 0 185 -4 185 -9z"/>
<path d="M4450 1325 l0 -45 55 0 55 0 0 -380 0 -380 91 0 90 0 -3 42 -3 43
-47 3 -48 3 0 380 0 379 -95 0 -95 0 0 -45z"/>
<path d="M790 940 l0 -420 45 0 45 0 2 317 3 317 165 -189 c90 -105 169 -195
175 -201 5 -6 30 -35 55 -64 25 -29 65 -75 90 -103 25 -27 49 -56 53 -63 4 -8
19 -14 32 -14 l25 0 0 420 0 420 -45 0 -45 0 0 -327 -1 -328 -32 36 c-17 19
-144 167 -281 327 -159 186 -256 292 -268 292 -17 0 -18 -20 -18 -420z"/>
<path d="M1876 1090 c-68 -26 -131 -91 -157 -160 -26 -68 -23 -192 7 -255 24
-52 87 -113 144 -139 63 -29 205 -29 270 2 88 41 145 121 158 221 9 65 -2 150
-24 195 -28 54 -95 115 -152 136 -70 26 -179 26 -246 0z m173 -70 c46 0 109
-49 138 -108 35 -72 30 -164 -14 -226 -52 -76 -169 -109 -257 -72 -73 30 -126
114 -126 198 0 72 45 155 100 183 36 19 100 34 118 29 8 -2 26 -4 41 -4z"/>
<path d="M2598 1105 c-7 -7 256 -608 269 -612 5 -2 20 23 33 54 13 32 38 90
56 128 72 158 184 416 184 425 0 6 -19 10 -42 10 l-43 0 -94 -212 c-73 -163
-97 -206 -103 -192 -5 10 -46 105 -92 209 l-84 190 -39 3 c-21 2 -41 0 -45 -3z"/>
<path d="M3614 1089 c-60 -23 -115 -75 -146 -138 -33 -67 -37 -187 -9 -262 70
-185 320 -238 480 -103 30 25 61 72 61 93 0 5 -15 18 -34 29 l-35 21 -20 -34
c-41 -70 -140 -109 -235 -91 -64 12 -113 70 -131 154 l-7 32 248 0 247 0 -6
56 c-12 114 -87 215 -185 248 -63 22 -165 20 -228 -5z m225 -87 c34 -16 91
-84 91 -109 0 -10 -38 -13 -195 -13 l-195 0 10 25 c15 39 39 72 66 90 53 34
156 38 223 7z"/>
<path d="M6090 1104 c0 -3 43 -69 96 -146 58 -85 93 -145 90 -154 -3 -9 -46
-74 -96 -145 -49 -70 -90 -131 -90 -134 0 -3 20 -5 45 -5 l44 0 77 110 c41 61
79 108 83 105 4 -2 39 -52 77 -109 l69 -106 48 0 c44 0 60 11 37 25 -10 6
-177 246 -182 262 -2 5 41 73 95 150 53 78 97 144 97 147 0 3 -20 6 -44 6
l-44 0 -76 -115 c-42 -64 -80 -114 -84 -111 -5 3 -41 55 -82 115 l-74 111 -43
0 c-24 0 -43 -3 -43 -6z"/>
<path d="M5360 1060 l0 -40 55 0 55 0 0 -250 0 -250 44 0 45 0 1 290 0 290
-100 0 -100 0 0 -40z"/>
</g>
</svg>
