<?xml version="1.0" standalone="no"?>
<!DOCTYPE svg PUBLIC "-//W3C//DTD SVG 20010904//EN"
 "http://www.w3.org/TR/2001/REC-SVG-20010904/DTD/svg10.dtd">
<svg version="1.0" xmlns="http://www.w3.org/2000/svg"
 width="953.000000pt" height="354.000000pt" viewBox="0 0 953.000000 354.000000"
 preserveAspectRatio="xMidYMid meet">
<metadata>
Created by potrace 1.16, written by Peter Selinger 2001-2019
</metadata>
<g transform="translate(0.000000,354.000000) scale(0.100000,-0.100000)"
fill="#000000" stroke="none">
<path d="M4516 3098 c-2 -7 -8 -40 -14 -74 -14 -84 -47 -148 -106 -208 -66
-66 -140 -105 -229 -120 l-72 -12 1 -255 c0 -252 1 -255 28 -324 74 -190 266
-421 519 -624 l88 -71 32 22 c126 87 351 305 448 434 82 109 146 241 159 329
6 39 9 164 8 279 l-3 210 -72 12 c-89 15 -163 54 -229 120 -60 61 -93 126
-107 214 -6 36 -16 68 -22 72 -5 4 -104 8 -218 8 -158 0 -208 -3 -211 -12z
m422 -78 c33 -179 175 -320 352 -352 l60 -10 0 -202 c0 -250 -7 -297 -64 -411
-55 -110 -123 -201 -241 -324 -85 -88 -275 -257 -303 -268 -30 -12 -311 246
-433 399 -87 109 -164 253 -179 337 -6 29 -10 147 -10 261 l0 208 59 10 c86
15 168 58 232 122 65 64 93 114 115 203 8 34 17 68 19 75 3 9 51 12 193 12
l188 0 12 -60z"/>
<path d="M4718 2378 l-3 -103 -102 -3 c-57 -1 -103 -7 -103 -12 0 -5 46 -11
103 -12 l102 -3 3 -102 c2 -81 6 -103 17 -103 11 0 15 22 17 103 l3 102 103 3
c56 1 102 7 102 12 0 5 -46 11 -102 12 l-103 3 -3 103 c-2 80 -6 102 -17 102
-11 0 -15 -22 -17 -102z"/>
<path d="M275 834 c-49 -25 -102 -83 -126 -138 -18 -40 -23 -70 -24 -141 0
-78 4 -98 28 -150 48 -102 106 -145 197 -145 89 0 154 50 203 158 30 66 30
207 0 273 -27 60 -87 126 -131 145 -45 18 -109 18 -147 -2z m122 -14 c16 -6
40 -24 52 -41 71 -96 62 -398 -15 -470 -21 -20 -36 -24 -86 -24 -56 0 -62 2
-88 33 -15 18 -33 52 -40 75 -31 104 -21 286 20 367 30 58 92 82 157 60z"/>
<path d="M771 833 c-46 -23 -71 -67 -71 -126 0 -99 32 -131 203 -202 105 -45
131 -72 124 -130 -8 -58 -52 -95 -113 -95 -25 0 -58 7 -74 15 -44 23 -97 95
-117 158 -19 64 -39 77 -29 20 3 -21 6 -78 6 -126 0 -56 4 -86 10 -82 6 3 10
17 10 30 0 37 14 37 76 0 98 -59 195 -46 249 32 18 28 25 51 25 88 0 91 -35
123 -205 189 -105 41 -120 55 -120 115 0 38 5 55 23 74 30 32 81 42 125 24 41
-18 103 -88 118 -136 22 -68 29 -56 29 46 0 98 -11 139 -24 88 -8 -32 -12 -31
-81 5 -65 34 -113 38 -164 13z"/>
<path d="M5564 836 c-65 -29 -95 -99 -74 -177 16 -59 61 -98 151 -133 116 -45
156 -71 169 -111 10 -30 9 -41 -7 -72 -24 -49 -55 -65 -121 -60 -45 3 -58 9
-93 43 -46 44 -74 93 -84 147 -4 20 -11 37 -16 37 -11 0 -10 -194 0 -230 7
-25 8 -24 15 7 4 18 11 35 15 37 3 2 31 -11 61 -30 44 -28 64 -34 108 -34 100
0 158 48 169 138 11 93 -32 138 -191 202 -113 45 -136 65 -136 117 0 74 55
120 127 107 50 -9 116 -77 140 -144 10 -27 22 -50 27 -50 5 0 6 32 3 73 -4 39
-7 87 -7 105 0 20 -4 31 -10 27 -5 -3 -10 -15 -10 -26 0 -26 -11 -24 -73 11
-59 33 -111 38 -163 16z"/>
<path d="M8515 834 c-133 -69 -184 -270 -110 -432 46 -101 105 -142 200 -142
60 0 97 14 132 52 25 26 53 98 53 134 0 42 -16 26 -33 -33 -28 -100 -92 -145
-184 -130 -20 4 -47 16 -60 29 -69 64 -83 356 -22 457 10 17 35 39 54 48 32
15 40 16 77 3 53 -19 98 -77 124 -159 28 -88 46 -81 40 17 -3 42 -5 96 -5 120
-1 49 -12 54 -28 12 l-11 -30 -58 35 c-65 39 -119 45 -169 19z"/>
<path d="M1172 828 c3 -7 20 -15 39 -18 l34 -5 0 -255 0 -255 -37 -3 c-21 -2
-38 -7 -38 -13 0 -5 52 -9 120 -9 68 0 120 4 120 9 0 6 -19 11 -42 13 l-43 3
-3 121 -3 122 98 4 c110 4 144 18 182 74 61 88 4 191 -118 214 -81 15 -314 13
-309 -2z m345 -57 c41 -61 22 -175 -34 -200 -13 -6 -55 -11 -93 -11 l-70 0 0
125 0 126 87 -3 c87 -3 87 -3 110 -37z"/>
<path d="M1717 834 c-13 -13 5 -24 39 -24 l34 0 -2 -257 -3 -258 -37 -3 c-21
-2 -38 -7 -38 -13 0 -5 91 -9 224 -9 l224 0 4 103 c6 115 -4 145 -21 67 -27
-123 -60 -150 -189 -150 -64 0 -81 3 -86 16 -3 9 -6 67 -6 130 l0 114 50 0
c42 0 52 -4 66 -25 9 -13 18 -42 21 -65 12 -84 23 -34 23 100 0 135 -11 181
-24 101 -9 -59 -34 -84 -87 -85 l-44 -1 0 115 0 115 94 3 c73 2 99 -1 118 -13
29 -19 62 -88 63 -127 0 -16 5 -28 10 -28 6 0 10 40 10 100 l0 100 -218 0
c-120 0 -222 -3 -225 -6z"/>
<path d="M2270 825 c0 -10 10 -15 34 -15 27 0 34 -4 37 -22 2 -13 2 -129 -1
-258 l-5 -235 -32 -3 c-18 -2 -33 -8 -33 -13 0 -7 62 -9 178 -7 175 3 179 4
220 30 91 61 145 196 124 310 -20 105 -80 182 -169 214 -26 9 -90 13 -195 14
-134 0 -158 -2 -158 -15z m364 -36 c109 -86 104 -392 -7 -473 -23 -17 -43 -21
-115 -21 l-87 0 -5 235 c-3 129 -4 245 -2 258 3 21 8 22 96 22 80 0 97 -3 120
-21z"/>
<path d="M3452 828 c3 -7 20 -15 39 -18 l34 -5 0 -255 0 -255 -37 -3 c-21 -2
-38 -7 -38 -13 0 -5 87 -9 213 -9 l214 0 6 112 c9 144 0 160 -29 52 -28 -110
-82 -149 -197 -142 l-52 3 -3 258 -2 257 45 0 c33 0 45 4 45 15 0 13 -20 15
-121 15 -92 0 -120 -3 -117 -12z"/>
<path d="M3990 826 c0 -10 13 -16 38 -18 l37 -3 3 -244 c2 -171 -1 -248 -9
-257 -6 -8 -24 -14 -40 -14 -16 0 -29 -4 -29 -10 0 -6 45 -10 115 -10 65 0
115 4 115 9 0 6 -17 11 -37 13 l-38 3 -3 257 -2 257 37 3 c21 2 38 8 38 13 0
6 -46 11 -112 13 -94 2 -113 0 -113 -12z"/>
<path d="M4530 826 c0 -10 13 -16 38 -18 l37 -3 3 -244 c2 -171 -1 -248 -9
-257 -6 -8 -24 -14 -40 -14 -16 0 -29 -4 -29 -10 0 -6 45 -10 115 -10 65 0
115 4 115 9 0 6 -17 11 -37 13 l-38 3 -3 257 -2 257 37 3 c21 2 38 8 38 13 0
6 -46 11 -112 13 -94 2 -113 0 -113 -12z"/>
<path d="M4842 828 c3 -7 21 -14 41 -16 l37 -3 0 -244 c0 -241 0 -244 -22
-259 -12 -9 -30 -16 -40 -16 -10 0 -18 -4 -18 -10 0 -6 38 -10 95 -10 57 0 95
4 95 10 0 6 -11 10 -25 10 -50 0 -56 27 -53 255 l3 209 51 -80 c28 -43 98
-153 155 -244 104 -166 116 -183 131 -174 4 3 8 119 8 257 0 271 4 292 52 299
12 2 23 9 26 16 3 10 -17 12 -90 10 -53 -2 -93 -7 -93 -13 0 -5 12 -11 28 -13
15 -2 32 -12 37 -22 6 -12 9 -93 8 -206 l-3 -186 -136 218 -136 219 -77 3
c-60 2 -77 0 -74 -10z"/>
<path d="M5932 828 c3 -7 20 -15 39 -18 l34 -5 5 -210 c4 -170 8 -216 22 -240
36 -66 93 -95 185 -95 97 0 163 48 182 130 6 25 11 122 11 216 0 181 4 200 48
206 12 2 24 8 25 13 1 6 -36 11 -91 13 -73 2 -93 0 -90 -10 3 -7 14 -14 26
-16 46 -7 52 -33 52 -227 0 -168 -2 -184 -22 -225 -39 -76 -142 -105 -216 -60
-56 34 -62 64 -62 300 l0 210 40 0 c29 0 40 4 40 15 0 12 -20 15 -116 15 -88
0 -115 -3 -112 -12z"/>
<path d="M6560 826 c0 -10 7 -17 18 -15 9 1 27 1 40 0 l22 -1 -2 -257 -3 -258
-37 -3 c-21 -2 -38 -7 -38 -13 0 -5 52 -9 120 -9 68 0 120 4 120 9 0 6 -19 11
-42 13 l-43 3 -3 133 -3 133 68 -3 c64 -3 69 -5 82 -33 8 -16 18 -66 22 -110
11 -123 30 -155 92 -155 39 0 66 30 76 83 10 56 -1 64 -15 10 -6 -28 -15 -39
-31 -41 -24 -4 -28 4 -42 96 -13 79 -37 122 -79 142 -37 18 -41 30 -8 30 61 0
131 85 122 149 -12 83 -64 103 -273 109 -148 4 -163 3 -163 -12z m317 -31 c46
-32 48 -135 4 -179 -17 -16 -37 -21 -96 -24 l-75 -4 0 104 c0 58 3 108 7 111
13 14 138 7 160 -8z"/>
<path d="M7369 773 c-12 -38 -53 -153 -90 -258 -71 -195 -89 -225 -135 -225
-13 0 -24 -4 -24 -10 0 -6 43 -10 110 -10 67 0 110 4 110 10 0 6 -16 10 -35
10 -56 0 -66 39 -33 123 l11 28 95 -3 96 -3 20 -63 c23 -70 18 -82 -36 -82
-16 0 -28 -4 -28 -10 0 -6 48 -10 125 -10 77 0 125 4 125 10 0 6 -13 10 -28
10 -57 0 -52 -9 -167 330 -75 220 -75 220 -85 220 -5 0 -18 -30 -31 -67z m55
-193 c20 -58 36 -108 36 -112 0 -5 -39 -8 -86 -8 -65 0 -85 3 -82 13 3 6 22
61 43 120 21 59 41 104 45 100 4 -4 24 -55 44 -113z"/>
<path d="M7750 826 c0 -10 13 -16 38 -18 l37 -3 3 -226 c1 -134 -2 -237 -8
-253 -6 -18 -19 -28 -40 -32 -59 -12 -29 -24 60 -24 88 0 119 12 61 23 -16 3
-31 13 -34 21 -10 25 -10 416 -1 416 9 -1 45 -56 219 -333 57 -90 92 -137 104
-137 16 0 17 21 19 262 1 174 6 266 13 275 6 7 22 13 35 13 15 0 24 6 24 15 0
12 -17 15 -90 15 -71 0 -90 -3 -90 -14 0 -9 12 -16 27 -18 46 -5 53 -34 53
-230 0 -161 -7 -207 -24 -162 -3 8 -21 39 -40 67 -18 29 -71 113 -116 187 -46
74 -90 143 -98 153 -20 23 -152 25 -152 3z"/>
<path d="M8903 828 c3 -12 10 -14 60 -17 16 -1 17 -18 15 -258 l-3 -258 -37
-3 c-21 -2 -38 -7 -38 -13 0 -5 89 -9 219 -9 190 0 220 2 225 16 9 24 7 209
-2 199 -5 -6 -14 -36 -21 -67 -22 -104 -62 -131 -187 -126 l-79 3 -3 128 -3
127 45 0 c36 0 48 -5 65 -27 12 -14 24 -43 27 -65 13 -79 24 -33 24 102 0 135
-11 181 -24 101 -9 -59 -34 -84 -87 -85 l-44 -1 -3 118 -3 117 90 0 c49 0 101
-4 115 -10 28 -10 61 -67 71 -123 4 -20 12 -37 17 -37 7 0 8 33 5 93 -4 50 -6
95 -7 100 0 4 -99 7 -221 7 -172 0 -220 -3 -216 -12z"/>
<path d="M3006 583 c-89 -253 -111 -293 -157 -293 -10 0 -19 -4 -19 -10 0 -6
42 -10 105 -10 63 0 105 4 105 10 0 6 -13 10 -29 10 -26 0 -61 21 -61 37 0 4
8 30 17 60 l17 53 96 0 97 0 18 -59 c21 -72 16 -91 -25 -91 -16 0 -30 -4 -30
-10 0 -6 47 -10 120 -10 73 0 120 4 120 10 0 6 -12 10 -26 10 -53 0 -59 11
-149 280 -49 143 -94 260 -100 260 -6 0 -50 -111 -99 -247z m117 7 c20 -60 37
-114 37 -120 0 -6 -32 -10 -80 -10 -57 0 -80 4 -80 13 0 17 74 227 80 227 3 0
22 -49 43 -110z"/>
</g>
</svg>
