<?xml version="1.0" standalone="no"?>
<!DOCTYPE svg PUBLIC "-//W3C//DTD SVG 20010904//EN"
 "http://www.w3.org/TR/2001/REC-SVG-20010904/DTD/svg10.dtd">
<svg version="1.0" xmlns="http://www.w3.org/2000/svg"
 width="868.000000pt" height="428.000000pt" viewBox="0 0 868.000000 428.000000"
 preserveAspectRatio="xMidYMid meet">
<metadata>
Created by potrace 1.16, written by Peter Selinger 2001-2019
</metadata>
<g transform="translate(0.000000,428.000000) scale(0.100000,-0.100000)"
fill="#000000" stroke="none">
<path d="M4242 3975 c-92 -26 -180 -80 -250 -154 -57 -61 -82 -115 -82 -180 0
-45 4 -57 29 -82 26 -26 36 -29 93 -29 83 0 103 15 118 85 19 92 72 121 210
113 82 -4 114 -24 148 -88 20 -41 22 -57 22 -226 0 -237 -6 -229 152 -229 179
0 218 33 218 188 0 281 -112 461 -359 575 -64 29 -89 35 -161 38 -55 3 -104
-1 -138 -11z"/>
<path d="M4287 3588 c-11 -17 -17 -77 -22 -243 -9 -298 -24 -324 -142 -245
-82 54 -123 51 -123 -9 0 -20 23 -46 106 -116 166 -141 152 -106 147 -357 -2
-117 -6 -223 -9 -235 -12 -61 -70 -69 -135 -19 -61 46 -83 52 -108 27 -24 -24
-27 -47 -8 -64 6 -7 56 -50 109 -95 132 -113 138 -121 138 -197 0 -52 -4 -65
-25 -85 -21 -19 -39 -24 -121 -29 -107 -7 -124 -18 -124 -77 0 -23 8 -39 26
-53 26 -20 38 -21 340 -21 172 0 320 3 329 6 18 7 45 55 45 79 0 9 -11 27 -25
40 -21 22 -33 25 -99 25 -149 0 -150 2 -154 307 -4 272 -7 257 73 318 28 21
52 41 55 44 3 3 35 32 73 64 74 65 85 95 43 122 -28 18 -44 13 -106 -36 -55
-43 -74 -44 -112 -10 l-33 29 -7 204 c-3 112 -7 291 -7 398 -1 229 -5 243 -68
248 -35 3 -44 -1 -56 -20z"/>
<path d="M3764 3421 c-96 -23 -181 -92 -222 -180 -59 -128 -11 -299 107 -377
37 -24 43 -24 187 -22 l149 3 0 35 c0 31 -5 37 -38 53 -87 41 -107 225 -32
287 9 7 46 16 82 19 56 5 69 10 86 33 17 23 18 31 8 55 -32 77 -198 124 -327
94z"/>
<path d="M4750 3074 c-47 -17 -104 -51 -121 -72 -24 -32 -24 -53 2 -86 15 -20
29 -26 57 -26 20 0 54 -5 74 -10 63 -18 97 -100 79 -194 -11 -59 -36 -95 -85
-120 -27 -15 -36 -26 -36 -46 0 -46 14 -50 165 -50 138 0 142 1 186 29 88 55
146 182 136 293 -10 113 -77 206 -186 260 -38 18 -65 23 -151 25 -58 1 -112 0
-120 -3z"/>
<path d="M3757 2690 c-118 -21 -217 -101 -258 -209 -52 -138 15 -316 143 -382
31 -16 59 -19 171 -19 148 0 161 5 155 57 -2 21 -12 32 -41 46 -46 21 -73 64
-82 127 -9 63 10 127 47 162 26 24 38 28 87 28 47 0 61 4 79 23 34 36 28 70
-18 110 -22 18 -57 39 -77 45 -56 16 -151 22 -206 12z"/>
<path d="M2622 1177 c-266 -546 -372 -767 -372 -777 0 -6 7 -10 15 -10 9 0 52
73 114 199 85 169 104 200 126 205 15 4 142 6 284 6 l257 -2 102 -204 c82
-164 106 -204 122 -204 11 0 20 4 20 9 0 4 -74 158 -164 342 -90 184 -207 423
-259 532 -53 108 -97 197 -99 197 -2 -1 -67 -132 -146 -293z m276 -73 l129
-259 -128 -3 c-70 -1 -188 -1 -262 0 l-134 3 129 264 c70 145 131 262 133 259
3 -2 63 -121 133 -264z"/>
<path d="M490 921 c0 -524 0 -531 20 -531 11 0 21 5 21 10 1 6 3 15 4 20 1 6
3 88 4 184 l1 173 49 6 c67 8 131 40 190 95 140 133 144 328 8 463 -63 62
-141 99 -227 106 l-70 6 0 -532z m175 460 c22 -10 61 -40 87 -67 117 -118 116
-297 -1 -407 -60 -56 -99 -77 -162 -84 l-49 -6 0 298 0 298 42 -7 c23 -4 60
-15 83 -25z"/>
<path d="M6002 918 c3 -351 4 -364 25 -404 38 -71 90 -107 186 -128 22 -5 27
-3 27 13 0 14 -11 21 -44 30 -56 14 -104 54 -127 106 -16 35 -19 68 -19 248
l0 207 95 0 c78 0 95 3 95 15 0 12 -16 15 -82 16 -46 1 -89 1 -95 0 -10 -1
-13 30 -13 129 l0 130 -26 0 -25 0 3 -362z"/>
<path d="M1165 1019 c-22 -11 -50 -32 -63 -46 -27 -29 -37 -24 -37 20 0 26 -5
33 -22 35 l-23 3 0 -321 0 -321 23 3 c22 3 22 3 27 248 3 135 9 252 14 260 21
33 53 62 90 82 51 26 133 21 176 -10 37 -28 40 -28 40 3 0 57 -146 85 -225 44z"/>
<path d="M1693 1020 c-67 -27 -147 -99 -181 -164 -24 -45 -27 -62 -27 -146 0
-83 3 -101 27 -145 33 -63 95 -125 156 -156 68 -34 186 -39 265 -9 144 54 237
220 207 368 -16 75 -39 119 -91 171 -67 67 -129 94 -224 98 -63 2 -91 -1 -132
-17z m238 -43 c49 -24 114 -89 141 -140 30 -56 32 -193 5 -248 -30 -61 -85
-116 -142 -144 -48 -24 -64 -27 -132 -23 -91 4 -136 23 -192 80 -79 78 -109
190 -77 286 31 91 102 168 183 198 50 19 167 13 214 -9z"/>
<path d="M3635 1034 c-48 -12 -86 -37 -124 -80 l-40 -46 -3 59 c-3 50 -6 58
-23 58 -20 0 -20 -7 -20 -315 l0 -315 23 -3 22 -3 0 213 c0 241 5 262 76 330
94 90 231 92 322 5 72 -69 77 -88 80 -329 3 -208 4 -218 23 -218 18 0 19 9 19
218 0 207 -1 219 -24 268 -28 61 -78 113 -132 139 -38 18 -157 29 -199 19z"/>
<path d="M4373 1026 c-159 -52 -251 -182 -241 -340 8 -114 79 -224 179 -276
90 -47 231 -44 314 6 67 40 85 60 85 93 0 17 -2 31 -3 31 -2 0 -23 -19 -47
-41 -63 -60 -121 -84 -200 -83 -82 1 -143 27 -200 84 -117 117 -117 294 -1
410 67 67 111 85 202 85 88 0 144 -23 209 -87 l40 -40 0 35 c0 28 -7 40 -35
61 -85 65 -213 91 -302 62z"/>
<path d="M5065 1030 c-92 -24 -180 -94 -227 -181 -19 -37 -23 -59 -23 -139 0
-84 3 -101 27 -145 49 -93 144 -166 239 -183 131 -25 309 50 309 130 0 15 -2
28 -3 28 -2 0 -23 -19 -47 -41 -59 -56 -115 -79 -193 -81 -63 -1 -126 19 -172
55 -19 15 -11 24 204 234 l224 219 -39 30 c-61 47 -85 60 -136 72 -52 13 -117
14 -163 2z m178 -50 c30 -11 63 -30 73 -41 18 -20 16 -23 -185 -219 -112 -110
-208 -197 -213 -194 -4 3 -21 29 -35 57 -38 71 -39 180 -5 247 76 145 220 204
365 150z"/>
<path d="M5615 1033 c-28 -7 -61 -40 -76 -75 -28 -67 28 -147 150 -215 119
-66 169 -144 141 -218 -26 -68 -83 -105 -165 -105 -67 0 -103 17 -144 67 l-31
38 0 -32 c0 -23 9 -39 34 -61 46 -40 96 -55 167 -50 150 11 239 168 161 285
-32 49 -52 65 -150 123 -85 50 -122 90 -122 131 0 74 105 107 169 53 l31 -26
0 26 c0 49 -84 78 -165 59z"/>
<path d="M6550 1023 c-161 -58 -254 -215 -221 -375 16 -78 50 -136 108 -188
139 -122 369 -102 473 42 17 22 30 37 31 32 1 -5 2 -38 2 -74 2 -59 4 -65 25
-68 l22 -3 -2 318 c-3 310 -3 318 -23 318 -18 0 -20 -7 -22 -60 -1 -33 -2 -67
-2 -75 -1 -8 -9 -2 -20 15 -24 41 -73 81 -130 107 -61 28 -179 34 -241 11z
m201 -38 c65 -22 141 -93 169 -157 60 -139 10 -288 -125 -377 -36 -23 -49 -26
-135 -26 -85 0 -100 3 -141 27 -108 64 -154 151 -147 278 4 72 8 85 41 133 82
119 211 165 338 122z"/>
<path d="M7314 1026 c-18 -8 -50 -31 -73 -51 l-41 -37 0 44 c0 37 -3 44 -20
45 -20 2 -20 -4 -20 -318 0 -309 1 -319 19 -319 19 0 20 10 23 238 3 266 5
274 81 336 35 28 46 31 105 31 53 0 73 -5 99 -22 39 -29 43 -29 43 2 0 52
-139 84 -216 51z"/>
<path d="M7634 1015 c-3 -8 -4 -106 -2 -217 3 -191 5 -206 28 -253 30 -63 83
-115 146 -144 41 -20 60 -23 130 -19 95 5 158 35 199 96 l25 37 0 -71 c0 -134
-61 -234 -166 -273 -108 -41 -201 -17 -290 76 l-44 47 0 -36 c0 -29 7 -42 37
-68 59 -52 117 -73 203 -74 123 -1 215 54 272 164 23 44 23 50 26 398 3 344 2
352 -17 352 -19 0 -20 -9 -23 -217 -3 -203 -5 -221 -25 -260 -51 -94 -130
-138 -236 -131 -83 5 -148 49 -189 127 l-28 53 0 214 c0 208 -1 214 -20 214
-11 0 -23 -7 -26 -15z"/>
</g>
</svg>
