<?xml version="1.0" standalone="no"?>
<!DOCTYPE svg PUBLIC "-//W3C//DTD SVG 20010904//EN"
 "http://www.w3.org/TR/2001/REC-SVG-20010904/DTD/svg10.dtd">
<svg version="1.0" xmlns="http://www.w3.org/2000/svg"
 width="880.000000pt" height="344.000000pt" viewBox="0 0 880.000000 344.000000"
 preserveAspectRatio="xMidYMid meet">
<metadata>
Created by potrace 1.16, written by Peter Selinger 2001-2019
</metadata>
<g transform="translate(0.000000,344.000000) scale(0.100000,-0.100000)"
fill="#000000" stroke="none">
<path d="M1296 2849 c-346 -35 -596 -208 -661 -459 -23 -87 -16 -241 14 -325
89 -248 344 -409 721 -455 273 -33 427 -115 502 -267 44 -89 50 -200 18 -287
-37 -98 -131 -177 -262 -220 -141 -47 -336 -48 -473 -2 -158 53 -243 116 -316
231 -48 77 -105 111 -171 102 -53 -7 -110 -53 -122 -99 -8 -31 -4 -46 30 -114
69 -141 236 -283 414 -352 110 -43 211 -63 350 -69 429 -17 763 178 844 493
21 80 21 250 1 329 -34 135 -125 266 -236 342 -125 86 -260 131 -485 162 -249
35 -358 71 -446 150 -126 112 -144 313 -39 433 80 91 228 140 421 141 232 1
358 -62 492 -244 52 -72 94 -99 153 -99 61 0 108 37 129 102 28 89 -184 343
-359 430 -136 68 -326 96 -519 77z"/>
<path d="M3500 2145 c-254 -44 -469 -210 -580 -446 -54 -116 -65 -178 -65
-354 0 -188 13 -248 84 -395 39 -81 59 -109 136 -185 102 -103 195 -158 331
-197 77 -22 91 -23 511 -23 420 0 432 1 459 21 15 11 37 33 48 48 20 27 21 38
20 444 0 397 -2 421 -22 497 -115 417 -500 663 -922 590z m275 -260 c122 -32
250 -127 310 -230 86 -146 103 -364 41 -522 -112 -287 -432 -409 -712 -273
-100 49 -176 127 -228 232 -46 93 -59 167 -54 298 8 161 53 265 164 372 120
117 312 166 479 123z"/>
<path d="M5600 2149 c-156 -28 -271 -83 -354 -171 -81 -87 -117 -208 -95 -324
36 -193 204 -316 525 -384 279 -60 386 -115 414 -215 35 -126 -59 -219 -249
-245 -177 -24 -356 23 -477 126 -68 58 -115 77 -159 65 -78 -21 -125 -78 -125
-151 0 -95 164 -205 406 -272 68 -19 105 -22 269 -22 180 0 194 1 270 27 240
80 363 240 353 460 -10 238 -167 357 -598 453 -159 36 -279 82 -317 123 -32
35 -46 94 -33 143 25 90 130 138 305 139 149 1 226 -23 330 -101 72 -54 109
-70 155 -70 82 0 139 62 126 136 -17 90 -200 220 -375 265 -88 24 -287 33
-371 18z"/>
<path d="M7475 2151 c-199 -33 -353 -128 -425 -263 -32 -59 -34 -69 -34 -158
0 -125 23 -186 100 -263 94 -94 220 -153 424 -197 224 -48 346 -98 392 -161
44 -59 42 -157 -4 -206 -62 -66 -164 -98 -313 -97 -162 1 -284 44 -393 138
-29 25 -70 51 -92 57 -33 10 -44 9 -82 -10 -58 -27 -88 -60 -98 -106 -14 -60
4 -99 68 -149 165 -132 392 -195 659 -183 200 8 323 52 431 152 161 149 187
384 62 551 -82 109 -223 174 -521 239 -217 47 -305 89 -339 161 -26 53 -21
117 11 158 87 110 425 118 573 14 25 -18 64 -46 86 -62 81 -58 186 -44 226 29
15 29 16 39 5 75 -29 98 -215 225 -386 265 -81 19 -277 28 -350 16z"/>
</g>
</svg>
