<?xml version="1.0" standalone="no"?>
<!DOCTYPE svg PUBLIC "-//W3C//DTD SVG 20010904//EN"
 "http://www.w3.org/TR/2001/REC-SVG-20010904/DTD/svg10.dtd">
<svg version="1.0" xmlns="http://www.w3.org/2000/svg"
 width="744.000000pt" height="449.000000pt" viewBox="0 0 744.000000 449.000000"
 preserveAspectRatio="xMidYMid meet">
<metadata>
Created by potrace 1.16, written by Peter Selinger 2001-2019
</metadata>
<g transform="translate(0.000000,449.000000) scale(0.100000,-0.100000)"
fill="#000000" stroke="none">
<path d="M3707 3523 c-683 -3 -647 0 -633 -58 l6 -25 630 0 630 0 0 45 c0 25
-1 44 -2 43 -2 -2 -286 -4 -631 -5z"/>
<path d="M3073 3313 l2 -38 633 -3 632 -2 0 40 0 40 -634 0 -634 0 1 -37z"/>
<path d="M3079 3183 c-5 -29 -6 -60 -2 -70 4 -10 138 -13 634 -13 l629 0 0 45
0 45 -630 0 c-346 0 -631 -3 -631 -7z"/>
<path d="M3417 3053 c-4 -3 -7 -278 -7 -610 l0 -603 40 0 40 0 0 610 0 610
-33 0 c-19 0 -37 -3 -40 -7z"/>
<path d="M3587 3053 c-4 -3 -7 -278 -7 -610 l0 -603 40 0 40 0 0 610 0 610
-33 0 c-19 0 -37 -3 -40 -7z"/>
<path d="M3750 2451 l0 -611 40 0 40 0 -2 608 -3 607 -37 3 -38 3 0 -610z"/>
<path d="M3920 2450 l0 -610 40 0 40 0 0 610 0 610 -40 0 -40 0 0 -610z"/>
<path d="M420 1380 l0 -59 108 -3 107 -3 3 -257 2 -258 80 0 80 0 0 260 0 260
110 0 110 0 0 60 0 60 -300 0 -300 0 0 -60z"/>
<path d="M4546 1431 c-5 -7 -169 -448 -222 -593 l-13 -38 83 0 83 0 18 55 19
55 132 0 132 0 18 -47 c9 -27 21 -52 25 -57 7 -8 148 -10 156 -3 3 4 -35 114
-117 332 -26 72 -63 169 -80 218 l-33 87 -98 0 c-54 0 -100 -4 -103 -9z m144
-260 c22 -62 40 -119 40 -127 0 -11 -18 -14 -86 -14 -64 0 -85 3 -82 13 29 88
83 245 85 243 1 -1 20 -53 43 -115z"/>
<path d="M5960 1350 l0 -70 -35 0 -35 0 0 -55 0 -55 34 0 34 0 4 -137 c6 -210
25 -233 198 -233 l100 0 0 49 0 48 -62 7 c-34 3 -65 12 -70 19 -4 6 -8 65 -8
130 l0 117 80 0 80 0 0 55 0 55 -80 0 -80 0 0 70 0 70 -80 0 -80 0 0 -70z"/>
<path d="M1232 1275 c-104 -32 -162 -118 -162 -241 0 -115 52 -195 155 -234
48 -19 201 -16 273 5 l62 18 0 58 0 58 -43 -19 c-57 -25 -148 -39 -200 -30
-47 9 -87 48 -87 86 l0 24 181 0 180 0 -6 58 c-4 31 -15 75 -24 97 -23 51 -88
111 -138 124 -51 15 -138 13 -191 -4z m150 -96 c16 -9 48 -64 48 -84 0 -3 -45
-5 -100 -5 -84 0 -100 2 -100 16 0 60 92 105 152 73z"/>
<path d="M2065 1278 c-11 -6 -35 -24 -52 -41 l-33 -31 0 37 0 37 -75 0 -75 0
0 -240 0 -240 75 0 75 0 0 128 c0 175 19 233 82 248 21 4 33 0 52 -20 26 -25
26 -27 26 -191 l0 -165 80 0 80 0 0 151 c0 124 3 156 17 180 30 51 108 58 128
12 5 -10 10 -91 13 -180 l4 -163 75 0 75 0 -4 188 c-3 165 -5 191 -23 221 -30
51 -67 74 -128 79 -59 5 -102 -11 -150 -56 l-28 -26 -22 26 c-44 52 -140 75
-192 46z"/>
<path d="M3120 1275 c-19 -9 -48 -28 -64 -43 l-28 -27 4 38 4 37 -78 0 -78 0
0 -335 0 -335 78 0 77 0 -3 120 c-3 103 -1 120 12 120 9 0 16 -4 16 -8 0 -13
71 -49 109 -56 76 -14 158 34 204 119 33 61 31 202 -3 269 -37 73 -87 109
-158 113 -37 2 -69 -2 -92 -12z m64 -106 c57 -26 77 -165 34 -229 -46 -68
-140 -57 -170 20 -13 35 -12 134 2 162 28 53 80 71 134 47z"/>
<path d="M3768 1276 c-114 -41 -164 -126 -156 -262 7 -101 41 -157 122 -198
50 -26 68 -30 139 -30 91 1 144 18 190 62 68 64 93 173 63 276 -31 107 -124
167 -260 166 -34 -1 -78 -7 -98 -14z m175 -126 c30 -35 42 -94 32 -157 -16
-105 -126 -137 -182 -53 -40 59 -26 200 24 229 10 6 37 11 60 11 34 0 46 -5
66 -30z"/>
<path d="M6640 1281 c-116 -38 -172 -115 -174 -236 -1 -89 22 -152 74 -199 48
-43 103 -59 198 -59 61 1 84 6 130 30 80 41 115 99 121 201 4 90 -9 140 -51
188 -49 55 -101 77 -193 80 -44 2 -91 0 -105 -5z m141 -111 c10 -6 26 -24 34
-40 20 -39 19 -143 -1 -186 -32 -67 -136 -69 -170 -3 -36 71 -25 181 23 218
28 23 82 28 114 11z"/>
<path d="M5190 1101 c0 -101 5 -193 11 -212 35 -109 179 -139 282 -58 l37 30
0 -31 0 -30 75 0 75 0 0 240 0 240 -75 0 -75 0 0 -131 c0 -146 -12 -201 -48
-230 -33 -25 -84 -25 -108 2 -17 19 -19 41 -22 190 l-3 169 -75 0 -74 0 0
-179z"/>
</g>
</svg>
