<?xml version="1.0" standalone="no"?>
<!DOCTYPE svg PUBLIC "-//W3C//DTD SVG 20010904//EN"
 "http://www.w3.org/TR/2001/REC-SVG-20010904/DTD/svg10.dtd">
<svg version="1.0" xmlns="http://www.w3.org/2000/svg"
 width="648.000000pt" height="243.000000pt" viewBox="0 0 648.000000 243.000000"
 preserveAspectRatio="xMidYMid meet">
<metadata>
Created by potrace 1.16, written by Peter Selinger 2001-2019
</metadata>
<g transform="translate(0.000000,243.000000) scale(0.100000,-0.100000)"
fill="#000000" stroke="none">
<path d="M3017 2027 c-16 -11 -17 -63 -15 -758 l3 -745 30 -59 c17 -33 42 -66
57 -74 23 -14 30 -13 68 4 23 10 49 29 57 41 13 20 12 27 -14 76 l-28 53 -5
723 c-5 702 -6 724 -24 738 -24 17 -106 18 -129 1z"/>
<path d="M326 1915 c-17 -13 -14 -34 79 -542 53 -290 105 -575 115 -633 39
-218 76 -292 168 -337 52 -25 66 -28 172 -27 140 0 201 21 250 88 43 57 62
127 114 412 25 137 69 373 96 524 79 426 89 490 84 505 -11 29 -111 34 -143 8
-18 -16 -34 -88 -116 -543 -155 -848 -145 -808 -212 -836 -57 -24 -185 -12
-168 16 4 6 1 9 -7 8 -7 -2 -20 13 -30 32 -9 19 -69 321 -133 670 -99 542
-119 638 -137 653 -25 21 -105 23 -132 2z"/>
<path d="M1980 1650 c-101 -19 -200 -68 -244 -121 -60 -71 -60 -71 -64 -477
-3 -405 1 -451 47 -523 76 -121 294 -182 530 -148 225 33 311 110 319 288 5
101 -3 111 -84 111 -71 0 -84 -15 -84 -92 0 -123 -69 -162 -290 -163 -114 0
-129 2 -174 25 -84 42 -90 58 -94 226 -3 134 -2 144 15 144 56 0 443 43 491
54 172 40 214 98 220 302 5 160 -11 220 -76 285 -74 73 -135 91 -317 95 -82 2
-170 -1 -195 -6z m337 -167 c72 -39 83 -62 83 -170 0 -136 -23 -175 -113 -197
-27 -6 -395 -46 -429 -46 -17 0 -18 13 -18 156 0 206 10 228 121 268 34 12 75
15 179 13 116 -2 141 -6 177 -24z"/>
<path d="M5510 1650 c-76 -16 -168 -69 -199 -114 -48 -72 -56 -103 -56 -226 0
-234 38 -271 364 -355 193 -50 271 -81 295 -117 22 -34 31 -135 17 -195 -10
-41 -19 -54 -52 -75 -88 -57 -312 -63 -418 -12 -65 32 -81 64 -81 163 0 82 -9
91 -89 91 -78 0 -95 -41 -71 -171 30 -163 128 -238 342 -262 181 -20 385 25
465 102 59 57 73 100 73 227 0 195 -36 262 -171 314 -44 17 -156 50 -248 74
-92 24 -181 51 -199 60 -48 25 -62 61 -62 165 0 82 2 92 26 121 49 57 75 65
224 65 122 0 139 -2 178 -23 61 -32 82 -72 82 -154 0 -84 12 -98 85 -98 80 0
89 13 81 119 -13 159 -70 235 -211 286 -58 20 -301 30 -375 15z"/>
<path d="M4370 1601 c-6 -12 -8 -30 -5 -40 4 -15 1 -17 -18 -14 -31 6 -57 -20
-57 -57 0 -30 22 -50 57 -50 13 0 18 -8 19 -28 1 -23 -3 -27 -28 -27 -24 0
-28 4 -28 27 0 34 -43 67 -68 52 -26 -17 -35 -39 -28 -67 7 -30 48 -46 69 -29
10 8 12 2 9 -28 -3 -31 0 -40 18 -50 12 -6 32 -9 43 -6 20 5 22 1 22 -34 0
-30 -3 -37 -14 -30 -8 4 -24 4 -36 0 -19 -7 -21 -5 -17 21 5 37 -13 59 -47 59
-34 0 -51 -17 -51 -52 0 -31 30 -53 61 -45 16 4 19 0 17 -23 -3 -36 17 -60 51
-60 22 0 26 -4 26 -30 0 -22 -5 -30 -18 -30 -34 0 -57 -20 -57 -49 0 -34 20
-54 56 -54 18 0 24 -4 20 -14 -3 -8 -2 -22 4 -32 8 -15 6 -17 -14 -14 -37 7
-66 -13 -66 -46 0 -46 50 -77 78 -49 7 7 12 8 12 2 0 -5 -5 -15 -11 -21 -8 -8
-8 -17 1 -32 10 -20 9 -21 -14 -15 -39 9 -66 -11 -66 -51 0 -39 26 -60 66 -52
20 3 22 1 14 -14 -6 -10 -7 -25 -3 -35 5 -14 2 -16 -17 -11 -32 8 -60 -18 -60
-54 0 -33 29 -53 66 -46 19 3 22 1 13 -9 -13 -15 -3 -54 14 -54 24 1 98 40 93
49 -3 5 2 7 12 4 23 -6 72 33 72 58 0 13 7 19 23 19 34 0 59 22 60 53 2 21 7
27 24 27 16 0 31 13 50 43 83 131 119 278 103 421 -13 113 -55 236 -80 236 -6
0 -10 8 -10 18 0 24 -40 87 -48 75 -4 -5 -15 -12 -24 -16 -13 -5 -18 -1 -18
13 0 12 7 20 17 20 13 0 9 8 -16 33 -22 21 -35 28 -38 20 -3 -7 -13 -13 -24
-13 -14 0 -19 7 -19 26 0 14 4 23 9 19 5 -3 12 -2 15 3 3 5 -8 16 -23 25 -21
12 -36 14 -60 7 -29 -8 -31 -7 -25 14 7 28 -12 45 -59 53 -29 4 -37 2 -47 -16z"/>
</g>
</svg>
