<?xml version="1.0" standalone="no"?>
<!DOCTYPE svg PUBLIC "-//W3C//DTD SVG 20010904//EN"
 "http://www.w3.org/TR/2001/REC-SVG-20010904/DTD/svg10.dtd">
<svg version="1.0" xmlns="http://www.w3.org/2000/svg"
 width="868.000000pt" height="312.000000pt" viewBox="0 0 868.000000 312.000000"
 preserveAspectRatio="xMidYMid meet">
<metadata>
Created by potrace 1.16, written by Peter Selinger 2001-2019
</metadata>
<g transform="translate(0.000000,312.000000) scale(0.100000,-0.100000)"
fill="#000000" stroke="none">
<path d="M1260 2218 c-17 -13 -38 -34 -46 -48 -11 -20 -93 -213 -208 -495 -9
-22 -21 -49 -26 -60 -31 -69 -87 -202 -115 -275 -19 -47 -45 -111 -59 -143
-15 -32 -23 -64 -20 -70 4 -7 4 -9 -1 -5 -7 7 -173 -374 -187 -430 -11 -39 10
-89 46 -111 35 -22 86 -28 86 -10 0 5 4 8 8 5 20 -12 63 56 106 164 25 63 46
122 48 130 2 8 6 17 10 20 4 3 32 68 63 145 30 77 62 155 71 172 8 18 26 63
40 100 13 38 29 77 34 88 63 139 111 266 104 277 -4 6 -3 8 2 5 5 -3 28 40 50
96 23 55 45 102 51 104 5 2 14 -11 20 -29 13 -38 97 -250 208 -523 42 -104
124 -307 182 -450 57 -143 111 -267 119 -277 23 -24 70 -41 98 -34 40 10 86
60 86 95 0 38 -110 317 -121 307 -2 -2 -5 5 -5 17 -1 12 -14 49 -29 82 -29 64
-34 76 -85 200 -18 44 -38 94 -45 110 -35 80 -159 376 -177 422 -11 29 -24 50
-29 47 -5 -3 -6 1 -3 9 4 12 -15 62 -81 212 -7 17 -23 53 -35 82 -15 36 -33
59 -57 73 -44 26 -62 25 -103 -2z"/>
<path d="M3496 2225 c-58 -31 -55 14 -56 -823 0 -856 -4 -809 65 -832 44 -15
80 -4 110 32 25 29 25 32 25 213 l0 183 54 46 c29 25 56 46 59 46 3 0 36 -38
73 -85 38 -48 72 -82 78 -78 6 3 8 3 4 -2 -11 -11 31 -67 44 -59 7 4 8 2 4 -4
-4 -7 36 -63 95 -134 162 -197 145 -181 195 -175 55 6 94 43 94 90 0 39 -35
101 -52 91 -7 -4 -8 -3 -4 5 5 7 -6 27 -26 50 -42 48 -119 141 -252 306 l-105
130 47 45 c49 46 177 161 247 221 103 89 135 128 135 164 0 46 -49 95 -94 95
-32 0 -62 -22 -206 -154 -64 -59 -193 -175 -300 -270 -41 -36 -78 -66 -82 -66
-5 0 -8 205 -8 456 l0 457 -36 33 c-39 37 -64 42 -108 19z"/>
<path d="M5529 1760 c-48 -14 -149 -63 -149 -71 0 -5 -5 -9 -11 -9 -17 0 -80
-68 -118 -128 -66 -103 -71 -142 -71 -550 0 -254 3 -370 11 -385 30 -54 100
-74 147 -41 51 35 52 47 52 427 0 401 2 416 73 486 22 22 49 43 59 47 10 3 18
9 18 13 0 12 146 13 190 1 26 -7 59 -28 90 -58 77 -75 80 -93 80 -504 0 -244
3 -356 11 -371 30 -54 100 -74 147 -41 51 35 52 46 52 436 0 405 1 407 71 477
49 48 103 71 174 71 85 0 123 -13 178 -62 84 -76 87 -92 87 -506 0 -247 3
-360 11 -375 20 -36 52 -56 90 -57 47 0 85 30 99 78 14 50 13 671 -1 748 -14
75 -65 188 -81 178 -7 -4 -8 -3 -4 4 10 17 -78 107 -138 141 -131 75 -291 82
-426 19 -41 -20 -97 -54 -123 -78 l-48 -43 -42 40 c-88 83 -192 123 -319 122
-46 0 -95 -4 -109 -9z"/>
<path d="M2533 1725 c-118 -26 -223 -99 -269 -186 -27 -54 -30 -164 -6 -221
51 -117 162 -182 404 -238 208 -48 278 -94 278 -185 0 -91 -72 -142 -212 -152
-133 -10 -261 30 -348 107 -59 52 -95 51 -156 -2 -27 -24 -34 -37 -34 -67 0
-39 38 -89 55 -74 4 5 5 3 1 -4 -13 -24 112 -90 234 -121 280 -74 540 0 636
180 22 42 28 68 30 128 4 105 -28 170 -121 248 -37 31 -150 72 -295 107 -85
21 -180 50 -211 66 -47 23 -57 33 -67 67 -23 77 -8 114 62 149 43 22 65 26
141 27 120 1 182 -16 257 -72 72 -52 131 -65 173 -38 32 21 47 59 36 89 -14
34 -69 89 -83 81 -6 -4 -8 -3 -4 4 15 24 -124 93 -225 111 -85 14 -198 13
-276 -4z"/>
<path d="M7600 1733 c-86 -14 -206 -71 -269 -128 -83 -74 -153 -167 -180 -239
-121 -323 43 -673 365 -782 107 -36 255 -39 359 -7 78 25 190 91 220 131 29
39 25 86 -10 122 -25 27 -36 31 -70 27 -25 -2 -39 -8 -37 -16 1 -7 -2 -10 -7
-7 -5 4 -30 -7 -56 -23 -144 -91 -357 -70 -482 48 -23 22 -44 37 -47 35 -3 -2
-4 -1 -1 2 2 4 -7 26 -21 50 -91 154 -60 375 67 488 91 81 171 110 295 104 71
-3 91 -8 158 -42 52 -27 89 -54 116 -86 35 -42 80 -126 80 -151 0 -5 -84 -9
-196 -9 -218 0 -238 -5 -267 -65 -19 -40 -13 -71 21 -107 l26 -28 284 0 284 0
35 35 36 36 -6 72 c-22 253 -204 467 -452 532 -54 14 -184 18 -245 8z"/>
<path d="M4663 804 c-18 -8 -44 -32 -58 -54 -97 -154 106 -303 228 -167 9 11
18 24 18 29 2 13 5 21 14 41 10 23 -18 97 -48 125 -45 42 -98 51 -154 26z"/>
</g>
</svg>
