<?xml version="1.0" standalone="no"?>
<!DOCTYPE svg PUBLIC "-//W3C//DTD SVG 20010904//EN"
 "http://www.w3.org/TR/2001/REC-SVG-20010904/DTD/svg10.dtd">
<svg version="1.0" xmlns="http://www.w3.org/2000/svg"
 width="722.000000pt" height="485.000000pt" viewBox="0 0 722.000000 485.000000"
 preserveAspectRatio="xMidYMid meet">
<metadata>
Created by potrace 1.16, written by Peter Selinger 2001-2019
</metadata>
<g transform="translate(0.000000,485.000000) scale(0.100000,-0.100000)"
fill="#000000" stroke="none">
<path d="M2953 4482 l-503 -2 0 -1495 0 -1495 525 0 525 0 0 1495 c0 822 -3
1495 -7 1496 -5 0 -15 1 -23 2 -8 1 -241 1 -517 -1z"/>
<path d="M3828 3485 c-5 -5 -8 -455 -8 -1002 l0 -993 116 0 c517 0 864 238
974 670 42 166 48 390 15 565 -78 405 -330 667 -713 741 -85 16 -373 30 -384
19z"/>
<path d="M5390 1093 c-54 -11 -150 -63 -187 -100 -58 -58 -95 -139 -101 -222
-11 -165 62 -295 208 -365 60 -29 73 -31 170 -31 99 1 109 3 172 34 80 40 139
100 176 179 23 49 27 70 27 147 0 100 -10 133 -64 211 -39 57 -105 107 -172
131 -45 16 -185 26 -229 16z m184 -182 c119 -74 120 -278 1 -351 -76 -47 -160
-35 -225 32 -68 72 -77 168 -23 256 55 89 161 116 247 63z"/>
<path d="M745 1077 c-3 -6 -4 -165 -3 -352 l3 -340 170 -3 c250 -4 341 15 407
85 71 75 41 234 -51 273 -32 13 -42 30 -18 30 15 0 59 45 76 77 6 12 11 42 11
66 0 79 -55 134 -162 163 -71 19 -426 20 -433 1z m385 -159 c27 -29 25 -54 -5
-83 -22 -23 -32 -25 -110 -25 l-85 0 0 65 0 65 90 0 c79 0 92 -3 110 -22z m14
-269 c34 -27 34 -63 0 -94 -25 -23 -35 -25 -120 -25 l-94 0 0 70 0 70 94 0
c79 0 97 -3 120 -21z"/>
<path d="M1546 1082 c-3 -4 -4 -163 -3 -353 l2 -344 93 -3 92 -3 0 356 0 355
-89 0 c-50 0 -92 -4 -95 -8z"/>
<path d="M1920 1015 l0 -75 176 -2 176 -3 -68 -80 c-38 -44 -120 -139 -182
-212 l-112 -132 0 -66 0 -65 310 0 310 0 0 75 0 75 -185 2 -185 3 94 110 c52
61 135 157 185 215 l90 105 1 63 0 62 -305 0 -305 0 0 -75z"/>
<path d="M2710 735 l0 -355 283 2 282 3 3 73 3 72 -191 0 -190 0 0 65 0 65
165 0 165 0 0 75 0 75 -165 0 -165 0 0 65 0 65 185 0 186 0 -3 73 -3 72 -277
3 -278 2 0 -355z"/>
<path d="M3470 735 l0 -355 85 0 85 0 2 207 3 207 158 -207 158 -207 79 0 80
0 0 355 0 355 -85 0 -85 0 -2 -207 -3 -208 -155 207 -155 207 -82 1 -83 0 0
-355z"/>
<path d="M4270 1086 c0 -5 96 -256 157 -411 22 -55 57 -144 77 -197 l38 -98
97 0 97 0 36 98 c29 78 213 548 235 600 4 10 -16 12 -93 10 l-99 -3 -42 -120
c-23 -66 -61 -178 -86 -248 l-44 -129 -26 74 c-15 40 -54 152 -87 248 l-60
175 -100 3 c-55 1 -100 1 -100 -2z"/>
<path d="M5988 1018 c21 -40 80 -150 131 -245 l91 -171 0 -111 0 -112 93 3 92
3 5 120 5 120 54 100 c30 55 85 160 123 233 l69 132 -93 0 -93 0 -29 -52 c-16
-29 -51 -95 -79 -146 -57 -108 -52 -109 -117 13 -24 44 -56 103 -71 130 l-28
50 -96 3 -97 3 40 -73z"/>
</g>
</svg>
