<?xml version="1.0" standalone="no"?>
<!DOCTYPE svg PUBLIC "-//W3C//DTD SVG 20010904//EN"
 "http://www.w3.org/TR/2001/REC-SVG-20010904/DTD/svg10.dtd">
<svg version="1.0" xmlns="http://www.w3.org/2000/svg"
 width="712.000000pt" height="189.000000pt" viewBox="0 0 712.000000 189.000000"
 preserveAspectRatio="xMidYMid meet">
<metadata>
Created by potrace 1.16, written by Peter Selinger 2001-2019
</metadata>
<g transform="translate(0.000000,189.000000) scale(0.100000,-0.100000)"
fill="#000000" stroke="none">
<path d="M990 1304 c-8 -3 -25 -10 -37 -16 -17 -8 -30 -8 -48 0 -58 27 -133 8
-173 -43 -14 -18 -29 -25 -54 -25 -47 0 -97 -36 -128 -90 -14 -25 -44 -63 -67
-85 -138 -135 -10 -361 169 -300 39 13 51 13 84 1 43 -15 98 -11 128 10 16 11
23 10 45 -7 14 -11 42 -30 61 -42 19 -13 46 -43 60 -67 22 -39 25 -60 28 -162
4 -108 6 -118 23 -118 18 0 19 9 19 133 0 166 8 196 65 244 63 53 66 66 10 58
-42 -7 -44 -6 -51 19 -9 37 10 54 66 62 39 5 47 9 43 24 -9 35 -49 61 -112 72
-52 10 -64 9 -72 -3 -16 -25 -10 -93 12 -128 l20 -34 -20 -21 c-28 -28 -49
-15 -81 51 l-25 50 -41 -12 c-46 -13 -74 -5 -74 23 0 30 14 41 69 55 44 11 56
19 66 44 11 25 10 33 -5 53 -13 18 -21 20 -36 13 -10 -6 -35 -13 -55 -17 -28
-5 -38 -13 -43 -30 -8 -32 -51 -83 -85 -100 -14 -8 -53 -17 -86 -21 -33 -4
-74 -16 -91 -26 -40 -24 -64 -16 -64 22 0 34 30 57 98 74 41 11 44 13 24 19
-44 14 -46 86 -2 86 10 0 39 -16 64 -35 l45 -34 16 22 c21 29 19 40 -10 67
-27 26 -32 49 -13 68 18 18 37 15 70 -13 48 -41 104 -30 131 25 8 15 23 26 39
28 24 3 28 -2 42 -51 15 -52 41 -87 64 -87 7 0 18 15 25 33 19 43 50 69 79 65
31 -4 35 -41 9 -74 -28 -35 -27 -38 14 -52 18 -7 45 -26 59 -42 30 -36 33 -37
70 -5 33 28 53 29 70 3 15 -24 -12 -68 -53 -88 -25 -12 -31 -21 -31 -50 -1
-19 -5 -44 -9 -55 -6 -15 0 -29 26 -58 42 -47 43 -90 3 -95 -19 -2 -32 5 -48
28 -28 38 -46 38 -83 1 l-29 -29 0 -141 c0 -117 2 -141 15 -141 8 0 19 17 25
41 17 61 54 111 121 163 44 34 66 60 80 94 11 26 30 65 42 87 26 49 28 131 3
166 -10 15 -16 44 -16 83 0 72 -25 118 -81 146 -21 11 -45 33 -54 49 -22 43
-79 74 -134 74 -29 0 -56 7 -72 18 -28 19 -94 32 -119 23z"/>
<path d="M3659 1281 c-55 -55 -25 -131 51 -131 28 0 69 41 76 75 4 22 0 38
-16 58 -29 37 -72 36 -111 -2z"/>
<path d="M4618 1267 c-97 -28 -173 -105 -199 -201 -19 -72 -49 -260 -49 -311
1 -193 223 -276 440 -165 l40 20 -30 60 c-17 33 -34 60 -38 60 -4 0 -15 -7
-25 -15 -28 -21 -113 -38 -152 -31 -79 15 -88 55 -56 243 23 133 34 159 81
191 30 20 43 23 93 19 32 -3 70 -13 84 -23 l27 -17 43 49 c24 26 43 54 43 60
0 7 -26 25 -57 40 -69 32 -172 41 -245 21z"/>
<path d="M2175 1251 c-3 -11 -33 -170 -65 -353 -45 -251 -56 -334 -47 -341 18
-12 335 -1 379 14 92 30 158 126 158 232 0 51 -4 61 -34 94 l-33 37 37 35 c71
68 76 176 11 242 -47 47 -102 59 -271 59 -119 0 -129 -2 -135 -19z m282 -133
c22 -18 10 -88 -17 -110 -17 -13 -40 -18 -92 -18 l-70 0 6 28 c3 15 8 45 12
67 4 22 9 44 12 49 7 12 131 -1 149 -16z m-26 -279 c28 -28 20 -82 -16 -118
-22 -23 -35 -26 -107 -30 l-81 -3 7 43 c4 24 10 63 13 87 l6 42 78 0 c67 0 82
-3 100 -21z"/>
<path d="M2808 1062 c-26 -9 -52 -21 -57 -27 -5 -5 -28 -113 -50 -240 -30
-173 -37 -231 -28 -237 7 -5 39 -7 72 -6 l60 3 33 190 c19 105 36 192 39 195
2 3 35 7 71 10 l67 5 9 47 c13 75 9 78 -86 77 -50 0 -102 -7 -130 -17z"/>
<path d="M3142 1062 c-29 -11 -55 -22 -58 -25 -7 -7 25 -95 37 -102 4 -3 19
-1 34 5 15 6 54 11 87 12 68 2 88 -13 88 -64 l0 -27 -90 0 c-78 1 -98 -2 -138
-23 -64 -33 -92 -77 -92 -142 0 -100 73 -156 202 -156 59 0 179 27 195 43 16
15 63 260 63 324 0 61 -25 114 -67 143 -50 34 -181 40 -261 12z"/>
<path d="M3940 1064 c-30 -8 -60 -20 -66 -27 -16 -16 -96 -469 -85 -480 4 -4
37 -7 72 -5 l64 3 34 197 35 198 33 6 c47 9 82 -3 95 -31 9 -20 6 -59 -16
-189 -16 -91 -25 -169 -22 -175 4 -6 34 -11 67 -11 73 0 69 -7 104 197 35 209
21 273 -68 313 -52 24 -166 26 -247 4z"/>
<path d="M5035 1062 c-58 -20 -65 -36 -39 -94 13 -28 22 -37 33 -33 32 13 120
24 143 18 37 -9 48 -23 48 -58 l0 -33 -88 0 c-148 2 -221 -48 -230 -156 -3
-41 1 -58 20 -85 38 -58 81 -76 173 -76 82 0 201 21 211 37 12 19 54 275 54
327 0 70 -31 129 -80 153 -46 24 -176 23 -245 0z"/>
<path d="M5570 1064 c-30 -8 -58 -18 -63 -23 -13 -13 -91 -456 -84 -475 5 -12
19 -16 59 -16 29 0 58 4 64 8 6 4 27 92 45 197 33 182 36 190 60 199 39 13 78
0 90 -31 8 -21 3 -65 -17 -184 -15 -86 -24 -164 -21 -173 8 -20 109 -23 125
-3 14 17 65 313 60 348 -3 21 1 30 19 38 58 27 113 -2 113 -60 0 -17 -11 -94
-25 -172 -14 -77 -24 -146 -21 -154 6 -15 121 -19 131 -4 3 5 17 69 31 143 29
153 32 243 10 286 -22 42 -70 80 -112 88 -48 9 -146 -1 -172 -17 -18 -11 -27
-11 -54 1 -47 20 -172 22 -238 4z"/>
<path d="M6377 1066 c-27 -7 -55 -20 -62 -27 -8 -8 -25 -79 -39 -159 -14 -80
-39 -223 -56 -319 -17 -96 -28 -181 -26 -188 4 -9 25 -13 65 -13 72 0 73 2 91
118 l13 83 31 -8 c51 -13 139 -8 174 11 51 27 101 86 117 139 76 255 16 377
-185 376 -41 0 -97 -6 -123 -13z m181 -134 c16 -21 10 -113 -14 -191 -13 -44
-21 -55 -50 -67 -24 -10 -44 -12 -67 -6 -31 8 -32 10 -29 58 2 27 11 87 20
134 15 74 20 85 42 91 36 11 83 2 98 -19z"/>
<path d="M3610 1063 c0 -5 -20 -118 -44 -253 -33 -181 -41 -247 -33 -252 15
-10 109 -10 123 0 10 6 94 450 94 495 0 14 -10 17 -70 17 -38 0 -70 -3 -70 -7z"/>
</g>
</svg>
