<?xml version="1.0" standalone="no"?>
<!DOCTYPE svg PUBLIC "-//W3C//DTD SVG 20010904//EN"
 "http://www.w3.org/TR/2001/REC-SVG-20010904/DTD/svg10.dtd">
<svg version="1.0" xmlns="http://www.w3.org/2000/svg"
 width="859.000000pt" height="233.000000pt" viewBox="0 0 859.000000 233.000000"
 preserveAspectRatio="xMidYMid meet">
<metadata>
Created by potrace 1.16, written by Peter Selinger 2001-2019
</metadata>
<g transform="translate(0.000000,233.000000) scale(0.100000,-0.100000)"
fill="#000000" stroke="none">
<path d="M450 1783 c0 -17 10 -23 50 -33 l50 -12 0 -543 0 -543 -50 -12 c-32
-8 -50 -17 -50 -27 0 -21 680 -14 755 9 179 54 254 132 263 274 6 93 -12 145
-71 201 -70 67 -161 105 -292 122 -48 6 -58 9 -31 10 53 2 151 28 205 56 89
45 131 113 131 212 -1 104 -59 187 -167 239 -96 45 -166 54 -490 61 -301 6
-303 6 -303 -14z m539 -57 c70 -37 131 -144 131 -231 0 -91 -60 -192 -134
-226 -51 -23 -141 -26 -149 -4 -8 19 -8 465 0 478 8 13 116 1 152 -17z m46
-545 c54 -25 88 -60 116 -118 19 -39 23 -65 24 -138 0 -79 -4 -97 -28 -147
-31 -63 -90 -114 -143 -124 -18 -3 -64 -7 -101 -8 l-68 -1 -1 270 c-1 149 0
273 3 278 9 16 157 7 198 -12z"/>
<path d="M7638 1679 c-42 -16 -66 -64 -74 -152 l-7 -77 -53 0 c-53 0 -54 -1
-54 -37 0 -4 24 -6 54 -4 l54 2 4 -293 c5 -326 9 -351 73 -426 99 -115 307
-157 423 -85 55 34 99 112 104 183 3 40 1 45 -19 48 -17 3 -23 -2 -23 -15 0
-44 -33 -127 -65 -161 -30 -33 -39 -37 -83 -37 -58 0 -78 14 -106 75 -19 42
-21 67 -24 378 l-4 332 121 0 c114 0 121 1 121 20 0 19 -7 20 -120 20 l-120 0
0 120 0 120 -87 -1 c-49 0 -100 -5 -115 -10z"/>
<path d="M5620 1461 c-40 -14 -68 -34 -103 -71 -26 -29 -49 -51 -51 -49 -1 2
-13 19 -26 38 -37 54 -87 71 -212 71 -86 0 -108 -3 -108 -14 0 -9 20 -19 50
-26 l50 -12 0 -373 0 -373 -50 -12 c-30 -7 -50 -17 -50 -26 0 -12 41 -14 240
-14 199 0 240 2 240 14 0 9 -20 19 -50 26 l-50 12 0 318 0 317 26 39 c56 84
122 107 178 63 59 -46 61 -57 66 -389 5 -297 6 -306 28 -342 16 -26 35 -41 60
-48 46 -14 292 -9 293 5 0 6 -22 16 -50 24 l-51 14 0 292 c0 321 -3 343 -61
416 -19 25 -56 51 -104 75 -94 47 -181 55 -265 25z"/>
<path d="M6710 1469 c-97 -19 -215 -103 -255 -182 -78 -150 -83 -352 -13 -496
31 -65 107 -137 181 -172 123 -57 306 -61 406 -9 53 27 118 99 136 149 22 63
20 81 -10 81 -19 0 -25 -5 -25 -21 0 -62 -81 -157 -157 -183 -163 -56 -266 38
-280 255 l-6 86 119 6 c110 6 312 29 375 42 32 7 39 27 39 115 0 122 -72 231
-193 290 -97 47 -207 61 -317 39z m146 -46 c14 -9 34 -33 45 -55 38 -74 47
-269 15 -314 -10 -12 -36 -17 -121 -21 l-108 -6 6 119 c6 128 33 239 64 266
36 31 64 34 99 11z"/>
<path d="M1700 1435 c0 -9 14 -17 39 -21 70 -11 66 8 71 -331 6 -344 4 -337
82 -415 64 -64 136 -93 238 -93 76 0 91 4 140 30 30 17 69 49 87 73 18 24 33
39 33 33 0 -6 16 -29 36 -51 39 -43 106 -70 176 -70 l38 0 0 404 0 404 50 13
c28 7 50 19 50 26 0 10 -49 13 -240 13 -199 0 -240 -2 -240 -14 0 -9 20 -19
50 -26 l50 -12 0 -317 0 -318 -29 -40 c-48 -66 -79 -86 -128 -80 -53 6 -71 20
-97 77 -19 42 -21 67 -24 340 -4 324 -6 335 -65 370 -28 17 -51 20 -174 20
-120 0 -143 -2 -143 -15z"/>
<path d="M2998 1328 c-4 -170 -3 -178 30 -178 49 0 117 111 129 210 l6 50 149
0 149 0 -12 -22 c-7 -12 -40 -65 -74 -118 -34 -52 -85 -131 -112 -175 -27 -44
-102 -163 -166 -265 -65 -101 -117 -194 -117 -207 l0 -23 400 0 400 0 0 150 0
150 -35 0 c-29 0 -38 -6 -66 -46 -34 -50 -69 -140 -69 -179 0 -29 13 -27 -168
-30 -127 -3 -143 -1 -137 13 3 9 90 148 193 309 103 162 192 301 197 311 6 9
27 42 48 74 69 106 96 98 -352 98 l-390 0 -3 -122z"/>
<path d="M4067 1303 l3 -148 28 -3 c23 -2 34 4 54 30 39 52 59 95 72 162 l13
61 141 3 c161 3 162 2 112 -66 -16 -23 -30 -44 -30 -47 0 -2 -26 -44 -57 -92
-202 -313 -353 -560 -353 -580 l0 -23 400 0 400 0 0 150 0 150 -35 0 c-29 0
-38 -6 -64 -44 -36 -53 -59 -106 -69 -166 l-8 -45 -152 -1 c-131 -2 -153 0
-148 13 6 15 84 140 305 485 156 245 171 269 171 291 0 16 -25 17 -393 17
l-393 0 3 -147z"/>
</g>
</svg>
