<?xml version="1.0" standalone="no"?>
<!DOCTYPE svg PUBLIC "-//W3C//DTD SVG 20010904//EN"
 "http://www.w3.org/TR/2001/REC-SVG-20010904/DTD/svg10.dtd">
<svg version="1.0" xmlns="http://www.w3.org/2000/svg"
 width="950.000000pt" height="297.000000pt" viewBox="0 0 950.000000 297.000000"
 preserveAspectRatio="xMidYMid meet">
<metadata>
Created by potrace 1.16, written by Peter Selinger 2001-2019
</metadata>
<g transform="translate(0.000000,297.000000) scale(0.100000,-0.100000)"
fill="#000000" stroke="none">
<path d="M674 2306 c-77 -28 -119 -55 -166 -103 -67 -69 -70 -128 -10 -186 72
-69 304 -147 572 -192 52 -9 120 -20 150 -25 68 -12 412 -50 451 -50 16 0 29
5 29 10 0 23 -271 281 -374 358 -123 91 -279 172 -377 196 -94 23 -200 20
-275 -8z"/>
<path d="M3896 2293 c-4 -21 -15 -119 -26 -218 -11 -99 -38 -337 -59 -530 -22
-192 -45 -392 -51 -444 -6 -51 -17 -150 -25 -220 -8 -69 -15 -134 -15 -143 0
-16 12 -18 110 -18 130 0 125 -6 139 136 6 54 20 180 31 279 12 99 30 254 40
344 12 111 22 166 31 172 25 15 116 21 152 10 61 -21 80 -50 79 -128 -1 -58
-37 -404 -72 -677 -6 -44 -10 -92 -10 -108 l0 -28 103 0 c56 0 108 4 116 9 10
7 20 55 32 163 10 84 29 254 44 378 14 124 29 255 32 292 12 133 -37 257 -116
298 -74 37 -199 20 -296 -41 -26 -16 -50 -27 -53 -24 -3 3 6 119 21 258 15
139 28 258 27 265 0 9 -30 12 -114 12 l-114 0 -6 -37z"/>
<path d="M3355 2214 c-11 -2 -40 -10 -65 -16 -150 -37 -231 -130 -279 -319
-63 -246 -114 -750 -91 -895 19 -118 75 -203 159 -243 52 -24 65 -26 176 -24
66 1 147 7 180 15 l60 13 11 65 c7 36 12 85 13 109 l1 44 -87 -9 c-49 -4 -116
-8 -151 -8 -55 0 -66 3 -90 27 -25 25 -27 35 -31 118 -6 161 45 630 81 747 26
85 42 109 92 134 37 19 51 20 153 14 103 -5 113 -4 122 12 14 27 26 198 14
205 -13 8 -242 18 -268 11z"/>
<path d="M6756 2209 c-60 -5 -114 -13 -119 -18 -9 -9 -32 -186 -77 -596 -5
-49 -17 -148 -25 -220 -61 -534 -72 -641 -68 -649 9 -15 330 1 398 20 145 39
253 123 311 244 42 87 58 158 57 260 0 121 -39 196 -127 251 -27 17 -28 19
-10 25 38 14 120 93 146 140 36 67 61 193 53 269 -14 139 -68 220 -169 256
-71 25 -211 32 -370 18z m252 -219 c18 -11 40 -36 48 -55 29 -71 8 -206 -43
-274 -29 -37 -105 -75 -172 -86 l-44 -7 6 48 c3 27 14 127 23 222 l19 172 65
0 c48 0 74 -5 98 -20z m-107 -580 c44 -12 88 -58 98 -102 12 -51 -5 -161 -33
-217 -39 -75 -124 -131 -201 -131 -19 0 -35 1 -35 3 0 1 11 101 25 222 14 121
25 223 25 228 0 10 79 9 121 -3z"/>
<path d="M5938 2093 c-10 -2 -18 -14 -18 -26 0 -11 -5 -60 -11 -109 l-12 -88
-47 0 c-26 0 -52 -6 -58 -12 -10 -13 -32 -127 -32 -166 0 -20 5 -22 55 -22 31
0 55 -5 55 -10 0 -6 -14 -119 -30 -253 -43 -340 -48 -458 -24 -532 21 -69 72
-124 131 -144 57 -19 209 -25 274 -12 50 11 57 15 62 40 12 61 19 179 11 184
-5 3 -34 -1 -64 -9 -85 -22 -129 -19 -162 13 -25 24 -28 33 -28 94 0 68 56
619 64 626 8 8 41 11 126 12 47 1 91 5 99 10 14 9 44 157 36 179 -3 9 -37 12
-121 12 l-117 0 7 53 c4 28 10 78 13 110 l6 57 -99 -1 c-55 -1 -107 -3 -116
-6z"/>
<path d="M5014 1856 c-76 -35 -131 -108 -173 -232 -83 -243 -103 -590 -42
-749 43 -112 129 -171 238 -162 70 5 115 32 172 101 33 41 34 41 28 11 -4 -16
-8 -46 -9 -65 l-3 -35 105 -3 c58 -1 111 2 118 6 9 6 21 81 37 223 13 118 40
355 60 527 19 172 35 331 35 353 l0 39 -109 0 c-122 0 -115 5 -126 -85 -6 -46
-10 -54 -18 -39 -28 55 -65 98 -98 115 -54 27 -149 25 -215 -5z m233 -228 c33
-31 43 -78 43 -209 0 -130 -30 -335 -60 -403 -48 -113 -159 -115 -205 -4 -34
81 -18 356 30 515 17 56 55 109 89 124 30 12 76 2 103 -23z"/>
<path d="M7765 1860 c-119 -38 -212 -148 -260 -305 -52 -171 -71 -446 -39
-584 19 -86 67 -167 119 -203 82 -58 223 -72 380 -40 91 19 86 12 100 156 8
89 5 92 -91 65 -38 -11 -99 -21 -136 -22 -62 -2 -69 0 -99 28 -42 39 -56 75
-64 162 l-7 72 33 5 c19 3 129 8 244 11 116 4 214 10 219 15 13 13 25 143 26
276 0 201 -49 308 -167 360 -68 30 -171 32 -258 4z m180 -235 c13 -27 20 -68
23 -126 6 -113 3 -116 -125 -119 -54 -1 -110 -3 -125 -5 -32 -4 -34 4 -17 87
15 77 47 152 75 178 26 25 85 39 124 30 16 -4 32 -20 45 -45z"/>
<path d="M8711 1859 c-203 -72 -303 -300 -305 -694 -1 -184 8 -230 61 -323 48
-82 154 -132 283 -132 71 0 229 25 242 38 7 7 28 148 28 193 0 27 -26 30 -92
10 -135 -40 -204 -35 -255 20 -25 27 -53 124 -53 181 0 31 4 38 23 42 12 3
121 8 242 11 121 4 224 10 228 14 14 14 26 139 27 272 0 205 -47 311 -164 365
-66 31 -184 32 -265 3z m168 -208 c28 -28 41 -84 41 -174 0 -95 3 -93 -164
-99 l-118 -4 6 48 c12 88 45 175 80 213 30 31 39 35 85 35 37 0 56 -5 70 -19z"/>
<path d="M1898 1616 c-124 -33 -191 -166 -143 -284 60 -144 250 -179 355 -66
146 159 -2 404 -212 350z"/>
<path d="M1334 1590 c-82 -60 -123 -144 -124 -256 -1 -156 80 -311 196 -379
53 -31 140 -50 188 -41 l35 7 -46 62 c-106 144 -177 344 -190 540 -3 53 -9 97
-13 97 -3 0 -24 -13 -46 -30z"/>
<path d="M911 1493 c-86 -86 -111 -145 -111 -266 0 -97 15 -159 60 -247 59
-116 117 -172 220 -211 72 -27 233 -28 194 -1 -38 27 -131 180 -179 297 -54
129 -95 326 -95 452 0 23 -5 43 -10 43 -6 0 -41 -30 -79 -67z"/>
<path d="M637 1226 c-49 -64 -71 -125 -70 -196 1 -137 100 -269 226 -301 25
-6 50 -9 56 -8 6 2 -5 23 -23 47 -72 90 -145 289 -147 401 -1 25 -4 57 -8 70
-6 24 -7 23 -34 -13z"/>
</g>
</svg>
