<?xml version="1.0" standalone="no"?>
<!DOCTYPE svg PUBLIC "-//W3C//DTD SVG 20010904//EN"
 "http://www.w3.org/TR/2001/REC-SVG-20010904/DTD/svg10.dtd">
<svg version="1.0" xmlns="http://www.w3.org/2000/svg"
 width="640.000000pt" height="364.000000pt" viewBox="0 0 640.000000 364.000000"
 preserveAspectRatio="xMidYMid meet">
<metadata>
Created by potrace 1.16, written by Peter Selinger 2001-2019
</metadata>
<g transform="translate(0.000000,364.000000) scale(0.100000,-0.100000)"
fill="#000000" stroke="none">
<path d="M2885 3168 c-7 -26 7 -128 23 -169 14 -36 66 -94 107 -119 20 -13 59
-23 100 -27 63 -6 68 -8 91 -43 23 -34 25 -46 22 -131 l-3 -94 -60 -7 c-171
-22 -320 -116 -375 -236 -34 -74 -36 -77 -59 -80 -16 -3 -21 2 -21 21 0 13
-10 33 -23 45 -21 20 -34 22 -138 22 -170 0 -159 21 -159 -314 l0 -267 25 -24
c23 -24 31 -25 136 -25 109 0 111 0 138 29 l27 29 234 -14 c129 -7 273 -13
318 -14 l84 0 181 95 c100 53 215 112 254 133 40 20 73 42 73 48 0 16 -59 72
-91 86 -24 11 -27 19 -33 79 -14 133 -102 262 -225 328 -61 32 -160 61 -210
61 l-31 0 0 102 c0 93 2 104 26 135 22 29 31 33 72 33 148 0 243 102 246 264
1 84 -1 85 -109 61 -86 -19 -156 -61 -193 -118 -23 -34 -27 -52 -28 -113 -1
-50 -6 -81 -17 -96 l-16 -23 -21 24 c-15 18 -20 37 -20 84 0 140 -99 234 -267
254 -49 5 -52 4 -58 -19z m172 -53 c71 -32 113 -96 113 -172 l0 -53 -37 0
c-47 1 -107 22 -135 47 -40 36 -90 176 -72 204 8 14 70 1 131 -26z m520 -20
c-8 -75 -43 -142 -91 -174 -32 -21 -52 -26 -100 -26 l-61 0 -3 35 c-10 98 54
171 178 206 82 22 84 22 77 -41z m-370 -715 c17 0 73 -50 73 -65 0 -13 -32
-33 -170 -107 -36 -19 -109 -59 -162 -87 -54 -29 -98 -59 -98 -67 0 -22 29
-17 87 16 29 17 57 30 62 30 4 0 63 -36 130 -80 67 -44 127 -80 135 -80 7 0
86 36 174 80 141 70 168 80 215 80 37 0 68 -7 98 -23 74 -39 85 -30 -235 -196
l-179 -94 -291 12 c-160 7 -301 14 -313 17 -23 4 -23 5 -23 198 l0 194 68 23
c85 28 206 77 302 124 43 20 83 33 95 30 11 -2 25 -5 32 -5z"/>
<path d="M2272 1388 c-40 -20 -44 -59 -40 -508 3 -413 4 -426 25 -465 42 -79
106 -115 206 -115 71 0 97 17 97 63 0 31 -42 67 -79 67 -36 1 -60 21 -71 61
-6 19 -10 212 -10 445 0 401 -1 412 -21 438 -22 28 -65 34 -107 14z"/>
<path d="M3859 1371 c-73 -74 6 -191 102 -151 33 14 59 55 59 95 0 40 -50 85
-95 85 -27 0 -44 -8 -66 -29z"/>
<path d="M3055 1288 c-38 -22 -44 -41 -45 -135 l0 -93 -53 0 c-85 0 -121 -42
-82 -97 12 -18 27 -23 73 -25 l57 -3 5 -250 5 -250 27 -38 c14 -22 43 -51 65
-65 33 -24 49 -27 135 -30 94 -4 97 -3 113 22 22 34 12 80 -21 95 -14 6 -43
11 -65 11 -29 0 -47 7 -64 25 l-25 24 0 230 0 230 82 3 c78 3 83 4 98 31 13
24 13 30 0 55 -15 26 -20 27 -98 30 l-82 3 0 90 c0 87 -1 92 -29 120 -31 30
-63 36 -96 17z"/>
<path d="M406 1280 c-57 -15 -108 -47 -134 -84 -37 -54 -44 -127 -40 -450 4
-335 6 -345 71 -403 49 -43 98 -57 194 -57 71 0 89 4 140 30 78 40 104 86 106
186 1 65 -1 72 -27 94 -34 30 -77 31 -111 1 -21 -18 -27 -33 -31 -82 -6 -75
-26 -98 -84 -98 -28 0 -48 7 -61 20 -19 19 -20 34 -19 341 0 177 3 328 6 336
3 8 22 22 41 31 29 14 43 15 73 6 65 -19 81 -86 36 -145 -29 -38 -34 -90 -12
-118 17 -23 59 -38 87 -31 109 26 149 259 61 356 -9 11 -38 30 -64 43 -55 28
-169 39 -232 24z"/>
<path d="M1269 1069 c-47 -17 -50 -42 -47 -355 l3 -291 30 -48 c52 -84 150
-116 224 -74 23 12 41 26 41 30 0 4 7 10 16 13 10 4 27 -7 48 -29 42 -44 77
-46 117 -6 l29 29 0 341 0 340 -24 27 c-18 21 -32 28 -61 28 -29 0 -43 -7 -61
-28 l-24 -27 0 -280 c0 -264 -1 -280 -20 -299 -11 -11 -30 -22 -44 -26 -28 -7
-81 18 -96 45 -6 12 -10 124 -10 290 0 266 0 270 -22 295 -27 30 -63 39 -99
25z"/>
<path d="M3900 1073 c-8 -3 -25 -15 -37 -26 l-23 -20 0 -346 c1 -364 1 -365
47 -389 35 -19 63 -14 94 18 l30 29 -3 345 c-3 330 -4 346 -23 365 -22 22 -62
33 -85 24z"/>
<path d="M4515 1055 c-15 -15 -25 -36 -25 -54 0 -45 206 -663 230 -689 49 -53
117 -36 148 36 24 56 200 597 208 641 5 25 1 36 -25 62 -27 26 -37 30 -64 25
-18 -4 -39 -14 -49 -24 -19 -20 -93 -281 -134 -471 l-18 -84 -31 119 c-103
390 -109 409 -136 437 -34 34 -72 35 -104 2z"/>
<path d="M5584 1034 c-22 -32 -10 -73 26 -91 14 -7 62 -13 108 -13 75 0 85 -2
107 -25 17 -16 25 -35 25 -58 l0 -34 -95 -6 c-113 -6 -164 -30 -210 -98 -27
-38 -30 -50 -33 -146 -5 -123 9 -170 65 -227 65 -65 143 -71 219 -16 l41 29
24 -25 c13 -15 35 -30 48 -35 34 -13 85 6 100 37 7 17 11 113 11 295 0 293 -3
314 -58 373 -50 53 -93 66 -234 66 -126 0 -128 0 -144 -26z m266 -460 c0 -58
-4 -114 -10 -124 -12 -22 -72 -44 -98 -36 -10 4 -28 15 -40 27 -19 17 -22 31
-22 98 0 113 21 136 128 140 l42 1 0 -106z"/>
</g>
</svg>
