<?xml version="1.0" standalone="no"?>
<!DOCTYPE svg PUBLIC "-//W3C//DTD SVG 20010904//EN"
 "http://www.w3.org/TR/2001/REC-SVG-20010904/DTD/svg10.dtd">
<svg version="1.0" xmlns="http://www.w3.org/2000/svg"
 width="628.000000pt" height="165.000000pt" viewBox="0 0 628.000000 165.000000"
 preserveAspectRatio="xMidYMid meet">
<metadata>
Created by potrace 1.16, written by Peter Selinger 2001-2019
</metadata>
<g transform="translate(0.000000,165.000000) scale(0.100000,-0.100000)"
fill="#000000" stroke="none">
<path d="M1130 1089 c0 -102 -1 -111 -17 -104 -34 14 -131 17 -168 5 -90 -30
-149 -117 -149 -220 0 -72 15 -109 65 -159 49 -49 87 -65 159 -65 75 0 131 24
174 75 52 62 56 84 56 323 l0 222 -53 17 c-30 9 -57 17 -60 17 -4 0 -7 -50 -7
-111z m-60 -224 c66 -34 76 -121 19 -169 -70 -59 -169 -14 -169 76 1 46 10 64
50 91 30 21 62 22 100 2z"/>
<path d="M5358 1178 l-58 -20 0 -304 0 -304 63 0 62 0 -3 322 c-1 177 -3 322
-5 323 -1 1 -28 -6 -59 -17z"/>
<path d="M3177 1122 l-48 -16 3 -200 c3 -198 3 -202 29 -241 15 -22 37 -50 50
-62 32 -29 107 -63 142 -63 26 0 27 1 27 58 l0 58 -48 20 c-59 25 -82 67 -82
148 l0 56 65 0 65 0 0 60 0 60 -65 0 -65 0 0 70 c0 78 2 77 -73 52z"/>
<path d="M2830 991 c0 -9 -5 -11 -17 -5 -10 4 -46 10 -81 12 -133 8 -234 -87
-235 -223 0 -73 24 -125 82 -178 45 -40 76 -52 136 -50 22 1 84 2 138 2 l97 1
0 225 c0 142 -4 225 -10 226 -56 7 -110 2 -110 -10z m-27 -151 c61 -68 14
-169 -80 -170 -58 0 -103 44 -103 102 0 32 7 47 35 75 32 32 39 35 78 30 30
-4 50 -15 70 -37z"/>
<path d="M3570 992 l-45 -18 -3 -212 -2 -212 65 0 65 0 0 230 c0 260 6 244
-80 212z"/>
<path d="M4420 778 l0 -228 60 0 60 0 0 129 c0 113 2 131 20 154 11 13 31 28
45 31 29 7 79 -15 89 -39 3 -9 6 -75 6 -146 l0 -129 65 0 65 0 0 115 c0 147
-12 202 -56 253 -45 53 -106 77 -179 69 -39 -4 -55 -2 -55 6 0 8 -21 12 -60
13 l-60 0 0 -228z"/>
<path d="M360 979 c-90 -41 -133 -107 -133 -204 0 -129 97 -228 225 -227 59 1
81 8 132 39 l38 25 -38 39 c-37 38 -67 49 -79 29 -3 -5 -28 -10 -54 -10 -35 0
-53 5 -66 20 -18 20 -17 20 138 20 l157 0 0 53 c0 95 -61 187 -147 224 -46 19
-121 16 -173 -8z"/>
<path d="M1410 863 c0 -76 5 -154 10 -174 21 -76 116 -149 194 -149 42 0 98
22 132 52 62 54 68 76 72 251 l4 157 -66 0 -66 0 0 -143 c0 -137 -1 -144 -23
-165 -27 -25 -73 -28 -102 -6 -18 13 -21 30 -25 162 l-5 147 -62 3 -63 3 0
-138z"/>
<path d="M2125 993 c-48 -13 -110 -64 -135 -113 -45 -89 -31 -184 37 -260 89
-99 227 -104 326 -12 15 14 27 29 27 32 0 4 -20 21 -45 39 l-45 32 -29 -20
c-72 -51 -171 -4 -171 81 0 32 7 47 35 75 32 32 40 35 76 30 22 -3 49 -13 60
-23 21 -19 39 -14 94 30 l27 22 -32 32 c-18 18 -48 39 -67 47 -34 14 -116 18
-158 8z"/>
<path d="M3945 987 c-87 -40 -138 -118 -139 -212 -2 -214 260 -312 401 -151
41 46 56 95 51 171 -5 75 -34 125 -98 170 -36 25 -54 30 -114 33 -44 1 -82 -3
-101 -11z m161 -141 c39 -39 45 -85 17 -126 -27 -39 -45 -49 -90 -50 -103 0
-143 138 -55 193 45 28 89 22 128 -17z"/>
<path d="M5540 995 c0 -3 38 -91 85 -196 47 -105 85 -200 85 -209 0 -10 -16
-55 -35 -100 -19 -45 -35 -86 -35 -91 0 -14 127 -11 133 4 3 6 55 138 117 292
62 154 115 286 117 293 4 10 -10 12 -62 10 l-67 -3 -46 -117 c-25 -65 -49
-118 -52 -118 -4 0 -29 54 -56 120 l-49 120 -67 0 c-38 0 -68 -2 -68 -5z"/>
</g>
</svg>
