<?xml version="1.0" standalone="no"?>
<!DOCTYPE svg PUBLIC "-//W3C//DTD SVG 20010904//EN"
 "http://www.w3.org/TR/2001/REC-SVG-20010904/DTD/svg10.dtd">
<svg version="1.0" xmlns="http://www.w3.org/2000/svg"
 width="767.000000pt" height="217.000000pt" viewBox="0 0 767.000000 217.000000"
 preserveAspectRatio="xMidYMid meet">
<metadata>
Created by potrace 1.16, written by Peter Selinger 2001-2019
</metadata>
<g transform="translate(0.000000,217.000000) scale(0.100000,-0.100000)"
fill="#000000" stroke="none">
<path d="M479 1426 c-118 -33 -207 -109 -263 -226 -28 -59 -31 -74 -31 -165 0
-88 3 -107 28 -160 56 -120 194 -224 321 -239 65 -9 164 8 220 36 78 39 76 32
76 214 0 201 5 194 -145 194 -111 0 -145 -13 -145 -55 0 -39 35 -55 117 -55
l73 0 0 -99 0 -99 -40 -16 c-66 -26 -164 -21 -235 12 -109 52 -168 146 -168
267 -1 172 126 298 300 298 62 0 81 -4 133 -31 67 -35 92 -39 109 -18 25 30 9
69 -40 99 -87 53 -209 70 -310 43z"/>
<path d="M3376 1332 c-61 -60 -140 -136 -176 -170 l-65 -61 -5 155 c-4 123 -8
157 -20 164 -22 14 -47 12 -64 -6 -14 -13 -16 -62 -16 -379 l0 -365 25 -16
c23 -15 27 -15 50 0 25 16 25 17 25 177 l0 162 165 -162 c91 -88 176 -168 190
-177 23 -15 27 -15 50 0 48 31 36 51 -142 225 l-167 164 167 161 c171 165 185
186 151 220 -31 31 -55 18 -168 -92z"/>
<path d="M1227 1412 c-15 -17 -17 -57 -17 -373 0 -291 3 -359 14 -375 13 -18
30 -19 238 -22 123 -2 238 0 256 3 40 7 60 41 43 74 -11 20 -18 21 -226 21
l-215 0 0 125 0 125 146 0 c81 0 154 5 165 10 22 12 26 59 7 78 -8 8 -59 12
-165 12 l-153 0 0 120 0 120 208 0 c114 0 212 4 218 8 22 14 27 53 8 73 -16
18 -33 19 -264 19 -226 0 -248 -2 -263 -18z"/>
<path d="M2137 1412 c-15 -17 -17 -56 -17 -380 l0 -361 22 -15 c19 -13 59 -16
239 -16 119 0 231 3 249 6 37 8 56 44 40 75 -10 18 -23 19 -225 19 l-215 0 0
125 0 125 146 0 c81 0 154 5 165 10 12 7 19 21 19 40 0 19 -7 33 -19 40 -11 5
-84 10 -165 10 l-146 0 0 120 0 120 208 0 c198 0 210 1 228 21 17 19 17 23 3
47 l-15 27 -250 3 c-233 2 -252 1 -267 -16z"/>
<path d="M3819 1407 c-8 -18 9 -87 96 -377 59 -195 111 -360 116 -366 6 -7 19
-14 30 -17 46 -12 61 23 138 321 41 155 75 281 77 279 3 -3 51 -185 111 -422
26 -105 41 -145 59 -162 27 -25 59 -21 75 9 24 44 217 707 212 727 -6 23 -34
35 -63 26 -22 -7 -28 -27 -126 -370 -31 -110 -59 -206 -63 -213 -4 -7 -40 112
-81 265 -40 153 -80 286 -88 296 -8 9 -25 17 -37 17 -12 0 -29 -8 -37 -17 -8
-10 -48 -143 -89 -295 -41 -152 -75 -275 -77 -274 -1 2 -38 128 -82 281 -44
153 -87 286 -96 296 -24 26 -62 24 -75 -4z"/>
<path d="M5207 1418 c-24 -18 -300 -675 -301 -718 -1 -26 4 -37 22 -46 55 -28
53 -31 213 363 52 127 97 229 100 225 4 -4 57 -133 119 -287 62 -154 117 -286
122 -292 13 -16 60 -17 76 -1 7 7 12 22 12 34 0 27 -276 691 -298 717 -18 20
-41 22 -65 5z"/>
<path d="M5916 1414 c-14 -13 -16 -62 -16 -379 l0 -364 22 -15 c29 -20 34 -20
58 4 19 19 20 33 20 345 l0 325 73 0 c97 0 139 -13 176 -56 26 -29 31 -43 31
-87 0 -71 -38 -120 -110 -138 -34 -9 -52 -19 -57 -33 -10 -31 -5 -45 41 -111
24 -33 69 -98 100 -145 81 -120 106 -138 140 -104 28 28 17 58 -64 176 -44 64
-80 120 -79 125 0 4 19 22 42 38 152 111 110 356 -73 420 -61 22 -283 21 -304
-1z"/>
<path d="M6756 1414 c-14 -13 -16 -62 -16 -378 0 -326 2 -365 17 -377 12 -11
67 -15 227 -17 116 -2 230 -1 253 3 51 7 67 30 50 66 l-13 24 -214 5 -215 5
-3 123 -3 122 151 0 c85 0 160 5 171 10 23 13 25 53 3 74 -13 13 -43 16 -170
16 l-154 0 0 120 0 120 213 0 c228 0 237 2 237 50 0 49 -7 50 -271 50 -212 0
-250 -2 -263 -16z"/>
</g>
</svg>
