<?xml version="1.0" standalone="no"?>
<!DOCTYPE svg PUBLIC "-//W3C//DTD SVG 20010904//EN"
 "http://www.w3.org/TR/2001/REC-SVG-20010904/DTD/svg10.dtd">
<svg version="1.0" xmlns="http://www.w3.org/2000/svg"
 width="846.000000pt" height="141.000000pt" viewBox="0 0 846.000000 141.000000"
 preserveAspectRatio="xMidYMid meet">
<metadata>
Created by potrace 1.16, written by Peter Selinger 2001-2019
</metadata>
<g transform="translate(0.000000,141.000000) scale(0.100000,-0.100000)"
fill="#000000" stroke="none">
<path d="M582 988 c-101 -15 -175 -89 -203 -201 -7 -29 -13 -99 -12 -157 2
-175 50 -275 154 -317 66 -27 130 -29 228 -6 68 16 75 16 102 1 l29 -17 0 165
c0 95 4 174 10 185 10 18 7 19 -61 19 l-72 0 21 -23 c19 -20 22 -35 22 -113 0
-131 -33 -164 -162 -164 -65 0 -136 29 -123 50 4 6 1 9 -7 8 -7 -2 -24 19 -38
47 -23 46 -25 61 -25 175 1 112 3 130 25 174 36 72 84 106 157 113 81 7 141
-19 185 -82 l33 -47 3 87 c2 48 1 90 -2 92 -2 3 -12 0 -22 -5 -12 -7 -32 -6
-63 3 -66 19 -119 22 -179 13z"/>
<path d="M3485 990 c-4 -6 -83 -10 -211 -10 -112 0 -204 -3 -204 -7 0 -5 7
-17 15 -27 22 -29 21 -569 0 -606 -8 -14 -14 -28 -15 -32 0 -4 100 -7 221 -8
122 0 226 -3 230 -6 5 -3 9 36 9 86 0 69 -3 91 -12 88 -7 -3 -13 -9 -13 -14
-1 -21 -28 -55 -55 -69 -43 -22 -255 -22 -264 1 -3 9 -6 67 -6 130 l0 114 75
0 c75 0 145 -19 145 -39 0 -6 5 -11 10 -11 6 0 10 33 10 80 l0 81 -31 -23
c-25 -19 -46 -24 -120 -26 l-89 -4 0 105 0 105 37 13 c47 15 181 6 223 -16 17
-9 36 -27 42 -40 20 -44 28 -27 28 54 0 74 -10 106 -25 81z"/>
<path d="M1182 983 l-212 -3 17 -27 c16 -24 18 -57 18 -308 0 -253 -2 -284
-18 -308 -13 -21 -15 -28 -5 -32 7 -2 111 -6 231 -7 l217 -3 0 90 0 90 -19
-30 c-39 -65 -52 -70 -182 -73 -83 -3 -124 0 -134 8 -12 10 -15 40 -15 132 l0
120 95 -4 c82 -3 98 -7 120 -28 l25 -23 0 83 0 83 -26 -24 c-23 -21 -36 -24
-120 -27 l-94 -4 0 101 c0 97 1 101 25 117 22 14 41 16 122 10 82 -6 102 -11
130 -32 18 -14 33 -31 33 -39 0 -8 5 -17 10 -20 6 -4 10 25 10 79 0 47 -3 85
-7 84 -5 -2 -104 -4 -221 -5z"/>
<path d="M2060 903 c0 -46 3 -83 8 -83 4 0 15 13 24 29 23 41 89 73 141 69
l42 -3 3 -278 c2 -242 0 -280 -14 -302 -9 -14 -15 -25 -13 -26 54 -11 127 -15
135 -7 3 4 -2 20 -10 37 -24 45 -24 566 0 575 24 9 70 7 101 -5 33 -12 83 -58
83 -75 0 -7 5 -16 10 -19 6 -4 10 26 10 82 l0 88 -260 0 -260 0 0 -82z"/>
<path d="M4963 982 c-35 -2 -63 -6 -63 -10 0 -4 7 -16 15 -26 12 -16 15 -69
15 -301 0 -232 -3 -285 -15 -301 -28 -37 -19 -45 50 -43 36 1 65 4 65 6 0 2
-7 14 -15 27 -13 19 -15 64 -13 277 3 243 4 252 19 219 9 -19 67 -137 128
-262 62 -125 114 -235 115 -245 2 -14 12 -18 47 -18 l44 0 5 317 c4 235 8 320
18 330 23 23 12 28 -53 28 -36 0 -65 -3 -65 -7 1 -5 7 -19 15 -33 11 -20 14
-74 14 -260 l0 -235 -130 258 c-71 142 -127 262 -124 267 8 13 -4 15 -72 12z"/>
<path d="M5760 984 c0 -1 7 -15 15 -30 21 -42 21 -576 0 -614 -8 -14 -14 -29
-15 -33 0 -5 73 -7 163 -5 150 3 165 5 204 27 75 43 119 126 133 254 17 144
-16 272 -87 339 -54 52 -94 61 -260 62 -84 1 -153 0 -153 0z m332 -93 c75 -52
104 -136 96 -281 -9 -144 -57 -216 -160 -239 -53 -12 -133 -4 -148 14 -7 8
-11 103 -11 261 0 293 -6 277 112 272 60 -2 83 -8 111 -27z"/>
<path d="M7935 950 c5 -30 -5 -58 -67 -183 l-73 -148 -74 147 c-60 121 -72
154 -68 181 l6 33 -70 0 -69 0 35 -51 c49 -71 187 -347 180 -359 -4 -6 -1 -9
7 -8 21 5 24 -182 3 -221 -8 -17 -15 -32 -15 -34 0 -2 29 -5 65 -6 36 -1 65 0
65 3 0 2 -7 17 -15 32 -20 39 -21 211 -1 239 7 11 42 76 76 145 35 69 81 153
102 188 21 34 38 64 38 66 0 3 -29 6 -65 8 l-66 3 6 -35z"/>
<path d="M1524 958 c23 -32 24 -592 1 -624 -20 -29 -11 -34 57 -34 62 0 70 8
43 44 -12 16 -15 65 -14 275 l0 256 102 -205 c56 -113 119 -243 140 -288 l39
-82 39 0 39 0 0 308 c1 247 3 312 15 332 8 14 14 28 15 33 0 4 -29 7 -65 7
-36 0 -65 -3 -65 -7 0 -3 7 -14 15 -23 13 -14 15 -53 13 -254 l-3 -238 -122
246 c-68 134 -123 252 -123 260 0 13 -13 16 -71 16 l-70 0 15 -22z"/>
<path d="M2654 955 c14 -21 16 -64 16 -310 0 -246 -2 -289 -16 -310 -13 -20
-14 -26 -3 -30 8 -2 92 -6 187 -7 l172 -3 0 90 0 90 -19 -31 c-35 -58 -66 -74
-144 -74 -55 0 -73 4 -83 18 -21 26 -20 530 1 558 8 10 15 22 15 27 0 4 -32 7
-71 7 l-71 0 16 -25z"/>
<path d="M3624 958 c23 -33 24 -593 1 -625 -8 -12 -11 -24 -6 -27 8 -5 121 -6
121 -1 0 1 -7 16 -15 32 -13 25 -15 72 -13 264 l3 234 48 -140 c27 -77 64
-183 83 -235 19 -53 36 -109 38 -125 3 -24 8 -31 31 -33 36 -5 83 7 67 17 -8
5 12 77 73 257 47 137 87 254 89 259 3 6 4 -104 3 -243 -2 -230 -4 -255 -20
-267 -16 -11 -16 -13 -1 -19 24 -9 124 -7 124 2 0 5 -7 23 -16 40 -13 27 -15
73 -12 305 3 241 5 276 21 300 l17 27 -74 0 c-63 0 -74 -2 -70 -15 4 -8 -10
-59 -29 -113 -20 -53 -62 -173 -94 -266 l-57 -169 -14 34 c-34 82 -165 467
-169 497 l-5 32 -70 0 -69 0 15 -22z"/>
<path d="M4513 907 c-12 -40 -27 -86 -34 -102 -6 -17 -13 -37 -14 -45 -4 -32
-115 -367 -135 -405 -11 -21 -20 -43 -20 -47 0 -4 27 -8 60 -8 56 0 75 10 49
26 -13 7 -7 63 10 107 l11 27 129 0 130 0 16 -30 c15 -29 21 -79 14 -110 -3
-12 9 -16 59 -18 34 -2 62 0 62 3 0 4 -8 19 -19 33 -18 26 -28 54 -110 312
-69 217 -91 293 -91 312 0 15 -8 18 -48 18 l-48 0 -21 -73z m138 -257 c16 -52
32 -103 35 -112 5 -16 -5 -18 -110 -18 -64 0 -116 3 -116 6 0 9 32 117 77 263
l35 115 25 -80 c13 -43 38 -122 54 -174z"/>
<path d="M6475 823 c-96 -312 -146 -458 -165 -484 -10 -15 -16 -29 -13 -33 8
-8 108 -8 116 0 3 3 1 14 -5 24 -9 14 -8 32 1 74 l12 56 138 0 138 0 13 -45
c7 -25 9 -60 6 -80 l-7 -37 58 3 c71 3 79 6 59 28 -17 19 -57 131 -126 351
-23 74 -51 163 -62 197 -10 33 -20 70 -21 82 -1 18 -8 21 -47 21 l-46 0 -49
-157z m109 10 c9 -32 28 -96 42 -143 14 -47 32 -102 40 -123 8 -20 14 -40 14
-42 0 -3 -52 -5 -116 -5 -115 0 -116 0 -112 23 12 52 103 347 109 347 3 0 13
-26 23 -57z"/>
<path d="M7240 972 c0 -4 6 -14 13 -20 9 -10 13 -86 15 -293 3 -237 1 -284
-12 -311 -9 -17 -16 -35 -16 -39 0 -5 83 -9 185 -11 l185 -3 0 88 c0 67 -3 88
-12 84 -7 -2 -13 -8 -13 -13 -1 -21 -28 -55 -55 -69 -41 -21 -153 -20 -171 2
-11 13 -14 71 -14 277 0 234 2 265 18 289 l17 27 -70 0 c-38 0 -70 -4 -70 -8z"/>
<path d="M6923 850 c-22 -9 -23 -14 -23 -135 0 -125 0 -125 24 -125 22 0 23
-4 30 -92 4 -51 9 -114 13 -140 l6 -48 42 0 43 0 7 63 c3 34 9 96 13 137 6 68
9 75 30 78 21 3 22 6 22 128 0 124 0 124 -26 134 -48 19 -70 13 -81 -22 l-10
-33 -7 33 c-6 26 -12 32 -34 31 -15 0 -37 -4 -49 -9z"/>
</g>
</svg>
