<?xml version="1.0" standalone="no"?>
<!DOCTYPE svg PUBLIC "-//W3C//DTD SVG 20010904//EN"
 "http://www.w3.org/TR/2001/REC-SVG-20010904/DTD/svg10.dtd">
<svg version="1.0" xmlns="http://www.w3.org/2000/svg"
 width="662.000000pt" height="272.000000pt" viewBox="0 0 662.000000 272.000000"
 preserveAspectRatio="xMidYMid meet">
<metadata>
Created by potrace 1.16, written by Peter Selinger 2001-2019
</metadata>
<g transform="translate(0.000000,272.000000) scale(0.100000,-0.100000)"
fill="#000000" stroke="none">
<path d="M3162 2087 c-6 -7 -13 -58 -14 -113 l-3 -99 -25 3 c-32 5 -30 2 -33
55 -3 51 -25 87 -38 65 -6 -8 -9 -9 -9 -2 0 7 -19 12 -49 12 -62 0 -83 -20
-77 -69 7 -53 -4 -63 -66 -60 -40 2 -58 -2 -68 -13 -11 -14 -6 -23 31 -65 24
-27 50 -47 57 -45 7 2 11 0 8 -5 -8 -13 60 -84 73 -77 7 4 8 1 5 -8 -3 -9 -1
-16 5 -16 6 0 11 -7 11 -15 0 -10 -10 -15 -29 -15 -54 0 -87 -12 -124 -44 -34
-30 -36 -34 -22 -46 13 -11 20 -11 33 -2 34 25 64 32 140 33 63 2 95 -4 175
-30 58 -19 107 -30 120 -26 15 4 18 3 9 -3 -16 -11 126 -48 194 -51 79 -3 203
63 210 113 3 24 -26 27 -53 6 -14 -11 -30 -20 -34 -20 -11 0 -12 151 -1 165 4
6 64 10 142 10 128 0 135 1 135 20 0 19 -7 20 -165 20 l-165 0 -2 -95 c-1 -52
-2 -110 -2 -129 l-1 -34 -92 6 c-74 4 -121 15 -226 50 -130 43 -134 46 -204
113 -90 86 -132 133 -126 140 12 11 68 14 291 17 177 1 237 -1 246 -10 9 -10
9 -13 -1 -14 -7 0 -4 -4 7 -9 l20 -9 -20 -1 -20 -1 20 -9 c16 -7 16 -9 4 -9
-21 -1 -42 -125 -27 -155 20 -38 48 26 52 121 0 17 5 29 9 26 5 -3 7 12 6 34
-2 21 0 44 4 50 11 18 -15 32 -68 35 l-50 3 -3 98 c-2 59 -7 95 -12 92 -6 -3
-7 1 -4 9 5 14 -6 16 -79 16 -57 0 -88 -4 -95 -13z m136 -124 l3 -83 -43 0
c-24 0 -50 5 -58 10 -8 5 -10 10 -3 10 7 0 11 22 11 63 1 34 1 68 1 75 1 9 14
12 44 10 l42 -3 3 -82z"/>
<path d="M2872 1469 c-20 -6 -30 -14 -26 -21 5 -7 3 -8 -5 -3 -16 9 -55 -31
-47 -51 7 -19 13 -18 70 11 57 29 95 31 177 10 33 -9 65 -15 72 -14 13 2 41
-7 70 -22 11 -6 17 -6 17 2 0 6 7 3 16 -5 8 -9 21 -17 27 -18 7 0 17 -2 22 -2
6 -1 15 -4 20 -8 6 -3 48 -14 95 -23 72 -15 94 -16 143 -6 31 7 55 17 52 22
-4 5 1 10 9 10 9 1 20 2 26 3 18 2 70 57 70 75 0 10 -9 17 -21 18 -12 1 -18
-1 -15 -4 3 -4 -22 -22 -56 -41 -54 -31 -71 -35 -125 -34 -34 0 -72 4 -84 7
-16 5 -20 4 -15 -6 4 -8 2 -7 -6 2 -7 9 -19 14 -26 11 -8 -2 -24 1 -35 7 -32
16 -158 61 -187 67 -14 2 -47 9 -73 14 -58 12 -121 12 -165 -1z"/>
<path d="M362 772 c-9 -7 -12 -60 -10 -233 3 -208 4 -224 21 -227 10 -2 29 -1
43 2 23 6 24 10 24 96 l0 90 75 0 75 0 0 -90 c0 -86 1 -90 24 -96 14 -3 33 -4
43 -2 17 3 18 19 21 229 3 255 6 245 -80 230 -5 0 -8 -39 -8 -86 l0 -85 -75 0
-75 0 0 78 c0 47 -5 83 -12 90 -14 14 -47 16 -66 4z"/>
<path d="M918 768 c-15 -12 -138 -396 -138 -431 0 -20 47 -34 69 -20 9 6 23
30 32 54 l16 43 54 -1 c30 -1 57 -2 60 -2 3 -1 12 -20 19 -43 14 -49 24 -58
63 -58 39 0 43 22 19 99 -122 390 -114 371 -161 371 -9 0 -24 -6 -33 -12z"/>
<path d="M2309 757 c-71 -38 -89 -80 -89 -210 0 -121 10 -156 59 -202 26 -24
41 -30 94 -33 52 -3 67 0 96 20 54 37 75 89 80 192 4 102 -8 151 -46 197 -52
61 -121 74 -194 36z m125 -99 c12 -17 16 -48 16 -118 0 -83 -3 -99 -20 -118
-25 -27 -60 -28 -91 -3 -21 17 -24 30 -27 100 -5 91 1 122 24 145 24 24 80 20
98 -6z"/>
<path d="M3113 773 c-8 -2 -13 -22 -13 -44 0 -36 3 -40 30 -46 l31 -6 -3 -136
-3 -136 -27 -3 c-25 -3 -28 -7 -28 -42 0 -48 11 -52 125 -48 l80 3 3 42 c3 39
1 42 -25 45 l-28 3 -3 136 -3 136 31 6 c27 6 30 10 30 46 0 26 -5 41 -16 45
-19 7 -163 7 -181 -1z"/>
<path d="M3500 769 c-33 -13 -68 -47 -88 -84 -12 -22 -16 -58 -17 -140 0 -97
3 -115 23 -150 41 -71 109 -102 180 -83 36 10 92 53 92 70 0 5 -11 20 -25 34
l-25 25 -29 -20 c-40 -29 -75 -27 -100 5 -18 23 -21 41 -21 120 0 81 3 97 20
114 24 24 82 27 100 5 18 -21 33 -19 60 10 21 23 22 26 7 48 -31 48 -117 70
-177 46z"/>
<path d="M4818 763 c-14 -16 -138 -404 -138 -431 0 -15 43 -26 70 -17 14 4 24
21 32 51 l12 44 62 0 62 0 13 -37 c6 -21 16 -44 22 -50 14 -18 64 -16 75 3 12
21 -112 424 -136 442 -23 17 -56 15 -74 -5z"/>
<path d="M1231 752 c-7 -13 -11 -97 -11 -225 0 -222 -1 -217 55 -217 32 0 37
10 42 93 3 40 6 73 8 75 2 2 25 -33 52 -78 47 -80 68 -96 110 -88 31 6 26 37
-18 109 l-42 70 30 32 c64 68 65 152 3 212 -29 28 -37 30 -125 33 -85 4 -94 2
-104 -16z"/>
<path d="M1665 758 c-2 -7 -16 -105 -29 -217 -27 -221 -26 -231 25 -231 36 0
45 17 53 105 16 165 14 165 60 25 l41 -125 35 -3 c19 -1 40 1 46 5 6 5 26 58
44 118 18 61 36 113 39 118 4 4 13 -45 20 -110 7 -68 17 -120 24 -125 22 -14
67 -9 74 9 6 15 -34 403 -44 430 -3 8 -23 13 -49 13 -52 0 -48 6 -99 -162 -22
-70 -41 -125 -44 -122 -4 3 -26 67 -51 142 l-45 137 -48 3 c-32 2 -49 -1 -52
-10z"/>
<path d="M2667 764 c-4 -4 -7 -105 -7 -225 l0 -219 24 -6 c14 -3 34 -3 45 1
20 6 21 14 21 138 l0 132 73 -133 c75 -138 89 -151 142 -138 l25 6 0 225 0
225 -40 0 -40 0 0 -132 c-1 -155 4 -156 -93 17 -62 110 -62 110 -102 113 -23
2 -44 0 -48 -4z"/>
<path d="M3930 726 l0 -45 53 -3 52 -3 2 -169 c1 -92 4 -175 7 -182 7 -17 58
-18 74 -2 8 8 12 64 12 184 l0 173 53 3 52 3 0 40 0 40 -152 3 -153 3 0 -45z"/>
<path d="M4332 758 c-9 -9 -12 -73 -12 -225 l0 -213 24 -6 c55 -13 61 -5 64
84 2 45 7 82 11 82 5 0 30 -36 56 -80 47 -80 68 -97 112 -88 31 6 25 41 -22
113 l-44 70 25 19 c76 57 72 187 -9 236 -25 15 -50 20 -112 20 -50 0 -86 -5
-93 -12z"/>
<path d="M5110 747 c0 -29 118 -407 132 -424 16 -20 76 -16 87 5 20 38 132
414 127 428 -7 18 -70 19 -83 2 -6 -7 -27 -73 -48 -146 -21 -72 -40 -130 -43
-127 -3 2 -24 67 -46 142 l-42 138 -42 3 c-38 3 -42 1 -42 -21z"/>
<path d="M5562 758 c-9 -9 -12 -71 -12 -220 0 -246 -10 -230 141 -226 115 3
132 13 113 65 -9 27 -12 28 -87 31 l-78 3 3 47 3 47 60 5 c64 5 73 15 61 66
-6 22 -11 24 -66 24 l-60 0 0 40 0 40 80 0 c76 0 80 1 86 24 3 14 3 34 -1 45
-6 20 -14 21 -119 21 -74 0 -116 -4 -124 -12z"/>
<path d="M5897 763 c-4 -3 -7 -102 -7 -219 0 -250 -8 -234 124 -234 109 0 116
3 116 50 0 45 -9 50 -91 50 l-59 0 0 180 0 180 -38 0 c-21 0 -42 -3 -45 -7z"/>
</g>
</svg>
