<?xml version="1.0" standalone="no"?>
<!DOCTYPE svg PUBLIC "-//W3C//DTD SVG 20010904//EN"
 "http://www.w3.org/TR/2001/REC-SVG-20010904/DTD/svg10.dtd">
<svg version="1.0" xmlns="http://www.w3.org/2000/svg"
 width="625.000000pt" height="147.000000pt" viewBox="0 0 625.000000 147.000000"
 preserveAspectRatio="xMidYMid meet">
<metadata>
Created by potrace 1.16, written by Peter Selinger 2001-2019
</metadata>
<g transform="translate(0.000000,147.000000) scale(0.100000,-0.100000)"
fill="#000000" stroke="none">
<path d="M1525 1169 l-45 -41 -35 16 c-188 89 -369 64 -515 -71 -183 -169
-192 -449 -21 -635 206 -225 588 -170 725 103 65 129 68 260 10 390 l-27 60
40 42 c34 35 40 46 32 65 -5 14 -17 22 -32 22 -29 0 -47 18 -47 47 0 12 -9 27
-20 33 -17 9 -27 4 -65 -31z m-127 -83 c62 -32 73 -50 44 -78 l-20 -21 -34 20
c-49 29 -132 46 -185 39 -247 -34 -354 -321 -188 -504 82 -91 230 -124 337
-75 159 73 227 252 155 407 -27 59 -27 60 -8 79 28 28 48 16 79 -50 24 -51 27
-70 27 -158 0 -93 -2 -105 -32 -166 -39 -79 -102 -140 -181 -177 -50 -24 -70
-27 -157 -27 -87 0 -107 3 -155 26 -81 39 -144 99 -182 176 -44 89 -51 208
-18 296 39 105 111 179 216 223 52 22 71 24 154 21 80 -3 104 -8 148 -31z
m-73 -130 c19 -8 35 -18 35 -23 0 -4 -14 -21 -31 -39 -28 -28 -34 -31 -62 -22
-94 28 -184 -72 -151 -168 20 -58 57 -84 123 -84 48 0 57 3 86 34 36 39 48 80
36 124 -8 26 -5 34 23 61 18 17 35 31 39 31 16 0 37 -72 37 -127 0 -132 -95
-223 -233 -223 -120 0 -217 101 -217 228 0 89 44 162 123 201 50 25 141 28
192 7z"/>
<path d="M2784 1181 c-48 -22 -96 -70 -89 -89 3 -7 0 -10 -5 -7 -5 3 -17 -19
-25 -50 -14 -47 -16 -98 -13 -313 3 -246 4 -259 26 -305 44 -87 134 -137 224
-122 23 4 48 10 53 14 6 3 15 6 20 6 6 1 9 6 8 13 -2 6 3 9 10 7 17 -6 39 13
67 60 25 40 25 42 28 330 2 160 1 304 -3 321 -7 42 -70 113 -119 135 -52 24
-130 24 -182 0z m167 -107 c6 -7 14 -12 18 -10 12 8 15 -52 16 -324 0 -251 -2
-277 -18 -302 -40 -58 -136 -61 -178 -5 -24 32 -24 35 -27 287 -2 140 -1 269
3 287 9 47 49 91 88 95 38 4 81 -8 98 -28z"/>
<path d="M3343 1185 c-47 -20 -90 -62 -110 -109 -15 -35 -18 -78 -21 -296 -4
-248 7 -378 29 -364 5 3 6 -1 3 -9 -8 -23 70 -93 120 -107 132 -37 255 52 272
196 l7 54 -51 0 -50 0 -7 -42 c-14 -87 -53 -120 -132 -116 -22 2 -39 5 -37 7
2 2 -3 9 -12 15 -27 20 -34 86 -34 331 0 259 6 306 41 336 26 22 95 25 121 5
20 -15 51 -81 52 -111 1 -22 39 -31 83 -20 21 5 23 9 18 43 -16 91 -56 153
-122 186 -39 19 -127 20 -170 1z"/>
<path d="M3865 1176 c-58 -30 -101 -88 -110 -150 -3 -22 -5 -194 -3 -381 l3
-340 43 -3 c30 -2 44 1 48 12 3 8 6 77 7 153 l2 138 108 0 109 0 1 -150 2
-150 41 -3 c27 -2 45 2 53 12 9 11 11 102 9 368 l-3 354 -26 49 c-35 69 -92
106 -172 112 -52 4 -70 0 -112 -21z m164 -97 c36 -34 41 -62 41 -225 l0 -155
-107 3 -108 3 0 150 c0 165 5 195 37 225 30 28 106 28 137 -1z"/>
<path d="M5134 1181 c-48 -22 -89 -62 -112 -111 -25 -54 -31 -535 -7 -617 30
-104 135 -176 232 -159 59 11 74 17 68 27 -3 5 1 6 9 3 14 -5 94 67 97 88 1 4
2 12 3 17 0 5 4 13 9 17 4 4 7 139 7 300 l0 292 -28 53 c-22 43 -38 59 -81 81
-64 34 -136 37 -197 9z m166 -111 c39 -41 42 -72 38 -355 -3 -262 -9 -288 -63
-313 -32 -15 -92 -16 -100 -1 -4 6 -14 8 -23 4 -9 -3 -13 -3 -9 1 3 4 0 19 -7
33 -25 47 -27 62 -27 314 0 233 2 252 21 292 23 47 32 52 98 54 37 1 49 -4 72
-29z"/>
<path d="M5703 1185 c-38 -17 -78 -59 -102 -108 -19 -40 -20 -63 -21 -404 l0
-363 24 -6 c13 -3 35 -4 47 -2 l24 3 5 360 c3 198 9 367 14 375 25 42 51 60
85 60 58 0 81 -11 99 -44 15 -27 17 -74 20 -386 2 -260 6 -357 15 -362 7 -4
29 -8 49 -8 31 0 39 4 44 24 3 12 4 178 2 368 -2 289 -5 348 -18 363 -8 10
-14 20 -12 22 12 17 -54 88 -101 108 -43 18 -132 18 -174 0z"/>
<path d="M235 1178 c-3 -7 -4 -206 -3 -443 l3 -430 39 -3 c21 -2 43 1 49 7 5
5 9 84 8 195 -1 103 0 190 2 194 3 4 50 6 106 4 l101 -3 0 -194 c0 -213 -3
-205 66 -205 27 0 35 5 39 23 3 12 4 211 3 442 l-3 420 -50 0 -50 0 -2 -190
-2 -190 -100 -5 c-56 -3 -102 -5 -103 -5 -1 0 -4 88 -7 195 l-6 195 -43 3
c-28 2 -44 -1 -47 -10z"/>
<path d="M1754 1176 c-3 -8 -4 -29 -2 -48 l3 -33 73 -3 72 -3 0 -383 c0 -426
-3 -410 67 -404 l38 3 3 393 2 392 74 0 c87 0 92 6 77 93 0 4 -91 7 -201 7
-163 0 -202 -3 -206 -14z"/>
<path d="M2267 1184 c-11 -11 -8 -694 3 -733 16 -57 52 -100 105 -126 43 -21
62 -24 140 -22 l90 2 0 45 0 45 -85 5 c-84 5 -121 18 -137 50 -5 8 -10 177
-13 375 l-5 360 -45 3 c-25 2 -49 0 -53 -4z"/>
<path d="M4247 1184 c-4 -4 -7 -27 -7 -51 l0 -43 80 0 80 0 2 -392 3 -393 24
-3 c12 -2 34 -1 47 2 l24 6 0 390 0 389 78 3 77 3 0 45 0 45 -201 3 c-110 1
-203 -1 -207 -4z"/>
<path d="M4755 1148 c-3 -24 -5 -220 -3 -437 3 -438 0 -420 71 -407 l37 7 0
424 c0 233 -3 430 -6 439 -4 11 -19 16 -49 16 l-44 0 -6 -42z"/>
</g>
</svg>
