<?xml version="1.0" standalone="no"?>
<!DOCTYPE svg PUBLIC "-//W3C//DTD SVG 20010904//EN"
 "http://www.w3.org/TR/2001/REC-SVG-20010904/DTD/svg10.dtd">
<svg version="1.0" xmlns="http://www.w3.org/2000/svg"
 width="628.000000pt" height="157.000000pt" viewBox="0 0 628.000000 157.000000"
 preserveAspectRatio="xMidYMid meet">
<metadata>
Created by potrace 1.16, written by Peter Selinger 2001-2019
</metadata>
<g transform="translate(0.000000,157.000000) scale(0.100000,-0.100000)"
fill="#000000" stroke="none">
<path d="M3580 1311 l-105 -36 -3 -249 c-4 -303 6 -403 47 -489 32 -67 101
-144 166 -185 51 -32 145 -62 196 -62 l39 0 0 104 0 104 -37 7 c-82 15 -138
59 -172 135 -16 36 -21 66 -21 147 l0 102 113 3 112 3 3 98 c2 74 0 97 -10 98
-7 0 -59 0 -115 0 l-102 0 -3 128 -3 128 -105 -36z"/>
<path d="M320 1086 l-95 -33 -3 -377 -2 -376 110 0 110 0 0 410 c0 322 -3 410
-12 409 -7 0 -56 -16 -108 -33z"/>
<path d="M2986 1095 c-98 -35 -168 -136 -167 -243 0 -152 114 -262 272 -262
62 0 85 -15 74 -50 -6 -19 -14 -20 -186 -20 l-180 0 3 -112 3 -113 190 0 c217
0 245 6 313 69 58 53 85 112 85 190 -1 147 -101 245 -268 261 -81 8 -85 10
-85 35 0 33 33 40 184 40 l146 0 0 110 0 110 -172 0 c-121 -1 -185 -5 -212
-15z"/>
<path d="M4295 1092 c-156 -54 -281 -194 -314 -350 -6 -29 -11 -141 -11 -247
l0 -195 110 0 110 0 0 203 c0 202 0 204 28 258 34 67 93 113 167 130 l55 12 0
104 0 103 -47 0 c-27 -1 -71 -8 -98 -18z"/>
<path d="M560 700 l0 -400 110 0 110 0 0 233 c0 212 2 235 20 264 51 85 189
85 240 0 18 -29 20 -52 20 -264 l0 -233 110 0 110 0 0 220 c0 227 -8 296 -42
364 -73 143 -253 224 -405 183 -53 -14 -53 -14 -53 9 0 24 -1 24 -110 24
l-110 0 0 -400z"/>
<path d="M1368 1092 c-60 -1 -108 -4 -108 -6 0 -1 71 -178 158 -392 l158 -389
90 -3 91 -3 66 163 c36 90 108 267 160 395 l95 232 -103 3 c-56 2 -109 2 -117
0 -9 -2 -48 -91 -99 -222 -46 -121 -87 -220 -90 -220 -4 0 -44 99 -90 220 -46
121 -88 221 -94 222 -5 2 -58 2 -117 0z"/>
<path d="M2291 1084 c-169 -45 -301 -213 -301 -381 0 -154 96 -303 238 -371
51 -24 68 -27 167 -27 105 0 113 2 170 32 33 18 73 44 89 58 l29 26 -29 31
c-16 16 -51 48 -77 70 -46 39 -48 40 -67 23 -28 -25 -106 -43 -152 -35 -40 8
-118 54 -118 70 0 6 101 10 276 10 l276 0 -4 103 c-3 89 -7 110 -35 170 -35
74 -110 155 -174 187 -52 27 -144 50 -194 49 -22 0 -64 -7 -94 -15z m185 -219
c27 -13 55 -34 62 -45 12 -20 10 -20 -143 -20 -91 0 -155 4 -155 9 0 13 58 57
90 70 43 17 94 12 146 -14z"/>
<path d="M4709 1090 c-57 -17 -151 -75 -190 -117 -208 -226 -100 -590 198
-667 77 -20 119 -20 197 0 139 36 245 138 287 276 65 212 -58 439 -271 502
-56 17 -176 20 -221 6z m192 -226 c134 -67 131 -273 -5 -335 -111 -50 -238 10
-263 126 -34 157 126 281 268 209z"/>
<path d="M5292 703 l3 -398 107 -3 107 -3 3 241 3 241 42 40 c37 34 48 39 90
39 58 0 105 -26 130 -72 16 -28 18 -64 21 -261 l3 -227 105 0 104 0 0 236 c0
185 -3 248 -16 290 -14 51 -66 132 -103 162 -102 83 -211 109 -328 78 l-53
-14 0 24 c0 24 0 24 -110 24 l-110 0 2 -397z"/>
</g>
</svg>
