<?xml version="1.0" standalone="no"?>
<!DOCTYPE svg PUBLIC "-//W3C//DTD SVG 20010904//EN"
 "http://www.w3.org/TR/2001/REC-SVG-20010904/DTD/svg10.dtd">
<svg version="1.0" xmlns="http://www.w3.org/2000/svg"
 width="828.000000pt" height="260.000000pt" viewBox="0 0 828.000000 260.000000"
 preserveAspectRatio="xMidYMid meet">
<metadata>
Created by potrace 1.16, written by Peter Selinger 2001-2019
</metadata>
<g transform="translate(0.000000,260.000000) scale(0.100000,-0.100000)"
fill="#000000" stroke="none">
<path d="M7044 2022 c-97 -34 -162 -105 -200 -217 -9 -26 -24 -102 -33 -169
l-16 -121 -43 -3 c-23 -2 -42 -6 -42 -10 0 -4 -7 -54 -15 -112 -8 -58 -15
-111 -15 -117 0 -8 14 -13 40 -13 48 0 47 19 16 -231 -14 -107 -32 -257 -41
-334 -8 -77 -18 -152 -21 -167 l-6 -28 156 0 155 0 5 33 c6 34 86 707 86 719
0 4 37 8 83 10 l82 3 12 85 c6 47 12 102 12 123 l1 37 -76 0 -77 0 7 70 c9 87
31 163 53 181 21 18 90 16 129 -4 l30 -16 33 102 c19 56 36 107 38 114 2 6
-26 26 -63 44 -57 28 -79 33 -153 36 -64 3 -99 -1 -137 -15z"/>
<path d="M1712 1979 c-56 -28 -92 -88 -92 -153 0 -90 44 -150 128 -171 135
-35 249 53 240 186 -3 37 -12 66 -28 88 -48 68 -164 91 -248 50z"/>
<path d="M516 1933 c-3 -21 -10 -76 -16 -123 -19 -164 -120 -987 -140 -1140
-11 -85 -20 -158 -20 -162 0 -7 869 -12 871 -5 7 32 36 284 32 290 -2 4 -123
7 -269 7 -231 0 -264 2 -264 15 0 9 32 270 70 581 39 312 70 568 70 570 0 2
-74 4 -164 4 l-164 0 -6 -37z"/>
<path d="M7724 1838 l-151 -30 -17 -136 c-10 -75 -19 -143 -21 -149 -3 -8 -23
-13 -53 -13 l-49 0 -14 -121 c-8 -66 -12 -122 -10 -125 2 -2 24 -4 48 -4 28 0
43 -4 43 -12 0 -7 -11 -105 -25 -218 -37 -301 -35 -385 13 -459 57 -86 239
-110 396 -50 83 31 79 22 52 148 -13 62 -26 115 -29 117 -2 2 -21 -3 -42 -12
-21 -8 -49 -13 -62 -9 -44 11 -46 35 -18 261 14 116 25 216 25 222 0 8 31 12
105 12 l104 0 5 33 c9 51 26 187 26 203 0 11 -20 14 -100 14 l-100 0 0 28 c0
28 26 255 35 305 2 15 1 27 -3 26 -4 -1 -75 -14 -158 -31z"/>
<path d="M2547 1515 c-229 -58 -385 -249 -417 -512 -32 -253 73 -437 284 -500
65 -20 223 -19 300 2 243 64 396 292 396 587 0 207 -87 345 -255 408 -78 29
-226 36 -308 15z m182 -284 c55 -38 66 -66 65 -159 -2 -185 -105 -323 -231
-309 -80 9 -123 71 -123 180 0 142 79 283 168 303 15 3 32 7 37 9 18 5 59 -6
84 -24z"/>
<path d="M3966 1519 c-57 -14 -148 -65 -196 -111 l-43 -42 7 72 7 73 -153 -3
-153 -3 -57 -455 c-31 -250 -59 -476 -62 -502 l-7 -48 156 0 c111 0 155 3 155
12 0 42 53 423 65 464 35 122 90 209 159 249 58 34 115 32 133 -5 15 -30 17
-117 3 -208 -5 -37 -21 -152 -35 -257 -14 -104 -27 -205 -29 -223 l-5 -32 155
0 c102 0 154 4 154 11 0 5 19 148 41 317 51 380 55 492 17 573 -29 63 -72 101
-133 118 -47 13 -124 13 -179 0z"/>
<path d="M4840 1520 c-72 -17 -133 -51 -185 -103 -43 -44 -57 -67 -74 -122
-25 -81 -26 -114 -5 -186 22 -76 108 -158 234 -223 133 -69 150 -82 150 -116
0 -37 -23 -50 -92 -50 -63 0 -123 26 -187 77 l-44 37 -84 -90 -83 -89 46 -42
c138 -128 394 -164 571 -81 67 32 127 96 153 165 30 80 25 190 -12 248 -44 69
-92 105 -236 180 -93 48 -132 80 -132 109 0 25 23 50 56 60 34 10 114 -20 155
-60 l38 -37 38 31 c21 17 62 55 92 85 60 61 60 67 -3 116 -103 82 -271 120
-396 91z"/>
<path d="M5940 1523 c-253 -42 -436 -263 -457 -549 -20 -274 118 -458 364
-484 344 -36 588 181 619 550 16 194 -58 359 -195 434 -82 44 -229 66 -331 49z
m164 -301 c35 -32 48 -72 48 -152 -1 -135 -57 -246 -145 -289 -179 -87 -278
120 -166 347 33 67 81 109 141 121 39 9 96 -4 122 -27z"/>
<path d="M1606 1478 c-9 -56 -116 -942 -116 -960 0 -16 14 -18 150 -18 147 0
150 0 155 23 3 12 30 227 60 477 30 250 57 467 60 483 l5 27 -155 0 -154 0 -5
-32z"/>
</g>
</svg>
