<?xml version="1.0" standalone="no"?>
<!DOCTYPE svg PUBLIC "-//W3C//DTD SVG 20010904//EN"
 "http://www.w3.org/TR/2001/REC-SVG-20010904/DTD/svg10.dtd">
<svg version="1.0" xmlns="http://www.w3.org/2000/svg"
 width="829.000000pt" height="342.000000pt" viewBox="0 0 829.000000 342.000000"
 preserveAspectRatio="xMidYMid meet">
<metadata>
Created by potrace 1.16, written by Peter Selinger 2001-2019
</metadata>
<g transform="translate(0.000000,342.000000) scale(0.100000,-0.100000)"
fill="#000000" stroke="none">
<path d="M5655 2825 c-60 -12 -137 -30 -170 -39 -33 -10 -84 -24 -112 -32 -29
-8 -94 -30 -144 -50 -222 -84 -331 -155 -364 -236 -34 -86 -48 -324 -49 -818
-1 -396 2 -485 17 -600 42 -313 120 -515 212 -550 95 -36 179 30 224 175 24
77 40 232 49 464 l7 184 30 10 c90 29 270 106 338 145 93 54 209 159 240 216
17 32 22 58 22 120 l0 78 -39 34 c-52 45 -122 59 -225 45 -83 -11 -237 -59
-313 -97 -26 -13 -52 -24 -58 -24 -14 0 -1 252 14 262 6 5 36 17 66 29 30 11
119 52 197 90 254 125 398 254 438 393 58 198 -70 266 -380 201z"/>
<path d="M4076 2785 c-126 -45 -202 -232 -219 -535 l-2 -45 -70 -12 c-215 -38
-355 -131 -355 -235 0 -49 21 -90 62 -121 48 -36 96 -48 190 -49 46 0 85 -2
89 -3 3 -2 -2 -66 -10 -142 -21 -201 -20 -739 2 -853 51 -269 222 -389 557
-392 116 -1 196 15 275 54 116 57 151 113 142 224 -6 76 -33 125 -83 149 -31
14 -48 15 -144 5 -162 -16 -210 2 -257 98 -26 54 -28 64 -28 197 0 189 37 619
56 656 5 11 29 19 70 23 75 9 210 54 264 88 22 14 54 40 70 58 26 27 30 39 30
85 0 46 -4 58 -30 85 -62 65 -145 92 -288 91 -97 0 -99 0 -93 22 12 41 36 212
36 254 0 135 -68 270 -153 302 -37 14 -63 13 -111 -4z"/>
<path d="M7244 2781 c-106 -48 -181 -230 -199 -482 l-7 -97 -73 -11 c-159 -23
-306 -103 -339 -183 -25 -59 -2 -139 49 -172 50 -33 109 -47 198 -47 48 -1 87
-4 87 -7 0 -4 -7 -79 -15 -167 -17 -187 -20 -640 -5 -765 20 -159 61 -252 145
-328 61 -55 126 -86 225 -107 91 -19 286 -22 355 -5 133 33 233 108 255 192
15 55 -1 139 -35 184 -36 47 -80 57 -202 43 -117 -12 -165 -3 -205 38 -68 71
-83 178 -62 453 17 223 42 458 50 471 3 5 19 9 35 9 53 0 172 31 244 65 81 37
149 99 158 142 24 121 -106 204 -319 204 l-102 0 15 52 c8 29 17 108 20 177 5
111 3 132 -16 189 -50 145 -146 202 -257 152z"/>
<path d="M575 2758 c-116 -64 -176 -239 -225 -653 -67 -580 -47 -1138 55
-1525 40 -154 219 -183 605 -99 298 65 547 170 657 277 94 91 116 183 63 269
-53 88 -235 113 -491 68 -72 -13 -325 -76 -366 -92 -17 -7 -17 -6 3 937 7 320
-1 441 -38 593 -38 157 -105 237 -197 237 -25 0 -55 -6 -66 -12z"/>
<path d="M6345 2751 c-49 -13 -90 -38 -123 -76 -37 -41 -47 -72 -39 -122 17
-101 143 -134 268 -70 99 50 141 129 110 210 -18 46 -139 79 -216 58z"/>
<path d="M2500 2735 c0 -3 11 -18 24 -32 13 -14 30 -37 37 -52 8 -14 26 -47
40 -72 36 -62 76 -204 89 -316 17 -148 -9 -278 -77 -381 -41 -61 -71 -85 -153
-118 -116 -47 -259 -26 -334 49 -60 61 -80 131 -74 256 l6 96 -44 -90 c-52
-108 -117 -304 -141 -423 -20 -107 -23 -341 -4 -427 46 -209 151 -358 359
-508 115 -83 416 -226 436 -207 2 3 -2 30 -11 60 -9 32 -15 99 -15 160 -1 91
3 115 27 180 33 90 76 161 179 299 82 111 181 299 215 411 64 208 61 397 -9
583 -64 171 -253 373 -468 498 -65 38 -82 45 -82 34z"/>
<path d="M6305 2237 c-38 -18 -88 -74 -119 -135 -35 -69 -73 -239 -87 -384
-15 -167 -6 -757 14 -883 31 -191 96 -316 172 -331 105 -19 200 71 249 236 48
159 81 801 56 1074 -18 200 -63 350 -124 405 -32 30 -115 39 -161 18z"/>
<path d="M3210 1870 c-7 -147 -33 -281 -80 -407 -39 -105 -114 -242 -161 -296
-79 -89 -176 -252 -204 -344 -26 -83 -15 -283 15 -283 5 0 56 35 114 78 57 42
114 84 126 92 60 39 178 130 204 156 130 130 197 317 180 499 -9 100 -57 250
-114 367 -46 91 -80 150 -80 138z"/>
</g>
</svg>
