<?xml version="1.0" standalone="no"?>
<!DOCTYPE svg PUBLIC "-//W3C//DTD SVG 20010904//EN"
 "http://www.w3.org/TR/2001/REC-SVG-20010904/DTD/svg10.dtd">
<svg version="1.0" xmlns="http://www.w3.org/2000/svg"
 width="846.000000pt" height="221.000000pt" viewBox="0 0 846.000000 221.000000"
 preserveAspectRatio="xMidYMid meet">
<metadata>
Created by potrace 1.16, written by Peter Selinger 2001-2019
</metadata>
<g transform="translate(0.000000,221.000000) scale(0.100000,-0.100000)"
fill="#000000" stroke="none">
<path d="M614 1681 c-50 -23 -90 -63 -115 -116 -16 -34 -19 -65 -19 -192 0
-144 9 -203 32 -203 4 0 8 -46 8 -103 l0 -103 -52 -26 c-84 -41 -266 -175
-283 -208 -11 -20 -15 -60 -15 -135 0 -105 0 -106 23 -103 21 3 22 8 25 88 3
106 7 124 35 151 31 30 180 129 255 170 l62 34 0 123 c0 109 -2 127 -20 149
-18 23 -20 41 -20 165 0 120 3 144 20 178 53 104 217 132 311 53 51 -43 59
-76 59 -231 0 -125 -2 -142 -20 -165 -19 -23 -20 -38 -18 -148 l3 -123 81 -47
c104 -59 190 -118 232 -157 31 -29 32 -32 32 -114 0 -103 6 -128 32 -128 19 0
20 6 16 120 l-3 120 -33 31 c-33 31 -223 160 -280 191 l-32 17 0 97 c0 79 3
101 18 117 14 16 18 43 20 167 2 90 -1 164 -8 190 -15 55 -90 131 -146 148
-61 18 -152 15 -200 -7z"/>
<path d="M5225 1675 c-44 -13 -98 -27 -120 -31 -36 -8 -40 -12 -40 -39 0 -28
3 -30 42 -35 74 -9 80 -21 87 -161 5 -117 4 -249 -2 -249 -1 0 -31 10 -65 21
-46 16 -86 22 -157 22 -106 0 -152 -13 -227 -65 -74 -50 -83 -59 -124 -122
-119 -181 -102 -417 41 -579 52 -59 106 -91 190 -112 55 -15 75 -15 132 -5 63
11 178 67 186 91 2 5 10 9 18 9 10 0 14 -14 14 -51 l0 -52 147 8 c161 8 193
15 193 44 0 22 -19 31 -61 31 -38 0 -85 24 -99 50 -7 13 -11 214 -10 612 0
326 -3 603 -6 616 -8 28 -31 27 -139 -3z m-120 -566 c20 -13 48 -42 63 -63
l27 -39 1 -249 c1 -285 3 -277 -88 -322 -97 -48 -205 -32 -279 43 -69 69 -92
138 -93 276 -1 185 55 308 166 365 57 29 152 23 203 -11z"/>
<path d="M5773 1631 c-48 -22 -63 -45 -63 -98 0 -60 34 -94 98 -101 63 -6 103
9 125 47 28 48 22 94 -17 135 -39 42 -77 47 -143 17z"/>
<path d="M7974 1631 c-73 -45 -85 -112 -30 -167 29 -29 41 -34 83 -34 48 0 84
16 111 48 29 36 5 139 -37 162 -31 16 -93 12 -127 -9z"/>
<path d="M2047 1523 c-4 -3 -7 -19 -7 -34 0 -25 5 -30 43 -39 74 -18 106 -40
117 -79 12 -42 12 -778 1 -859 -10 -68 -32 -91 -99 -99 -44 -5 -53 -10 -58
-30 -12 -48 1 -51 214 -50 l197 2 0 35 c0 34 -1 35 -46 40 -62 7 -97 32 -103
72 -10 61 -18 808 -9 808 4 0 14 -15 22 -32 8 -18 32 -73 54 -123 21 -49 54
-124 72 -165 63 -144 117 -265 141 -320 14 -30 51 -113 83 -185 57 -130 58
-130 91 -130 l34 0 83 205 c46 113 120 295 165 405 44 110 95 236 112 280 l31
80 3 -390 c2 -256 -1 -403 -8 -427 -14 -48 -52 -78 -100 -78 -47 0 -67 -21
-52 -54 l10 -24 249 2 248 1 0 35 c0 34 -1 35 -48 42 -64 9 -95 30 -102 70 -3
18 -5 230 -3 471 l3 439 28 24 c19 16 41 24 65 24 44 0 57 8 64 37 11 43 -13
48 -196 43 l-169 -5 -37 -95 c-21 -52 -88 -219 -149 -370 -62 -151 -126 -312
-144 -357 -18 -46 -34 -83 -37 -83 -3 0 -84 177 -180 392 -186 419 -204 449
-290 490 -62 29 -273 52 -293 31z"/>
<path d="M6368 1393 c-58 -140 -82 -169 -165 -194 -45 -13 -59 -34 -48 -70 6
-19 13 -21 65 -16 l59 5 3 -317 3 -316 28 -56 c57 -116 174 -153 327 -103 64
21 94 46 86 72 -9 28 -27 33 -72 17 -64 -23 -131 -19 -159 9 -40 40 -45 84
-45 394 l0 292 114 0 114 0 4 29 c8 57 0 61 -128 54 l-116 -6 4 114 3 114 -32
3 c-28 3 -35 -1 -45 -25z"/>
<path d="M5824 1201 c-27 -10 -83 -24 -123 -31 -52 -10 -75 -19 -82 -32 -17
-31 -4 -45 46 -52 87 -14 85 -5 85 -340 0 -338 1 -334 -82 -343 -50 -6 -65
-22 -48 -52 9 -17 27 -18 222 -17 l213 1 3 31 c3 30 2 31 -44 37 -29 3 -54 13
-68 26 -21 21 -21 29 -24 398 -3 378 -4 394 -37 392 -5 0 -33 -9 -61 -18z"/>
<path d="M8045 1204 c-22 -8 -80 -23 -130 -33 -88 -18 -90 -19 -93 -48 -3 -30
-2 -31 47 -38 88 -12 86 -5 86 -329 0 -154 -3 -293 -7 -308 -8 -26 -40 -43
-98 -50 -20 -2 -25 -8 -25 -33 l0 -30 213 -2 c197 -1 213 0 222 17 16 31 2 47
-46 53 -88 10 -84 -10 -84 409 0 236 -4 376 -10 389 -12 22 -21 23 -75 3z"/>
<path d="M3902 1191 c-115 -34 -208 -117 -265 -240 -58 -122 -48 -313 23 -436
104 -182 361 -255 558 -159 55 27 138 102 161 147 14 25 13 29 -7 50 l-22 22
-60 -67 c-70 -77 -113 -98 -205 -98 -92 0 -141 18 -195 70 -57 55 -88 131 -97
236 l-6 74 257 0 c329 0 337 3 323 136 -11 108 -92 216 -190 252 -80 31 -198
36 -275 13z m183 -61 c60 -23 105 -101 105 -180 0 -40 -4 -52 -26 -69 -25 -19
-40 -21 -202 -21 l-175 0 7 47 c13 95 74 189 141 219 36 16 113 18 150 4z"/>
<path d="M7175 1204 c-66 -9 -146 -38 -178 -65 -68 -56 -70 -179 -4 -235 35
-30 94 -32 128 -5 l23 18 -27 32 c-27 33 -31 45 -27 91 11 133 248 153 309 26
17 -34 21 -62 21 -144 l0 -101 -32 -5 c-18 -3 -71 -8 -118 -11 -206 -14 -335
-73 -376 -171 -16 -38 -19 -141 -5 -177 13 -35 68 -95 103 -113 114 -59 311
-22 395 74 17 20 33 34 35 32 2 -3 12 -23 23 -45 28 -55 92 -90 165 -89 30 0
65 6 78 13 32 17 29 49 -5 57 -48 10 -51 12 -70 40 -16 25 -19 60 -23 309 -5
259 -7 284 -27 327 -25 55 -84 101 -157 124 -52 16 -177 26 -231 18z m245
-524 c0 -92 -13 -129 -61 -185 -44 -50 -108 -78 -177 -77 -87 1 -125 52 -112
153 12 96 79 149 215 174 39 7 85 14 103 14 l32 1 0 -80z"/>
<path d="M585 723 c-27 -7 -67 -40 -82 -66 -7 -12 -12 -46 -13 -75 l0 -54 112
-114 c61 -63 116 -114 122 -114 14 0 210 198 225 227 16 31 14 99 -5 134 -16
31 -81 68 -119 69 -12 0 -38 -9 -60 -20 -39 -20 -39 -20 -80 0 -41 20 -61 22
-100 13z m106 -79 c14 -13 29 -24 33 -24 5 0 24 14 44 31 28 25 41 30 66 25
43 -8 76 -49 76 -93 0 -31 -11 -46 -87 -124 -48 -49 -91 -89 -95 -89 -4 0 -48
40 -98 90 -77 77 -90 95 -90 123 0 86 87 122 151 61z"/>
</g>
</svg>
