<?xml version="1.0" standalone="no"?>
<!DOCTYPE svg PUBLIC "-//W3C//DTD SVG 20010904//EN"
 "http://www.w3.org/TR/2001/REC-SVG-20010904/DTD/svg10.dtd">
<svg version="1.0" xmlns="http://www.w3.org/2000/svg"
 width="628.000000pt" height="161.000000pt" viewBox="0 0 628.000000 161.000000"
 preserveAspectRatio="xMidYMid meet">
<metadata>
Created by potrace 1.16, written by Peter Selinger 2001-2019
</metadata>
<g transform="translate(0.000000,161.000000) scale(0.100000,-0.100000)"
fill="#000000" stroke="none">
<path d="M505 1173 c-151 -55 -237 -154 -266 -308 -13 -71 1 -149 41 -232 37
-74 90 -124 180 -167 58 -27 75 -31 150 -30 62 0 100 6 140 22 80 31 162 108
202 190 30 61 33 74 33 162 0 82 -4 103 -27 152 -37 80 -108 152 -184 189 -83
39 -195 48 -269 22z m238 -43 c70 -26 145 -98 183 -175 25 -52 29 -71 29 -145
0 -74 -4 -93 -29 -145 -91 -184 -301 -253 -479 -157 -88 48 -177 175 -177 254
0 17 5 14 29 -18 56 -77 108 -104 198 -104 248 1 333 328 118 451 -27 16 -61
29 -75 29 -14 0 -31 4 -39 9 -11 7 -4 11 25 16 21 4 44 8 49 11 21 8 117 -7
168 -26z m-155 -59 c56 -29 95 -78 117 -151 7 -21 4 -20 -27 12 -58 62 -152
64 -212 3 -39 -38 -51 -88 -37 -143 12 -44 54 -88 94 -97 51 -13 29 -27 -36
-23 -79 5 -140 42 -175 108 -20 38 -23 56 -20 112 3 55 9 75 33 109 58 83 177
114 263 70z m65 -161 c49 -55 31 -154 -34 -181 -121 -50 -218 88 -131 185 42
47 121 45 165 -4z"/>
<path d="M5456 1180 c-65 -20 -116 -108 -116 -202 l0 -58 -50 0 c-38 0 -50 -4
-50 -15 0 -11 12 -15 50 -15 l50 0 -2 -207 -3 -208 -48 -3 c-28 -2 -47 -8 -45
-14 2 -6 55 -10 141 -9 170 0 157 -1 157 11 0 5 -26 10 -57 12 l-58 3 -3 208
-2 207 60 0 c47 0 60 3 60 15 0 12 -13 15 -60 15 l-60 0 0 68 c1 140 23 184
90 179 42 -3 51 -26 21 -56 -26 -26 -27 -63 -3 -84 64 -58 127 36 77 114 -28
44 -84 58 -149 39z"/>
<path d="M1057 1173 c-16 -15 -4 -23 37 -23 25 0 48 -6 55 -14 8 -9 11 -107 9
-337 l-3 -324 -40 -3 c-22 -2 -44 -8 -50 -13 -10 -10 -14 -10 135 -10 149 0
145 0 135 10 -6 5 -28 11 -50 13 l-40 3 -3 353 -2 352 -88 0 c-49 0 -92 -3
-95 -7z"/>
<path d="M4235 1172 c-13 -13 12 -22 59 -22 92 0 87 19 84 -342 -2 -174 -7
-320 -11 -324 -4 -5 -37 -10 -72 -12 -36 -2 -65 -8 -65 -13 0 -11 -38 -10 315
-11 l300 -1 6 104 c11 176 10 241 -2 237 -6 -2 -20 -37 -30 -78 -24 -95 -66
-168 -117 -204 -32 -23 -54 -30 -109 -33 -122 -9 -113 -35 -113 341 0 366 -8
336 86 336 37 0 54 4 54 13 0 10 -42 13 -190 13 -105 0 -193 -2 -195 -4z"/>
<path d="M2016 921 c-95 -7 -117 -28 -34 -33 l53 -3 3 -207 2 -208 -44 0 c-45
0 -71 -15 -38 -21 35 -8 252 3 252 12 0 5 -18 9 -41 9 l-40 0 3 173 c3 166 4
175 28 210 42 61 94 73 136 32 l24 -25 -2 -192 -3 -193 -37 -3 c-35 -3 -55
-21 -25 -23 84 -4 232 2 235 10 2 5 -14 11 -35 13 l-38 3 0 172 0 171 31 39
c62 76 135 68 153 -19 12 -52 15 -326 5 -352 -4 -11 -19 -16 -45 -16 -21 0
-39 -4 -39 -10 0 -12 -9 -11 135 -11 144 0 135 -1 135 10 0 6 -21 11 -47 13
l-48 3 -5 180 c-6 199 -10 217 -73 256 -25 16 -44 19 -87 16 -49 -4 -58 -8
-91 -46 -34 -38 -38 -40 -44 -21 -4 11 -24 32 -46 45 -70 45 -160 27 -199 -38
l-20 -32 0 41 c0 29 -5 44 -16 48 -9 3 -16 5 -17 4 -1 -1 -38 -4 -81 -7z"/>
<path d="M3056 899 c-19 -16 -39 -40 -43 -52 -6 -18 -9 -14 -13 23 l-5 45 -97
0 c-107 0 -139 -17 -48 -25 l55 -5 3 -322 2 -322 -47 -3 c-26 -2 -48 -9 -51
-15 -3 -10 33 -13 158 -13 125 0 161 3 158 13 -3 7 -28 13 -66 15 l-62 3 0
152 c0 147 1 151 17 119 66 -134 262 -87 318 77 55 162 -49 341 -199 341 -36
0 -52 -6 -80 -31z m155 -28 c68 -74 63 -327 -7 -388 -52 -47 -144 -20 -180 53
-28 58 -28 244 2 294 48 82 132 101 185 41z"/>
<path d="M3493 920 c-110 -7 -126 -25 -28 -32 l40 -3 3 -207 2 -208 -39 0
c-36 0 -71 -19 -39 -21 76 -5 243 2 246 11 2 6 -13 10 -37 10 l-41 0 0 224 c0
170 -3 225 -12 228 -7 2 -50 1 -95 -2z"/>
<path d="M3824 911 c-49 -23 -84 -64 -84 -102 0 -41 10 -59 38 -70 60 -23 101
61 47 97 -45 30 -28 55 48 68 46 9 103 -8 117 -34 6 -10 10 -43 10 -72 l0 -54
-92 -44 c-51 -25 -107 -58 -125 -73 -73 -64 -59 -159 28 -186 67 -20 115 -8
161 40 30 31 38 36 38 21 0 -29 44 -63 89 -69 35 -5 44 -2 71 25 28 29 30 35
30 111 0 47 -4 81 -10 81 -6 0 -10 -29 -10 -67 0 -74 -15 -116 -43 -121 -43
-8 -47 11 -47 200 0 198 -6 225 -60 253 -42 21 -154 19 -206 -4z m174 -280
c-2 -72 -7 -95 -24 -118 -53 -71 -118 -69 -143 3 -14 39 -13 44 10 90 19 39
35 54 84 81 33 18 64 33 68 33 5 0 7 -40 5 -89z"/>
<path d="M5021 921 c-99 -7 -124 -28 -39 -33 l53 -3 0 -205 0 -205 -43 -3
c-24 -2 -42 -8 -40 -14 5 -14 251 -14 256 1 2 7 -11 11 -37 11 l-41 0 0 208
c0 197 -4 254 -19 250 -3 -1 -44 -4 -90 -7z"/>
<path d="M5732 909 c-46 -23 -104 -86 -122 -134 -17 -42 -15 -154 3 -198 34
-79 130 -147 211 -147 37 0 96 26 130 58 33 31 65 96 66 130 0 37 -22 21 -35
-25 -26 -87 -83 -133 -167 -133 -79 0 -116 47 -125 161 l-6 69 162 0 161 0 0
33 c-1 67 -67 168 -127 193 -47 20 -102 17 -151 -7z m127 -14 c32 -16 38 -28
52 -98 15 -81 7 -87 -118 -87 l-106 0 6 49 c14 119 86 178 166 136z"/>
<path d="M1363 906 c2 -6 22 -14 45 -17 23 -3 44 -8 48 -11 3 -3 39 -104 80
-224 l75 -217 -26 -66 c-37 -98 -69 -141 -105 -141 -36 0 -36 2 -9 39 19 26
20 32 8 57 -11 21 -22 30 -45 32 -40 4 -64 -19 -64 -61 1 -53 41 -87 102 -87
68 1 86 33 217 369 50 128 98 245 108 261 17 29 57 50 94 50 11 0 19 6 19 13
0 11 -25 13 -114 13 -115 -1 -153 -10 -100 -21 50 -11 53 -14 60 -40 5 -19 -7
-64 -42 -156 -27 -71 -52 -129 -55 -129 -12 0 -102 288 -96 304 3 8 20 16 38
18 18 2 34 8 36 13 2 6 -49 10 -137 11 -95 0 -139 -3 -137 -10z"/>
</g>
</svg>
