<?xml version="1.0" standalone="no"?>
<!DOCTYPE svg PUBLIC "-//W3C//DTD SVG 20010904//EN"
 "http://www.w3.org/TR/2001/REC-SVG-20010904/DTD/svg10.dtd">
<svg version="1.0" xmlns="http://www.w3.org/2000/svg"
 width="635.000000pt" height="172.000000pt" viewBox="0 0 635.000000 172.000000"
 preserveAspectRatio="xMidYMid meet">
<metadata>
Created by potrace 1.16, written by Peter Selinger 2001-2019
</metadata>
<g transform="translate(0.000000,172.000000) scale(0.100000,-0.100000)"
fill="#000000" stroke="none">
<path d="M482 1354 c-93 -46 -152 -141 -152 -245 0 -100 55 -187 169 -268 129
-92 171 -140 171 -198 0 -68 -72 -103 -138 -67 -36 19 -86 84 -104 134 -5 17
-14 30 -19 30 -8 0 -108 -47 -117 -55 -9 -8 66 -132 106 -177 78 -86 173 -116
269 -84 109 36 173 125 173 240 0 108 -42 166 -188 260 -115 73 -160 143 -142
221 13 58 39 85 83 85 66 0 93 -46 83 -143 l-6 -63 68 -22 c38 -12 74 -22 80
-22 28 0 44 143 23 217 -15 54 -93 140 -149 164 -64 28 -146 25 -210 -7z"/>
<path d="M3766 1343 c-3 -10 -19 -79 -35 -153 -36 -158 -81 -322 -91 -333 -4
-5 -15 36 -25 90 -16 96 -72 354 -77 359 -2 1 -58 5 -124 9 l-122 7 -8 -108
c-11 -135 -8 -754 3 -764 4 -4 43 -11 87 -14 l78 -7 -7 123 c-10 192 -23 593
-19 597 10 11 19 -22 59 -211 63 -296 85 -392 93 -399 4 -4 30 -9 59 -13 l52
-7 25 83 c14 46 48 177 76 293 28 116 53 218 56 229 16 52 20 -25 12 -269 -5
-148 -10 -304 -11 -345 l-2 -75 79 -8 c43 -4 81 -5 85 -1 9 8 14 733 6 831
l-7 81 -46 6 c-160 19 -190 19 -196 -1z"/>
<path d="M2930 1183 c0 -44 -3 -108 -6 -142 l-7 -61 -39 -6 c-48 -8 -52 -14
-43 -70 6 -45 7 -45 43 -42 l37 3 -3 -206 -3 -206 38 -7 c21 -3 55 -6 76 -6
l37 0 0 128 c0 71 3 170 6 220 l7 92 43 0 44 0 0 60 0 60 -45 0 -45 0 6 125 7
125 -24 0 c-13 0 -48 3 -76 6 l-53 7 0 -80z"/>
<path d="M5836 1252 c-3 -5 -6 -68 -7 -140 l-1 -132 -38 -6 c-57 -9 -61 -14
-54 -68 l7 -48 39 5 38 5 0 -208 0 -208 38 -6 c20 -3 53 -7 72 -8 l35 -3 3
223 2 222 50 0 50 0 0 60 0 60 -51 0 c-48 0 -51 1 -46 23 7 26 12 216 6 221
-10 9 -138 16 -143 8z"/>
<path d="M1479 1056 c-20 -13 -43 -36 -53 -50 l-17 -26 -29 22 c-19 13 -49 23
-84 26 l-55 4 -50 -51 -49 -51 -6 30 c-3 17 -9 43 -12 59 -6 31 -25 41 -83 41
l-33 0 4 -304 c2 -168 6 -307 8 -309 3 -2 37 -7 77 -11 l72 -7 -6 128 c-5 104
-3 139 11 188 24 83 65 155 87 155 33 0 42 -68 35 -251 l-7 -166 47 -7 c26 -3
60 -6 75 -6 l29 0 0 88 c1 151 17 279 44 338 42 92 77 66 84 -62 3 -46 -1
-150 -8 -230 -6 -80 -8 -150 -4 -154 5 -4 37 -10 71 -12 56 -4 62 -2 67 16 3
12 11 100 18 197 9 141 9 191 -1 248 -20 110 -67 165 -151 176 -38 5 -51 2
-81 -19z"/>
<path d="M2014 1061 c-26 -11 -53 -36 -72 -65 -32 -46 -70 -141 -61 -150 2 -3
28 -8 57 -12 45 -6 52 -4 57 12 3 11 14 35 24 54 15 27 25 35 47 35 35 0 54
-32 54 -91 l0 -41 -59 -12 c-156 -31 -248 -177 -178 -282 42 -64 114 -83 197
-54 45 16 60 13 60 -11 0 -10 14 -14 54 -14 l54 0 7 133 c4 73 6 187 4 253 -4
104 -7 126 -29 168 -14 27 -37 58 -52 69 -38 28 -113 32 -164 8z"/>
<path d="M2645 1070 c-24 -9 -54 -42 -85 -94 l-24 -39 -11 34 c-11 32 -15 34
-60 37 -46 3 -47 2 -40 -20 4 -13 10 -141 12 -286 4 -185 9 -265 17 -267 6 -2
39 -5 73 -7 l62 -4 3 205 c3 191 5 209 25 248 24 45 47 57 86 48 22 -6 25 -2
39 47 14 49 14 54 -1 71 -22 22 -71 36 -96 27z"/>
<path d="M5365 1054 c-70 -37 -126 -144 -145 -275 -30 -208 46 -349 189 -349
56 0 93 13 135 50 27 24 81 99 74 104 -2 1 -24 15 -50 29 -43 25 -47 26 -52 9
-8 -24 -55 -68 -82 -76 -28 -8 -50 18 -63 72 -11 50 -16 46 86 61 40 6 96 16
124 22 l52 11 -5 97 c-6 109 -30 180 -79 227 -25 24 -39 29 -92 31 -43 3 -71
-1 -92 -13z m112 -144 c7 -19 12 -56 12 -81 l1 -47 -44 -11 c-68 -17 -76 -15
-76 17 0 41 26 121 46 143 25 28 47 20 61 -21z"/>
</g>
</svg>
