<?xml version="1.0" standalone="no"?>
<!DOCTYPE svg PUBLIC "-//W3C//DTD SVG 20010904//EN"
 "http://www.w3.org/TR/2001/REC-SVG-20010904/DTD/svg10.dtd">
<svg version="1.0" xmlns="http://www.w3.org/2000/svg"
 width="842.000000pt" height="186.000000pt" viewBox="0 0 842.000000 186.000000"
 preserveAspectRatio="xMidYMid meet">
<metadata>
Created by potrace 1.16, written by Peter Selinger 2001-2019
</metadata>
<g transform="translate(0.000000,186.000000) scale(0.100000,-0.100000)"
fill="#000000" stroke="none">
<path d="M620 1390 c-140 -33 -210 -113 -210 -237 0 -142 91 -218 341 -284
117 -30 209 -67 243 -97 51 -45 70 -149 40 -220 -37 -89 -113 -132 -251 -139
-129 -8 -205 13 -307 85 -44 31 -50 32 -64 18 -9 -8 -14 -17 -11 -19 2 -2 23
-18 46 -35 178 -138 488 -130 600 16 66 86 65 221 -1 299 -48 55 -112 87 -276
133 -174 50 -219 71 -264 120 -96 106 -52 258 88 307 67 24 211 24 286 1 30
-10 81 -33 112 -52 50 -30 59 -32 70 -19 10 13 8 19 -12 35 -37 30 -119 69
-175 84 -55 15 -199 17 -255 4z"/>
<path d="M1194 1363 c4 -15 46 -161 93 -323 47 -162 108 -376 137 -475 l52
-180 29 0 29 0 113 350 c62 193 127 398 144 458 18 59 34 106 36 104 1 -2 41
-125 89 -273 223 -704 202 -644 233 -644 23 0 30 5 35 28 10 41 245 849 266
914 19 59 18 68 -11 68 -21 0 -22 -4 -164 -505 -129 -456 -127 -451 -131 -440
-2 6 -40 125 -84 265 -219 690 -209 660 -233 660 -21 0 -32 -29 -152 -402 -70
-222 -137 -432 -148 -468 -11 -36 -22 -58 -25 -50 -3 8 -64 222 -136 475 -123
432 -133 460 -155 463 -21 3 -23 1 -17 -25z"/>
<path d="M2630 885 c0 -498 0 -505 20 -505 20 0 20 7 20 505 0 498 0 505 -20
505 -20 0 -20 -7 -20 -505z"/>
<path d="M2950 885 c0 -489 1 -505 19 -505 10 0 22 7 25 16 3 9 6 96 6 195 l0
179 160 0 c214 0 287 17 369 86 98 82 116 284 38 402 -41 60 -118 107 -201
121 -34 6 -142 11 -239 11 l-177 0 0 -505z m383 455 c166 -24 247 -124 235
-289 -6 -76 -23 -116 -73 -164 -55 -54 -112 -66 -315 -68 l-175 -3 -5 260 c-3
142 -4 262 -2 267 5 10 255 8 335 -3z"/>
<path d="M3820 885 l0 -505 295 0 c288 0 295 0 295 20 0 20 -7 20 -275 20
l-275 0 0 225 0 225 250 0 c243 0 250 1 250 20 0 19 -8 20 -247 22 l-248 3 0
215 0 215 263 3 c244 2 263 4 260 20 -3 16 -27 17 -286 20 l-282 2 0 -505z"/>
<path d="M4617 1383 c-4 -3 -7 -231 -7 -505 l0 -500 223 4 c245 5 281 12 351
70 85 70 113 224 62 335 -26 56 -89 110 -138 120 -36 7 -35 18 2 33 107 44
153 199 95 317 -53 105 -137 133 -402 133 -99 0 -183 -3 -186 -7z m443 -57
c85 -32 123 -88 123 -181 0 -87 -31 -138 -113 -181 -30 -16 -64 -19 -222 -22
l-188 -4 0 199 c0 110 3 203 8 207 4 5 84 6 177 3 124 -3 182 -9 215 -21z m35
-454 c27 -13 58 -30 68 -40 52 -46 79 -160 58 -238 -18 -66 -51 -106 -116
-139 -60 -30 -61 -30 -252 -33 l-193 -4 0 242 0 242 193 -4 c174 -3 197 -5
242 -26z"/>
<path d="M6420 885 l0 -505 25 0 25 0 2 462 3 462 111 -170 c464 -710 496
-755 523 -752 l26 3 0 500 0 500 -22 3 -23 3 -2 -467 -3 -468 -115 174 c-500
763 -498 760 -525 760 l-25 0 0 -505z"/>
<path d="M7410 885 l0 -505 25 0 25 0 0 194 0 193 66 62 c36 35 71 60 78 58 7
-3 111 -118 232 -256 189 -217 222 -251 247 -251 19 0 26 4 21 12 -4 6 -108
126 -232 267 -123 141 -226 261 -229 268 -2 6 95 109 216 229 122 119 221 221
221 226 0 5 -11 8 -24 6 -16 -2 -121 -97 -310 -281 l-286 -279 0 281 0 281
-25 0 -25 0 0 -505z"/>
</g>
</svg>
