<?xml version="1.0" standalone="no"?>
<!DOCTYPE svg PUBLIC "-//W3C//DTD SVG 20010904//EN"
 "http://www.w3.org/TR/2001/REC-SVG-20010904/DTD/svg10.dtd">
<svg version="1.0" xmlns="http://www.w3.org/2000/svg"
 width="858.000000pt" height="410.000000pt" viewBox="0 0 858.000000 410.000000"
 preserveAspectRatio="xMidYMid meet">
<metadata>
Created by potrace 1.16, written by Peter Selinger 2001-2019
</metadata>
<g transform="translate(0.000000,410.000000) scale(0.100000,-0.100000)"
fill="#000000" stroke="none">
<path d="M4095 3760 c-152 -17 -369 -99 -475 -178 -25 -19 -58 -43 -75 -55
-48 -35 -215 -207 -215 -222 0 -3 -14 -26 -30 -50 -39 -56 -100 -174 -100
-192 0 -7 -4 -21 -9 -31 -38 -76 -73 -243 -52 -256 5 -3 45 -9 88 -12 75 -5
106 -10 211 -35 56 -14 128 -45 137 -59 8 -13 62 -13 70 0 17 28 140 74 256
96 73 14 97 14 184 3 59 -7 128 -24 168 -40 l67 -27 0 77 c0 84 18 181 57 314
14 48 23 90 19 94 -4 4 -29 -5 -56 -20 -42 -24 -58 -27 -139 -27 -72 0 -100 4
-129 20 -43 23 -72 44 -72 54 0 4 -9 16 -20 28 -11 12 -20 30 -20 39 0 10 -6
19 -12 22 -9 2 -13 32 -13 103 1 93 2 102 33 156 49 85 139 128 267 128 59 0
173 -25 190 -41 5 -5 15 -9 22 -9 23 0 127 -73 175 -122 49 -50 117 -163 156
-258 13 -30 29 -68 37 -85 32 -70 92 -257 133 -420 22 -83 35 -240 29 -339 -6
-100 -6 -100 25 -148 26 -42 30 -55 26 -101 -7 -86 -67 -147 -145 -147 -19 0
-53 -10 -76 -21 -39 -20 -158 -114 -165 -131 -2 -5 -12 -8 -22 -8 -9 0 -33 -6
-51 -14 -19 -8 -61 -17 -94 -21 -37 -5 -71 -16 -90 -30 -86 -63 -188 -95 -305
-95 -102 1 -160 15 -264 66 l-56 27 -44 -21 c-24 -12 -52 -22 -62 -22 -10 0
-25 -4 -33 -9 -11 -7 -6 -13 20 -26 19 -10 36 -21 39 -24 9 -12 135 -68 210
-94 88 -31 238 -57 331 -57 95 0 275 26 344 50 58 20 85 31 171 71 22 10 46
19 52 19 7 0 12 5 12 10 0 6 5 10 11 10 6 0 17 6 25 13 7 6 53 43 101 82 82
64 168 156 219 229 34 50 124 229 124 246 0 9 4 20 9 26 12 12 38 121 51 209
17 121 8 329 -19 405 -4 14 -16 52 -26 85 -28 95 -119 275 -155 305 -3 3 -13
17 -22 31 -73 115 -234 246 -399 326 -202 97 -393 128 -624 103z"/>
<path d="M4119 3592 c-53 -26 -68 -41 -91 -89 -17 -35 -20 -57 -15 -109 6 -76
31 -119 88 -152 63 -37 115 -39 190 -7 95 41 119 42 158 9 32 -26 33 -31 28
-78 -3 -28 -17 -85 -30 -126 -31 -90 -51 -229 -45 -315 3 -50 14 -82 53 -161
42 -84 49 -108 49 -159 l1 -60 -32 -3 c-30 -3 -32 -1 -38 35 -20 122 -87 214
-195 269 l-75 38 -150 1 c-142 0 -154 -2 -219 -28 -38 -15 -98 -50 -134 -77
-52 -40 -69 -47 -84 -39 -10 5 -18 16 -18 24 0 55 -173 111 -360 117 l-75 3 3
-75 c5 -120 20 -213 48 -297 27 -83 95 -227 120 -254 8 -8 14 -19 14 -23 0 -4
6 -13 13 -21 6 -7 23 -28 37 -47 14 -18 51 -59 82 -90 54 -54 60 -58 105 -58
25 0 73 7 104 16 l58 16 -20 38 c-11 21 -27 44 -35 51 -29 24 -11 79 27 79 17
0 23 -7 87 -100 65 -95 169 -140 323 -140 76 0 185 31 218 61 11 11 24 19 28
19 10 1 83 94 83 107 1 21 40 54 59 48 39 -12 46 -33 23 -65 -26 -34 -27 -40
-7 -40 40 0 132 46 170 85 51 54 128 94 193 102 55 6 85 29 95 73 8 31 -21 64
-80 90 -24 10 -43 25 -43 33 0 16 31 47 48 47 17 0 25 84 18 191 -5 89 -16
153 -47 279 -16 64 -99 320 -114 350 -7 14 -37 75 -66 135 -99 204 -229 299
-420 310 -77 4 -101 2 -130 -13z m519 -535 c8 -16 26 -70 40 -120 34 -121 37
-291 7 -379 -18 -55 -21 -58 -52 -58 -39 0 -40 4 -17 110 24 114 8 263 -42
378 -15 35 -19 84 -7 96 16 16 58 0 71 -27z m-323 -720 c0 -15 -55 -78 -112
-128 -17 -15 -59 -37 -94 -48 -56 -19 -82 -21 -218 -19 -134 3 -155 5 -165 21
-8 12 -8 22 0 35 10 15 33 18 175 22 155 5 167 7 217 33 29 15 76 51 103 78
47 48 52 50 72 36 12 -8 22 -21 22 -30z"/>
<path d="M460 1240 c-61 -9 -82 -30 -78 -75 3 -25 9 -31 43 -41 22 -7 81 -13
131 -13 l90 -1 1 -357 c1 -197 5 -378 8 -404 12 -85 72 -113 112 -53 14 22 16
73 17 420 l1 394 110 5 c86 4 113 9 127 23 31 32 27 75 -9 91 -33 15 -472 24
-553 11z"/>
<path d="M3980 1244 c-127 -24 -144 -98 -135 -569 6 -369 8 -381 47 -394 23
-8 36 -7 58 4 l28 14 7 201 7 200 120 0 c65 0 139 5 164 11 43 11 44 12 44 54
0 42 -1 43 -44 54 -25 6 -97 11 -161 11 -115 0 -116 0 -125 26 -15 38 -13 217
3 236 10 13 47 17 226 21 l214 5 23 29 c20 25 21 30 8 54 -7 15 -20 29 -27 32
-19 7 -425 17 -457 11z"/>
<path d="M1175 1232 c-5 -4 -18 -17 -28 -29 -16 -18 -17 -26 -6 -61 19 -65 82
-82 131 -35 35 33 36 71 3 107 -24 26 -76 36 -100 18z"/>
<path d="M4615 1227 c-29 -17 -35 -28 -35 -62 1 -47 41 -85 90 -85 33 0 70 44
70 84 0 60 -71 95 -125 63z"/>
<path d="M1601 1181 c-14 -14 -20 -41 -26 -110 l-7 -91 -55 0 c-69 0 -113 -27
-113 -70 0 -42 32 -60 106 -60 l61 0 5 -265 c4 -238 6 -267 23 -285 22 -24 67
-26 85 -4 15 17 28 212 29 422 l1 132 64 0 c76 0 116 24 116 70 0 37 -51 62
-119 59 -60 -3 -73 5 -70 45 6 87 -1 127 -26 151 -29 30 -49 31 -74 6z"/>
<path d="M5045 1186 c-15 -11 -19 -30 -23 -102 -2 -49 -8 -93 -13 -98 -5 -5
-30 -10 -56 -11 -66 -3 -88 -11 -101 -41 -16 -34 -15 -41 8 -64 16 -16 33 -20
84 -20 l64 0 6 -32 c4 -18 4 -58 1 -88 -9 -89 9 -416 25 -435 7 -8 15 -13 18
-11 2 3 12 1 22 -4 13 -7 23 -3 40 15 23 24 23 31 29 287 l6 263 72 6 c80 6
103 19 103 60 0 43 -44 69 -119 69 l-61 0 0 58 c0 128 -45 192 -105 148z"/>
<path d="M3085 986 c-22 -6 -65 -25 -95 -43 l-55 -32 -11 25 c-23 55 -84 62
-111 12 -16 -30 -18 -63 -18 -318 1 -331 4 -346 69 -344 20 1 42 6 48 12 7 7
13 100 17 259 l6 247 54 28 c44 23 66 28 126 28 72 0 74 -1 93 -32 35 -57 44
-117 51 -320 4 -126 10 -201 17 -208 7 -7 26 -13 44 -13 24 -2 37 5 52 24 18
24 21 47 25 200 8 280 -29 406 -138 461 -58 29 -106 33 -174 14z"/>
<path d="M5706 974 c-24 -12 -61 -32 -81 -44 l-35 -22 -16 37 c-14 34 -17 36
-57 33 -42 -3 -42 -3 -55 -58 -9 -38 -13 -121 -12 -265 1 -332 9 -375 70 -375
53 0 58 20 67 285 l8 240 53 27 c71 36 128 44 175 25 66 -28 85 -102 94 -374
4 -108 10 -176 17 -182 6 -5 23 -12 37 -16 73 -18 98 88 81 343 -12 172 -28
235 -75 295 -40 52 -79 70 -158 71 -51 2 -78 -3 -113 -20z"/>
<path d="M7083 981 c-63 -22 -127 -75 -142 -116 -15 -43 -16 -136 -3 -162 13
-24 93 -93 108 -93 5 0 58 -16 119 -35 118 -38 155 -63 155 -106 0 -59 -59
-89 -175 -89 -59 0 -84 6 -139 30 -56 26 -69 28 -86 18 -24 -16 -27 -73 -5
-105 42 -60 263 -84 388 -42 66 22 97 45 127 94 22 37 34 120 22 160 -10 31
-60 95 -75 95 -5 0 -15 7 -23 15 -8 8 -34 19 -57 25 -105 27 -209 63 -222 77
-17 16 -20 60 -6 82 5 8 26 20 47 27 41 15 78 13 204 -12 83 -17 116 -13 125
15 15 47 -42 106 -119 123 -83 19 -188 19 -243 -1z"/>
<path d="M7717 980 c-104 -40 -156 -108 -157 -204 0 -99 75 -164 233 -200 74
-17 138 -48 151 -74 22 -44 4 -87 -44 -106 -58 -23 -202 -22 -237 1 -15 10
-42 23 -60 29 -28 10 -35 9 -54 -9 -16 -15 -20 -27 -15 -50 9 -45 31 -64 103
-88 54 -18 81 -21 171 -17 134 5 191 27 242 95 33 44 35 51 35 124 l0 77 -46
46 c-47 46 -58 51 -246 106 -51 15 -76 28 -88 47 -21 32 -13 67 21 90 33 21
145 20 229 -2 100 -26 125 -18 125 41 0 45 -52 82 -138 100 -90 19 -167 17
-225 -6z"/>
<path d="M1172 953 c-15 -33 -17 -75 -17 -333 0 -329 2 -340 59 -340 60 0 61
3 64 329 4 343 -1 374 -56 379 -29 3 -34 -1 -50 -35z"/>
<path d="M2200 983 c-48 -16 -120 -58 -120 -70 0 -7 -8 -13 -18 -13 -9 0 -23
-10 -29 -22 -63 -120 -78 -187 -70 -303 7 -93 22 -140 63 -195 37 -50 92 -85
156 -101 65 -15 193 -6 217 15 10 9 21 16 25 16 5 0 22 12 39 26 l31 26 9 -23
c18 -48 25 -54 60 -57 60 -5 62 3 62 343 0 322 -2 339 -51 351 -29 7 -74 -28
-74 -58 0 -24 -6 -23 -51 13 -58 46 -188 73 -249 52z m128 -134 c52 -9 71 -18
95 -43 51 -54 59 -74 66 -158 7 -74 5 -88 -15 -133 -26 -60 -65 -102 -102
-112 -44 -13 -144 -8 -180 7 -24 11 -41 31 -62 74 -27 53 -30 69 -30 150 0 73
4 97 19 121 38 58 57 76 96 90 49 17 37 17 113 4z"/>
<path d="M4626 975 c-24 -25 -30 -94 -30 -375 -1 -238 1 -269 17 -293 14 -22
25 -27 57 -27 35 0 41 3 47 28 4 15 8 163 7 329 0 266 -2 304 -17 327 -20 29
-57 35 -81 11z"/>
<path d="M6424 970 c-51 -10 -138 -61 -171 -100 -13 -16 -36 -51 -50 -77 -23
-43 -26 -60 -27 -159 0 -98 3 -118 23 -163 14 -28 28 -51 33 -51 4 0 8 -6 8
-14 0 -21 63 -72 128 -103 52 -26 66 -28 167 -27 169 2 265 40 265 106 0 37
-49 65 -89 49 -93 -37 -249 -33 -315 9 -33 20 -76 85 -76 115 0 18 -2 18 50 0
77 -27 350 -14 350 17 0 5 6 8 14 8 27 0 74 67 82 117 12 79 -35 203 -77 203
-10 0 -19 6 -19 13 0 15 -51 40 -115 57 -46 11 -121 11 -181 0z m179 -129 c14
-5 37 -22 51 -36 23 -23 27 -34 24 -72 -2 -37 -9 -50 -31 -67 -61 -45 -316
-23 -325 28 -5 25 37 105 62 119 62 35 165 48 219 28z"/>
</g>
</svg>
