<?xml version="1.0" standalone="no"?>
<!DOCTYPE svg PUBLIC "-//W3C//DTD SVG 20010904//EN"
 "http://www.w3.org/TR/2001/REC-SVG-20010904/DTD/svg10.dtd">
<svg version="1.0" xmlns="http://www.w3.org/2000/svg"
 width="672.000000pt" height="212.000000pt" viewBox="0 0 672.000000 212.000000"
 preserveAspectRatio="xMidYMid meet">
<metadata>
Created by potrace 1.16, written by Peter Selinger 2001-2019
</metadata>
<g transform="translate(0.000000,212.000000) scale(0.100000,-0.100000)"
fill="#000000" stroke="none">
<path d="M1530 950 l0 -510 330 1 330 0 0 114 0 115 -195 0 -195 0 0 395 0
395 -135 0 -135 0 0 -510z"/>
<path d="M3818 1235 c-76 -12 -188 -49 -188 -62 0 -6 72 -173 74 -173 2 0 36
11 76 25 88 30 169 34 204 12 21 -14 45 -71 34 -82 -2 -2 -58 -9 -123 -14
-141 -12 -205 -29 -262 -71 -64 -47 -86 -103 -81 -203 3 -63 10 -93 28 -125
44 -79 139 -120 251 -109 78 9 125 30 175 78 l42 41 28 -54 29 -53 93 -1 93
-1 -3 306 -3 306 -31 55 c-39 69 -107 113 -198 129 -78 14 -127 13 -238 -4z
m202 -480 c0 -26 -6 -58 -14 -73 -36 -70 -152 -77 -175 -11 -12 36 1 79 31 98
20 12 87 27 136 30 20 1 22 -4 22 -44z"/>
<path d="M4998 1240 c-53 -9 -113 -42 -141 -77 -27 -34 -43 -28 -57 22 l-13
45 -103 0 -104 0 0 -394 0 -395 135 0 135 0 0 214 c0 243 9 306 50 347 39 39
106 40 141 2 24 -25 24 -27 29 -292 l5 -267 135 0 135 0 3 255 c3 298 -5 369
-51 438 -56 84 -176 124 -299 102z"/>
<path d="M5841 1239 c-124 -22 -207 -98 -218 -200 -13 -130 46 -207 213 -277
119 -51 144 -67 144 -93 0 -56 -177 -47 -346 18 -11 4 -14 -15 -14 -104 l0
-110 38 -11 c120 -36 321 -39 414 -7 111 39 176 138 165 255 -10 113 -61 171
-205 230 -122 51 -152 69 -152 89 0 40 85 42 200 5 45 -14 83 -24 84 -22 7 10
66 159 66 166 0 5 -39 21 -87 36 -99 30 -220 40 -302 25z"/>
<path d="M2630 1230 c0 -6 38 -10 94 -10 91 0 106 -5 106 -36 0 -2 -52 -4
-115 -4 -70 0 -115 -4 -115 -10 0 -6 48 -10 123 -10 117 0 147 -7 147 -32 0
-4 -67 -8 -150 -8 -93 0 -150 -4 -150 -10 0 -6 60 -10 159 -10 136 0 160 -2
165 -16 3 -9 6 -18 6 -20 0 -2 -81 -4 -180 -4 -111 0 -180 -4 -180 -10 0 -6
75 -11 192 -12 170 -3 193 -5 196 -20 3 -14 -17 -16 -209 -17 -117 0 -213 -2
-214 -3 -22 -24 -94 -163 -88 -169 5 -5 28 27 53 71 35 65 48 80 67 80 l23 0
-23 -37 c-56 -90 -97 -172 -88 -177 5 -3 37 44 72 104 43 76 69 110 81 110 10
0 18 -3 18 -6 0 -4 -29 -57 -64 -118 -71 -122 -83 -146 -69 -146 5 0 44 61 87
135 58 100 83 135 97 135 19 0 19 -1 3 -32 -15 -30 -100 -178 -146 -255 -10
-17 -15 -34 -10 -37 5 -3 51 67 103 155 51 89 99 163 106 166 35 13 26 -12
-40 -127 -40 -69 -88 -152 -106 -185 l-33 -61 50 -87 c28 -49 53 -83 56 -78 4
6 -14 47 -40 91 -42 71 -46 83 -33 96 13 13 21 3 68 -81 49 -88 67 -113 76
-103 2 2 -23 52 -57 112 -46 83 -58 113 -51 128 7 16 21 -2 83 -111 68 -118
90 -148 90 -122 0 5 -34 69 -76 141 -68 120 -82 160 -56 160 5 0 49 -70 97
-155 48 -85 91 -152 97 -149 9 6 -26 74 -107 209 -71 117 -77 131 -61 144 11
9 34 -24 121 -174 l107 -185 99 0 c59 0 99 4 99 10 0 6 -38 10 -94 10 -91 0
-106 5 -106 36 0 2 52 4 115 4 70 0 115 4 115 10 0 6 -48 10 -123 10 -117 0
-147 7 -147 32 0 4 68 8 150 8 93 0 150 4 150 10 0 6 -60 10 -159 10 -136 0
-160 2 -165 16 -3 9 -6 18 -6 20 0 2 81 4 180 4 111 0 180 4 180 10 0 6 -76
11 -192 12 -164 3 -193 5 -193 18 0 18 -15 17 224 19 l199 1 46 81 c25 45 46
86 46 90 0 24 -19 1 -60 -71 -35 -62 -50 -80 -67 -80 -24 0 -22 4 71 163 19
32 24 47 14 47 -7 0 -39 -48 -71 -105 -43 -76 -64 -105 -78 -105 -10 0 -19 3
-19 6 0 3 32 62 71 130 40 68 69 127 65 131 -8 8 -3 15 -86 -127 -82 -143 -82
-143 -104 -138 -13 2 2 34 69 151 92 160 94 164 81 167 -5 1 -50 -70 -101
-157 -72 -122 -97 -159 -115 -161 l-23 -4 23 39 c52 88 190 333 190 338 0 13
-94 165 -101 165 -14 0 -11 -7 36 -87 36 -63 42 -80 33 -96 -9 -18 -15 -11
-58 64 -57 100 -76 126 -84 118 -4 -4 7 -31 25 -60 17 -30 40 -68 49 -85 10
-17 24 -41 31 -52 9 -14 10 -27 3 -43 -9 -19 -18 -8 -85 109 -68 121 -89 149
-89 122 0 -6 34 -68 75 -139 67 -116 83 -161 56 -161 -4 0 -47 70 -96 155 -48
85 -92 152 -97 149 -9 -6 5 -34 87 -174 79 -134 93 -162 88 -177 -9 -25 -22
-12 -68 70 -26 45 -75 128 -108 185 l-60 102 -98 0 c-59 0 -99 -4 -99 -10z
m363 -315 c20 -35 37 -69 37 -75 0 -6 -17 -40 -37 -75 l-38 -65 -85 0 -86 0
-37 65 c-20 35 -37 69 -37 75 0 6 17 40 38 75 l37 65 85 0 85 0 38 -65z"/>
<path d="M450 978 c0 -267 9 -357 40 -418 45 -89 149 -138 269 -126 75 8 162
46 186 83 23 35 40 28 56 -25 l15 -47 102 -2 102 -2 0 395 0 394 -134 0 -134
0 -4 -237 c-4 -256 -11 -293 -59 -327 -24 -16 -95 -22 -115 -8 -6 4 -19 21
-28 39 -14 27 -16 70 -16 283 l0 250 -140 0 -140 0 0 -252z"/>
</g>
</svg>
