<?xml version='1.0' encoding='ascii'?>
<svg xmlns="http://www.w3.org/2000/svg" height="1200" version="1.1" width="1200">
    <g id="View Layer_LineSet" inkscape:groupmode="lineset" inkscape:label="View Layer_LineSet" xmlns:inkscape="http://www.inkscape.org/namespaces/inkscape">
        <g id="strokes" inkscape:groupmode="layer" inkscape:label="strokes" xmlns:inkscape="http://www.inkscape.org/namespaces/inkscape">
            <path d=" M 644.558, 555.442 647.925, 561.275 638.725, 561.275 " fill="none" stroke="#00B3FE" stroke-linecap="butt" stroke-linejoin="round" stroke-opacity="1.0" stroke-width="3.0" />
            <path d=" M 650.406, 562.722 650.444, 562.788 640.444, 562.788 638.725, 562.788 " fill="none" stroke="#00B3FE" stroke-linecap="butt" stroke-linejoin="round" stroke-opacity="1.0" stroke-width="3.0" />
            <path d=" M 549.556, 562.788 549.666, 562.722 " fill="none" stroke="#00B3FE" stroke-linecap="butt" stroke-linejoin="round" stroke-opacity="1.0" stroke-width="3.0" />
            <path d=" M 552.075, 561.275 549.654, 562.618 549.466, 562.722 " fill="none" stroke="#00B3FE" stroke-linecap="butt" stroke-linejoin="round" stroke-opacity="1.0" stroke-width="3.0" />
            <path d=" M 549.466, 562.722 549.594, 562.722 549.666, 562.722 559.666, 562.722 561.275, 562.722 562.722, 562.722 562.788, 562.722 572.788, 562.722 576.807, 562.722 578.478, 562.722 578.554, 562.722 587.117, 562.722 590.011, 562.722 590.144, 562.722 600.144, 562.722 609.856, 562.722 609.989, 562.722 612.883, 562.722 621.446, 562.722 621.522, 562.722 623.193, 562.722 633.193, 562.722 637.212, 562.722 637.278, 562.722 638.725, 562.722 648.725, 562.722 650.334, 562.722 650.406, 562.722 650.534, 562.722 647.218, 556.978 645.793, 554.510 645.682, 554.318 640.682, 545.658 636.915, 539.133 636.092, 537.708 636.028, 537.597 631.028, 528.937 626.028, 520.277 623.609, 516.086 622.896, 514.852 622.841, 514.756 617.841, 506.096 612.841, 497.436 607.841, 488.776 602.841, 480.115 600.000, 475.195 595.000, 483.855 590.000, 492.515 585.000, 501.175 580.000, 509.836 577.159, 514.756 577.104, 514.852 576.391, 516.086 571.391, 524.746 566.391, 533.407 563.972, 537.597 563.908, 537.708 563.085, 539.133 558.085, 547.793 554.318, 554.318 554.207, 554.510 552.782, 556.978 549.466, 562.722 " fill="none" stroke="#00B3FE" stroke-linecap="butt" stroke-linejoin="round" stroke-opacity="1.0" stroke-width="3.0" />
            <path d=" M 650.534, 562.722 650.346, 562.618 647.925, 561.275 " fill="none" stroke="#00B3FE" stroke-linecap="butt" stroke-linejoin="round" stroke-opacity="1.0" stroke-width="3.0" />
            <path d=" M 578.489, 515.524 583.489, 506.864 588.489, 498.204 593.489, 489.543 598.489, 480.883 600.000, 478.266 605.000, 486.926 610.000, 495.586 615.000, 504.247 620.000, 512.907 621.511, 515.524 " fill="none" stroke="#00B3FE" stroke-linecap="butt" stroke-linejoin="round" stroke-opacity="1.0" stroke-width="3.0" />
            <path d=" M 600.000, 475.195 600.000, 478.266 " fill="none" stroke="#00B3FE" stroke-linecap="butt" stroke-linejoin="round" stroke-opacity="1.0" stroke-width="3.0" />
            <path d=" M 561.275, 561.275 552.075, 561.275 555.442, 555.442 " fill="none" stroke="#00B3FE" stroke-linecap="butt" stroke-linejoin="round" stroke-opacity="1.0" stroke-width="3.0" />
            <path d=" M 561.275, 562.788 551.275, 562.788 549.556, 562.788 549.594, 562.722 " fill="none" stroke="#00B3FE" stroke-linecap="butt" stroke-linejoin="round" stroke-opacity="1.0" stroke-width="3.0" />
            <path d=" M 616.309, 539.133 622.142, 542.501 614.174, 547.101 " fill="none" stroke="#00B3FE" stroke-linecap="butt" stroke-linejoin="round" stroke-opacity="1.0" stroke-width="3.0" />
            <path d=" M 625.014, 542.513 625.080, 542.552 616.420, 547.552 614.931, 548.411 " fill="none" stroke="#00B3FE" stroke-linecap="butt" stroke-linejoin="round" stroke-opacity="1.0" stroke-width="3.0" />
            <path d=" M 537.708, 592.996 537.770, 592.884 " fill="none" stroke="#00B3FE" stroke-linecap="butt" stroke-linejoin="round" stroke-opacity="1.0" stroke-width="3.0" />
            <path d=" M 539.133, 590.426 537.708, 592.799 537.597, 592.984 " fill="none" stroke="#00B3FE" stroke-linecap="butt" stroke-linejoin="round" stroke-opacity="1.0" stroke-width="3.0" />
            <path d=" M 537.597, 592.984 537.708, 592.920 537.770, 592.884 546.431, 587.884 547.824, 587.079 549.078, 586.355 549.135, 586.322 557.795, 581.322 561.275, 579.313 562.722, 578.478 562.788, 578.439 570.204, 574.158 572.711, 572.711 572.825, 572.645 581.486, 567.645 589.897, 562.788 590.011, 562.722 592.518, 561.275 599.934, 556.994 600.000, 556.955 601.447, 556.120 610.107, 551.120 613.587, 549.111 613.645, 549.078 614.898, 548.354 623.558, 543.354 624.952, 542.549 625.014, 542.513 625.125, 542.449 619.381, 539.133 616.913, 537.708 616.721, 537.597 608.061, 532.597 601.536, 528.830 600.111, 528.008 600.000, 527.944 591.340, 522.944 582.680, 517.944 578.489, 515.524 577.255, 514.812 577.159, 514.756 568.499, 509.756 559.839, 504.756 551.178, 499.756 542.518, 494.756 537.597, 491.915 537.597, 501.915 537.597, 511.915 537.597, 521.915 537.597, 531.915 537.597, 537.597 537.597, 537.708 537.597, 539.133 537.597, 549.133 537.597, 559.133 537.597, 563.972 537.597, 564.100 537.597, 565.745 537.597, 575.745 537.597, 583.279 537.597, 583.501 537.597, 586.350 537.597, 592.984 " fill="none" stroke="#00B3FE" stroke-linecap="butt" stroke-linejoin="round" stroke-opacity="1.0" stroke-width="3.0" />
            <path d=" M 625.125, 542.449 624.910, 542.453 622.142, 542.501 " fill="none" stroke="#00B3FE" stroke-linecap="butt" stroke-linejoin="round" stroke-opacity="1.0" stroke-width="3.0" />
            <path d=" M 539.133, 537.597 539.133, 527.597 539.133, 517.597 539.133, 507.597 539.133, 497.597 539.133, 494.575 547.793, 499.575 556.453, 504.575 565.114, 509.575 573.774, 514.575 576.391, 516.086 " fill="none" stroke="#00B3FE" stroke-linecap="butt" stroke-linejoin="round" stroke-opacity="1.0" stroke-width="3.0" />
            <path d=" M 537.597, 491.915 537.708, 492.107 539.133, 494.575 " fill="none" stroke="#00B3FE" stroke-linecap="butt" stroke-linejoin="round" stroke-opacity="1.0" stroke-width="3.0" />
            <path d=" M 547.101, 585.826 539.133, 590.426 539.133, 583.691 " fill="none" stroke="#00B3FE" stroke-linecap="butt" stroke-linejoin="round" stroke-opacity="1.0" stroke-width="3.0" />
            <path d=" M 547.857, 587.136 539.197, 592.136 537.708, 592.996 537.708, 592.920 " fill="none" stroke="#00B3FE" stroke-linecap="butt" stroke-linejoin="round" stroke-opacity="1.0" stroke-width="3.0" />
            <path d=" M 583.691, 539.133 590.426, 539.133 585.826, 547.101 " fill="none" stroke="#00B3FE" stroke-linecap="butt" stroke-linejoin="round" stroke-opacity="1.0" stroke-width="3.0" />
            <path d=" M 592.920, 537.708 592.996, 537.708 587.996, 546.368 587.136, 547.857 " fill="none" stroke="#00B3FE" stroke-linecap="butt" stroke-linejoin="round" stroke-opacity="1.0" stroke-width="3.0" />
            <path d=" M 542.552, 625.080 542.549, 624.952 " fill="none" stroke="#00B3FE" stroke-linecap="butt" stroke-linejoin="round" stroke-opacity="1.0" stroke-width="3.0" />
            <path d=" M 542.501, 622.142 542.453, 624.910 542.449, 625.125 " fill="none" stroke="#00B3FE" stroke-linecap="butt" stroke-linejoin="round" stroke-opacity="1.0" stroke-width="3.0" />
            <path d=" M 542.449, 625.125 542.513, 625.014 542.549, 624.952 547.549, 616.292 548.354, 614.898 549.078, 613.645 549.111, 613.587 554.111, 604.927 556.120, 601.447 556.955, 600.000 556.994, 599.934 561.275, 592.518 562.722, 590.011 562.788, 589.897 567.788, 581.237 572.645, 572.825 572.711, 572.711 574.158, 570.204 578.439, 562.788 578.478, 562.722 579.313, 561.275 584.313, 552.615 586.322, 549.135 586.355, 549.078 587.079, 547.824 592.079, 539.164 592.884, 537.770 592.920, 537.708 592.984, 537.597 586.351, 537.597 583.501, 537.597 583.279, 537.597 573.279, 537.597 565.745, 537.597 564.100, 537.597 563.972, 537.597 553.972, 537.597 543.972, 537.597 539.133, 537.597 537.708, 537.597 537.597, 537.597 527.597, 537.597 517.597, 537.597 507.597, 537.597 497.597, 537.597 491.915, 537.597 496.915, 546.258 501.915, 554.918 506.915, 563.578 511.915, 572.238 514.756, 577.159 514.812, 577.255 515.524, 578.489 520.524, 587.149 525.524, 595.809 527.944, 600.000 528.008, 600.111 528.830, 601.536 533.830, 610.196 537.597, 616.721 537.708, 616.913 539.133, 619.380 542.449, 625.125 " fill="none" stroke="#00B3FE" stroke-linecap="butt" stroke-linejoin="round" stroke-opacity="1.0" stroke-width="3.0" />
            <path d=" M 592.984, 537.597 592.799, 537.708 590.426, 539.133 " fill="none" stroke="#00B3FE" stroke-linecap="butt" stroke-linejoin="round" stroke-opacity="1.0" stroke-width="3.0" />
            <path d=" M 516.086, 576.391 511.086, 567.731 506.086, 559.071 501.086, 550.410 496.086, 541.750 494.575, 539.133 504.575, 539.133 514.575, 539.133 524.575, 539.133 534.575, 539.133 537.597, 539.133 " fill="none" stroke="#00B3FE" stroke-linecap="butt" stroke-linejoin="round" stroke-opacity="1.0" stroke-width="3.0" />
            <path d=" M 491.915, 537.597 492.107, 537.708 494.575, 539.133 " fill="none" stroke="#00B3FE" stroke-linecap="butt" stroke-linejoin="round" stroke-opacity="1.0" stroke-width="3.0" />
            <path d=" M 547.101, 614.174 542.501, 622.142 539.133, 616.309 " fill="none" stroke="#00B3FE" stroke-linecap="butt" stroke-linejoin="round" stroke-opacity="1.0" stroke-width="3.0" />
            <path d=" M 548.411, 614.931 543.411, 623.591 542.552, 625.080 542.513, 625.014 " fill="none" stroke="#00B3FE" stroke-linecap="butt" stroke-linejoin="round" stroke-opacity="1.0" stroke-width="3.0" />
            <path d=" M 555.442, 555.442 561.275, 552.075 561.275, 561.275 " fill="none" stroke="#00B3FE" stroke-linecap="butt" stroke-linejoin="round" stroke-opacity="1.0" stroke-width="3.0" />
            <path d=" M 562.722, 549.594 562.788, 549.556 562.788, 559.556 562.788, 561.275 " fill="none" stroke="#00B3FE" stroke-linecap="butt" stroke-linejoin="round" stroke-opacity="1.0" stroke-width="3.0" />
            <path d=" M 562.788, 650.444 562.722, 650.334 " fill="none" stroke="#00B3FE" stroke-linecap="butt" stroke-linejoin="round" stroke-opacity="1.0" stroke-width="3.0" />
            <path d=" M 561.275, 647.925 562.618, 650.346 562.722, 650.534 " fill="none" stroke="#00B3FE" stroke-linecap="butt" stroke-linejoin="round" stroke-opacity="1.0" stroke-width="3.0" />
            <path d=" M 562.722, 650.534 562.722, 650.406 562.722, 650.334 562.722, 640.334 562.722, 638.725 562.722, 637.278 562.722, 637.212 562.722, 627.212 562.722, 623.193 562.722, 621.522 562.722, 621.446 562.722, 612.883 562.722, 609.989 562.722, 609.856 562.722, 599.856 562.722, 590.144 562.722, 590.011 562.722, 587.117 562.722, 578.554 562.722, 578.478 562.722, 576.807 562.722, 566.807 562.722, 562.788 562.722, 562.722 562.722, 561.275 562.722, 551.275 562.722, 549.666 562.722, 549.594 562.722, 549.466 556.978, 552.782 554.510, 554.207 554.318, 554.318 545.658, 559.318 539.133, 563.085 537.708, 563.908 537.597, 563.972 528.937, 568.972 520.277, 573.972 516.086, 576.391 514.852, 577.104 514.756, 577.159 506.096, 582.159 497.436, 587.159 488.776, 592.159 480.115, 597.159 475.195, 600.000 483.855, 605.000 492.515, 610.000 501.175, 615.000 509.836, 620.000 514.756, 622.841 514.852, 622.896 516.086, 623.609 524.746, 628.609 533.407, 633.609 537.597, 636.028 537.708, 636.092 539.133, 636.915 547.793, 641.915 554.318, 645.682 554.510, 645.793 556.978, 647.218 562.722, 650.534 " fill="none" stroke="#00B3FE" stroke-linecap="butt" stroke-linejoin="round" stroke-opacity="1.0" stroke-width="3.0" />
            <path d=" M 562.722, 549.466 562.618, 549.654 561.275, 552.075 " fill="none" stroke="#00B3FE" stroke-linecap="butt" stroke-linejoin="round" stroke-opacity="1.0" stroke-width="3.0" />
            <path d=" M 515.524, 621.511 506.864, 616.511 498.204, 611.511 489.543, 606.511 480.883, 601.511 478.266, 600.000 486.926, 595.000 495.586, 590.000 504.247, 585.000 512.907, 580.000 515.524, 578.489 " fill="none" stroke="#00B3FE" stroke-linecap="butt" stroke-linejoin="round" stroke-opacity="1.0" stroke-width="3.0" />
            <path d=" M 475.195, 600.000 475.416, 600.000 478.266, 600.000 " fill="none" stroke="#00B3FE" stroke-linecap="butt" stroke-linejoin="round" stroke-opacity="1.0" stroke-width="3.0" />
            <path d=" M 561.275, 638.725 561.275, 647.925 555.442, 644.558 " fill="none" stroke="#00B3FE" stroke-linecap="butt" stroke-linejoin="round" stroke-opacity="1.0" stroke-width="3.0" />
            <path d=" M 562.788, 638.725 562.788, 648.725 562.788, 650.444 562.722, 650.406 " fill="none" stroke="#00B3FE" stroke-linecap="butt" stroke-linejoin="round" stroke-opacity="1.0" stroke-width="3.0" />
            <path d=" M 539.133, 583.691 542.501, 577.858 547.101, 585.826 " fill="none" stroke="#00B3FE" stroke-linecap="butt" stroke-linejoin="round" stroke-opacity="1.0" stroke-width="3.0" />
            <path d=" M 542.513, 574.986 542.552, 574.920 547.552, 583.580 548.411, 585.069 " fill="none" stroke="#00B3FE" stroke-linecap="butt" stroke-linejoin="round" stroke-opacity="1.0" stroke-width="3.0" />
            <path d=" M 592.996, 662.292 592.884, 662.230 " fill="none" stroke="#00B3FE" stroke-linecap="butt" stroke-linejoin="round" stroke-opacity="1.0" stroke-width="3.0" />
            <path d=" M 590.426, 660.867 592.799, 662.292 592.984, 662.403 " fill="none" stroke="#00B3FE" stroke-linecap="butt" stroke-linejoin="round" stroke-opacity="1.0" stroke-width="3.0" />
            <path d=" M 592.984, 662.403 592.920, 662.292 592.884, 662.230 587.884, 653.569 587.079, 652.176 586.355, 650.922 586.322, 650.865 581.322, 642.205 579.313, 638.725 578.478, 637.278 578.439, 637.212 574.158, 629.796 572.711, 627.289 572.645, 627.175 567.645, 618.514 562.788, 610.103 562.722, 609.989 561.275, 607.482 556.994, 600.066 556.955, 600.000 556.120, 598.553 551.120, 589.893 549.111, 586.413 549.078, 586.355 548.354, 585.102 543.354, 576.442 542.549, 575.048 542.513, 574.986 542.449, 574.875 539.133, 580.619 537.708, 583.087 537.597, 583.279 532.597, 591.939 528.830, 598.464 528.008, 599.889 527.944, 600.000 522.944, 608.660 517.944, 617.320 515.524, 621.511 514.812, 622.745 514.756, 622.841 509.756, 631.501 504.756, 640.161 499.756, 648.822 494.756, 657.482 491.915, 662.403 501.915, 662.403 511.915, 662.403 521.915, 662.403 531.915, 662.403 537.597, 662.403 537.708, 662.403 539.133, 662.403 549.133, 662.403 559.133, 662.403 563.972, 662.403 564.100, 662.403 565.745, 662.403 575.745, 662.403 583.279, 662.403 583.501, 662.403 586.350, 662.403 592.984, 662.403 " fill="none" stroke="#00B3FE" stroke-linecap="butt" stroke-linejoin="round" stroke-opacity="1.0" stroke-width="3.0" />
            <path d=" M 542.449, 574.875 542.453, 575.090 542.501, 577.858 " fill="none" stroke="#00B3FE" stroke-linecap="butt" stroke-linejoin="round" stroke-opacity="1.0" stroke-width="3.0" />
            <path d=" M 537.597, 660.867 527.597, 660.867 517.597, 660.867 507.597, 660.867 497.597, 660.867 494.575, 660.867 499.575, 652.207 504.575, 643.547 509.575, 634.886 514.575, 626.226 516.086, 623.609 " fill="none" stroke="#00B3FE" stroke-linecap="butt" stroke-linejoin="round" stroke-opacity="1.0" stroke-width="3.0" />
            <path d=" M 491.915, 662.403 492.107, 662.292 494.575, 660.867 " fill="none" stroke="#00B3FE" stroke-linecap="butt" stroke-linejoin="round" stroke-opacity="1.0" stroke-width="3.0" />
            <path d=" M 585.826, 652.899 590.426, 660.867 583.691, 660.867 " fill="none" stroke="#00B3FE" stroke-linecap="butt" stroke-linejoin="round" stroke-opacity="1.0" stroke-width="3.0" />
            <path d=" M 587.136, 652.143 592.136, 660.803 592.996, 662.292 592.920, 662.292 " fill="none" stroke="#00B3FE" stroke-linecap="butt" stroke-linejoin="round" stroke-opacity="1.0" stroke-width="3.0" />
            <path d=" M 539.133, 616.309 539.133, 609.574 547.101, 614.174 " fill="none" stroke="#00B3FE" stroke-linecap="butt" stroke-linejoin="round" stroke-opacity="1.0" stroke-width="3.0" />
            <path d=" M 537.708, 607.080 537.708, 607.004 546.368, 612.004 547.857, 612.864 " fill="none" stroke="#00B3FE" stroke-linecap="butt" stroke-linejoin="round" stroke-opacity="1.0" stroke-width="3.0" />
            <path d=" M 625.080, 657.448 624.952, 657.451 " fill="none" stroke="#00B3FE" stroke-linecap="butt" stroke-linejoin="round" stroke-opacity="1.0" stroke-width="3.0" />
            <path d=" M 622.142, 657.499 624.910, 657.547 625.125, 657.551 " fill="none" stroke="#00B3FE" stroke-linecap="butt" stroke-linejoin="round" stroke-opacity="1.0" stroke-width="3.0" />
            <path d=" M 625.125, 657.551 625.014, 657.487 624.952, 657.451 616.292, 652.451 614.898, 651.646 613.645, 650.922 613.587, 650.889 604.927, 645.889 601.447, 643.880 600.000, 643.045 599.934, 643.006 592.518, 638.725 590.011, 637.278 589.897, 637.212 581.237, 632.212 572.825, 627.355 572.711, 627.289 570.204, 625.842 562.788, 621.561 562.722, 621.522 561.275, 620.687 552.615, 615.687 549.135, 613.678 549.078, 613.645 547.824, 612.921 539.164, 607.921 537.770, 607.116 537.708, 607.080 537.597, 607.016 537.597, 613.649 537.597, 616.499 537.597, 616.721 537.597, 626.721 537.597, 634.255 537.597, 635.900 537.597, 636.028 537.597, 646.028 537.597, 656.028 537.597, 660.867 537.597, 662.292 537.597, 662.403 537.597, 672.403 537.597, 682.403 537.597, 692.403 537.597, 702.403 537.597, 708.085 546.258, 703.085 554.918, 698.085 563.578, 693.085 572.238, 688.085 577.159, 685.244 577.255, 685.188 578.489, 684.476 587.149, 679.476 595.809, 674.476 600.000, 672.056 600.111, 671.992 601.536, 671.170 610.196, 666.170 616.721, 662.403 616.913, 662.292 619.380, 660.867 625.125, 657.551 " fill="none" stroke="#00B3FE" stroke-linecap="butt" stroke-linejoin="round" stroke-opacity="1.0" stroke-width="3.0" />
            <path d=" M 537.597, 607.016 537.708, 607.201 539.133, 609.574 " fill="none" stroke="#00B3FE" stroke-linecap="butt" stroke-linejoin="round" stroke-opacity="1.0" stroke-width="3.0" />
            <path d=" M 576.391, 683.914 567.731, 688.914 559.071, 693.914 550.410, 698.914 541.750, 703.914 539.133, 705.425 539.133, 695.425 539.133, 685.425 539.133, 675.425 539.133, 665.425 539.133, 662.403 " fill="none" stroke="#00B3FE" stroke-linecap="butt" stroke-linejoin="round" stroke-opacity="1.0" stroke-width="3.0" />
            <path d=" M 537.597, 708.085 537.708, 707.893 539.133, 705.425 " fill="none" stroke="#00B3FE" stroke-linecap="butt" stroke-linejoin="round" stroke-opacity="1.0" stroke-width="3.0" />
            <path d=" M 614.174, 652.899 622.142, 657.499 616.309, 660.867 " fill="none" stroke="#00B3FE" stroke-linecap="butt" stroke-linejoin="round" stroke-opacity="1.0" stroke-width="3.0" />
            <path d=" M 614.931, 651.589 623.591, 656.589 625.080, 657.448 625.014, 657.487 " fill="none" stroke="#00B3FE" stroke-linecap="butt" stroke-linejoin="round" stroke-opacity="1.0" stroke-width="3.0" />
            <path d=" M 555.442, 644.558 552.075, 638.725 561.275, 638.725 " fill="none" stroke="#00B3FE" stroke-linecap="butt" stroke-linejoin="round" stroke-opacity="1.0" stroke-width="3.0" />
            <path d=" M 549.594, 637.278 549.556, 637.212 559.556, 637.212 561.275, 637.212 " fill="none" stroke="#00B3FE" stroke-linecap="butt" stroke-linejoin="round" stroke-opacity="1.0" stroke-width="3.0" />
            <path d=" M 650.444, 637.212 650.334, 637.278 " fill="none" stroke="#00B3FE" stroke-linecap="butt" stroke-linejoin="round" stroke-opacity="1.0" stroke-width="3.0" />
            <path d=" M 647.925, 638.725 650.346, 637.382 650.534, 637.278 " fill="none" stroke="#00B3FE" stroke-linecap="butt" stroke-linejoin="round" stroke-opacity="1.0" stroke-width="3.0" />
            <path d=" M 650.534, 637.278 650.406, 637.278 650.334, 637.278 640.334, 637.278 638.725, 637.278 637.278, 637.278 637.212, 637.278 627.212, 637.278 623.193, 637.278 621.522, 637.278 621.446, 637.278 612.883, 637.278 609.989, 637.278 609.856, 637.278 599.856, 637.278 590.144, 637.278 590.011, 637.278 587.117, 637.278 578.554, 637.278 578.478, 637.278 576.807, 637.278 566.807, 637.278 562.788, 637.278 562.722, 637.278 561.275, 637.278 551.275, 637.278 549.666, 637.278 549.594, 637.278 549.466, 637.278 552.782, 643.022 554.207, 645.490 554.318, 645.682 559.318, 654.342 563.085, 660.867 563.908, 662.292 563.972, 662.403 568.972, 671.063 573.972, 679.723 576.391, 683.914 577.104, 685.148 577.159, 685.244 582.159, 693.904 587.159, 702.564 592.159, 711.224 597.159, 719.885 600.000, 724.805 605.000, 716.145 610.000, 707.485 615.000, 698.825 620.000, 690.164 622.841, 685.244 622.896, 685.148 623.609, 683.914 628.609, 675.254 633.609, 666.593 636.028, 662.403 636.092, 662.292 636.915, 660.867 641.915, 652.207 645.682, 645.682 645.793, 645.490 647.218, 643.022 650.534, 637.278 " fill="none" stroke="#00B3FE" stroke-linecap="butt" stroke-linejoin="round" stroke-opacity="1.0" stroke-width="3.0" />
            <path d=" M 549.466, 637.278 549.654, 637.382 552.075, 638.725 " fill="none" stroke="#00B3FE" stroke-linecap="butt" stroke-linejoin="round" stroke-opacity="1.0" stroke-width="3.0" />
            <path d=" M 621.511, 684.476 616.511, 693.136 611.511, 701.796 606.511, 710.457 601.511, 719.117 600.000, 721.734 595.000, 713.074 590.000, 704.414 585.000, 695.753 580.000, 687.093 578.489, 684.476 " fill="none" stroke="#00B3FE" stroke-linecap="butt" stroke-linejoin="round" stroke-opacity="1.0" stroke-width="3.0" />
            <path d=" M 600.000, 724.805 600.000, 721.734 " fill="none" stroke="#00B3FE" stroke-linecap="butt" stroke-linejoin="round" stroke-opacity="1.0" stroke-width="3.0" />
            <path d=" M 638.725, 638.725 647.925, 638.725 644.558, 644.558 " fill="none" stroke="#00B3FE" stroke-linecap="butt" stroke-linejoin="round" stroke-opacity="1.0" stroke-width="3.0" />
            <path d=" M 638.725, 637.212 648.725, 637.212 650.444, 637.212 650.406, 637.278 " fill="none" stroke="#00B3FE" stroke-linecap="butt" stroke-linejoin="round" stroke-opacity="1.0" stroke-width="3.0" />
            <path d=" M 583.691, 660.867 577.858, 657.499 585.826, 652.899 " fill="none" stroke="#00B3FE" stroke-linecap="butt" stroke-linejoin="round" stroke-opacity="1.0" stroke-width="3.0" />
            <path d=" M 574.986, 657.487 574.920, 657.448 583.580, 652.448 585.069, 651.589 " fill="none" stroke="#00B3FE" stroke-linecap="butt" stroke-linejoin="round" stroke-opacity="1.0" stroke-width="3.0" />
            <path d=" M 662.292, 607.004 662.230, 607.116 " fill="none" stroke="#00B3FE" stroke-linecap="butt" stroke-linejoin="round" stroke-opacity="1.0" stroke-width="3.0" />
            <path d=" M 660.867, 609.574 662.292, 607.201 662.403, 607.016 " fill="none" stroke="#00B3FE" stroke-linecap="butt" stroke-linejoin="round" stroke-opacity="1.0" stroke-width="3.0" />
            <path d=" M 662.403, 607.016 662.292, 607.080 662.230, 607.116 653.569, 612.116 652.176, 612.921 650.922, 613.645 650.865, 613.678 642.205, 618.678 638.725, 620.687 637.278, 621.522 637.212, 621.561 629.796, 625.842 627.289, 627.289 627.175, 627.355 618.514, 632.355 610.103, 637.212 609.989, 637.278 607.482, 638.725 600.066, 643.006 600.000, 643.045 598.553, 643.880 589.893, 648.880 586.413, 650.889 586.355, 650.922 585.102, 651.646 576.442, 656.646 575.048, 657.451 574.986, 657.487 574.875, 657.551 580.619, 660.867 583.087, 662.292 583.279, 662.403 591.939, 667.403 598.464, 671.170 599.889, 671.992 600.000, 672.056 608.660, 677.056 617.320, 682.056 621.511, 684.476 622.745, 685.188 622.841, 685.244 631.501, 690.244 640.161, 695.244 648.822, 700.244 657.482, 705.244 662.403, 708.085 662.403, 698.085 662.403, 688.085 662.403, 678.085 662.403, 668.085 662.403, 662.403 662.403, 662.292 662.403, 660.867 662.403, 650.867 662.403, 640.867 662.403, 636.028 662.403, 635.900 662.403, 634.255 662.403, 624.255 662.403, 616.721 662.403, 616.499 662.403, 613.650 662.403, 607.016 " fill="none" stroke="#00B3FE" stroke-linecap="butt" stroke-linejoin="round" stroke-opacity="1.0" stroke-width="3.0" />
            <path d=" M 574.875, 657.551 575.090, 657.547 577.858, 657.499 " fill="none" stroke="#00B3FE" stroke-linecap="butt" stroke-linejoin="round" stroke-opacity="1.0" stroke-width="3.0" />
            <path d=" M 660.867, 662.403 660.867, 672.403 660.867, 682.403 660.867, 692.403 660.867, 702.403 660.867, 705.425 652.207, 700.425 643.547, 695.425 634.886, 690.425 626.226, 685.425 623.609, 683.914 " fill="none" stroke="#00B3FE" stroke-linecap="butt" stroke-linejoin="round" stroke-opacity="1.0" stroke-width="3.0" />
            <path d=" M 662.403, 708.085 662.292, 707.893 660.867, 705.425 " fill="none" stroke="#00B3FE" stroke-linecap="butt" stroke-linejoin="round" stroke-opacity="1.0" stroke-width="3.0" />
            <path d=" M 652.899, 614.174 660.867, 609.574 660.867, 616.309 " fill="none" stroke="#00B3FE" stroke-linecap="butt" stroke-linejoin="round" stroke-opacity="1.0" stroke-width="3.0" />
            <path d=" M 652.143, 612.864 660.803, 607.864 662.292, 607.004 662.292, 607.080 " fill="none" stroke="#00B3FE" stroke-linecap="butt" stroke-linejoin="round" stroke-opacity="1.0" stroke-width="3.0" />
            <path d=" M 616.309, 660.867 609.574, 660.867 614.174, 652.899 " fill="none" stroke="#00B3FE" stroke-linecap="butt" stroke-linejoin="round" stroke-opacity="1.0" stroke-width="3.0" />
            <path d=" M 607.080, 662.292 607.004, 662.292 612.004, 653.632 612.864, 652.143 " fill="none" stroke="#00B3FE" stroke-linecap="butt" stroke-linejoin="round" stroke-opacity="1.0" stroke-width="3.0" />
            <path d=" M 657.448, 574.920 657.451, 575.048 " fill="none" stroke="#00B3FE" stroke-linecap="butt" stroke-linejoin="round" stroke-opacity="1.0" stroke-width="3.0" />
            <path d=" M 657.499, 577.858 657.547, 575.090 657.551, 574.875 " fill="none" stroke="#00B3FE" stroke-linecap="butt" stroke-linejoin="round" stroke-opacity="1.0" stroke-width="3.0" />
            <path d=" M 657.551, 574.875 657.487, 574.986 657.451, 575.048 652.451, 583.708 651.646, 585.102 650.922, 586.355 650.889, 586.413 645.889, 595.073 643.880, 598.553 643.045, 600.000 643.006, 600.066 638.725, 607.482 637.278, 609.989 637.212, 610.103 632.212, 618.763 627.355, 627.175 627.289, 627.289 625.842, 629.796 621.561, 637.212 621.522, 637.278 620.687, 638.725 615.687, 647.385 613.678, 650.865 613.645, 650.922 612.921, 652.176 607.921, 660.836 607.116, 662.230 607.080, 662.292 607.016, 662.403 613.649, 662.403 616.499, 662.403 616.721, 662.403 626.721, 662.403 634.255, 662.403 635.900, 662.403 636.028, 662.403 646.028, 662.403 656.028, 662.403 660.867, 662.403 662.292, 662.403 662.403, 662.403 672.403, 662.403 682.403, 662.403 692.403, 662.403 702.403, 662.403 708.085, 662.403 703.085, 653.742 698.085, 645.082 693.085, 636.422 688.085, 627.762 685.244, 622.841 685.188, 622.745 684.476, 621.511 679.476, 612.851 674.476, 604.191 672.056, 600.000 671.992, 599.889 671.170, 598.464 666.170, 589.804 662.403, 583.279 662.292, 583.087 660.867, 580.620 657.551, 574.875 " fill="none" stroke="#00B3FE" stroke-linecap="butt" stroke-linejoin="round" stroke-opacity="1.0" stroke-width="3.0" />
            <path d=" M 607.016, 662.403 607.201, 662.292 609.574, 660.867 " fill="none" stroke="#00B3FE" stroke-linecap="butt" stroke-linejoin="round" stroke-opacity="1.0" stroke-width="3.0" />
            <path d=" M 683.914, 623.609 688.914, 632.269 693.914, 640.929 698.914, 649.590 703.914, 658.250 705.425, 660.867 695.425, 660.867 685.425, 660.867 675.425, 660.867 665.425, 660.867 662.403, 660.867 " fill="none" stroke="#00B3FE" stroke-linecap="butt" stroke-linejoin="round" stroke-opacity="1.0" stroke-width="3.0" />
            <path d=" M 708.085, 662.403 707.893, 662.292 705.425, 660.867 " fill="none" stroke="#00B3FE" stroke-linecap="butt" stroke-linejoin="round" stroke-opacity="1.0" stroke-width="3.0" />
            <path d=" M 652.899, 585.826 657.499, 577.858 660.867, 583.691 " fill="none" stroke="#00B3FE" stroke-linecap="butt" stroke-linejoin="round" stroke-opacity="1.0" stroke-width="3.0" />
            <path d=" M 651.589, 585.069 656.589, 576.409 657.448, 574.920 657.487, 574.986 " fill="none" stroke="#00B3FE" stroke-linecap="butt" stroke-linejoin="round" stroke-opacity="1.0" stroke-width="3.0" />
            <path d=" M 644.558, 644.558 638.725, 647.925 638.725, 638.725 " fill="none" stroke="#00B3FE" stroke-linecap="butt" stroke-linejoin="round" stroke-opacity="1.0" stroke-width="3.0" />
            <path d=" M 637.278, 650.406 637.212, 650.444 637.212, 640.444 637.212, 638.725 " fill="none" stroke="#00B3FE" stroke-linecap="butt" stroke-linejoin="round" stroke-opacity="1.0" stroke-width="3.0" />
            <path d=" M 637.212, 549.556 637.278, 549.666 " fill="none" stroke="#00B3FE" stroke-linecap="butt" stroke-linejoin="round" stroke-opacity="1.0" stroke-width="3.0" />
            <path d=" M 638.725, 552.075 637.382, 549.654 637.278, 549.466 " fill="none" stroke="#00B3FE" stroke-linecap="butt" stroke-linejoin="round" stroke-opacity="1.0" stroke-width="3.0" />
            <path d=" M 637.278, 549.466 637.278, 549.594 637.278, 549.666 637.278, 559.666 637.278, 561.275 637.278, 562.722 637.278, 562.788 637.278, 572.788 637.278, 576.807 637.278, 578.478 637.278, 578.554 637.278, 587.117 637.278, 590.011 637.278, 590.144 637.278, 600.144 637.278, 609.856 637.278, 609.989 637.278, 612.883 637.278, 621.446 637.278, 621.522 637.278, 623.193 637.278, 633.193 637.278, 637.212 637.278, 637.278 637.278, 638.725 637.278, 648.725 637.278, 650.334 637.278, 650.406 637.278, 650.534 643.022, 647.218 645.490, 645.793 645.682, 645.682 654.342, 640.682 660.867, 636.915 662.292, 636.092 662.403, 636.028 671.063, 631.028 679.723, 626.028 683.914, 623.609 685.148, 622.896 685.244, 622.841 693.904, 617.841 702.564, 612.841 711.224, 607.841 719.885, 602.841 724.805, 600.000 716.145, 595.000 707.485, 590.000 698.825, 585.000 690.164, 580.000 685.244, 577.159 685.148, 577.104 683.914, 576.391 675.254, 571.391 666.593, 566.391 662.403, 563.972 662.292, 563.908 660.867, 563.085 652.207, 558.085 645.682, 554.318 645.490, 554.207 643.022, 552.782 637.278, 549.466 " fill="none" stroke="#00B3FE" stroke-linecap="butt" stroke-linejoin="round" stroke-opacity="1.0" stroke-width="3.0" />
            <path d=" M 637.278, 650.534 637.382, 650.346 638.725, 647.925 " fill="none" stroke="#00B3FE" stroke-linecap="butt" stroke-linejoin="round" stroke-opacity="1.0" stroke-width="3.0" />
            <path d=" M 684.476, 578.489 693.136, 583.489 701.796, 588.489 710.457, 593.489 719.117, 598.489 721.734, 600.000 713.074, 605.000 704.414, 610.000 695.753, 615.000 687.093, 620.000 684.476, 621.511 " fill="none" stroke="#00B3FE" stroke-linecap="butt" stroke-linejoin="round" stroke-opacity="1.0" stroke-width="3.0" />
            <path d=" M 724.805, 600.000 724.584, 600.000 721.734, 600.000 " fill="none" stroke="#00B3FE" stroke-linecap="butt" stroke-linejoin="round" stroke-opacity="1.0" stroke-width="3.0" />
            <path d=" M 638.725, 561.275 638.725, 552.075 644.558, 555.442 " fill="none" stroke="#00B3FE" stroke-linecap="butt" stroke-linejoin="round" stroke-opacity="1.0" stroke-width="3.0" />
            <path d=" M 637.212, 561.275 637.212, 551.275 637.212, 549.556 637.278, 549.594 " fill="none" stroke="#00B3FE" stroke-linecap="butt" stroke-linejoin="round" stroke-opacity="1.0" stroke-width="3.0" />
            <path d=" M 660.867, 616.309 657.499, 622.142 652.899, 614.174 " fill="none" stroke="#00B3FE" stroke-linecap="butt" stroke-linejoin="round" stroke-opacity="1.0" stroke-width="3.0" />
            <path d=" M 657.487, 625.014 657.448, 625.080 652.448, 616.420 651.589, 614.931 " fill="none" stroke="#00B3FE" stroke-linecap="butt" stroke-linejoin="round" stroke-opacity="1.0" stroke-width="3.0" />
            <path d=" M 607.004, 537.708 607.116, 537.770 " fill="none" stroke="#00B3FE" stroke-linecap="butt" stroke-linejoin="round" stroke-opacity="1.0" stroke-width="3.0" />
            <path d=" M 609.574, 539.133 607.201, 537.708 607.016, 537.597 " fill="none" stroke="#00B3FE" stroke-linecap="butt" stroke-linejoin="round" stroke-opacity="1.0" stroke-width="3.0" />
            <path d=" M 607.016, 537.597 607.080, 537.708 607.116, 537.770 612.116, 546.431 612.921, 547.824 613.645, 549.078 613.678, 549.135 618.678, 557.795 620.687, 561.275 621.522, 562.722 621.561, 562.788 625.842, 570.204 627.289, 572.711 627.355, 572.825 632.355, 581.486 637.212, 589.897 637.278, 590.011 638.725, 592.518 643.006, 599.934 643.045, 600.000 643.880, 601.447 648.880, 610.107 650.889, 613.587 650.922, 613.645 651.646, 614.898 656.646, 623.558 657.451, 624.952 657.487, 625.014 657.551, 625.125 660.867, 619.381 662.292, 616.913 662.403, 616.721 667.403, 608.061 671.170, 601.536 671.992, 600.111 672.056, 600.000 677.056, 591.340 682.056, 582.680 684.476, 578.489 685.188, 577.255 685.244, 577.159 690.244, 568.499 695.244, 559.839 700.244, 551.178 705.244, 542.518 708.085, 537.597 698.085, 537.597 688.085, 537.597 678.085, 537.597 668.085, 537.597 662.403, 537.597 662.292, 537.597 660.867, 537.597 650.867, 537.597 640.867, 537.597 636.028, 537.597 635.900, 537.597 634.255, 537.597 624.255, 537.597 616.721, 537.597 616.499, 537.597 613.650, 537.597 607.016, 537.597 " fill="none" stroke="#00B3FE" stroke-linecap="butt" stroke-linejoin="round" stroke-opacity="1.0" stroke-width="3.0" />
            <path d=" M 657.551, 625.125 657.547, 624.910 657.499, 622.142 " fill="none" stroke="#00B3FE" stroke-linecap="butt" stroke-linejoin="round" stroke-opacity="1.0" stroke-width="3.0" />
            <path d=" M 662.403, 539.133 672.403, 539.133 682.403, 539.133 692.403, 539.133 702.403, 539.133 705.425, 539.133 700.425, 547.793 695.425, 556.453 690.425, 565.114 685.425, 573.774 683.914, 576.391 " fill="none" stroke="#00B3FE" stroke-linecap="butt" stroke-linejoin="round" stroke-opacity="1.0" stroke-width="3.0" />
            <path d=" M 708.085, 537.597 707.893, 537.708 705.425, 539.133 " fill="none" stroke="#00B3FE" stroke-linecap="butt" stroke-linejoin="round" stroke-opacity="1.0" stroke-width="3.0" />
            <path d=" M 614.174, 547.101 609.574, 539.133 616.309, 539.133 " fill="none" stroke="#00B3FE" stroke-linecap="butt" stroke-linejoin="round" stroke-opacity="1.0" stroke-width="3.0" />
            <path d=" M 612.864, 547.857 607.864, 539.197 607.004, 537.708 607.080, 537.708 " fill="none" stroke="#00B3FE" stroke-linecap="butt" stroke-linejoin="round" stroke-opacity="1.0" stroke-width="3.0" />
            <path d=" M 660.867, 583.691 660.867, 590.426 652.899, 585.826 " fill="none" stroke="#00B3FE" stroke-linecap="butt" stroke-linejoin="round" stroke-opacity="1.0" stroke-width="3.0" />
            <path d=" M 662.292, 592.920 662.292, 592.996 653.632, 587.996 652.143, 587.136 " fill="none" stroke="#00B3FE" stroke-linecap="butt" stroke-linejoin="round" stroke-opacity="1.0" stroke-width="3.0" />
            <path d=" M 574.920, 542.552 575.048, 542.549 " fill="none" stroke="#00B3FE" stroke-linecap="butt" stroke-linejoin="round" stroke-opacity="1.0" stroke-width="3.0" />
            <path d=" M 577.858, 542.501 575.090, 542.453 574.875, 542.449 " fill="none" stroke="#00B3FE" stroke-linecap="butt" stroke-linejoin="round" stroke-opacity="1.0" stroke-width="3.0" />
            <path d=" M 574.875, 542.449 574.986, 542.513 575.048, 542.549 583.708, 547.549 585.102, 548.354 586.355, 549.078 586.413, 549.111 595.073, 554.111 598.553, 556.120 600.000, 556.955 600.066, 556.994 607.482, 561.275 609.989, 562.722 610.103, 562.788 618.763, 567.788 627.175, 572.645 627.289, 572.711 629.796, 574.158 637.212, 578.439 637.278, 578.478 638.725, 579.313 647.385, 584.313 650.865, 586.322 650.922, 586.355 652.176, 587.079 660.836, 592.079 662.230, 592.884 662.292, 592.920 662.403, 592.984 662.403, 586.351 662.403, 583.501 662.403, 583.279 662.403, 573.279 662.403, 565.745 662.403, 564.100 662.403, 563.972 662.403, 553.972 662.403, 543.972 662.403, 539.133 662.403, 537.708 662.403, 537.597 662.403, 527.597 662.403, 517.597 662.403, 507.597 662.403, 497.597 662.403, 491.915 653.742, 496.915 645.082, 501.915 636.422, 506.915 627.762, 511.915 622.841, 514.756 622.745, 514.812 621.511, 515.524 612.851, 520.524 604.191, 525.524 600.000, 527.944 599.889, 528.008 598.464, 528.830 589.804, 533.830 583.279, 537.597 583.087, 537.708 580.620, 539.133 574.875, 542.449 " fill="none" stroke="#00B3FE" stroke-linecap="butt" stroke-linejoin="round" stroke-opacity="1.0" stroke-width="3.0" />
            <path d=" M 662.403, 592.984 662.292, 592.799 660.867, 590.426 " fill="none" stroke="#00B3FE" stroke-linecap="butt" stroke-linejoin="round" stroke-opacity="1.0" stroke-width="3.0" />
            <path d=" M 623.609, 516.086 632.269, 511.086 640.929, 506.086 649.590, 501.086 658.250, 496.086 660.867, 494.575 660.867, 504.575 660.867, 514.575 660.867, 524.575 660.867, 534.575 660.867, 537.597 " fill="none" stroke="#00B3FE" stroke-linecap="butt" stroke-linejoin="round" stroke-opacity="1.0" stroke-width="3.0" />
            <path d=" M 662.403, 491.915 662.292, 492.107 660.867, 494.575 " fill="none" stroke="#00B3FE" stroke-linecap="butt" stroke-linejoin="round" stroke-opacity="1.0" stroke-width="3.0" />
            <path d=" M 585.826, 547.101 577.858, 542.501 583.691, 539.133 " fill="none" stroke="#00B3FE" stroke-linecap="butt" stroke-linejoin="round" stroke-opacity="1.0" stroke-width="3.0" />
            <path d=" M 585.069, 548.411 576.409, 543.411 574.920, 542.552 574.986, 542.513 " fill="none" stroke="#00B3FE" stroke-linecap="butt" stroke-linejoin="round" stroke-opacity="1.0" stroke-width="3.0" />
            <path d=" M 537.770, 607.116 537.708, 607.004 " fill="none" stroke="#00B3FE" stroke-linecap="butt" stroke-linejoin="round" stroke-opacity="1.0" stroke-width="3.0" />
            <path d=" M 539.133, 635.142 539.133, 625.142 539.133, 619.380 " fill="none" stroke="#00B3FE" stroke-linecap="butt" stroke-linejoin="round" stroke-opacity="1.0" stroke-width="3.0" />
            <path d=" M 539.133, 660.867 539.133, 650.867 539.133, 640.867 539.133, 636.915 " fill="none" stroke="#00B3FE" stroke-linecap="butt" stroke-linejoin="round" stroke-opacity="1.0" stroke-width="3.0" />
            <path d=" M 539.133, 563.085 539.133, 553.085 539.133, 543.085 539.133, 539.133 " fill="none" stroke="#00B3FE" stroke-linecap="butt" stroke-linejoin="round" stroke-opacity="1.0" stroke-width="3.0" />
            <path d=" M 539.133, 580.619 539.133, 570.619 539.133, 564.858 " fill="none" stroke="#00B3FE" stroke-linecap="butt" stroke-linejoin="round" stroke-opacity="1.0" stroke-width="3.0" />
            <path d=" M 529.717, 600.000 534.717, 591.340 537.597, 586.350 " fill="none" stroke="#00B3FE" stroke-linecap="butt" stroke-linejoin="round" stroke-opacity="1.0" stroke-width="3.0" />
            <path d=" M 516.854, 622.279 521.854, 613.619 526.854, 604.958 528.830, 601.536 " fill="none" stroke="#00B3FE" stroke-linecap="butt" stroke-linejoin="round" stroke-opacity="1.0" stroke-width="3.0" />
            <path d=" M 528.830, 598.464 523.830, 589.804 518.830, 581.144 516.854, 577.721 " fill="none" stroke="#00B3FE" stroke-linecap="butt" stroke-linejoin="round" stroke-opacity="1.0" stroke-width="3.0" />
            <path d=" M 537.597, 613.649 532.597, 604.989 529.717, 600.000 " fill="none" stroke="#00B3FE" stroke-linecap="butt" stroke-linejoin="round" stroke-opacity="1.0" stroke-width="3.0" />
            <path d=" M 542.549, 575.048 542.552, 574.920 " fill="none" stroke="#00B3FE" stroke-linecap="butt" stroke-linejoin="round" stroke-opacity="1.0" stroke-width="3.0" />
            <path d=" M 549.666, 637.278 549.556, 637.212 " fill="none" stroke="#00B3FE" stroke-linecap="butt" stroke-linejoin="round" stroke-opacity="1.0" stroke-width="3.0" />
            <path d=" M 539.133, 564.858 547.793, 559.858 552.782, 556.978 " fill="none" stroke="#00B3FE" stroke-linecap="butt" stroke-linejoin="round" stroke-opacity="1.0" stroke-width="3.0" />
            <path d=" M 516.854, 577.721 525.514, 572.721 534.175, 567.721 537.597, 565.745 " fill="none" stroke="#00B3FE" stroke-linecap="butt" stroke-linejoin="round" stroke-opacity="1.0" stroke-width="3.0" />
            <path d=" M 561.275, 622.358 561.275, 632.358 561.275, 637.212 561.275, 637.278 " fill="none" stroke="#00B3FE" stroke-linecap="butt" stroke-linejoin="round" stroke-opacity="1.0" stroke-width="3.0" />
            <path d=" M 561.275, 610.376 561.275, 620.376 561.275, 620.610 561.275, 620.687 " fill="none" stroke="#00B3FE" stroke-linecap="butt" stroke-linejoin="round" stroke-opacity="1.0" stroke-width="3.0" />
            <path d=" M 561.275, 592.518 561.275, 592.650 561.275, 602.650 561.275, 607.350 561.275, 607.482 " fill="none" stroke="#00B3FE" stroke-linecap="butt" stroke-linejoin="round" stroke-opacity="1.0" stroke-width="3.0" />
            <path d=" M 561.275, 579.313 561.275, 579.390 561.275, 589.390 561.275, 589.624 " fill="none" stroke="#00B3FE" stroke-linecap="butt" stroke-linejoin="round" stroke-opacity="1.0" stroke-width="3.0" />
            <path d=" M 561.275, 562.722 561.275, 562.788 561.275, 572.788 561.275, 577.642 " fill="none" stroke="#00B3FE" stroke-linecap="butt" stroke-linejoin="round" stroke-opacity="1.0" stroke-width="3.0" />
            <path d=" M 537.597, 634.255 528.937, 629.255 520.277, 624.255 516.854, 622.279 " fill="none" stroke="#00B3FE" stroke-linecap="butt" stroke-linejoin="round" stroke-opacity="1.0" stroke-width="3.0" />
            <path d=" M 552.782, 643.022 544.122, 638.022 539.133, 635.142 " fill="none" stroke="#00B3FE" stroke-linecap="butt" stroke-linejoin="round" stroke-opacity="1.0" stroke-width="3.0" />
            <path d=" M 562.722, 549.666 562.788, 549.556 " fill="none" stroke="#00B3FE" stroke-linecap="butt" stroke-linejoin="round" stroke-opacity="1.0" stroke-width="3.0" />
            <path d=" M 562.788, 623.232 562.788, 633.232 562.788, 637.212 " fill="none" stroke="#00B3FE" stroke-linecap="butt" stroke-linejoin="round" stroke-opacity="1.0" stroke-width="3.0" />
            <path d=" M 562.788, 612.997 562.788, 621.484 " fill="none" stroke="#00B3FE" stroke-linecap="butt" stroke-linejoin="round" stroke-opacity="1.0" stroke-width="3.0" />
            <path d=" M 562.788, 590.029 562.788, 600.029 562.788, 609.971 " fill="none" stroke="#00B3FE" stroke-linecap="butt" stroke-linejoin="round" stroke-opacity="1.0" stroke-width="3.0" />
            <path d=" M 562.788, 578.516 562.788, 587.003 " fill="none" stroke="#00B3FE" stroke-linecap="butt" stroke-linejoin="round" stroke-opacity="1.0" stroke-width="3.0" />
            <path d=" M 562.788, 562.788 562.788, 572.788 562.788, 576.768 " fill="none" stroke="#00B3FE" stroke-linecap="butt" stroke-linejoin="round" stroke-opacity="1.0" stroke-width="3.0" />
            <path d=" M 575.048, 657.451 574.920, 657.448 " fill="none" stroke="#00B3FE" stroke-linecap="butt" stroke-linejoin="round" stroke-opacity="1.0" stroke-width="3.0" />
            <path d=" M 577.642, 638.725 582.642, 647.385 585.069, 651.589 585.102, 651.646 " fill="none" stroke="#00B3FE" stroke-linecap="butt" stroke-linejoin="round" stroke-opacity="1.0" stroke-width="3.0" />
            <path d=" M 571.651, 628.349 576.651, 637.009 576.768, 637.212 576.807, 637.278 " fill="none" stroke="#00B3FE" stroke-linecap="butt" stroke-linejoin="round" stroke-opacity="1.0" stroke-width="3.0" />
            <path d=" M 562.722, 612.883 562.788, 612.997 567.788, 621.658 570.138, 625.728 570.204, 625.842 " fill="none" stroke="#00B3FE" stroke-linecap="butt" stroke-linejoin="round" stroke-opacity="1.0" stroke-width="3.0" />
            <path d=" M 556.120, 601.447 556.158, 601.513 561.158, 610.174 561.275, 610.376 " fill="none" stroke="#00B3FE" stroke-linecap="butt" stroke-linejoin="round" stroke-opacity="1.0" stroke-width="3.0" />
            <path d=" M 547.824, 587.079 547.857, 587.136 552.857, 595.797 555.284, 600.000 " fill="none" stroke="#00B3FE" stroke-linecap="butt" stroke-linejoin="round" stroke-opacity="1.0" stroke-width="3.0" />
            <path d=" M 563.085, 660.867 553.085, 660.867 543.085, 660.867 539.133, 660.867 " fill="none" stroke="#00B3FE" stroke-linecap="butt" stroke-linejoin="round" stroke-opacity="1.0" stroke-width="3.0" />
            <path d=" M 580.619, 660.867 570.619, 660.867 564.858, 660.867 " fill="none" stroke="#00B3FE" stroke-linecap="butt" stroke-linejoin="round" stroke-opacity="1.0" stroke-width="3.0" />
            <path d=" M 555.284, 600.000 550.284, 608.660 547.857, 612.864 547.824, 612.921 " fill="none" stroke="#00B3FE" stroke-linecap="butt" stroke-linejoin="round" stroke-opacity="1.0" stroke-width="3.0" />
            <path d=" M 561.275, 589.624 556.275, 598.284 556.158, 598.487 556.120, 598.553 " fill="none" stroke="#00B3FE" stroke-linecap="butt" stroke-linejoin="round" stroke-opacity="1.0" stroke-width="3.0" />
            <path d=" M 570.204, 574.158 570.138, 574.272 565.138, 582.933 562.788, 587.003 562.722, 587.117 " fill="none" stroke="#00B3FE" stroke-linecap="butt" stroke-linejoin="round" stroke-opacity="1.0" stroke-width="3.0" />
            <path d=" M 576.807, 562.722 576.768, 562.788 571.768, 571.449 571.651, 571.651 " fill="none" stroke="#00B3FE" stroke-linecap="butt" stroke-linejoin="round" stroke-opacity="1.0" stroke-width="3.0" />
            <path d=" M 585.102, 548.354 585.069, 548.411 580.069, 557.072 577.642, 561.275 " fill="none" stroke="#00B3FE" stroke-linecap="butt" stroke-linejoin="round" stroke-opacity="1.0" stroke-width="3.0" />
            <path d=" M 564.858, 539.133 574.858, 539.133 580.620, 539.133 " fill="none" stroke="#00B3FE" stroke-linecap="butt" stroke-linejoin="round" stroke-opacity="1.0" stroke-width="3.0" />
            <path d=" M 539.133, 539.133 549.133, 539.133 559.133, 539.133 563.085, 539.133 " fill="none" stroke="#00B3FE" stroke-linecap="butt" stroke-linejoin="round" stroke-opacity="1.0" stroke-width="3.0" />
            <path d=" M 579.390, 638.725 584.390, 647.385 586.380, 650.832 " fill="none" stroke="#00B3FE" stroke-linecap="butt" stroke-linejoin="round" stroke-opacity="1.0" stroke-width="3.0" />
            <path d=" M 574.272, 629.862 578.516, 637.212 " fill="none" stroke="#00B3FE" stroke-linecap="butt" stroke-linejoin="round" stroke-opacity="1.0" stroke-width="3.0" />
            <path d=" M 562.788, 609.971 567.788, 618.631 572.759, 627.241 " fill="none" stroke="#00B3FE" stroke-linecap="butt" stroke-linejoin="round" stroke-opacity="1.0" stroke-width="3.0" />
            <path d=" M 557.032, 600.000 561.275, 607.350 " fill="none" stroke="#00B3FE" stroke-linecap="butt" stroke-linejoin="round" stroke-opacity="1.0" stroke-width="3.0" />
            <path d=" M 549.168, 586.380 554.168, 595.040 556.158, 598.487 " fill="none" stroke="#00B3FE" stroke-linecap="butt" stroke-linejoin="round" stroke-opacity="1.0" stroke-width="3.0" />
            <path d=" M 592.884, 537.770 592.996, 537.708 " fill="none" stroke="#00B3FE" stroke-linecap="butt" stroke-linejoin="round" stroke-opacity="1.0" stroke-width="3.0" />
            <path d=" M 556.158, 601.513 551.158, 610.174 549.168, 613.620 " fill="none" stroke="#00B3FE" stroke-linecap="butt" stroke-linejoin="round" stroke-opacity="1.0" stroke-width="3.0" />
            <path d=" M 561.275, 592.650 557.032, 600.000 " fill="none" stroke="#00B3FE" stroke-linecap="butt" stroke-linejoin="round" stroke-opacity="1.0" stroke-width="3.0" />
            <path d=" M 572.759, 572.759 567.759, 581.419 562.788, 590.029 " fill="none" stroke="#00B3FE" stroke-linecap="butt" stroke-linejoin="round" stroke-opacity="1.0" stroke-width="3.0" />
            <path d=" M 578.516, 562.788 574.272, 570.138 " fill="none" stroke="#00B3FE" stroke-linecap="butt" stroke-linejoin="round" stroke-opacity="1.0" stroke-width="3.0" />
            <path d=" M 586.380, 549.168 581.380, 557.828 579.390, 561.275 " fill="none" stroke="#00B3FE" stroke-linecap="butt" stroke-linejoin="round" stroke-opacity="1.0" stroke-width="3.0" />
            <path d=" M 564.858, 660.867 559.858, 652.207 556.978, 647.218 " fill="none" stroke="#00B3FE" stroke-linecap="butt" stroke-linejoin="round" stroke-opacity="1.0" stroke-width="3.0" />
            <path d=" M 577.721, 683.146 572.721, 674.486 567.721, 665.825 565.745, 662.403 " fill="none" stroke="#00B3FE" stroke-linecap="butt" stroke-linejoin="round" stroke-opacity="1.0" stroke-width="3.0" />
            <path d=" M 565.745, 537.597 570.745, 528.937 575.745, 520.277 577.721, 516.854 " fill="none" stroke="#00B3FE" stroke-linecap="butt" stroke-linejoin="round" stroke-opacity="1.0" stroke-width="3.0" />
            <path d=" M 556.978, 552.782 561.978, 544.122 564.858, 539.133 " fill="none" stroke="#00B3FE" stroke-linecap="butt" stroke-linejoin="round" stroke-opacity="1.0" stroke-width="3.0" />
            <path d=" M 607.116, 662.230 607.004, 662.292 " fill="none" stroke="#00B3FE" stroke-linecap="butt" stroke-linejoin="round" stroke-opacity="1.0" stroke-width="3.0" />
            <path d=" M 600.000, 644.716 608.660, 649.716 612.864, 652.143 612.921, 652.176 " fill="none" stroke="#00B3FE" stroke-linecap="butt" stroke-linejoin="round" stroke-opacity="1.0" stroke-width="3.0" />
            <path d=" M 589.624, 638.725 598.284, 643.725 598.487, 643.842 598.553, 643.880 " fill="none" stroke="#00B3FE" stroke-linecap="butt" stroke-linejoin="round" stroke-opacity="1.0" stroke-width="3.0" />
            <path d=" M 574.158, 629.796 574.272, 629.862 582.933, 634.862 587.003, 637.212 587.117, 637.278 " fill="none" stroke="#00B3FE" stroke-linecap="butt" stroke-linejoin="round" stroke-opacity="1.0" stroke-width="3.0" />
            <path d=" M 562.722, 623.193 562.788, 623.232 571.449, 628.232 571.651, 628.349 " fill="none" stroke="#00B3FE" stroke-linecap="butt" stroke-linejoin="round" stroke-opacity="1.0" stroke-width="3.0" />
            <path d=" M 548.354, 614.898 548.411, 614.931 557.072, 619.931 561.275, 622.358 " fill="none" stroke="#00B3FE" stroke-linecap="butt" stroke-linejoin="round" stroke-opacity="1.0" stroke-width="3.0" />
            <path d=" M 598.464, 671.170 589.804, 676.170 581.144, 681.170 577.721, 683.146 " fill="none" stroke="#00B3FE" stroke-linecap="butt" stroke-linejoin="round" stroke-opacity="1.0" stroke-width="3.0" />
            <path d=" M 613.649, 662.403 604.989, 667.403 600.000, 670.283 " fill="none" stroke="#00B3FE" stroke-linecap="butt" stroke-linejoin="round" stroke-opacity="1.0" stroke-width="3.0" />
            <path d=" M 561.275, 577.642 552.615, 582.642 548.411, 585.069 548.354, 585.102 " fill="none" stroke="#00B3FE" stroke-linecap="butt" stroke-linejoin="round" stroke-opacity="1.0" stroke-width="3.0" />
            <path d=" M 571.651, 571.651 562.991, 576.651 562.788, 576.768 562.722, 576.807 " fill="none" stroke="#00B3FE" stroke-linecap="butt" stroke-linejoin="round" stroke-opacity="1.0" stroke-width="3.0" />
            <path d=" M 587.117, 562.722 587.003, 562.788 578.342, 567.788 574.272, 570.138 574.158, 570.204 " fill="none" stroke="#00B3FE" stroke-linecap="butt" stroke-linejoin="round" stroke-opacity="1.0" stroke-width="3.0" />
            <path d=" M 598.553, 556.120 598.487, 556.158 589.826, 561.158 589.624, 561.275 " fill="none" stroke="#00B3FE" stroke-linecap="butt" stroke-linejoin="round" stroke-opacity="1.0" stroke-width="3.0" />
            <path d=" M 612.921, 547.824 612.864, 547.857 604.203, 552.857 600.000, 555.284 " fill="none" stroke="#00B3FE" stroke-linecap="butt" stroke-linejoin="round" stroke-opacity="1.0" stroke-width="3.0" />
            <path d=" M 600.000, 529.717 608.660, 534.717 613.650, 537.597 " fill="none" stroke="#00B3FE" stroke-linecap="butt" stroke-linejoin="round" stroke-opacity="1.0" stroke-width="3.0" />
            <path d=" M 577.721, 516.854 586.381, 521.854 595.042, 526.854 598.464, 528.830 " fill="none" stroke="#00B3FE" stroke-linecap="butt" stroke-linejoin="round" stroke-opacity="1.0" stroke-width="3.0" />
            <path d=" M 601.513, 643.842 610.174, 648.842 613.620, 650.832 " fill="none" stroke="#00B3FE" stroke-linecap="butt" stroke-linejoin="round" stroke-opacity="1.0" stroke-width="3.0" />
            <path d=" M 592.650, 638.725 600.000, 642.968 " fill="none" stroke="#00B3FE" stroke-linecap="butt" stroke-linejoin="round" stroke-opacity="1.0" stroke-width="3.0" />
            <path d=" M 572.759, 627.241 581.419, 632.241 590.029, 637.212 " fill="none" stroke="#00B3FE" stroke-linecap="butt" stroke-linejoin="round" stroke-opacity="1.0" stroke-width="3.0" />
            <path d=" M 562.788, 621.484 570.138, 625.728 " fill="none" stroke="#00B3FE" stroke-linecap="butt" stroke-linejoin="round" stroke-opacity="1.0" stroke-width="3.0" />
            <path d=" M 549.168, 613.620 557.828, 618.620 561.275, 620.610 " fill="none" stroke="#00B3FE" stroke-linecap="butt" stroke-linejoin="round" stroke-opacity="1.0" stroke-width="3.0" />
            <path d=" M 624.952, 542.549 625.080, 542.552 " fill="none" stroke="#00B3FE" stroke-linecap="butt" stroke-linejoin="round" stroke-opacity="1.0" stroke-width="3.0" />
            <path d=" M 561.275, 579.390 552.615, 584.390 549.168, 586.380 " fill="none" stroke="#00B3FE" stroke-linecap="butt" stroke-linejoin="round" stroke-opacity="1.0" stroke-width="3.0" />
            <path d=" M 570.138, 574.272 562.788, 578.516 " fill="none" stroke="#00B3FE" stroke-linecap="butt" stroke-linejoin="round" stroke-opacity="1.0" stroke-width="3.0" />
            <path d=" M 590.029, 562.788 581.369, 567.788 572.759, 572.759 " fill="none" stroke="#00B3FE" stroke-linecap="butt" stroke-linejoin="round" stroke-opacity="1.0" stroke-width="3.0" />
            <path d=" M 600.000, 557.032 592.650, 561.275 " fill="none" stroke="#00B3FE" stroke-linecap="butt" stroke-linejoin="round" stroke-opacity="1.0" stroke-width="3.0" />
            <path d=" M 613.620, 549.168 604.960, 554.168 601.513, 556.158 " fill="none" stroke="#00B3FE" stroke-linecap="butt" stroke-linejoin="round" stroke-opacity="1.0" stroke-width="3.0" />
            <path d=" M 637.212, 576.768 637.212, 566.768 637.212, 562.788 " fill="none" stroke="#00B3FE" stroke-linecap="butt" stroke-linejoin="round" stroke-opacity="1.0" stroke-width="3.0" />
            <path d=" M 637.212, 587.003 637.212, 578.516 " fill="none" stroke="#00B3FE" stroke-linecap="butt" stroke-linejoin="round" stroke-opacity="1.0" stroke-width="3.0" />
            <path d=" M 637.212, 609.971 637.212, 599.971 637.212, 590.029 " fill="none" stroke="#00B3FE" stroke-linecap="butt" stroke-linejoin="round" stroke-opacity="1.0" stroke-width="3.0" />
            <path d=" M 637.212, 621.484 637.212, 612.997 " fill="none" stroke="#00B3FE" stroke-linecap="butt" stroke-linejoin="round" stroke-opacity="1.0" stroke-width="3.0" />
            <path d=" M 637.212, 637.212 637.212, 627.212 637.212, 623.232 " fill="none" stroke="#00B3FE" stroke-linecap="butt" stroke-linejoin="round" stroke-opacity="1.0" stroke-width="3.0" />
            <path d=" M 638.725, 577.642 638.725, 567.642 638.725, 562.788 638.725, 562.722 " fill="none" stroke="#00B3FE" stroke-linecap="butt" stroke-linejoin="round" stroke-opacity="1.0" stroke-width="3.0" />
            <path d=" M 638.725, 589.624 638.725, 579.624 638.725, 579.390 638.725, 579.313 " fill="none" stroke="#00B3FE" stroke-linecap="butt" stroke-linejoin="round" stroke-opacity="1.0" stroke-width="3.0" />
            <path d=" M 638.725, 607.482 638.725, 607.350 638.725, 597.350 638.725, 592.650 638.725, 592.518 " fill="none" stroke="#00B3FE" stroke-linecap="butt" stroke-linejoin="round" stroke-opacity="1.0" stroke-width="3.0" />
            <path d=" M 638.725, 620.687 638.725, 620.610 638.725, 610.610 638.725, 610.376 " fill="none" stroke="#00B3FE" stroke-linecap="butt" stroke-linejoin="round" stroke-opacity="1.0" stroke-width="3.0" />
            <path d=" M 638.725, 637.278 638.725, 637.212 638.725, 627.212 638.725, 622.358 " fill="none" stroke="#00B3FE" stroke-linecap="butt" stroke-linejoin="round" stroke-opacity="1.0" stroke-width="3.0" />
            <path d=" M 637.278, 650.334 637.212, 650.444 " fill="none" stroke="#00B3FE" stroke-linecap="butt" stroke-linejoin="round" stroke-opacity="1.0" stroke-width="3.0" />
            <path d=" M 622.358, 638.725 632.358, 638.725 637.212, 638.725 637.278, 638.725 " fill="none" stroke="#00B3FE" stroke-linecap="butt" stroke-linejoin="round" stroke-opacity="1.0" stroke-width="3.0" />
            <path d=" M 610.376, 638.725 620.376, 638.725 620.610, 638.725 620.687, 638.725 " fill="none" stroke="#00B3FE" stroke-linecap="butt" stroke-linejoin="round" stroke-opacity="1.0" stroke-width="3.0" />
            <path d=" M 592.518, 638.725 592.650, 638.725 602.650, 638.725 607.350, 638.725 607.482, 638.725 " fill="none" stroke="#00B3FE" stroke-linecap="butt" stroke-linejoin="round" stroke-opacity="1.0" stroke-width="3.0" />
            <path d=" M 579.313, 638.725 579.390, 638.725 589.390, 638.725 589.624, 638.725 " fill="none" stroke="#00B3FE" stroke-linecap="butt" stroke-linejoin="round" stroke-opacity="1.0" stroke-width="3.0" />
            <path d=" M 562.722, 638.725 562.788, 638.725 572.788, 638.725 577.642, 638.725 " fill="none" stroke="#00B3FE" stroke-linecap="butt" stroke-linejoin="round" stroke-opacity="1.0" stroke-width="3.0" />
            <path d=" M 634.255, 662.403 629.255, 671.063 624.255, 679.723 622.279, 683.146 " fill="none" stroke="#00B3FE" stroke-linecap="butt" stroke-linejoin="round" stroke-opacity="1.0" stroke-width="3.0" />
            <path d=" M 643.022, 647.218 638.022, 655.878 635.142, 660.867 " fill="none" stroke="#00B3FE" stroke-linecap="butt" stroke-linejoin="round" stroke-opacity="1.0" stroke-width="3.0" />
            <path d=" M 577.642, 561.275 567.642, 561.275 562.788, 561.275 562.722, 561.275 " fill="none" stroke="#00B3FE" stroke-linecap="butt" stroke-linejoin="round" stroke-opacity="1.0" stroke-width="3.0" />
            <path d=" M 589.624, 561.275 579.624, 561.275 579.390, 561.275 579.313, 561.275 " fill="none" stroke="#00B3FE" stroke-linecap="butt" stroke-linejoin="round" stroke-opacity="1.0" stroke-width="3.0" />
            <path d=" M 607.482, 561.275 607.350, 561.275 597.350, 561.275 592.650, 561.275 592.518, 561.275 " fill="none" stroke="#00B3FE" stroke-linecap="butt" stroke-linejoin="round" stroke-opacity="1.0" stroke-width="3.0" />
            <path d=" M 620.687, 561.275 620.610, 561.275 610.610, 561.275 610.376, 561.275 " fill="none" stroke="#00B3FE" stroke-linecap="butt" stroke-linejoin="round" stroke-opacity="1.0" stroke-width="3.0" />
            <path d=" M 637.278, 561.275 637.212, 561.275 627.212, 561.275 622.358, 561.275 " fill="none" stroke="#00B3FE" stroke-linecap="butt" stroke-linejoin="round" stroke-opacity="1.0" stroke-width="3.0" />
            <path d=" M 635.142, 539.133 640.142, 547.793 643.022, 552.782 " fill="none" stroke="#00B3FE" stroke-linecap="butt" stroke-linejoin="round" stroke-opacity="1.0" stroke-width="3.0" />
            <path d=" M 622.279, 516.854 627.279, 525.514 632.279, 534.175 634.255, 537.597 " fill="none" stroke="#00B3FE" stroke-linecap="butt" stroke-linejoin="round" stroke-opacity="1.0" stroke-width="3.0" />
            <path d=" M 623.232, 637.212 633.232, 637.212 637.212, 637.212 " fill="none" stroke="#00B3FE" stroke-linecap="butt" stroke-linejoin="round" stroke-opacity="1.0" stroke-width="3.0" />
            <path d=" M 612.997, 637.212 621.484, 637.212 " fill="none" stroke="#00B3FE" stroke-linecap="butt" stroke-linejoin="round" stroke-opacity="1.0" stroke-width="3.0" />
            <path d=" M 590.029, 637.212 600.029, 637.212 609.971, 637.212 " fill="none" stroke="#00B3FE" stroke-linecap="butt" stroke-linejoin="round" stroke-opacity="1.0" stroke-width="3.0" />
            <path d=" M 578.516, 637.212 587.003, 637.212 " fill="none" stroke="#00B3FE" stroke-linecap="butt" stroke-linejoin="round" stroke-opacity="1.0" stroke-width="3.0" />
            <path d=" M 562.788, 637.212 572.788, 637.212 576.768, 637.212 " fill="none" stroke="#00B3FE" stroke-linecap="butt" stroke-linejoin="round" stroke-opacity="1.0" stroke-width="3.0" />
            <path d=" M 650.334, 562.722 650.444, 562.788 " fill="none" stroke="#00B3FE" stroke-linecap="butt" stroke-linejoin="round" stroke-opacity="1.0" stroke-width="3.0" />
            <path d=" M 576.768, 562.788 566.768, 562.788 562.788, 562.788 " fill="none" stroke="#00B3FE" stroke-linecap="butt" stroke-linejoin="round" stroke-opacity="1.0" stroke-width="3.0" />
            <path d=" M 587.003, 562.788 578.516, 562.788 " fill="none" stroke="#00B3FE" stroke-linecap="butt" stroke-linejoin="round" stroke-opacity="1.0" stroke-width="3.0" />
            <path d=" M 609.971, 562.788 599.971, 562.788 590.029, 562.788 " fill="none" stroke="#00B3FE" stroke-linecap="butt" stroke-linejoin="round" stroke-opacity="1.0" stroke-width="3.0" />
            <path d=" M 621.484, 562.788 612.997, 562.788 " fill="none" stroke="#00B3FE" stroke-linecap="butt" stroke-linejoin="round" stroke-opacity="1.0" stroke-width="3.0" />
            <path d=" M 637.212, 562.788 627.212, 562.788 623.232, 562.788 " fill="none" stroke="#00B3FE" stroke-linecap="butt" stroke-linejoin="round" stroke-opacity="1.0" stroke-width="3.0" />
            <path d=" M 643.842, 598.487 648.842, 589.826 650.832, 586.380 " fill="none" stroke="#00B3FE" stroke-linecap="butt" stroke-linejoin="round" stroke-opacity="1.0" stroke-width="3.0" />
            <path d=" M 638.725, 607.350 642.968, 600.000 " fill="none" stroke="#00B3FE" stroke-linecap="butt" stroke-linejoin="round" stroke-opacity="1.0" stroke-width="3.0" />
            <path d=" M 627.241, 627.241 632.241, 618.581 637.212, 609.971 " fill="none" stroke="#00B3FE" stroke-linecap="butt" stroke-linejoin="round" stroke-opacity="1.0" stroke-width="3.0" />
            <path d=" M 621.484, 637.212 625.728, 629.862 " fill="none" stroke="#00B3FE" stroke-linecap="butt" stroke-linejoin="round" stroke-opacity="1.0" stroke-width="3.0" />
            <path d=" M 613.620, 650.832 618.620, 642.172 620.610, 638.725 " fill="none" stroke="#00B3FE" stroke-linecap="butt" stroke-linejoin="round" stroke-opacity="1.0" stroke-width="3.0" />
            <path d=" M 620.610, 561.275 615.610, 552.615 613.620, 549.168 " fill="none" stroke="#00B3FE" stroke-linecap="butt" stroke-linejoin="round" stroke-opacity="1.0" stroke-width="3.0" />
            <path d=" M 625.728, 570.138 621.484, 562.788 " fill="none" stroke="#00B3FE" stroke-linecap="butt" stroke-linejoin="round" stroke-opacity="1.0" stroke-width="3.0" />
            <path d=" M 637.212, 590.029 632.212, 581.369 627.241, 572.759 " fill="none" stroke="#00B3FE" stroke-linecap="butt" stroke-linejoin="round" stroke-opacity="1.0" stroke-width="3.0" />
            <path d=" M 642.968, 600.000 638.725, 592.650 " fill="none" stroke="#00B3FE" stroke-linecap="butt" stroke-linejoin="round" stroke-opacity="1.0" stroke-width="3.0" />
            <path d=" M 650.832, 613.620 645.832, 604.960 643.842, 601.513 " fill="none" stroke="#00B3FE" stroke-linecap="butt" stroke-linejoin="round" stroke-opacity="1.0" stroke-width="3.0" />
            <path d=" M 644.716, 600.000 649.716, 591.340 652.143, 587.136 652.176, 587.079 " fill="none" stroke="#00B3FE" stroke-linecap="butt" stroke-linejoin="round" stroke-opacity="1.0" stroke-width="3.0" />
            <path d=" M 638.725, 610.376 643.725, 601.716 643.842, 601.513 643.880, 601.447 " fill="none" stroke="#00B3FE" stroke-linecap="butt" stroke-linejoin="round" stroke-opacity="1.0" stroke-width="3.0" />
            <path d=" M 629.796, 625.842 629.862, 625.728 634.862, 617.067 637.212, 612.997 637.278, 612.883 " fill="none" stroke="#00B3FE" stroke-linecap="butt" stroke-linejoin="round" stroke-opacity="1.0" stroke-width="3.0" />
            <path d=" M 623.193, 637.278 623.232, 637.212 628.232, 628.551 628.349, 628.349 " fill="none" stroke="#00B3FE" stroke-linecap="butt" stroke-linejoin="round" stroke-opacity="1.0" stroke-width="3.0" />
            <path d=" M 614.898, 651.646 614.931, 651.589 619.931, 642.928 622.358, 638.725 " fill="none" stroke="#00B3FE" stroke-linecap="butt" stroke-linejoin="round" stroke-opacity="1.0" stroke-width="3.0" />
            <path d=" M 622.358, 561.275 617.358, 552.615 614.931, 548.411 614.898, 548.354 " fill="none" stroke="#00B3FE" stroke-linecap="butt" stroke-linejoin="round" stroke-opacity="1.0" stroke-width="3.0" />
            <path d=" M 628.349, 571.651 623.349, 562.991 623.232, 562.788 623.193, 562.722 " fill="none" stroke="#00B3FE" stroke-linecap="butt" stroke-linejoin="round" stroke-opacity="1.0" stroke-width="3.0" />
            <path d=" M 637.278, 587.117 637.212, 587.003 632.212, 578.342 629.862, 574.272 629.796, 574.158 " fill="none" stroke="#00B3FE" stroke-linecap="butt" stroke-linejoin="round" stroke-opacity="1.0" stroke-width="3.0" />
            <path d=" M 643.880, 598.553 643.842, 598.487 638.842, 589.826 638.725, 589.624 " fill="none" stroke="#00B3FE" stroke-linecap="butt" stroke-linejoin="round" stroke-opacity="1.0" stroke-width="3.0" />
            <path d=" M 652.176, 612.921 652.143, 612.864 647.143, 604.203 644.716, 600.000 " fill="none" stroke="#00B3FE" stroke-linecap="butt" stroke-linejoin="round" stroke-opacity="1.0" stroke-width="3.0" />
            <path d=" M 657.451, 624.952 657.448, 625.080 " fill="none" stroke="#00B3FE" stroke-linecap="butt" stroke-linejoin="round" stroke-opacity="1.0" stroke-width="3.0" />
            <path d=" M 638.725, 622.358 647.385, 617.358 651.589, 614.931 651.646, 614.898 " fill="none" stroke="#00B3FE" stroke-linecap="butt" stroke-linejoin="round" stroke-opacity="1.0" stroke-width="3.0" />
            <path d=" M 628.349, 628.349 637.009, 623.349 637.212, 623.232 637.278, 623.193 " fill="none" stroke="#00B3FE" stroke-linecap="butt" stroke-linejoin="round" stroke-opacity="1.0" stroke-width="3.0" />
            <path d=" M 612.883, 637.278 612.997, 637.212 621.658, 632.212 625.728, 629.862 625.842, 629.796 " fill="none" stroke="#00B3FE" stroke-linecap="butt" stroke-linejoin="round" stroke-opacity="1.0" stroke-width="3.0" />
            <path d=" M 601.447, 643.880 601.513, 643.842 610.174, 638.842 610.376, 638.725 " fill="none" stroke="#00B3FE" stroke-linecap="butt" stroke-linejoin="round" stroke-opacity="1.0" stroke-width="3.0" />
            <path d=" M 587.079, 652.176 587.136, 652.143 595.797, 647.143 600.000, 644.716 " fill="none" stroke="#00B3FE" stroke-linecap="butt" stroke-linejoin="round" stroke-opacity="1.0" stroke-width="3.0" />
            <path d=" M 600.000, 670.283 591.340, 665.283 586.350, 662.403 " fill="none" stroke="#00B3FE" stroke-linecap="butt" stroke-linejoin="round" stroke-opacity="1.0" stroke-width="3.0" />
            <path d=" M 622.279, 683.146 613.619, 678.146 604.958, 673.146 601.536, 671.170 " fill="none" stroke="#00B3FE" stroke-linecap="butt" stroke-linejoin="round" stroke-opacity="1.0" stroke-width="3.0" />
            <path d=" M 660.867, 636.915 660.867, 646.915 660.867, 656.915 660.867, 660.867 " fill="none" stroke="#00B3FE" stroke-linecap="butt" stroke-linejoin="round" stroke-opacity="1.0" stroke-width="3.0" />
            <path d=" M 660.867, 619.381 660.867, 629.381 660.867, 635.142 " fill="none" stroke="#00B3FE" stroke-linecap="butt" stroke-linejoin="round" stroke-opacity="1.0" stroke-width="3.0" />
            <path d=" M 601.536, 528.830 610.196, 523.830 618.856, 518.830 622.279, 516.854 " fill="none" stroke="#00B3FE" stroke-linecap="butt" stroke-linejoin="round" stroke-opacity="1.0" stroke-width="3.0" />
            <path d=" M 586.351, 537.597 595.011, 532.597 600.000, 529.717 " fill="none" stroke="#00B3FE" stroke-linecap="butt" stroke-linejoin="round" stroke-opacity="1.0" stroke-width="3.0" />
            <path d=" M 600.000, 555.284 591.340, 550.284 587.136, 547.857 587.079, 547.824 " fill="none" stroke="#00B3FE" stroke-linecap="butt" stroke-linejoin="round" stroke-opacity="1.0" stroke-width="3.0" />
            <path d=" M 610.376, 561.275 601.716, 556.275 601.513, 556.158 601.447, 556.120 " fill="none" stroke="#00B3FE" stroke-linecap="butt" stroke-linejoin="round" stroke-opacity="1.0" stroke-width="3.0" />
            <path d=" M 625.842, 570.204 625.728, 570.138 617.067, 565.138 612.997, 562.788 612.883, 562.722 " fill="none" stroke="#00B3FE" stroke-linecap="butt" stroke-linejoin="round" stroke-opacity="1.0" stroke-width="3.0" />
            <path d=" M 637.278, 576.807 637.212, 576.768 628.551, 571.768 628.349, 571.651 " fill="none" stroke="#00B3FE" stroke-linecap="butt" stroke-linejoin="round" stroke-opacity="1.0" stroke-width="3.0" />
            <path d=" M 651.646, 585.102 651.589, 585.069 642.928, 580.069 638.725, 577.642 " fill="none" stroke="#00B3FE" stroke-linecap="butt" stroke-linejoin="round" stroke-opacity="1.0" stroke-width="3.0" />
            <path d=" M 660.867, 564.858 660.867, 574.858 660.867, 580.620 " fill="none" stroke="#00B3FE" stroke-linecap="butt" stroke-linejoin="round" stroke-opacity="1.0" stroke-width="3.0" />
            <path d=" M 660.867, 539.133 660.867, 549.133 660.867, 559.133 660.867, 563.085 " fill="none" stroke="#00B3FE" stroke-linecap="butt" stroke-linejoin="round" stroke-opacity="1.0" stroke-width="3.0" />
            <path d=" M 638.725, 620.610 647.385, 615.610 650.832, 613.620 " fill="none" stroke="#00B3FE" stroke-linecap="butt" stroke-linejoin="round" stroke-opacity="1.0" stroke-width="3.0" />
            <path d=" M 629.862, 625.728 637.212, 621.484 " fill="none" stroke="#00B3FE" stroke-linecap="butt" stroke-linejoin="round" stroke-opacity="1.0" stroke-width="3.0" />
            <path d=" M 609.971, 637.212 618.631, 632.212 627.241, 627.241 " fill="none" stroke="#00B3FE" stroke-linecap="butt" stroke-linejoin="round" stroke-opacity="1.0" stroke-width="3.0" />
            <path d=" M 600.000, 642.968 607.350, 638.725 " fill="none" stroke="#00B3FE" stroke-linecap="butt" stroke-linejoin="round" stroke-opacity="1.0" stroke-width="3.0" />
            <path d=" M 586.380, 650.832 595.040, 645.832 598.487, 643.842 " fill="none" stroke="#00B3FE" stroke-linecap="butt" stroke-linejoin="round" stroke-opacity="1.0" stroke-width="3.0" />
            <path d=" M 662.230, 592.884 662.292, 592.996 " fill="none" stroke="#00B3FE" stroke-linecap="butt" stroke-linejoin="round" stroke-opacity="1.0" stroke-width="3.0" />
            <path d=" M 598.487, 556.158 589.826, 551.158 586.380, 549.168 " fill="none" stroke="#00B3FE" stroke-linecap="butt" stroke-linejoin="round" stroke-opacity="1.0" stroke-width="3.0" />
            <path d=" M 607.350, 561.275 600.000, 557.032 " fill="none" stroke="#00B3FE" stroke-linecap="butt" stroke-linejoin="round" stroke-opacity="1.0" stroke-width="3.0" />
            <path d=" M 627.241, 572.759 618.581, 567.759 609.971, 562.788 " fill="none" stroke="#00B3FE" stroke-linecap="butt" stroke-linejoin="round" stroke-opacity="1.0" stroke-width="3.0" />
            <path d=" M 637.212, 578.516 629.862, 574.272 " fill="none" stroke="#00B3FE" stroke-linecap="butt" stroke-linejoin="round" stroke-opacity="1.0" stroke-width="3.0" />
            <path d=" M 650.832, 586.380 642.172, 581.380 638.725, 579.390 " fill="none" stroke="#00B3FE" stroke-linecap="butt" stroke-linejoin="round" stroke-opacity="1.0" stroke-width="3.0" />
            <path d=" M 635.142, 660.867 625.142, 660.867 619.380, 660.867 " fill="none" stroke="#00B3FE" stroke-linecap="butt" stroke-linejoin="round" stroke-opacity="1.0" stroke-width="3.0" />
            <path d=" M 660.867, 660.867 650.867, 660.867 640.867, 660.867 636.915, 660.867 " fill="none" stroke="#00B3FE" stroke-linecap="butt" stroke-linejoin="round" stroke-opacity="1.0" stroke-width="3.0" />
            <path d=" M 671.170, 601.536 676.170, 610.196 681.170, 618.856 683.146, 622.279 " fill="none" stroke="#00B3FE" stroke-linecap="butt" stroke-linejoin="round" stroke-opacity="1.0" stroke-width="3.0" />
            <path d=" M 662.403, 586.351 667.403, 595.011 670.283, 600.000 " fill="none" stroke="#00B3FE" stroke-linecap="butt" stroke-linejoin="round" stroke-opacity="1.0" stroke-width="3.0" />
            <path d=" M 670.283, 600.000 665.283, 608.660 662.403, 613.650 " fill="none" stroke="#00B3FE" stroke-linecap="butt" stroke-linejoin="round" stroke-opacity="1.0" stroke-width="3.0" />
            <path d=" M 683.146, 577.721 678.146, 586.381 673.146, 595.042 671.170, 598.464 " fill="none" stroke="#00B3FE" stroke-linecap="butt" stroke-linejoin="round" stroke-opacity="1.0" stroke-width="3.0" />
            <path d=" M 636.915, 539.133 646.915, 539.133 656.915, 539.133 660.867, 539.133 " fill="none" stroke="#00B3FE" stroke-linecap="butt" stroke-linejoin="round" stroke-opacity="1.0" stroke-width="3.0" />
            <path d=" M 619.381, 539.133 629.381, 539.133 635.142, 539.133 " fill="none" stroke="#00B3FE" stroke-linecap="butt" stroke-linejoin="round" stroke-opacity="1.0" stroke-width="3.0" />
            <path d=" M 660.867, 635.142 652.207, 640.142 647.218, 643.022 " fill="none" stroke="#00B3FE" stroke-linecap="butt" stroke-linejoin="round" stroke-opacity="1.0" stroke-width="3.0" />
            <path d=" M 683.146, 622.279 674.486, 627.279 665.825, 632.279 662.403, 634.255 " fill="none" stroke="#00B3FE" stroke-linecap="butt" stroke-linejoin="round" stroke-opacity="1.0" stroke-width="3.0" />
            <path d=" M 662.403, 565.745 671.063, 570.745 679.723, 575.745 683.146, 577.721 " fill="none" stroke="#00B3FE" stroke-linecap="butt" stroke-linejoin="round" stroke-opacity="1.0" stroke-width="3.0" />
            <path d=" M 647.218, 556.978 655.878, 561.978 660.867, 564.858 " fill="none" stroke="#00B3FE" stroke-linecap="butt" stroke-linejoin="round" stroke-opacity="1.0" stroke-width="3.0" />
        </g>
    </g>
</svg>
