<?xml version='1.0' encoding='ascii'?>
<svg xmlns="http://www.w3.org/2000/svg" height="1200" version="1.1" width="1200">
    <g id="View Layer_LineSet" inkscape:groupmode="lineset" inkscape:label="View Layer_LineSet" xmlns:inkscape="http://www.inkscape.org/namespaces/inkscape">
        <g id="strokes" inkscape:groupmode="layer" inkscape:label="strokes" xmlns:inkscape="http://www.inkscape.org/namespaces/inkscape">
            <path d=" M 532.823, 278.677 535.930, 277.898 545.822, 276.431 555.714, 274.964 559.731, 274.368 " fill="none" stroke="#0041FF" stroke-linecap="butt" stroke-linejoin="round" stroke-opacity="1.0" stroke-width="3.0" />
            <path d=" M 567.636, 271.403 562.954, 272.097 561.306, 272.342 560.863, 272.407 550.971, 273.875 541.080, 275.342 535.584, 276.157 531.319, 277.225 529.834, 277.597 529.488, 277.684 519.788, 280.114 510.088, 282.544 504.152, 284.030 494.736, 287.399 485.321, 290.768 475.905, 294.137 473.643, 294.947 464.603, 299.222 455.563, 303.498 446.523, 307.773 444.351, 308.801 435.773, 313.942 427.196, 319.083 418.619, 324.224 416.558, 325.459 408.526, 331.416 400.494, 337.373 392.462, 343.330 390.531, 344.762 383.122, 351.477 375.712, 358.193 368.303, 364.909 366.522, 366.522 359.807, 373.932 353.091, 381.341 346.376, 388.751 344.762, 390.531 338.805, 398.563 332.848, 406.596 326.891, 414.628 325.459, 416.558 320.318, 425.135 315.177, 433.712 310.036, 442.290 308.801, 444.351 304.525, 453.391 300.250, 462.431 295.974, 471.470 294.947, 473.643 291.578, 483.058 288.209, 492.474 284.840, 501.889 284.030, 504.152 281.601, 513.852 279.171, 523.552 276.741, 533.253 276.157, 535.584 274.690, 545.475 273.223, 555.367 271.755, 565.259 271.403, 567.636 270.912, 577.624 270.421, 587.612 269.931, 597.600 269.813, 600.000 270.303, 609.988 270.794, 619.976 271.285, 629.964 271.403, 632.364 272.870, 642.256 274.337, 652.148 275.805, 662.039 276.157, 664.416 278.587, 674.117 281.017, 683.817 283.447, 693.517 284.030, 695.848 285.715, 700.557 285.860, 700.961 286.416, 702.515 289.785, 711.931 293.154, 721.346 294.947, 726.357 296.671, 730.002 296.853, 730.388 297.532, 731.823 301.807, 740.862 306.083, 749.902 308.801, 755.649 313.942, 764.227 319.083, 772.804 324.224, 781.381 325.459, 783.442 331.416, 791.474 334.798, 796.034 335.766, 797.339 336.026, 797.690 341.983, 805.722 344.762, 809.469 351.477, 816.878 355.338, 821.138 356.421, 822.333 356.701, 822.642 363.417, 830.051 366.522, 833.478 373.932, 840.193 381.341, 846.909 388.751, 853.625 390.532, 855.238 398.564, 861.195 406.596, 867.152 414.628, 873.109 416.558, 874.541 425.135, 879.682 433.712, 884.823 442.290, 889.964 444.351, 891.199 453.391, 895.475 462.431, 899.750 471.471, 904.026 473.643, 905.053 483.058, 908.422 492.474, 911.791 501.889, 915.160 504.152, 915.970 513.852, 918.399 523.552, 920.829 533.253, 923.259 535.584, 923.843 545.476, 925.310 555.367, 926.777 565.259, 928.245 567.636, 928.597 577.624, 929.088 587.612, 929.579 597.600, 930.069 600.000, 930.187 609.988, 929.697 619.976, 929.206 629.964, 928.715 632.364, 928.597 642.256, 927.130 652.148, 925.663 662.040, 924.195 664.417, 923.843 674.117, 921.413 683.817, 918.983 693.518, 916.553 695.849, 915.969 705.264, 912.601 714.680, 909.232 724.095, 905.863 726.358, 905.053 735.397, 900.778 744.437, 896.502 753.477, 892.227 755.650, 891.199 764.227, 886.058 772.804, 880.917 781.381, 875.776 783.443, 874.541 791.475, 868.584 799.507, 862.627 807.539, 856.670 809.469, 855.238 816.878, 848.522 824.288, 841.807 831.697, 835.091 833.478, 833.477 840.194, 826.068 844.534, 821.280 844.779, 821.009 845.827, 819.853 852.542, 812.443 855.238, 809.468 861.195, 801.436 863.974, 797.690 864.234, 797.339 865.202, 796.034 871.159, 788.002 874.541, 783.442 879.682, 774.865 884.823, 766.287 889.964, 757.710 891.199, 755.649 895.475, 746.609 899.750, 737.569 902.468, 731.823 903.147, 730.388 903.329, 730.002 905.053, 726.357 908.422, 716.942 911.791, 707.526 913.635, 702.373 914.181, 700.847 914.316, 700.471 915.970, 695.848 918.399, 686.148 920.829, 676.448 923.259, 666.747 923.843, 664.416 925.310, 654.525 926.777, 644.633 928.245, 634.741 928.597, 632.364 929.088, 622.376 929.579, 612.388 930.069, 602.400 930.187, 600.000 929.697, 590.012 929.206, 580.024 928.715, 570.036 928.597, 567.636 927.130, 557.744 925.663, 547.853 924.195, 537.961 923.843, 535.584 921.413, 525.884 918.983, 516.183 916.554, 506.483 915.970, 504.152 912.601, 494.737 909.232, 485.321 905.863, 475.906 905.053, 473.643 900.778, 464.603 896.502, 455.563 892.227, 446.523 891.199, 444.351 886.058, 435.774 880.917, 427.197 875.776, 418.619 874.541, 416.558 868.584, 408.526 862.627, 400.494 856.670, 392.462 855.239, 390.532 848.523, 383.122 841.807, 375.713 835.092, 368.303 833.478, 366.523 826.069, 359.807 818.659, 353.092 811.250, 346.376 809.469, 344.762 801.437, 338.805 793.405, 332.848 785.373, 326.891 783.443, 325.460 774.866, 320.319 766.288, 315.178 757.711, 310.037 755.650, 308.801 746.610, 304.526 737.570, 300.250 728.530, 295.974 726.358, 294.947 716.943, 291.578 707.527, 288.209 698.112, 284.840 695.849, 284.031 686.149, 281.601 676.449, 279.171 670.315, 277.635 669.944, 277.542 668.439, 277.165 664.417, 276.157 654.526, 274.690 644.634, 273.223 639.137, 272.407 638.694, 272.341 637.046, 272.097 632.365, 271.403 622.377, 270.912 612.389, 270.421 602.401, 269.931 600.000, 269.813 590.012, 270.303 580.024, 270.794 570.036, 271.285 567.636, 271.403 " fill="none" stroke="#0041FF" stroke-linecap="butt" stroke-linejoin="round" stroke-opacity="1.0" stroke-width="3.0" />
            <path d=" M 287.988, 701.645 287.843, 701.240 285.729, 695.333 283.299, 685.633 280.870, 675.932 278.440, 666.232 277.898, 664.070 276.431, 654.178 274.964, 644.287 273.496, 634.395 273.169, 632.190 272.679, 622.202 272.188, 612.214 271.697, 602.226 271.588, 600.000 272.079, 590.012 272.569, 580.024 273.060, 570.036 273.169, 567.810 274.637, 557.918 276.104, 548.026 277.571, 538.135 277.898, 535.930 280.328, 526.230 282.758, 516.529 285.188, 506.829 285.729, 504.667 289.098, 495.252 292.467, 485.836 295.836, 476.421 296.587, 474.322 300.862, 465.282 305.138, 456.242 309.413, 447.202 310.366, 445.188 315.507, 436.610 320.648, 428.033 325.789, 419.456 326.935, 417.544 332.892, 409.512 338.849, 401.480 344.806, 393.448 346.134, 391.658 352.850, 384.248 359.565, 376.839 366.281, 369.429 367.778, 367.778 375.187, 361.062 382.597, 354.346 390.006, 347.631 391.658, 346.134 399.690, 340.177 407.722, 334.220 415.754, 328.263 417.544, 326.935 426.121, 321.794 434.699, 316.653 443.276, 311.512 445.188, 310.366 454.227, 306.091 463.267, 301.815 472.307, 297.540 474.322, 296.587 483.738, 293.218 493.153, 289.849 502.568, 286.480 504.667, 285.729 514.367, 283.299 524.068, 280.870 530.912, 279.155 531.269, 279.066 " fill="none" stroke="#0041FF" stroke-linecap="butt" stroke-linejoin="round" stroke-opacity="1.0" stroke-width="3.0" />
            <path d=" M 297.749, 728.135 296.587, 725.678 293.218, 716.263 289.849, 706.847 288.544, 703.199 " fill="none" stroke="#0041FF" stroke-linecap="butt" stroke-linejoin="round" stroke-opacity="1.0" stroke-width="3.0" />
            <path d=" M 337.006, 796.034 331.049, 788.002 326.935, 782.456 321.794, 773.879 316.653, 765.302 311.512, 756.724 310.366, 754.812 306.091, 745.773 301.815, 736.733 298.610, 729.955 " fill="none" stroke="#0041FF" stroke-linecap="butt" stroke-linejoin="round" stroke-opacity="1.0" stroke-width="3.0" />
            <path d=" M 355.799, 819.006 349.083, 811.597 346.134, 808.343 340.177, 800.310 338.234, 797.690 " fill="none" stroke="#0041FF" stroke-linecap="butt" stroke-linejoin="round" stroke-opacity="1.0" stroke-width="3.0" />
            <path d=" M 844.292, 818.905 843.990, 819.239 837.275, 826.648 832.223, 832.222 824.813, 838.938 817.404, 845.653 809.994, 852.369 808.343, 853.866 800.311, 859.823 792.279, 865.780 784.246, 871.737 782.456, 873.064 773.879, 878.206 765.302, 883.347 756.724, 888.488 754.813, 889.633 745.773, 893.909 736.733, 898.185 727.693, 902.460 725.678, 903.413 716.263, 906.782 706.847, 910.151 697.432, 913.520 695.333, 914.271 685.633, 916.701 675.933, 919.130 666.232, 921.560 664.070, 922.102 654.179, 923.569 644.287, 925.036 634.395, 926.504 632.190, 926.831 622.202, 927.321 612.214, 927.812 602.226, 928.303 600.000, 928.412 590.012, 927.921 580.024, 927.431 570.036, 926.940 567.810, 926.831 557.918, 925.363 548.027, 923.896 538.135, 922.429 535.930, 922.102 526.230, 919.672 516.530, 917.242 506.829, 914.812 504.667, 914.271 495.252, 910.902 485.836, 907.533 476.421, 904.164 474.322, 903.413 465.282, 899.138 456.243, 894.862 447.203, 890.587 445.188, 889.634 436.611, 884.493 428.033, 879.352 419.456, 874.211 417.544, 873.065 409.512, 867.108 401.480, 861.151 393.448, 855.194 391.658, 853.866 384.248, 847.151 376.839, 840.435 369.429, 833.719 367.778, 832.223 361.062, 824.813 357.162, 820.510 356.882, 820.201 " fill="none" stroke="#0041FF" stroke-linecap="butt" stroke-linejoin="round" stroke-opacity="1.0" stroke-width="3.0" />
            <path d=" M 861.766, 797.690 855.810, 805.722 853.866, 808.342 847.151, 815.752 845.394, 817.690 " fill="none" stroke="#0041FF" stroke-linecap="butt" stroke-linejoin="round" stroke-opacity="1.0" stroke-width="3.0" />
            <path d=" M 901.390, 729.955 897.115, 738.995 892.839, 748.035 889.634, 754.812 884.493, 763.390 879.352, 771.967 874.211, 780.544 873.065, 782.456 867.108, 790.488 862.995, 796.034 " fill="none" stroke="#0041FF" stroke-linecap="butt" stroke-linejoin="round" stroke-opacity="1.0" stroke-width="3.0" />
            <path d=" M 911.537, 702.972 908.168, 712.388 904.800, 721.803 903.413, 725.678 902.251, 728.135 " fill="none" stroke="#0041FF" stroke-linecap="butt" stroke-linejoin="round" stroke-opacity="1.0" stroke-width="3.0" />
            <path d=" M 668.444, 278.994 668.815, 279.087 678.515, 281.517 688.215, 283.946 695.334, 285.729 704.749, 289.098 714.165, 292.467 723.580, 295.836 725.679, 296.587 734.719, 300.863 743.758, 305.138 752.798, 309.414 754.813, 310.367 763.390, 315.508 771.968, 320.649 780.545, 325.790 782.457, 326.936 790.489, 332.893 798.521, 338.850 806.553, 344.807 808.343, 346.134 815.753, 352.850 823.162, 359.566 830.571, 366.281 832.223, 367.778 838.938, 375.188 845.654, 382.597 852.370, 390.007 853.866, 391.658 859.823, 399.690 865.780, 407.722 871.737, 415.754 873.065, 417.544 878.206, 426.122 883.347, 434.699 888.488, 443.276 889.634, 445.188 893.909, 454.228 898.185, 463.268 902.460, 472.308 903.413, 474.323 906.782, 483.738 910.151, 493.153 913.520, 502.569 914.271, 504.667 916.701, 514.368 919.130, 524.068 921.560, 533.768 922.102, 535.930 923.569, 545.822 925.036, 555.714 926.504, 565.606 926.831, 567.810 927.321, 577.798 927.812, 587.786 928.303, 597.774 928.412, 600.000 927.921, 609.988 927.431, 619.976 926.940, 629.964 926.831, 632.190 925.363, 642.082 923.896, 651.974 922.429, 661.865 922.102, 664.070 919.672, 673.770 917.242, 683.471 914.812, 693.171 914.271, 695.333 912.218, 701.070 912.083, 701.446 " fill="none" stroke="#0041FF" stroke-linecap="butt" stroke-linejoin="round" stroke-opacity="1.0" stroke-width="3.0" />
            <path d=" M 640.269, 274.368 650.160, 275.835 660.052, 277.302 664.071, 277.898 666.938, 278.617 " fill="none" stroke="#0041FF" stroke-linecap="butt" stroke-linejoin="round" stroke-opacity="1.0" stroke-width="3.0" />
            <path d=" M 561.822, 274.057 567.810, 273.169 577.798, 272.679 587.786, 272.188 597.774, 271.697 600.000, 271.588 609.988, 272.079 619.976, 272.569 629.964, 273.060 632.191, 273.169 638.178, 274.057 " fill="none" stroke="#0041FF" stroke-linecap="butt" stroke-linejoin="round" stroke-opacity="1.0" stroke-width="3.0" />
            <path d=" M 471.999, 429.636 480.031, 423.679 481.472, 422.610 490.049, 417.469 498.627, 412.328 499.430, 411.847 508.470, 407.571 517.510, 403.296 518.357, 402.895 527.772, 399.526 537.187, 396.158 538.069, 395.842 547.770, 393.412 557.470, 390.982 558.379, 390.755 568.270, 389.287 578.162, 387.820 579.089, 387.683 589.077, 387.192 599.065, 386.701 600.000, 386.655 609.988, 387.146 619.976, 387.637 620.912, 387.683 630.804, 389.150 640.696, 390.617 641.622, 390.755 651.322, 393.185 661.023, 395.615 661.931, 395.842 671.347, 399.211 680.762, 402.580 681.644, 402.896 690.684, 407.171 699.724, 411.447 700.570, 411.847 709.148, 416.988 717.725, 422.129 718.528, 422.611 726.560, 428.568 728.001, 429.636 " fill="none" stroke="#0041FF" stroke-linecap="butt" stroke-linejoin="round" stroke-opacity="1.0" stroke-width="3.0" />
            <path d=" M 578.925, 386.018 569.033, 387.485 559.141, 388.952 558.052, 389.114 548.352, 391.544 538.652, 393.974 537.584, 394.241 528.168, 397.610 518.753, 400.979 517.716, 401.350 508.676, 405.625 499.637, 409.901 498.641, 410.371 490.064, 415.513 481.487, 420.654 480.543, 421.219 474.099, 425.998 471.464, 427.952 470.756, 428.478 463.594, 433.789 456.185, 440.505 448.775, 447.220 447.960, 447.960 441.244, 455.369 434.528, 462.779 433.789, 463.594 427.832, 471.626 421.875, 479.658 421.219, 480.543 416.078, 489.120 410.937, 497.697 410.371, 498.641 406.096, 507.681 401.820, 516.721 401.350, 517.716 397.981, 527.132 394.612, 536.547 394.241, 537.584 391.811, 547.284 389.381, 556.984 389.114, 558.052 387.647, 567.944 386.752, 573.977 386.612, 574.922 386.091, 578.434 386.018, 578.925 385.527, 588.913 385.036, 598.901 384.982, 600.000 385.473, 609.988 385.964, 619.976 386.018, 621.075 387.485, 630.967 388.952, 640.859 389.114, 641.948 391.544, 651.648 393.974, 661.349 394.241, 662.416 397.610, 671.832 400.979, 681.247 401.350, 682.284 405.625, 691.324 409.901, 700.363 410.371, 701.359 415.513, 709.936 420.654, 718.513 421.220, 719.457 427.177, 727.489 433.134, 735.522 433.789, 736.406 440.505, 743.815 447.220, 751.225 447.960, 752.040 455.369, 758.756 462.779, 765.472 463.594, 766.211 471.626, 772.168 479.659, 778.125 480.543, 778.781 489.120, 783.922 497.697, 789.063 498.642, 789.629 507.681, 793.904 512.185, 796.034 514.944, 797.339 515.686, 797.690 517.716, 798.650 527.132, 802.019 536.547, 805.388 537.584, 805.759 547.284, 808.189 556.984, 810.619 558.052, 810.886 567.944, 812.353 577.836, 813.821 578.925, 813.982 588.913, 814.473 598.901, 814.964 600.000, 815.018 609.988, 814.527 619.976, 814.036 621.076, 813.982 630.967, 812.515 640.859, 811.048 641.948, 810.886 651.648, 808.456 661.349, 806.026 662.417, 805.759 671.832, 802.390 681.247, 799.021 682.284, 798.650 684.314, 797.690 685.056, 797.339 687.815, 796.034 696.855, 791.758 701.359, 789.628 709.936, 784.487 718.513, 779.346 719.458, 778.780 727.490, 772.823 735.522, 766.866 736.406, 766.211 743.815, 759.495 751.225, 752.779 752.041, 752.040 758.756, 744.631 765.472, 737.221 766.211, 736.406 772.168, 728.373 778.125, 720.341 778.781, 719.457 783.922, 710.880 789.063, 702.303 789.629, 701.358 793.904, 692.319 798.180, 683.279 798.650, 682.284 802.019, 672.868 805.388, 663.453 805.759, 662.416 808.189, 652.716 810.619, 643.016 810.886, 641.948 812.353, 632.056 813.821, 622.164 813.982, 621.075 814.473, 611.088 814.964, 601.100 815.018, 600.000 814.527, 590.012 814.036, 580.024 813.982, 578.925 813.909, 578.434 813.388, 574.921 813.248, 573.977 811.781, 564.085 810.886, 558.052 808.456, 548.352 806.026, 538.652 805.759, 537.584 802.390, 528.168 799.021, 518.753 798.650, 517.717 794.375, 508.677 790.099, 499.637 789.629, 498.642 784.488, 490.064 779.347, 481.487 778.781, 480.543 772.824, 472.511 766.867, 464.479 766.211, 463.595 759.495, 456.185 752.780, 448.776 752.041, 447.960 744.631, 441.244 737.222, 434.529 736.406, 433.789 729.244, 428.478 728.536, 427.952 725.901, 425.998 719.458, 421.220 710.880, 416.079 702.303, 410.938 701.359, 410.372 692.319, 406.096 683.279, 401.821 682.284, 401.350 672.869, 397.981 663.453, 394.612 662.417, 394.241 652.717, 391.811 643.016, 389.382 641.949, 389.114 632.057, 387.647 622.165, 386.179 621.076, 386.018 611.088, 385.527 601.100, 385.036 600.000, 384.982 590.012, 385.473 580.024, 385.964 578.925, 386.018 " fill="none" stroke="#0041FF" stroke-linecap="butt" stroke-linejoin="round" stroke-opacity="1.0" stroke-width="3.0" />
            <path d=" M 389.025, 570.040 390.492, 560.148 390.755, 558.379 393.185, 548.678 395.614, 538.978 395.842, 538.069 399.211, 528.654 402.580, 519.238 402.895, 518.357 407.171, 509.317 411.446, 500.277 411.847, 499.430 416.988, 490.853 422.129, 482.276 422.610, 481.472 428.567, 473.440 434.524, 465.408 435.082, 464.656 441.798, 457.246 448.514, 449.837 449.143, 449.143 456.552, 442.427 463.962, 435.711 464.656, 435.082 468.655, 432.116 " fill="none" stroke="#0041FF" stroke-linecap="butt" stroke-linejoin="round" stroke-opacity="1.0" stroke-width="3.0" />
            <path d=" M 516.093, 796.034 507.053, 791.759 499.430, 788.153 490.853, 783.012 482.276, 777.871 481.472, 777.390 473.440, 771.433 465.408, 765.476 464.656, 764.918 457.246, 758.202 449.837, 751.487 449.143, 750.857 442.427, 743.448 435.711, 736.038 435.082, 735.344 429.125, 727.312 423.168, 719.280 422.611, 718.528 417.469, 709.951 412.328, 701.373 411.847, 700.570 407.571, 691.530 403.296, 682.490 402.895, 681.643 399.526, 672.228 396.158, 662.813 395.842, 661.931 393.412, 652.230 390.982, 642.530 390.755, 641.622 389.287, 631.730 387.820, 621.838 387.683, 620.911 387.192, 610.924 386.701, 600.936 386.655, 600.000 387.146, 590.012 387.637, 580.024 387.683, 579.089 388.364, 574.496 " fill="none" stroke="#0041FF" stroke-linecap="butt" stroke-linejoin="round" stroke-opacity="1.0" stroke-width="3.0" />
            <path d=" M 680.008, 797.690 670.593, 801.059 661.931, 804.158 652.231, 806.588 642.530, 809.018 641.622, 809.245 631.730, 810.712 621.838, 812.180 620.912, 812.317 610.924, 812.808 600.936, 813.299 600.000, 813.345 590.012, 812.854 580.024, 812.363 579.089, 812.317 569.197, 810.850 559.305, 809.383 558.379, 809.245 548.678, 806.815 538.978, 804.386 538.069, 804.158 528.654, 800.789 519.992, 797.690 " fill="none" stroke="#0041FF" stroke-linecap="butt" stroke-linejoin="round" stroke-opacity="1.0" stroke-width="3.0" />
            <path d=" M 811.636, 574.496 812.317, 579.089 812.808, 589.077 813.299, 599.065 813.345, 600.000 812.854, 609.988 812.363, 619.976 812.317, 620.911 810.850, 630.803 809.383, 640.695 809.245, 641.621 806.815, 651.322 804.386, 661.022 804.158, 661.931 800.789, 671.346 797.420, 680.762 797.105, 681.643 792.829, 690.683 788.554, 699.723 788.153, 700.570 783.012, 709.147 777.871, 717.724 777.390, 718.528 771.433, 726.560 765.476, 734.592 764.918, 735.344 758.202, 742.754 751.487, 750.163 750.858, 750.857 743.448, 757.573 736.039, 764.288 735.345, 764.917 727.312, 770.874 719.280, 776.831 718.528, 777.389 709.951, 782.530 701.373, 787.671 700.570, 788.153 691.530, 792.429 683.907, 796.034 " fill="none" stroke="#0041FF" stroke-linecap="butt" stroke-linejoin="round" stroke-opacity="1.0" stroke-width="3.0" />
            <path d=" M 731.345, 432.116 735.345, 435.083 742.754, 441.798 750.164, 448.514 750.858, 449.143 757.573, 456.552 764.289, 463.962 764.918, 464.656 770.875, 472.688 776.832, 480.720 777.390, 481.472 782.531, 490.050 787.672, 498.627 788.153, 499.430 792.429, 508.470 796.704, 517.510 797.105, 518.357 800.474, 527.772 803.843, 537.188 804.158, 538.070 806.588, 547.770 809.018, 557.470 809.245, 558.379 810.713, 568.271 810.975, 570.040 " fill="none" stroke="#0041FF" stroke-linecap="butt" stroke-linejoin="round" stroke-opacity="1.0" stroke-width="3.0" />
            <path d=" M 308.913, 712.109 311.576, 713.588 319.559, 719.113 326.962, 725.394 333.713, 732.371 339.749, 739.975 345.010, 748.134 349.446, 756.770 353.013, 765.799 355.679, 775.134 357.417, 784.686 358.210, 794.362 358.183, 796.034 " fill="none" stroke="#0041FF" stroke-linecap="butt" stroke-linejoin="round" stroke-opacity="1.0" stroke-width="3.0" />
            <path d=" M 309.759, 710.644 312.614, 712.230 320.709, 717.833 328.216, 724.202 335.063, 731.277 341.183, 738.988 346.518, 747.263 351.017, 756.020 354.635, 765.176 357.338, 774.643 359.100, 784.329 359.905, 794.141 359.874, 796.034 " fill="none" stroke="#0041FF" stroke-linecap="butt" stroke-linejoin="round" stroke-opacity="1.0" stroke-width="3.0" />
            <path d=" M 340.723, 739.235 334.592, 731.510 327.733, 724.423 320.213, 718.043 312.103, 712.430 309.548, 711.010 308.407, 710.376 308.100, 710.205 303.482, 707.639 294.434, 703.716 287.988, 701.645 286.562, 701.187 285.860, 700.961 285.044, 700.699 275.404, 698.617 265.606, 697.490 255.744, 697.329 245.915, 698.135 236.280, 699.888 236.212, 699.900 226.728, 702.608 217.556, 706.233 208.783, 710.739 200.494, 716.084 192.769, 722.215 185.682, 729.073 179.301, 736.594 173.689, 744.704 168.898, 753.324 164.975, 762.373 161.958, 771.763 159.876, 781.403 158.749, 791.201 158.587, 801.062 159.393, 810.892 161.159, 820.595 163.867, 830.078 167.492, 839.251 171.998, 848.024 177.342, 856.313 183.473, 864.038 190.332, 871.125 197.853, 877.505 205.962, 883.118 214.583, 887.909 223.632, 891.832 233.022, 894.849 242.662, 896.931 252.460, 898.058 262.321, 898.219 272.151, 897.413 281.854, 895.648 291.337, 892.940 300.509, 889.315 309.282, 884.809 317.571, 879.464 325.296, 873.333 332.383, 866.474 332.446, 866.400 338.764, 858.954 344.377, 850.844 349.168, 842.224 353.090, 833.175 356.107, 823.785 356.421, 822.333 356.573, 821.629 356.882, 820.201 358.190, 814.145 359.317, 804.347 359.426, 797.690 359.431, 797.339 359.453, 796.034 359.478, 794.486 358.672, 784.656 356.907, 774.953 354.198, 765.470 350.574, 756.298 346.068, 747.524 340.723, 739.235 " fill="none" stroke="#0041FF" stroke-linecap="butt" stroke-linejoin="round" stroke-opacity="1.0" stroke-width="3.0" />
            <path d=" M 288.544, 703.199 294.183, 705.011 303.090, 708.873 307.466, 711.304 " fill="none" stroke="#0041FF" stroke-linecap="butt" stroke-linejoin="round" stroke-opacity="1.0" stroke-width="3.0" />
            <path d=" M 287.843, 701.240 294.976, 703.532 304.009, 707.448 308.312, 709.839 " fill="none" stroke="#0041FF" stroke-linecap="butt" stroke-linejoin="round" stroke-opacity="1.0" stroke-width="3.0" />
            <path d=" M 355.338, 821.138 354.892, 823.203 351.923, 832.446 348.061, 841.353 343.345, 849.839 337.820, 857.822 331.539, 865.225 324.563, 871.976 316.959, 878.012 308.799, 883.272 300.164, 887.708 291.135, 891.276 281.800, 893.942 272.248, 895.680 262.572, 896.473 252.865, 896.314 243.221, 895.205 233.731, 893.155 224.488, 890.186 215.581, 886.324 207.095, 881.608 199.112, 876.083 191.709, 869.802 184.958, 862.826 178.922, 855.222 173.661, 847.062 169.226, 838.427 165.658, 829.398 162.992, 820.062 161.254, 810.511 160.461, 800.835 160.619, 791.128 161.729, 781.483 163.778, 771.994 166.748, 762.751 170.610, 753.844 175.326, 745.358 180.851, 737.375 187.132, 729.972 194.108, 723.220 201.712, 717.185 209.872, 711.924 218.507, 707.488 227.536, 703.920 236.871, 701.255 246.423, 699.517 256.099, 698.723 265.806, 698.882 275.450, 699.992 284.940, 702.041 286.416, 702.515 " fill="none" stroke="#0041FF" stroke-linecap="butt" stroke-linejoin="round" stroke-opacity="1.0" stroke-width="3.0" />
            <path d=" M 236.280, 699.888 236.857, 699.723 246.543, 697.960 256.355, 697.156 266.199, 697.317 275.980, 698.442 285.603, 700.520 285.715, 700.557 " fill="none" stroke="#0041FF" stroke-linecap="butt" stroke-linejoin="round" stroke-opacity="1.0" stroke-width="3.0" />
            <path d=" M 356.701, 822.642 356.540, 823.388 353.529, 832.761 349.613, 841.794 344.830, 850.399 339.228, 858.494 332.858, 866.002 332.446, 866.400 " fill="none" stroke="#0041FF" stroke-linecap="butt" stroke-linejoin="round" stroke-opacity="1.0" stroke-width="3.0" />
            <path d=" M 358.156, 797.690 358.052, 804.069 356.942, 813.713 355.799, 819.006 " fill="none" stroke="#0041FF" stroke-linecap="butt" stroke-linejoin="round" stroke-opacity="1.0" stroke-width="3.0" />
            <path d=" M 359.847, 797.690 359.744, 803.984 358.619, 813.765 357.162, 820.510 " fill="none" stroke="#0041FF" stroke-linecap="butt" stroke-linejoin="round" stroke-opacity="1.0" stroke-width="3.0" />
            <path d=" M 902.468, 731.823 907.468, 740.483 912.468, 749.143 917.468, 757.803 922.468, 766.464 927.468, 775.124 932.468, 783.784 937.468, 792.444 939.541, 796.034 929.541, 796.034 919.541, 796.034 909.541, 796.034 899.541, 796.034 889.541, 796.034 879.541, 796.034 869.541, 796.034 865.202, 796.034 " fill="none" stroke="#0041FF" stroke-linecap="butt" stroke-linejoin="round" stroke-opacity="1.0" stroke-width="3.0" />
            <path d=" M 260.459, 796.034 258.199, 797.339 257.591, 797.690 " fill="none" stroke="#0041FF" stroke-linecap="butt" stroke-linejoin="round" stroke-opacity="1.0" stroke-width="3.0" />
            <path d=" M 257.591, 797.690 267.591, 797.690 277.591, 797.690 287.591, 797.690 297.591, 797.690 307.591, 797.690 317.591, 797.690 327.591, 797.690 336.026, 797.690 336.755, 797.690 338.234, 797.690 348.234, 797.690 358.156, 797.690 359.426, 797.690 359.847, 797.690 369.847, 797.690 379.847, 797.690 389.847, 797.690 399.847, 797.690 409.847, 797.690 419.847, 797.690 429.847, 797.690 439.847, 797.690 449.847, 797.690 459.847, 797.690 469.847, 797.690 479.847, 797.690 489.847, 797.690 499.847, 797.690 509.847, 797.690 515.686, 797.690 516.577, 797.690 519.992, 797.690 529.992, 797.690 539.992, 797.690 549.992, 797.690 559.992, 797.690 569.992, 797.690 579.992, 797.690 589.992, 797.690 599.992, 797.690 609.992, 797.690 619.992, 797.690 629.992, 797.690 639.992, 797.690 649.992, 797.690 659.992, 797.690 669.992, 797.690 680.008, 797.690 683.423, 797.690 684.314, 797.690 694.314, 797.690 704.314, 797.690 714.314, 797.690 724.314, 797.690 734.314, 797.690 744.314, 797.690 754.314, 797.690 764.314, 797.690 774.314, 797.690 784.314, 797.690 794.314, 797.690 804.314, 797.690 814.314, 797.690 824.314, 797.690 834.314, 797.690 841.532, 797.690 841.967, 797.690 843.230, 797.690 853.230, 797.690 861.766, 797.690 863.245, 797.690 863.974, 797.690 873.974, 797.690 883.974, 797.690 893.974, 797.690 903.974, 797.690 913.974, 797.690 923.974, 797.690 933.974, 797.690 942.409, 797.690 937.409, 789.030 932.409, 780.369 927.409, 771.709 922.409, 763.049 917.409, 754.389 912.409, 745.728 907.409, 737.068 903.329, 730.002 902.973, 729.386 902.251, 728.135 897.251, 719.474 892.567, 711.361 891.937, 710.271 891.721, 709.896 886.721, 701.236 881.721, 692.576 876.721, 683.915 871.721, 675.255 866.721, 666.595 861.721, 657.935 856.721, 649.274 851.721, 640.614 846.721, 631.954 841.721, 623.294 836.721, 614.633 831.721, 605.973 826.721, 597.313 821.721, 588.653 816.721, 579.992 813.248, 573.977 812.730, 573.079 810.975, 570.040 805.975, 561.379 800.975, 552.719 795.975, 544.059 790.975, 535.399 785.975, 526.738 780.975, 518.078 775.975, 509.418 770.975, 500.758 765.975, 492.097 760.975, 483.437 755.975, 474.777 750.975, 466.117 745.975, 457.456 740.975, 448.796 735.975, 440.136 731.345, 432.116 729.723, 429.308 729.244, 428.478 724.244, 419.818 719.244, 411.157 714.244, 402.497 709.244, 393.837 704.244, 385.177 699.244, 376.516 694.244, 367.856 689.244, 359.196 684.244, 350.536 679.244, 341.875 674.244, 333.215 669.244, 324.555 664.244, 315.895 659.244, 307.234 654.244, 298.574 650.858, 292.710 650.653, 292.354 650.015, 291.248 645.015, 282.588 640.269, 274.368 639.510, 273.054 639.137, 272.407 634.137, 263.747 629.137, 255.087 624.137, 246.426 619.137, 237.766 614.137, 229.106 609.137, 220.446 604.137, 211.785 600.000, 204.620 595.000, 213.281 590.000, 221.941 585.000, 230.601 580.000, 239.261 575.000, 247.922 570.000, 256.582 565.000, 265.242 560.863, 272.407 560.490, 273.054 559.731, 274.368 554.731, 283.028 549.960, 291.292 549.328, 292.387 549.111, 292.762 544.111, 301.422 539.111, 310.083 534.111, 318.743 529.111, 327.403 524.111, 336.063 519.111, 344.724 514.111, 353.384 509.111, 362.044 504.111, 370.704 499.111, 379.365 494.111, 388.025 489.111, 396.685 484.111, 405.345 479.111, 414.006 474.111, 422.666 470.756, 428.478 470.277, 429.308 468.655, 432.116 463.655, 440.776 458.655, 449.437 453.655, 458.097 448.655, 466.757 443.655, 475.417 438.655, 484.078 433.655, 492.738 428.655, 501.398 423.655, 510.058 418.655, 518.719 413.655, 527.379 408.655, 536.039 403.655, 544.699 398.655, 553.360 393.655, 562.020 389.025, 570.040 387.270, 573.079 386.752, 573.977 381.752, 582.637 376.752, 591.298 371.752, 599.958 366.752, 608.618 361.752, 617.279 356.752, 625.939 351.752, 634.599 346.752, 643.259 341.752, 651.919 336.752, 660.580 331.752, 669.240 326.752, 677.900 321.752, 686.561 316.752, 695.221 311.752, 703.881 308.312, 709.839 308.100, 710.205 307.466, 711.304 302.466, 719.965 297.749, 728.135 297.027, 729.386 296.671, 730.002 291.671, 738.663 286.671, 747.323 281.671, 755.983 276.671, 764.643 271.671, 773.303 266.671, 781.964 261.671, 790.624 257.591, 797.690 " fill="none" stroke="#0041FF" stroke-linecap="butt" stroke-linejoin="round" stroke-opacity="1.0" stroke-width="3.0" />
            <path d=" M 942.409, 797.690 941.801, 797.339 939.541, 796.034 " fill="none" stroke="#0041FF" stroke-linecap="butt" stroke-linejoin="round" stroke-opacity="1.0" stroke-width="3.0" />
            <path d=" M 562.954, 272.097 567.954, 263.437 572.954, 254.777 577.954, 246.116 582.954, 237.456 587.954, 228.796 592.954, 220.136 597.954, 211.475 600.000, 207.932 605.000, 216.592 610.000, 225.252 615.000, 233.913 620.000, 242.573 625.000, 251.233 630.000, 259.893 635.000, 268.554 637.046, 272.097 " fill="none" stroke="#0041FF" stroke-linecap="butt" stroke-linejoin="round" stroke-opacity="1.0" stroke-width="3.0" />
            <path d=" M 600.000, 204.620 600.000, 207.932 " fill="none" stroke="#0041FF" stroke-linecap="butt" stroke-linejoin="round" stroke-opacity="1.0" stroke-width="3.0" />
            <path d=" M 334.798, 796.034 324.798, 796.034 314.798, 796.034 304.798, 796.034 294.798, 796.034 284.798, 796.034 274.798, 796.034 264.798, 796.034 260.459, 796.034 265.459, 787.374 270.459, 778.714 275.459, 770.053 280.459, 761.393 285.459, 752.733 290.459, 744.073 295.459, 735.412 297.532, 731.823 " fill="none" stroke="#0041FF" stroke-linecap="butt" stroke-linejoin="round" stroke-opacity="1.0" stroke-width="3.0" />
            <path d=" M 531.319, 277.225 525.514, 271.227 519.478, 263.623 514.218, 255.463 509.782, 246.828 506.214, 237.799 503.548, 228.464 501.810, 218.912 501.017, 209.236 501.175, 199.529 502.285, 189.885 504.335, 180.395 507.304, 171.152 511.166, 162.245 515.882, 153.759 521.407, 145.776 527.688, 138.373 534.664, 131.621 542.268, 125.586 550.428, 120.325 559.063, 115.890 568.092, 112.322 577.427, 109.656 586.979, 107.918 596.655, 107.125 606.362, 107.283 616.006, 108.393 625.496, 110.442 634.739, 113.412 643.646, 117.274 652.132, 121.990 660.115, 127.515 667.518, 133.796 674.270, 140.772 680.305, 148.376 685.566, 156.536 690.002, 165.172 693.570, 174.200 696.235, 183.536 697.973, 193.087 698.767, 202.763 698.608, 212.470 697.498, 222.115 695.449, 231.604 692.479, 240.847 688.617, 249.754 683.901, 258.240 678.376, 266.223 672.095, 273.626 668.439, 277.165 " fill="none" stroke="#0041FF" stroke-linecap="butt" stroke-linejoin="round" stroke-opacity="1.0" stroke-width="3.0" />
            <path d=" M 681.582, 147.111 675.451, 139.385 668.592, 132.298 661.071, 125.918 652.962, 120.305 644.341, 115.514 635.292, 111.591 625.903, 108.574 616.262, 106.492 606.464, 105.365 596.603, 105.204 586.774, 106.010 577.070, 107.775 567.587, 110.484 558.415, 114.108 549.642, 118.614 541.353, 123.959 533.628, 130.090 526.541, 136.949 520.160, 144.469 514.547, 152.579 509.757, 161.200 505.834, 170.248 502.817, 179.638 500.735, 189.278 499.607, 199.076 499.446, 208.938 500.252, 218.767 502.018, 228.470 502.166, 228.991 504.726, 237.954 508.350, 247.126 512.857, 255.899 518.201, 264.188 524.332, 271.913 529.834, 277.597 530.304, 278.083 531.191, 279.000 531.269, 279.066 538.711, 285.381 546.821, 290.993 549.328, 292.387 549.635, 292.557 550.776, 293.191 555.442, 295.784 564.491, 299.707 573.880, 302.724 583.521, 304.806 593.319, 305.933 603.180, 306.095 613.009, 305.289 622.712, 303.523 632.196, 300.815 641.368, 297.190 649.208, 293.163 650.141, 292.684 650.358, 292.544 650.653, 292.354 658.430, 287.340 666.155, 281.209 668.444, 278.994 669.449, 278.021 669.944, 277.542 673.242, 274.350 679.623, 266.829 685.235, 258.720 690.026, 250.099 693.949, 241.050 696.872, 231.954 696.966, 231.661 699.048, 222.020 700.175, 212.222 700.337, 202.361 699.531, 192.532 697.765, 182.829 695.057, 173.345 691.433, 164.173 686.926, 155.400 681.582, 147.111 " fill="none" stroke="#0041FF" stroke-linecap="butt" stroke-linejoin="round" stroke-opacity="1.0" stroke-width="3.0" />
            <path d=" M 529.488, 277.684 524.466, 272.495 518.346, 264.784 513.011, 256.510 508.513, 247.752 504.895, 238.596 502.192, 229.130 502.166, 228.991 " fill="none" stroke="#0041FF" stroke-linecap="butt" stroke-linejoin="round" stroke-opacity="1.0" stroke-width="3.0" />
            <path d=" M 549.111, 292.762 546.916, 291.542 538.820, 285.939 531.313, 279.570 530.912, 279.155 " fill="none" stroke="#0041FF" stroke-linecap="butt" stroke-linejoin="round" stroke-opacity="1.0" stroke-width="3.0" />
            <path d=" M 549.960, 291.292 547.651, 290.009 539.668, 284.484 532.823, 278.677 " fill="none" stroke="#0041FF" stroke-linecap="butt" stroke-linejoin="round" stroke-opacity="1.0" stroke-width="3.0" />
            <path d=" M 648.579, 292.073 640.720, 296.109 631.691, 299.677 622.356, 302.343 612.804, 304.081 603.128, 304.874 593.421, 304.716 583.777, 303.606 574.287, 301.557 565.044, 298.587 556.137, 294.725 551.407, 292.097 " fill="none" stroke="#0041FF" stroke-linecap="butt" stroke-linejoin="round" stroke-opacity="1.0" stroke-width="3.0" />
            <path d=" M 649.431, 293.549 641.295, 297.728 632.139, 301.346 622.672, 304.049 612.986, 305.812 603.174, 306.616 593.330, 306.455 583.550, 305.330 573.927, 303.252 564.554, 300.240 555.521, 296.324 550.559, 293.566 " fill="none" stroke="#0041FF" stroke-linecap="butt" stroke-linejoin="round" stroke-opacity="1.0" stroke-width="3.0" />
            <path d=" M 666.938, 278.617 665.119, 280.377 657.515, 286.413 650.015, 291.248 " fill="none" stroke="#0041FF" stroke-linecap="butt" stroke-linejoin="round" stroke-opacity="1.0" stroke-width="3.0" />
            <path d=" M 668.815, 279.087 666.038, 281.774 658.326, 287.895 650.858, 292.710 " fill="none" stroke="#0041FF" stroke-linecap="butt" stroke-linejoin="round" stroke-opacity="1.0" stroke-width="3.0" />
            <path d=" M 696.872, 231.954 696.794, 232.314 693.782, 241.687 689.867, 250.720 685.084, 259.325 679.481, 267.421 673.112, 274.928 670.315, 277.635 " fill="none" stroke="#0041FF" stroke-linecap="butt" stroke-linejoin="round" stroke-opacity="1.0" stroke-width="3.0" />
            <path d=" M 913.635, 702.373 919.599, 700.670 929.150, 698.932 938.826, 698.139 948.533, 698.298 958.178, 699.407 967.668, 701.457 976.911, 704.427 985.818, 708.288 994.304, 713.004 1002.287, 718.529 1009.690, 724.810 1016.441, 731.786 1022.476, 739.391 1027.737, 747.550 1032.173, 756.186 1035.741, 765.215 1038.407, 774.550 1040.145, 784.102 1040.938, 793.777 1040.779, 803.484 1039.670, 813.129 1037.620, 822.619 1034.650, 831.861 1030.789, 840.769 1026.073, 849.255 1020.548, 857.238 1014.267, 864.640 1007.291, 871.392 999.686, 877.427 991.527, 882.688 982.891, 887.124 973.862, 890.692 964.527, 893.358 954.976, 895.096 945.300, 895.889 935.593, 895.730 925.948, 894.621 916.459, 892.571 907.216, 889.601 898.309, 885.740 889.823, 881.024 881.840, 875.499 874.437, 869.218 867.685, 862.242 861.650, 854.637 856.389, 846.478 851.953, 837.842 848.385, 828.813 845.827, 819.853 " fill="none" stroke="#0041FF" stroke-linecap="butt" stroke-linejoin="round" stroke-opacity="1.0" stroke-width="3.0" />
            <path d=" M 1024.058, 738.651 1017.927, 730.925 1011.068, 723.838 1003.547, 717.458 995.438, 711.845 986.817, 707.054 977.768, 703.131 968.378, 700.114 968.071, 700.048 958.738, 698.032 948.940, 696.905 939.079, 696.744 929.249, 697.550 919.546, 699.315 914.181, 700.847 913.489, 701.045 912.083, 701.446 910.063, 702.023 900.891, 705.648 892.118, 710.154 891.937, 710.271 891.642, 710.461 890.544, 711.169 883.829, 715.499 876.103, 721.630 869.016, 728.489 862.636, 736.009 857.023, 744.119 852.232, 752.739 848.309, 761.788 845.292, 771.178 843.210, 780.818 842.083, 790.616 841.995, 796.034 841.973, 797.339 841.967, 797.690 841.922, 800.477 842.728, 810.307 844.292, 818.905 844.493, 820.010 844.589, 820.346 844.779, 821.009 847.202, 829.494 850.826, 838.666 855.332, 847.439 860.677, 855.728 866.808, 863.453 873.299, 870.159 873.667, 870.540 881.187, 876.920 889.297, 882.533 897.918, 887.324 906.966, 891.247 916.356, 894.264 925.996, 896.346 935.794, 897.473 945.656, 897.634 955.485, 896.828 965.188, 895.063 974.672, 892.355 983.844, 888.730 992.617, 884.224 1000.906, 878.880 1008.631, 872.748 1015.718, 865.890 1022.098, 858.369 1027.711, 850.260 1032.502, 841.639 1036.425, 832.590 1039.442, 823.200 1041.524, 813.560 1042.651, 803.762 1042.813, 793.901 1042.007, 784.072 1040.241, 774.368 1037.533, 764.885 1033.908, 755.713 1029.402, 746.939 1024.058, 738.651 " fill="none" stroke="#0041FF" stroke-linecap="butt" stroke-linejoin="round" stroke-opacity="1.0" stroke-width="3.0" />
            <path d=" M 914.316, 700.471 918.979, 699.139 928.665, 697.377 938.477, 696.572 948.321, 696.733 958.101, 697.858 967.725, 699.937 968.071, 700.048 " fill="none" stroke="#0041FF" stroke-linecap="butt" stroke-linejoin="round" stroke-opacity="1.0" stroke-width="3.0" />
            <path d=" M 892.567, 711.361 892.599, 711.340 901.235, 706.904 910.264, 703.336 911.537, 702.972 " fill="none" stroke="#0041FF" stroke-linecap="butt" stroke-linejoin="round" stroke-opacity="1.0" stroke-width="3.0" />
            <path d=" M 891.721, 709.896 900.357, 705.461 909.513, 701.842 912.218, 701.070 " fill="none" stroke="#0041FF" stroke-linecap="butt" stroke-linejoin="round" stroke-opacity="1.0" stroke-width="3.0" />
            <path d=" M 843.257, 796.034 843.347, 790.544 844.457, 780.899 846.506, 771.410 849.476, 762.167 853.337, 753.259 858.053, 744.773 863.578, 736.790 869.859, 729.388 876.835, 722.636 884.440, 716.601 891.173, 712.259 " fill="none" stroke="#0041FF" stroke-linecap="butt" stroke-linejoin="round" stroke-opacity="1.0" stroke-width="3.0" />
            <path d=" M 841.559, 796.034 841.654, 790.278 842.779, 780.497 844.857, 770.874 847.869, 761.501 851.785, 752.468 856.567, 743.863 862.170, 735.768 868.539, 728.261 875.613, 721.414 883.325, 715.294 890.321, 710.783 " fill="none" stroke="#0041FF" stroke-linecap="butt" stroke-linejoin="round" stroke-opacity="1.0" stroke-width="3.0" />
            <path d=" M 845.394, 817.690 843.982, 809.927 843.188, 800.251 843.230, 797.690 " fill="none" stroke="#0041FF" stroke-linecap="butt" stroke-linejoin="round" stroke-opacity="1.0" stroke-width="3.0" />
            <path d=" M 843.990, 819.239 842.297, 809.934 841.492, 800.122 841.532, 797.690 " fill="none" stroke="#0041FF" stroke-linecap="butt" stroke-linejoin="round" stroke-opacity="1.0" stroke-width="3.0" />
            <path d=" M 873.299, 870.159 873.181, 870.060 866.334, 862.985 860.214, 855.274 854.879, 847.000 850.381, 838.242 846.763, 829.086 844.534, 821.280 " fill="none" stroke="#0041FF" stroke-linecap="butt" stroke-linejoin="round" stroke-opacity="1.0" stroke-width="3.0" />
            <path d=" M 551.407, 292.097 556.407, 283.437 561.407, 274.776 561.822, 274.057 " fill="none" stroke="#0041FF" stroke-linecap="butt" stroke-linejoin="round" stroke-opacity="1.0" stroke-width="3.0" />
            <path d=" M 474.099, 425.998 479.099, 417.338 484.099, 408.678 489.099, 400.017 494.099, 391.357 499.099, 382.697 504.099, 374.037 509.099, 365.376 514.099, 356.716 519.099, 348.056 524.099, 339.396 529.099, 330.735 534.099, 322.075 539.099, 313.415 544.099, 304.755 549.099, 296.094 550.559, 293.566 550.776, 293.191 " fill="none" stroke="#0041FF" stroke-linecap="butt" stroke-linejoin="round" stroke-opacity="1.0" stroke-width="3.0" />
            <path d=" M 388.364, 574.496 393.364, 565.836 398.364, 557.176 403.364, 548.516 408.364, 539.855 413.364, 531.195 418.364, 522.535 423.364, 513.875 428.364, 505.214 433.364, 496.554 438.364, 487.894 443.364, 479.234 448.364, 470.573 453.364, 461.913 458.364, 453.253 463.364, 444.593 468.364, 435.932 471.999, 429.636 " fill="none" stroke="#0041FF" stroke-linecap="butt" stroke-linejoin="round" stroke-opacity="1.0" stroke-width="3.0" />
            <path d=" M 309.548, 711.010 309.759, 710.644 314.759, 701.984 319.759, 693.323 324.759, 684.663 329.759, 676.003 334.759, 667.343 339.759, 658.682 344.759, 650.022 349.759, 641.362 354.759, 632.701 359.759, 624.041 364.759, 615.381 369.759, 606.721 374.759, 598.060 379.759, 589.400 384.759, 580.740 386.091, 578.434 " fill="none" stroke="#0041FF" stroke-linecap="butt" stroke-linejoin="round" stroke-opacity="1.0" stroke-width="3.0" />
            <path d=" M 298.610, 729.955 303.610, 721.295 308.610, 712.635 308.913, 712.109 " fill="none" stroke="#0041FF" stroke-linecap="butt" stroke-linejoin="round" stroke-opacity="1.0" stroke-width="3.0" />
            <path d=" M 358.183, 796.034 348.183, 796.034 338.183, 796.034 337.006, 796.034 " fill="none" stroke="#0041FF" stroke-linecap="butt" stroke-linejoin="round" stroke-opacity="1.0" stroke-width="3.0" />
            <path d=" M 512.185, 796.034 502.185, 796.034 492.185, 796.034 482.185, 796.034 472.185, 796.034 462.185, 796.034 452.185, 796.034 442.185, 796.034 432.185, 796.034 422.185, 796.034 412.185, 796.034 402.185, 796.034 392.185, 796.034 382.185, 796.034 372.185, 796.034 362.185, 796.034 359.874, 796.034 359.453, 796.034 " fill="none" stroke="#0041FF" stroke-linecap="butt" stroke-linejoin="round" stroke-opacity="1.0" stroke-width="3.0" />
            <path d=" M 683.907, 796.034 673.907, 796.034 663.907, 796.034 653.907, 796.034 643.907, 796.034 633.907, 796.034 623.907, 796.034 613.907, 796.034 603.907, 796.034 593.907, 796.034 583.907, 796.034 573.907, 796.034 563.907, 796.034 553.907, 796.034 543.907, 796.034 533.907, 796.034 523.907, 796.034 516.093, 796.034 " fill="none" stroke="#0041FF" stroke-linecap="butt" stroke-linejoin="round" stroke-opacity="1.0" stroke-width="3.0" />
            <path d=" M 841.995, 796.034 841.559, 796.034 831.559, 796.034 821.559, 796.034 811.559, 796.034 801.559, 796.034 791.559, 796.034 781.559, 796.034 771.559, 796.034 761.559, 796.034 751.559, 796.034 741.559, 796.034 731.559, 796.034 721.559, 796.034 711.559, 796.034 701.559, 796.034 691.559, 796.034 687.815, 796.034 " fill="none" stroke="#0041FF" stroke-linecap="butt" stroke-linejoin="round" stroke-opacity="1.0" stroke-width="3.0" />
            <path d=" M 862.995, 796.034 852.995, 796.034 843.257, 796.034 " fill="none" stroke="#0041FF" stroke-linecap="butt" stroke-linejoin="round" stroke-opacity="1.0" stroke-width="3.0" />
            <path d=" M 891.173, 712.259 896.173, 720.919 901.173, 729.580 901.390, 729.955 " fill="none" stroke="#0041FF" stroke-linecap="butt" stroke-linejoin="round" stroke-opacity="1.0" stroke-width="3.0" />
            <path d=" M 813.909, 578.434 818.909, 587.094 823.909, 595.754 828.909, 604.414 833.909, 613.075 838.909, 621.735 843.909, 630.395 848.909, 639.055 853.909, 647.716 858.909, 656.376 863.909, 665.036 868.909, 673.696 873.909, 682.357 878.909, 691.017 883.909, 699.677 888.909, 708.338 890.321, 710.783 890.544, 711.169 " fill="none" stroke="#0041FF" stroke-linecap="butt" stroke-linejoin="round" stroke-opacity="1.0" stroke-width="3.0" />
            <path d=" M 728.001, 429.636 733.001, 438.297 738.001, 446.957 743.001, 455.617 748.001, 464.277 753.001, 472.938 758.001, 481.598 763.001, 490.258 768.001, 498.918 773.001, 507.579 778.001, 516.239 783.001, 524.899 788.001, 533.559 793.001, 542.220 798.001, 550.880 803.001, 559.540 808.001, 568.200 811.636, 574.496 " fill="none" stroke="#0041FF" stroke-linecap="butt" stroke-linejoin="round" stroke-opacity="1.0" stroke-width="3.0" />
            <path d=" M 649.208, 293.163 649.431, 293.549 654.431, 302.209 659.431, 310.869 664.431, 319.529 669.431, 328.190 674.431, 336.850 679.431, 345.510 684.431, 354.170 689.431, 362.831 694.431, 371.491 699.431, 380.151 704.431, 388.811 709.431, 397.472 714.431, 406.132 719.431, 414.792 724.431, 423.452 725.901, 425.998 " fill="none" stroke="#0041FF" stroke-linecap="butt" stroke-linejoin="round" stroke-opacity="1.0" stroke-width="3.0" />
            <path d=" M 638.178, 274.057 643.178, 282.718 648.178, 291.378 648.579, 292.073 " fill="none" stroke="#0041FF" stroke-linecap="butt" stroke-linejoin="round" stroke-opacity="1.0" stroke-width="3.0" />
        </g>
    </g>
</svg>
