<?xml version='1.0' encoding='ascii'?>
<svg xmlns="http://www.w3.org/2000/svg" height="1200" version="1.1" width="1200">
    <g id="View Layer_LineSet" inkscape:groupmode="lineset" inkscape:label="View Layer_LineSet" xmlns:inkscape="http://www.inkscape.org/namespaces/inkscape">
        <g id="strokes" inkscape:groupmode="layer" inkscape:label="strokes" xmlns:inkscape="http://www.inkscape.org/namespaces/inkscape">
            <path d=" M 774.338, 718.260 774.338, 728.260 774.338, 738.260 774.338, 748.260 774.338, 758.260 774.338, 768.260 774.338, 774.338 764.338, 774.338 754.338, 774.338 744.338, 774.338 734.338, 774.338 724.338, 774.338 718.261, 774.338 " fill="none" stroke="#441BEE" stroke-linecap="butt" stroke-linejoin="round" stroke-opacity="1.0" stroke-width="1.0" />
            <path d=" M 425.662, 774.338 424.337, 775.663 " fill="none" stroke="#441BEE" stroke-linecap="butt" stroke-linejoin="round" stroke-opacity="1.0" stroke-width="1.0" />
            <path d=" M 424.025, 775.975 434.025, 775.975 444.025, 775.975 454.025, 775.975 464.025, 775.975 474.025, 775.975 482.417, 775.975 482.755, 775.975 484.189, 775.975 494.189, 775.975 504.189, 775.975 514.189, 775.975 524.189, 775.975 527.109, 775.975 527.551, 775.975 529.423, 775.975 539.423, 775.975 549.423, 775.975 559.423, 775.975 564.997, 775.975 565.813, 775.975 569.273, 775.975 579.273, 775.975 589.273, 775.975 599.273, 775.975 609.273, 775.975 619.273, 775.975 629.273, 775.975 630.727, 775.975 634.188, 775.975 635.004, 775.975 645.004, 775.975 655.004, 775.975 665.004, 775.975 670.577, 775.975 672.450, 775.975 672.891, 775.975 682.891, 775.975 692.891, 775.975 702.891, 775.975 712.891, 775.975 715.811, 775.975 717.245, 775.975 717.583, 775.975 727.583, 775.975 737.583, 775.975 747.583, 775.975 757.583, 775.975 767.583, 775.975 775.975, 775.975 775.975, 765.975 775.975, 755.975 775.975, 745.975 775.975, 735.975 775.975, 725.975 775.975, 717.583 775.975, 717.245 775.975, 715.811 775.975, 705.811 775.975, 695.811 775.975, 685.811 775.975, 675.811 775.975, 672.891 775.975, 672.449 775.975, 670.577 775.975, 660.577 775.975, 650.577 775.975, 640.577 775.975, 635.003 775.975, 634.187 775.975, 630.727 775.975, 620.727 775.975, 610.727 775.975, 600.727 775.975, 590.727 775.975, 580.727 775.975, 570.727 775.975, 569.273 775.975, 565.812 775.975, 564.996 775.975, 554.996 775.975, 544.996 775.975, 534.996 775.975, 529.423 775.975, 527.550 775.975, 527.109 775.975, 517.109 775.975, 507.109 775.975, 497.109 775.975, 487.109 775.975, 484.189 775.975, 482.755 775.975, 482.417 775.975, 472.417 775.975, 462.417 775.975, 452.417 775.975, 442.417 775.975, 432.417 775.975, 424.025 765.975, 424.025 755.975, 424.025 745.975, 424.025 735.975, 424.025 725.975, 424.025 717.583, 424.025 717.245, 424.025 715.811, 424.025 705.811, 424.025 695.811, 424.025 685.811, 424.025 675.811, 424.025 672.891, 424.025 672.449, 424.025 670.577, 424.025 660.577, 424.025 650.577, 424.025 640.577, 424.025 635.003, 424.025 634.187, 424.025 630.727, 424.025 620.727, 424.025 610.727, 424.025 600.727, 424.025 590.727, 424.025 580.727, 424.025 570.727, 424.025 569.273, 424.025 565.812, 424.025 564.996, 424.025 554.996, 424.025 544.996, 424.025 534.996, 424.025 529.423, 424.025 527.550, 424.025 527.109, 424.025 517.109, 424.025 507.109, 424.025 497.109, 424.025 487.109, 424.025 484.189, 424.025 482.755, 424.025 482.417, 424.025 472.417, 424.025 462.417, 424.025 452.417, 424.025 442.417, 424.025 432.417, 424.025 424.025, 424.025 424.025, 434.025 424.025, 444.025 424.025, 454.025 424.025, 464.025 424.025, 474.025 424.025, 482.417 424.025, 482.755 424.025, 484.189 424.025, 494.189 424.025, 504.189 424.025, 514.189 424.025, 524.189 424.025, 527.109 424.025, 527.551 424.025, 529.423 424.025, 539.423 424.025, 549.423 424.025, 559.423 424.025, 564.997 424.025, 565.813 424.025, 569.273 424.025, 579.273 424.025, 589.273 424.025, 599.273 424.025, 609.273 424.025, 619.273 424.025, 629.273 424.025, 630.727 424.025, 634.188 424.025, 635.004 424.025, 645.004 424.025, 655.004 424.025, 665.004 424.025, 670.577 424.025, 672.450 424.025, 672.891 424.025, 682.891 424.025, 692.891 424.025, 702.891 424.025, 712.891 424.025, 715.811 424.025, 717.245 424.025, 717.583 424.025, 727.583 424.025, 737.583 424.025, 747.583 424.025, 757.583 424.025, 767.583 424.025, 775.975 " fill="none" stroke="#441BEE" stroke-linecap="butt" stroke-linejoin="round" stroke-opacity="1.0" stroke-width="1.0" />
            <path d=" M 775.975, 775.975 775.663, 775.663 774.338, 774.338 " fill="none" stroke="#441BEE" stroke-linecap="butt" stroke-linejoin="round" stroke-opacity="1.0" stroke-width="1.0" />
            <path d=" M 718.260, 425.662 728.260, 425.662 738.260, 425.662 748.260, 425.662 758.260, 425.662 768.260, 425.662 774.338, 425.662 774.338, 435.662 774.338, 445.662 774.338, 455.662 774.338, 465.662 774.338, 475.662 774.338, 481.739 " fill="none" stroke="#441BEE" stroke-linecap="butt" stroke-linejoin="round" stroke-opacity="1.0" stroke-width="1.0" />
            <path d=" M 775.975, 424.025 775.663, 424.337 " fill="none" stroke="#441BEE" stroke-linecap="butt" stroke-linejoin="round" stroke-opacity="1.0" stroke-width="1.0" />
            <path d=" M 425.662, 481.740 425.662, 471.740 425.662, 461.740 425.662, 451.740 425.662, 441.740 425.662, 431.740 425.662, 425.662 435.662, 425.662 445.662, 425.662 455.662, 425.662 465.662, 425.662 475.662, 425.662 481.739, 425.662 " fill="none" stroke="#441BEE" stroke-linecap="butt" stroke-linejoin="round" stroke-opacity="1.0" stroke-width="1.0" />
            <path d=" M 424.025, 424.025 424.337, 424.337 425.662, 425.662 " fill="none" stroke="#441BEE" stroke-linecap="butt" stroke-linejoin="round" stroke-opacity="1.0" stroke-width="1.0" />
            <path d=" M 481.740, 774.338 471.740, 774.338 461.740, 774.338 451.740, 774.338 441.740, 774.338 431.740, 774.338 425.662, 774.338 425.662, 764.338 425.662, 754.338 425.662, 744.338 425.662, 734.338 425.662, 724.338 425.662, 718.261 " fill="none" stroke="#441BEE" stroke-linecap="butt" stroke-linejoin="round" stroke-opacity="1.0" stroke-width="1.0" />
            <path d=" M 557.458, 806.324 548.219, 810.151 538.980, 813.978 529.742, 817.804 520.503, 821.631 511.264, 825.458 505.649, 827.784 501.822, 818.545 497.995, 809.306 494.168, 800.068 490.341, 790.829 486.515, 781.590 484.189, 775.975 " fill="none" stroke="#441BEE" stroke-linecap="butt" stroke-linejoin="round" stroke-opacity="1.0" stroke-width="1.0" />
            <path d=" M 372.216, 505.649 370.486, 504.932 370.078, 504.763 " fill="none" stroke="#441BEE" stroke-linecap="butt" stroke-linejoin="round" stroke-opacity="1.0" stroke-width="1.0" />
            <path d=" M 370.078, 504.763 373.905, 514.002 377.731, 523.241 381.558, 532.480 385.385, 541.718 389.212, 550.957 392.424, 558.711 392.553, 559.023 393.101, 560.347 396.928, 569.586 400.755, 578.825 404.582, 588.063 408.409, 597.302 409.526, 600.000 409.695, 600.408 410.412, 602.138 414.239, 611.377 418.066, 620.616 421.892, 629.855 424.025, 635.004 424.337, 635.758 425.662, 638.954 429.488, 648.193 433.315, 657.432 437.142, 666.671 440.969, 675.910 444.796, 685.148 448.623, 694.387 449.179, 695.731 450.503, 698.928 450.816, 699.682 454.643, 708.921 458.469, 718.159 462.296, 727.398 464.429, 732.547 465.146, 734.277 465.315, 734.685 469.142, 743.924 472.968, 753.163 476.795, 762.402 480.622, 771.641 481.740, 774.338 482.288, 775.663 482.417, 775.975 486.244, 785.214 490.071, 794.452 493.898, 803.691 497.725, 812.930 501.552, 822.169 504.763, 829.922 514.002, 826.095 523.241, 822.269 532.480, 818.442 541.718, 814.615 550.957, 810.788 558.711, 807.576 559.023, 807.447 560.347, 806.899 569.586, 803.072 578.825, 799.245 588.063, 795.418 597.302, 791.591 600.000, 790.474 600.408, 790.305 602.138, 789.588 611.377, 785.761 620.616, 781.934 629.855, 778.108 635.004, 775.975 635.758, 775.663 638.954, 774.338 648.193, 770.512 657.432, 766.685 666.671, 762.858 675.910, 759.031 685.148, 755.204 694.387, 751.377 695.731, 750.821 698.928, 749.497 699.682, 749.184 708.921, 745.357 718.159, 741.531 727.398, 737.704 732.547, 735.571 734.277, 734.854 734.685, 734.685 743.924, 730.858 753.163, 727.032 762.402, 723.205 771.641, 719.378 774.338, 718.260 775.663, 717.712 775.975, 717.583 785.214, 713.756 794.452, 709.929 803.691, 706.102 812.930, 702.275 822.169, 698.448 829.922, 695.237 826.095, 685.998 822.269, 676.759 818.442, 667.520 814.615, 658.282 810.788, 649.043 807.576, 641.289 807.447, 640.977 806.899, 639.653 803.072, 630.414 799.245, 621.175 795.418, 611.937 791.591, 602.698 790.474, 600.000 790.305, 599.592 789.588, 597.862 785.761, 588.623 781.934, 579.384 778.108, 570.145 775.975, 564.996 775.663, 564.242 774.338, 561.046 770.512, 551.807 766.685, 542.568 762.858, 533.329 759.031, 524.090 755.204, 514.852 751.377, 505.613 750.821, 504.269 749.497, 501.072 749.184, 500.318 745.357, 491.079 741.531, 481.841 737.704, 472.602 735.571, 467.453 734.854, 465.723 734.685, 465.315 730.858, 456.076 727.032, 446.837 723.205, 437.598 719.378, 428.359 718.260, 425.662 717.712, 424.337 717.583, 424.025 713.756, 414.786 709.929, 405.548 706.102, 396.309 702.275, 387.070 698.448, 377.831 695.237, 370.078 685.998, 373.905 676.759, 377.731 667.520, 381.558 658.282, 385.385 649.043, 389.212 641.289, 392.424 640.977, 392.553 639.653, 393.101 630.414, 396.928 621.175, 400.755 611.937, 404.582 602.698, 408.409 600.000, 409.526 599.592, 409.695 597.862, 410.412 588.623, 414.239 579.384, 418.066 570.145, 421.892 564.996, 424.025 564.242, 424.337 561.046, 425.662 551.807, 429.488 542.568, 433.315 533.329, 437.142 524.090, 440.969 514.852, 444.796 505.613, 448.623 504.269, 449.179 501.072, 450.503 500.318, 450.816 491.079, 454.643 481.841, 458.469 472.602, 462.296 467.453, 464.429 465.723, 465.146 465.315, 465.315 456.076, 469.142 446.837, 472.968 437.598, 476.795 428.359, 480.622 425.662, 481.740 424.337, 482.288 424.025, 482.417 414.786, 486.244 405.548, 490.071 396.309, 493.898 387.070, 497.725 377.831, 501.552 370.078, 504.763 " fill="none" stroke="#441BEE" stroke-linecap="butt" stroke-linejoin="round" stroke-opacity="1.0" stroke-width="1.0" />
            <path d=" M 504.763, 829.922 504.932, 829.514 505.649, 827.784 " fill="none" stroke="#441BEE" stroke-linecap="butt" stroke-linejoin="round" stroke-opacity="1.0" stroke-width="1.0" />
            <path d=" M 806.324, 642.542 810.151, 651.781 813.978, 661.020 817.805, 670.258 821.631, 679.497 825.458, 688.736 827.784, 694.351 818.545, 698.178 809.306, 702.005 800.068, 705.832 790.829, 709.659 781.590, 713.485 775.975, 715.811 " fill="none" stroke="#441BEE" stroke-linecap="butt" stroke-linejoin="round" stroke-opacity="1.0" stroke-width="1.0" />
            <path d=" M 829.922, 695.237 829.514, 695.068 827.784, 694.351 " fill="none" stroke="#441BEE" stroke-linecap="butt" stroke-linejoin="round" stroke-opacity="1.0" stroke-width="1.0" />
            <path d=" M 642.542, 393.676 651.781, 389.849 661.020, 386.022 670.258, 382.195 679.497, 378.369 688.736, 374.542 694.351, 372.216 698.178, 381.455 702.005, 390.694 705.832, 399.932 709.659, 409.171 713.485, 418.410 715.811, 424.025 " fill="none" stroke="#441BEE" stroke-linecap="butt" stroke-linejoin="round" stroke-opacity="1.0" stroke-width="1.0" />
            <path d=" M 695.237, 370.078 695.068, 370.486 694.351, 372.216 " fill="none" stroke="#441BEE" stroke-linecap="butt" stroke-linejoin="round" stroke-opacity="1.0" stroke-width="1.0" />
            <path d=" M 393.676, 557.458 389.849, 548.219 386.022, 538.980 382.196, 529.742 378.369, 520.503 374.542, 511.264 372.216, 505.649 381.455, 501.822 390.694, 497.995 399.932, 494.168 409.171, 490.341 418.410, 486.515 424.025, 484.189 " fill="none" stroke="#441BEE" stroke-linecap="butt" stroke-linejoin="round" stroke-opacity="1.0" stroke-width="1.0" />
            <path d=" M 393.101, 639.653 386.030, 632.582 378.959, 625.511 371.888, 618.440 364.817, 611.369 357.746, 604.298 353.448, 600.000 360.519, 592.929 367.590, 585.858 374.662, 578.787 381.733, 571.716 388.804, 564.645 393.101, 560.347 " fill="none" stroke="#441BEE" stroke-linecap="butt" stroke-linejoin="round" stroke-opacity="1.0" stroke-width="1.0" />
            <path d=" M 600.000, 353.448 600.000, 351.134 " fill="none" stroke="#441BEE" stroke-linecap="butt" stroke-linejoin="round" stroke-opacity="1.0" stroke-width="1.0" />
            <path d=" M 600.000, 351.134 592.929, 358.205 585.858, 365.276 578.787, 372.347 571.716, 379.418 564.645, 386.489 558.710, 392.424 558.471, 392.663 557.458, 393.676 550.387, 400.747 543.316, 407.818 536.245, 414.889 529.174, 421.960 527.109, 424.025 526.797, 424.337 525.472, 425.662 518.401, 432.733 511.330, 439.804 504.259, 446.875 500.318, 450.816 499.741, 451.393 497.294, 453.840 490.223, 460.911 483.152, 467.982 476.081, 475.053 469.010, 482.124 461.939, 489.195 454.868, 496.266 453.840, 497.294 451.393, 499.741 450.816, 500.318 443.745, 507.389 436.674, 514.460 429.602, 521.532 425.662, 525.472 424.337, 526.797 424.025, 527.109 416.954, 534.180 409.883, 541.251 402.812, 548.322 395.741, 555.393 393.676, 557.458 392.663, 558.471 392.424, 558.711 385.352, 565.782 378.281, 572.853 371.210, 579.924 364.139, 586.995 357.068, 594.066 351.134, 600.000 358.205, 607.071 365.276, 614.142 372.347, 621.213 379.418, 628.284 386.489, 635.355 392.424, 641.290 392.663, 641.529 393.676, 642.542 400.747, 649.613 407.818, 656.684 414.889, 663.755 421.960, 670.826 424.025, 672.891 424.337, 673.203 425.662, 674.528 432.733, 681.599 439.804, 688.670 446.875, 695.741 450.816, 699.682 451.393, 700.259 453.840, 702.706 460.911, 709.777 467.982, 716.848 475.053, 723.919 482.124, 730.990 489.195, 738.061 496.266, 745.132 497.294, 746.160 499.741, 748.607 500.318, 749.184 507.389, 756.255 514.460, 763.326 521.532, 770.398 525.472, 774.338 526.797, 775.663 527.109, 775.975 534.180, 783.046 541.251, 790.117 548.322, 797.188 555.393, 804.259 557.458, 806.324 558.471, 807.337 558.711, 807.576 565.782, 814.648 572.853, 821.719 579.924, 828.790 586.995, 835.861 594.066, 842.932 600.000, 848.866 607.071, 841.795 614.142, 834.724 621.213, 827.653 628.284, 820.582 635.355, 813.511 641.290, 807.576 641.529, 807.337 642.542, 806.324 649.613, 799.253 656.684, 792.182 663.755, 785.111 670.826, 778.040 672.891, 775.975 673.203, 775.663 674.528, 774.338 681.599, 767.267 688.670, 760.196 695.741, 753.125 699.682, 749.184 700.259, 748.607 702.706, 746.160 709.777, 739.089 716.848, 732.018 723.919, 724.947 730.990, 717.876 738.061, 710.805 745.132, 703.734 746.160, 702.706 748.607, 700.259 749.184, 699.682 756.255, 692.611 763.326, 685.540 770.398, 678.468 774.338, 674.528 775.663, 673.203 775.975, 672.891 783.046, 665.820 790.117, 658.749 797.188, 651.678 804.259, 644.607 806.324, 642.542 807.337, 641.529 807.576, 641.289 814.648, 634.218 821.719, 627.147 828.790, 620.076 835.861, 613.005 842.932, 605.934 848.866, 600.000 841.795, 592.929 834.724, 585.858 827.653, 578.787 820.582, 571.716 813.511, 564.645 807.576, 558.710 807.337, 558.471 806.324, 557.458 799.253, 550.387 792.182, 543.316 785.111, 536.245 778.040, 529.174 775.975, 527.109 775.663, 526.797 774.338, 525.472 767.267, 518.401 760.196, 511.330 753.125, 504.259 749.184, 500.318 748.607, 499.741 746.160, 497.294 739.089, 490.223 732.018, 483.152 724.947, 476.081 717.876, 469.010 710.805, 461.939 703.734, 454.868 702.706, 453.840 700.259, 451.393 699.682, 450.816 692.611, 443.745 685.540, 436.674 678.468, 429.602 674.528, 425.662 673.203, 424.337 672.891, 424.025 665.820, 416.954 658.749, 409.883 651.678, 402.812 644.607, 395.741 642.542, 393.676 641.529, 392.663 641.289, 392.424 634.218, 385.352 627.147, 378.281 620.076, 371.210 613.005, 364.139 605.934, 357.068 600.000, 351.134 " fill="none" stroke="#441BEE" stroke-linecap="butt" stroke-linejoin="round" stroke-opacity="1.0" stroke-width="1.0" />
            <path d=" M 351.134, 600.000 351.576, 600.000 353.448, 600.000 " fill="none" stroke="#441BEE" stroke-linecap="butt" stroke-linejoin="round" stroke-opacity="1.0" stroke-width="1.0" />
            <path d=" M 639.653, 806.899 632.582, 813.970 625.511, 821.041 618.440, 828.112 611.369, 835.183 604.298, 842.254 600.000, 846.552 592.929, 839.481 585.858, 832.410 578.787, 825.338 571.716, 818.267 564.645, 811.196 560.347, 806.899 " fill="none" stroke="#441BEE" stroke-linecap="butt" stroke-linejoin="round" stroke-opacity="1.0" stroke-width="1.0" />
            <path d=" M 600.000, 848.866 600.000, 846.552 " fill="none" stroke="#441BEE" stroke-linecap="butt" stroke-linejoin="round" stroke-opacity="1.0" stroke-width="1.0" />
            <path d=" M 806.899, 560.347 813.970, 567.418 821.041, 574.489 828.112, 581.560 835.183, 588.631 842.254, 595.702 846.552, 600.000 839.481, 607.071 832.410, 614.142 825.338, 621.213 818.267, 628.284 811.196, 635.355 806.899, 639.653 " fill="none" stroke="#441BEE" stroke-linecap="butt" stroke-linejoin="round" stroke-opacity="1.0" stroke-width="1.0" />
            <path d=" M 848.866, 600.000 848.424, 600.000 846.552, 600.000 " fill="none" stroke="#441BEE" stroke-linecap="butt" stroke-linejoin="round" stroke-opacity="1.0" stroke-width="1.0" />
            <path d=" M 560.347, 393.101 567.418, 386.030 574.489, 378.959 581.560, 371.888 588.631, 364.817 595.702, 357.746 600.000, 353.448 607.071, 360.519 614.142, 367.590 621.213, 374.662 628.284, 381.733 635.355, 388.804 639.653, 393.101 " fill="none" stroke="#441BEE" stroke-linecap="butt" stroke-linejoin="round" stroke-opacity="1.0" stroke-width="1.0" />
            <path d=" M 484.189, 424.025 488.015, 414.786 491.842, 405.548 495.669, 396.309 499.496, 387.070 503.323, 377.831 505.649, 372.216 514.887, 376.043 524.126, 379.870 533.365, 383.697 542.604, 387.523 551.843, 391.350 557.458, 393.676 " fill="none" stroke="#441BEE" stroke-linecap="butt" stroke-linejoin="round" stroke-opacity="1.0" stroke-width="1.0" />
            <path d=" M 827.784, 505.649 829.514, 504.932 829.922, 504.763 " fill="none" stroke="#441BEE" stroke-linecap="butt" stroke-linejoin="round" stroke-opacity="1.0" stroke-width="1.0" />
            <path d=" M 829.922, 504.763 820.683, 500.936 811.445, 497.109 802.206, 493.282 792.967, 489.456 783.728, 485.629 775.975, 482.417 775.663, 482.288 774.338, 481.739 765.100, 477.913 755.861, 474.086 746.622, 470.259 737.383, 466.432 734.685, 465.315 734.277, 465.146 732.547, 464.429 723.308, 460.602 714.070, 456.775 704.831, 452.948 699.682, 450.816 698.928, 450.503 695.731, 449.179 686.492, 445.352 677.253, 441.526 668.014, 437.699 658.776, 433.872 649.537, 430.045 640.298, 426.218 638.954, 425.662 635.757, 424.337 635.003, 424.025 625.765, 420.198 616.526, 416.371 607.287, 412.545 602.138, 410.412 600.408, 409.695 600.000, 409.526 590.761, 405.699 581.522, 401.873 572.284, 398.046 563.045, 394.219 560.347, 393.101 559.023, 392.553 558.710, 392.424 549.472, 388.597 540.233, 384.770 530.994, 380.943 521.755, 377.116 512.516, 373.289 504.763, 370.078 500.936, 379.317 497.109, 388.555 493.282, 397.794 489.456, 407.033 485.629, 416.272 482.417, 424.025 482.288, 424.337 481.739, 425.662 477.913, 434.900 474.086, 444.139 470.259, 453.378 466.432, 462.617 465.315, 465.315 465.146, 465.723 464.429, 467.453 460.602, 476.692 456.775, 485.930 452.948, 495.169 450.816, 500.318 450.503, 501.072 449.179, 504.269 445.352, 513.508 441.526, 522.747 437.699, 531.986 433.872, 541.224 430.045, 550.463 426.218, 559.702 425.662, 561.046 424.337, 564.243 424.025, 564.997 420.198, 574.235 416.371, 583.474 412.545, 592.713 410.412, 597.862 409.695, 599.592 409.526, 600.000 405.699, 609.239 401.873, 618.478 398.046, 627.716 394.219, 636.955 393.101, 639.653 392.553, 640.977 392.424, 641.290 388.597, 650.528 384.770, 659.767 380.943, 669.006 377.116, 678.245 373.289, 687.484 370.078, 695.237 379.317, 699.064 388.555, 702.891 397.794, 706.718 407.033, 710.544 416.272, 714.371 424.025, 717.583 424.337, 717.712 425.662, 718.261 434.900, 722.087 444.139, 725.914 453.378, 729.741 462.617, 733.568 465.315, 734.685 465.723, 734.854 467.453, 735.571 476.692, 739.398 485.931, 743.225 495.169, 747.052 500.318, 749.184 501.072, 749.497 504.269, 750.821 513.508, 754.648 522.747, 758.474 531.986, 762.301 541.224, 766.128 550.463, 769.955 559.702, 773.782 561.046, 774.338 564.243, 775.663 564.997, 775.975 574.235, 779.802 583.474, 783.629 592.713, 787.455 597.862, 789.588 599.592, 790.305 600.000, 790.474 609.239, 794.301 618.478, 798.127 627.716, 801.954 636.955, 805.781 639.653, 806.899 640.977, 807.447 641.290, 807.576 650.528, 811.403 659.767, 815.230 669.006, 819.057 678.245, 822.884 687.484, 826.711 695.237, 829.922 699.064, 820.683 702.891, 811.445 706.718, 802.206 710.544, 792.967 714.371, 783.728 717.583, 775.975 717.712, 775.663 718.261, 774.338 722.087, 765.100 725.914, 755.861 729.741, 746.622 733.568, 737.383 734.685, 734.685 734.854, 734.277 735.571, 732.547 739.398, 723.308 743.225, 714.069 747.052, 704.831 749.184, 699.682 749.497, 698.928 750.821, 695.731 754.648, 686.492 758.474, 677.253 762.301, 668.014 766.128, 658.776 769.955, 649.537 773.782, 640.298 774.338, 638.954 775.663, 635.757 775.975, 635.003 779.802, 625.765 783.629, 616.526 787.455, 607.287 789.588, 602.138 790.305, 600.408 790.474, 600.000 794.301, 590.761 798.127, 581.522 801.954, 572.284 805.781, 563.045 806.899, 560.347 807.447, 559.023 807.576, 558.710 811.403, 549.472 815.230, 540.233 819.057, 530.994 822.884, 521.755 826.711, 512.516 829.922, 504.763 " fill="none" stroke="#441BEE" stroke-linecap="butt" stroke-linejoin="round" stroke-opacity="1.0" stroke-width="1.0" />
            <path d=" M 504.763, 370.078 504.932, 370.486 505.649, 372.216 " fill="none" stroke="#441BEE" stroke-linecap="butt" stroke-linejoin="round" stroke-opacity="1.0" stroke-width="1.0" />
            <path d=" M 424.025, 715.811 414.786, 711.985 405.548, 708.158 396.309, 704.331 387.070, 700.504 377.831, 696.677 372.216, 694.351 376.043, 685.113 379.870, 675.874 383.697, 666.635 387.523, 657.396 391.350, 648.157 393.676, 642.542 " fill="none" stroke="#441BEE" stroke-linecap="butt" stroke-linejoin="round" stroke-opacity="1.0" stroke-width="1.0" />
            <path d=" M 370.078, 695.237 370.486, 695.068 372.216, 694.351 " fill="none" stroke="#441BEE" stroke-linecap="butt" stroke-linejoin="round" stroke-opacity="1.0" stroke-width="1.0" />
            <path d=" M 715.811, 775.975 711.985, 785.214 708.158, 794.452 704.331, 803.691 700.504, 812.930 696.677, 822.169 694.351, 827.784 685.113, 823.957 675.874, 820.130 666.635, 816.303 657.396, 812.477 648.157, 808.650 642.542, 806.324 " fill="none" stroke="#441BEE" stroke-linecap="butt" stroke-linejoin="round" stroke-opacity="1.0" stroke-width="1.0" />
            <path d=" M 695.237, 829.922 695.068, 829.514 694.351, 827.784 " fill="none" stroke="#441BEE" stroke-linecap="butt" stroke-linejoin="round" stroke-opacity="1.0" stroke-width="1.0" />
            <path d=" M 775.975, 484.189 785.214, 488.015 794.452, 491.842 803.691, 495.669 812.930, 499.496 822.169, 503.323 827.784, 505.649 823.957, 514.887 820.130, 524.126 816.303, 533.365 812.477, 542.604 808.650, 551.843 806.324, 557.458 " fill="none" stroke="#441BEE" stroke-linecap="butt" stroke-linejoin="round" stroke-opacity="1.0" stroke-width="1.0" />
            <path d=" M 424.337, 775.663 424.025, 775.975 " fill="none" stroke="#441BEE" stroke-linecap="butt" stroke-linejoin="round" stroke-opacity="1.0" stroke-width="1.0" />
            <path d=" M 425.662, 525.472 425.662, 515.472 425.662, 505.472 425.662, 495.472 425.662, 485.472 425.662, 483.511 " fill="none" stroke="#441BEE" stroke-linecap="butt" stroke-linejoin="round" stroke-opacity="1.0" stroke-width="1.0" />
            <path d=" M 425.662, 561.046 425.662, 551.046 425.662, 541.046 425.662, 531.046 425.662, 527.787 " fill="none" stroke="#441BEE" stroke-linecap="butt" stroke-linejoin="round" stroke-opacity="1.0" stroke-width="1.0" />
            <path d=" M 425.662, 634.678 425.662, 624.678 425.662, 614.678 425.662, 604.678 425.662, 594.678 425.662, 584.678 425.662, 574.678 425.662, 565.322 " fill="none" stroke="#441BEE" stroke-linecap="butt" stroke-linejoin="round" stroke-opacity="1.0" stroke-width="1.0" />
            <path d=" M 425.662, 672.213 425.662, 662.213 425.662, 652.213 425.662, 642.213 425.662, 638.954 " fill="none" stroke="#441BEE" stroke-linecap="butt" stroke-linejoin="round" stroke-opacity="1.0" stroke-width="1.0" />
            <path d=" M 425.662, 716.489 425.662, 706.489 425.662, 696.489 425.662, 686.489 425.662, 676.489 425.662, 674.528 " fill="none" stroke="#441BEE" stroke-linecap="butt" stroke-linejoin="round" stroke-opacity="1.0" stroke-width="1.0" />
            <path d=" M 467.453, 464.429 471.280, 455.190 475.106, 445.951 478.933, 436.713 482.760, 427.474 483.511, 425.662 " fill="none" stroke="#441BEE" stroke-linecap="butt" stroke-linejoin="round" stroke-opacity="1.0" stroke-width="1.0" />
            <path d=" M 453.840, 497.294 457.666, 488.056 461.493, 478.817 465.320, 469.578 466.567, 466.567 " fill="none" stroke="#441BEE" stroke-linecap="butt" stroke-linejoin="round" stroke-opacity="1.0" stroke-width="1.0" />
            <path d=" M 425.662, 565.322 429.488, 556.083 433.315, 546.844 437.142, 537.606 440.969, 528.367 444.796, 519.128 448.623, 509.889 452.203, 501.245 " fill="none" stroke="#441BEE" stroke-linecap="butt" stroke-linejoin="round" stroke-opacity="1.0" stroke-width="1.0" />
            <path d=" M 411.298, 600.000 415.124, 590.761 418.951, 581.522 422.778, 572.284 424.025, 569.273 " fill="none" stroke="#441BEE" stroke-linecap="butt" stroke-linejoin="round" stroke-opacity="1.0" stroke-width="1.0" />
            <path d=" M 394.354, 640.906 398.181, 631.667 402.008, 622.428 405.834, 613.189 409.661, 603.950 410.412, 602.138 " fill="none" stroke="#441BEE" stroke-linecap="butt" stroke-linejoin="round" stroke-opacity="1.0" stroke-width="1.0" />
            <path d=" M 410.412, 597.862 406.585, 588.623 402.758, 579.384 398.931, 570.146 395.105, 560.907 394.354, 559.095 " fill="none" stroke="#441BEE" stroke-linecap="butt" stroke-linejoin="round" stroke-opacity="1.0" stroke-width="1.0" />
            <path d=" M 424.025, 630.727 420.198, 621.488 416.371, 612.250 412.545, 603.011 411.298, 600.000 " fill="none" stroke="#441BEE" stroke-linecap="butt" stroke-linejoin="round" stroke-opacity="1.0" stroke-width="1.0" />
            <path d=" M 452.203, 698.755 448.376, 689.516 444.549, 680.277 440.723, 671.038 436.896, 661.800 433.069, 652.561 429.242, 643.322 425.662, 634.678 " fill="none" stroke="#441BEE" stroke-linecap="butt" stroke-linejoin="round" stroke-opacity="1.0" stroke-width="1.0" />
            <path d=" M 466.567, 733.433 462.740, 724.194 458.914, 714.955 455.087, 705.716 453.840, 702.706 " fill="none" stroke="#441BEE" stroke-linecap="butt" stroke-linejoin="round" stroke-opacity="1.0" stroke-width="1.0" />
            <path d=" M 483.511, 774.338 479.684, 765.100 475.857, 755.861 472.030, 746.622 468.204, 737.383 467.453, 735.571 " fill="none" stroke="#441BEE" stroke-linecap="butt" stroke-linejoin="round" stroke-opacity="1.0" stroke-width="1.0" />
            <path d=" M 529.423, 424.025 536.494, 416.954 543.565, 409.883 550.636, 402.812 557.707, 395.741 559.094, 394.354 " fill="none" stroke="#441BEE" stroke-linecap="butt" stroke-linejoin="round" stroke-opacity="1.0" stroke-width="1.0" />
            <path d=" M 504.269, 449.179 511.340, 442.108 518.411, 435.037 525.482, 427.966 527.787, 425.662 " fill="none" stroke="#441BEE" stroke-linecap="butt" stroke-linejoin="round" stroke-opacity="1.0" stroke-width="1.0" />
            <path d=" M 452.203, 501.245 459.274, 494.174 466.345, 487.103 473.416, 480.032 480.487, 472.961 487.558, 465.890 494.629, 458.819 501.245, 452.203 " fill="none" stroke="#441BEE" stroke-linecap="butt" stroke-linejoin="round" stroke-opacity="1.0" stroke-width="1.0" />
            <path d=" M 425.662, 527.787 432.733, 520.716 439.804, 513.645 446.875, 506.574 449.179, 504.269 " fill="none" stroke="#441BEE" stroke-linecap="butt" stroke-linejoin="round" stroke-opacity="1.0" stroke-width="1.0" />
            <path d=" M 394.354, 559.095 401.425, 552.023 408.496, 544.952 415.567, 537.881 422.638, 530.810 424.025, 529.423 " fill="none" stroke="#441BEE" stroke-linecap="butt" stroke-linejoin="round" stroke-opacity="1.0" stroke-width="1.0" />
            <path d=" M 424.025, 670.577 416.954, 663.506 409.883, 656.435 402.812, 649.364 395.741, 642.293 394.354, 640.906 " fill="none" stroke="#441BEE" stroke-linecap="butt" stroke-linejoin="round" stroke-opacity="1.0" stroke-width="1.0" />
            <path d=" M 449.179, 695.731 442.108, 688.660 435.037, 681.589 427.966, 674.518 425.662, 672.213 " fill="none" stroke="#441BEE" stroke-linecap="butt" stroke-linejoin="round" stroke-opacity="1.0" stroke-width="1.0" />
            <path d=" M 501.245, 747.797 494.174, 740.726 487.103, 733.655 480.032, 726.584 472.961, 719.513 465.890, 712.442 458.819, 705.371 452.203, 698.755 " fill="none" stroke="#441BEE" stroke-linecap="butt" stroke-linejoin="round" stroke-opacity="1.0" stroke-width="1.0" />
            <path d=" M 527.787, 774.338 520.716, 767.267 513.645, 760.196 506.574, 753.125 504.269, 750.821 " fill="none" stroke="#441BEE" stroke-linecap="butt" stroke-linejoin="round" stroke-opacity="1.0" stroke-width="1.0" />
            <path d=" M 559.095, 805.646 552.023, 798.575 544.952, 791.504 537.881, 784.433 530.810, 777.362 529.423, 775.975 " fill="none" stroke="#441BEE" stroke-linecap="butt" stroke-linejoin="round" stroke-opacity="1.0" stroke-width="1.0" />
            <path d=" M 602.138, 410.412 611.377, 406.585 620.616, 402.758 629.854, 398.931 639.093, 395.105 640.905, 394.354 " fill="none" stroke="#441BEE" stroke-linecap="butt" stroke-linejoin="round" stroke-opacity="1.0" stroke-width="1.0" />
            <path d=" M 569.273, 424.025 578.512, 420.198 587.750, 416.371 596.989, 412.545 600.000, 411.298 " fill="none" stroke="#441BEE" stroke-linecap="butt" stroke-linejoin="round" stroke-opacity="1.0" stroke-width="1.0" />
            <path d=" M 501.245, 452.203 510.484, 448.376 519.723, 444.549 528.962, 440.723 538.200, 436.896 547.439, 433.069 556.678, 429.242 565.322, 425.662 " fill="none" stroke="#441BEE" stroke-linecap="butt" stroke-linejoin="round" stroke-opacity="1.0" stroke-width="1.0" />
            <path d=" M 466.567, 466.567 475.806, 462.740 485.045, 458.914 494.284, 455.087 497.294, 453.840 " fill="none" stroke="#441BEE" stroke-linecap="butt" stroke-linejoin="round" stroke-opacity="1.0" stroke-width="1.0" />
            <path d=" M 425.662, 483.511 434.900, 479.684 444.139, 475.857 453.378, 472.030 462.617, 468.204 464.429, 467.453 " fill="none" stroke="#441BEE" stroke-linecap="butt" stroke-linejoin="round" stroke-opacity="1.0" stroke-width="1.0" />
            <path d=" M 464.429, 732.547 455.190, 728.720 445.951, 724.894 436.713, 721.067 427.474, 717.240 425.662, 716.489 " fill="none" stroke="#441BEE" stroke-linecap="butt" stroke-linejoin="round" stroke-opacity="1.0" stroke-width="1.0" />
            <path d=" M 497.294, 746.160 488.056, 742.334 478.817, 738.507 469.578, 734.680 466.567, 733.433 " fill="none" stroke="#441BEE" stroke-linecap="butt" stroke-linejoin="round" stroke-opacity="1.0" stroke-width="1.0" />
            <path d=" M 565.322, 774.338 556.083, 770.512 546.844, 766.685 537.606, 762.858 528.367, 759.031 519.128, 755.204 509.889, 751.377 501.245, 747.797 " fill="none" stroke="#441BEE" stroke-linecap="butt" stroke-linejoin="round" stroke-opacity="1.0" stroke-width="1.0" />
            <path d=" M 600.000, 788.702 590.761, 784.876 581.522, 781.049 572.284, 777.222 569.273, 775.975 " fill="none" stroke="#441BEE" stroke-linecap="butt" stroke-linejoin="round" stroke-opacity="1.0" stroke-width="1.0" />
            <path d=" M 640.906, 805.646 631.667, 801.819 622.428, 797.992 613.189, 794.166 603.950, 790.339 602.138, 789.588 " fill="none" stroke="#441BEE" stroke-linecap="butt" stroke-linejoin="round" stroke-opacity="1.0" stroke-width="1.0" />
            <path d=" M 525.472, 774.338 515.472, 774.338 505.472, 774.338 495.472, 774.338 485.472, 774.338 483.511, 774.338 " fill="none" stroke="#441BEE" stroke-linecap="butt" stroke-linejoin="round" stroke-opacity="1.0" stroke-width="1.0" />
            <path d=" M 561.046, 774.338 551.046, 774.338 541.046, 774.338 531.046, 774.338 527.787, 774.338 " fill="none" stroke="#441BEE" stroke-linecap="butt" stroke-linejoin="round" stroke-opacity="1.0" stroke-width="1.0" />
            <path d=" M 634.678, 774.338 624.678, 774.338 614.678, 774.338 604.678, 774.338 594.678, 774.338 584.678, 774.338 574.678, 774.338 565.322, 774.338 " fill="none" stroke="#441BEE" stroke-linecap="butt" stroke-linejoin="round" stroke-opacity="1.0" stroke-width="1.0" />
            <path d=" M 672.213, 774.338 662.213, 774.338 652.213, 774.338 642.213, 774.338 638.954, 774.338 " fill="none" stroke="#441BEE" stroke-linecap="butt" stroke-linejoin="round" stroke-opacity="1.0" stroke-width="1.0" />
            <path d=" M 716.489, 774.338 706.489, 774.338 696.489, 774.338 686.489, 774.338 676.489, 774.338 674.528, 774.338 " fill="none" stroke="#441BEE" stroke-linecap="butt" stroke-linejoin="round" stroke-opacity="1.0" stroke-width="1.0" />
            <path d=" M 774.338, 674.528 774.338, 684.528 774.338, 694.528 774.338, 704.528 774.338, 714.528 774.338, 716.489 " fill="none" stroke="#441BEE" stroke-linecap="butt" stroke-linejoin="round" stroke-opacity="1.0" stroke-width="1.0" />
            <path d=" M 774.338, 638.954 774.338, 648.954 774.338, 658.954 774.338, 668.954 774.338, 672.213 " fill="none" stroke="#441BEE" stroke-linecap="butt" stroke-linejoin="round" stroke-opacity="1.0" stroke-width="1.0" />
            <path d=" M 774.338, 565.322 774.338, 575.322 774.338, 585.322 774.338, 595.322 774.338, 605.322 774.338, 615.322 774.338, 625.322 774.338, 634.678 " fill="none" stroke="#441BEE" stroke-linecap="butt" stroke-linejoin="round" stroke-opacity="1.0" stroke-width="1.0" />
            <path d=" M 774.338, 527.787 774.338, 537.787 774.338, 547.787 774.338, 557.787 774.338, 561.046 " fill="none" stroke="#441BEE" stroke-linecap="butt" stroke-linejoin="round" stroke-opacity="1.0" stroke-width="1.0" />
            <path d=" M 774.338, 483.511 774.338, 493.511 774.338, 503.511 774.338, 513.511 774.338, 523.511 774.338, 525.472 " fill="none" stroke="#441BEE" stroke-linecap="butt" stroke-linejoin="round" stroke-opacity="1.0" stroke-width="1.0" />
            <path d=" M 674.528, 425.662 684.528, 425.662 694.528, 425.662 704.528, 425.662 714.528, 425.662 716.489, 425.662 " fill="none" stroke="#441BEE" stroke-linecap="butt" stroke-linejoin="round" stroke-opacity="1.0" stroke-width="1.0" />
            <path d=" M 638.954, 425.662 648.954, 425.662 658.954, 425.662 668.954, 425.662 672.213, 425.662 " fill="none" stroke="#441BEE" stroke-linecap="butt" stroke-linejoin="round" stroke-opacity="1.0" stroke-width="1.0" />
            <path d=" M 565.322, 425.662 575.322, 425.662 585.322, 425.662 595.322, 425.662 605.322, 425.662 615.322, 425.662 625.322, 425.662 634.678, 425.662 " fill="none" stroke="#441BEE" stroke-linecap="butt" stroke-linejoin="round" stroke-opacity="1.0" stroke-width="1.0" />
            <path d=" M 527.787, 425.662 537.787, 425.662 547.787, 425.662 557.787, 425.662 561.046, 425.662 " fill="none" stroke="#441BEE" stroke-linecap="butt" stroke-linejoin="round" stroke-opacity="1.0" stroke-width="1.0" />
            <path d=" M 483.511, 425.662 493.511, 425.662 503.511, 425.662 513.511, 425.662 523.511, 425.662 525.472, 425.662 " fill="none" stroke="#441BEE" stroke-linecap="butt" stroke-linejoin="round" stroke-opacity="1.0" stroke-width="1.0" />
            <path d=" M 775.663, 424.337 774.338, 425.662 " fill="none" stroke="#441BEE" stroke-linecap="butt" stroke-linejoin="round" stroke-opacity="1.0" stroke-width="1.0" />
            <path d=" M 735.571, 467.453 744.810, 471.280 754.049, 475.106 763.287, 478.933 772.526, 482.760 774.338, 483.511 " fill="none" stroke="#441BEE" stroke-linecap="butt" stroke-linejoin="round" stroke-opacity="1.0" stroke-width="1.0" />
            <path d=" M 702.706, 453.840 711.944, 457.666 721.183, 461.493 730.422, 465.320 733.433, 466.567 " fill="none" stroke="#441BEE" stroke-linecap="butt" stroke-linejoin="round" stroke-opacity="1.0" stroke-width="1.0" />
            <path d=" M 634.678, 425.662 643.917, 429.488 653.156, 433.315 662.394, 437.142 671.633, 440.969 680.872, 444.796 690.111, 448.623 698.755, 452.203 " fill="none" stroke="#441BEE" stroke-linecap="butt" stroke-linejoin="round" stroke-opacity="1.0" stroke-width="1.0" />
            <path d=" M 600.000, 411.298 609.239, 415.124 618.478, 418.951 627.716, 422.778 630.727, 424.025 " fill="none" stroke="#441BEE" stroke-linecap="butt" stroke-linejoin="round" stroke-opacity="1.0" stroke-width="1.0" />
            <path d=" M 559.094, 394.354 568.333, 398.181 577.572, 402.008 586.811, 405.834 596.050, 409.661 597.862, 410.412 " fill="none" stroke="#441BEE" stroke-linecap="butt" stroke-linejoin="round" stroke-opacity="1.0" stroke-width="1.0" />
            <path d=" M 732.547, 735.571 728.720, 744.810 724.894, 754.049 721.067, 763.287 717.240, 772.526 716.489, 774.338 " fill="none" stroke="#441BEE" stroke-linecap="butt" stroke-linejoin="round" stroke-opacity="1.0" stroke-width="1.0" />
            <path d=" M 746.160, 702.706 742.334, 711.944 738.507, 721.183 734.680, 730.422 733.433, 733.433 " fill="none" stroke="#441BEE" stroke-linecap="butt" stroke-linejoin="round" stroke-opacity="1.0" stroke-width="1.0" />
            <path d=" M 774.338, 634.678 770.512, 643.917 766.685, 653.156 762.858, 662.394 759.031, 671.633 755.204, 680.872 751.377, 690.111 747.797, 698.755 " fill="none" stroke="#441BEE" stroke-linecap="butt" stroke-linejoin="round" stroke-opacity="1.0" stroke-width="1.0" />
            <path d=" M 788.702, 600.000 784.876, 609.239 781.049, 618.478 777.222, 627.716 775.975, 630.727 " fill="none" stroke="#441BEE" stroke-linecap="butt" stroke-linejoin="round" stroke-opacity="1.0" stroke-width="1.0" />
            <path d=" M 805.646, 559.094 801.819, 568.333 797.992, 577.572 794.166, 586.811 790.339, 596.050 789.588, 597.862 " fill="none" stroke="#441BEE" stroke-linecap="butt" stroke-linejoin="round" stroke-opacity="1.0" stroke-width="1.0" />
            <path d=" M 597.862, 789.588 588.623, 793.415 579.384, 797.242 570.146, 801.069 560.907, 804.895 559.095, 805.646 " fill="none" stroke="#441BEE" stroke-linecap="butt" stroke-linejoin="round" stroke-opacity="1.0" stroke-width="1.0" />
            <path d=" M 630.727, 775.975 621.488, 779.802 612.250, 783.629 603.011, 787.455 600.000, 788.702 " fill="none" stroke="#441BEE" stroke-linecap="butt" stroke-linejoin="round" stroke-opacity="1.0" stroke-width="1.0" />
            <path d=" M 698.755, 747.797 689.516, 751.624 680.277, 755.451 671.038, 759.277 661.800, 763.104 652.561, 766.931 643.322, 770.758 634.678, 774.338 " fill="none" stroke="#441BEE" stroke-linecap="butt" stroke-linejoin="round" stroke-opacity="1.0" stroke-width="1.0" />
            <path d=" M 733.433, 733.433 724.194, 737.260 714.955, 741.086 705.716, 744.913 702.706, 746.160 " fill="none" stroke="#441BEE" stroke-linecap="butt" stroke-linejoin="round" stroke-opacity="1.0" stroke-width="1.0" />
            <path d=" M 774.338, 716.489 765.100, 720.316 755.861, 724.143 746.622, 727.970 737.383, 731.796 735.571, 732.547 " fill="none" stroke="#441BEE" stroke-linecap="butt" stroke-linejoin="round" stroke-opacity="1.0" stroke-width="1.0" />
            <path d=" M 789.588, 602.138 793.415, 611.377 797.242, 620.616 801.069, 629.854 804.895, 639.093 805.646, 640.905 " fill="none" stroke="#441BEE" stroke-linecap="butt" stroke-linejoin="round" stroke-opacity="1.0" stroke-width="1.0" />
            <path d=" M 775.975, 569.273 779.802, 578.512 783.629, 587.750 787.455, 596.989 788.702, 600.000 " fill="none" stroke="#441BEE" stroke-linecap="butt" stroke-linejoin="round" stroke-opacity="1.0" stroke-width="1.0" />
            <path d=" M 747.797, 501.245 751.624, 510.484 755.451, 519.723 759.277, 528.962 763.104, 538.200 766.931, 547.439 770.758, 556.678 774.338, 565.322 " fill="none" stroke="#441BEE" stroke-linecap="butt" stroke-linejoin="round" stroke-opacity="1.0" stroke-width="1.0" />
            <path d=" M 733.433, 466.567 737.260, 475.806 741.086, 485.045 744.913, 494.284 746.160, 497.294 " fill="none" stroke="#441BEE" stroke-linecap="butt" stroke-linejoin="round" stroke-opacity="1.0" stroke-width="1.0" />
            <path d=" M 716.489, 425.662 720.316, 434.900 724.143, 444.139 727.970, 453.378 731.796, 462.617 732.547, 464.429 " fill="none" stroke="#441BEE" stroke-linecap="butt" stroke-linejoin="round" stroke-opacity="1.0" stroke-width="1.0" />
            <path d=" M 670.577, 775.975 663.506, 783.046 656.435, 790.117 649.364, 797.188 642.293, 804.259 640.906, 805.646 " fill="none" stroke="#441BEE" stroke-linecap="butt" stroke-linejoin="round" stroke-opacity="1.0" stroke-width="1.0" />
            <path d=" M 695.731, 750.821 688.660, 757.892 681.589, 764.963 674.518, 772.034 672.213, 774.338 " fill="none" stroke="#441BEE" stroke-linecap="butt" stroke-linejoin="round" stroke-opacity="1.0" stroke-width="1.0" />
            <path d=" M 747.797, 698.755 740.726, 705.826 733.655, 712.897 726.584, 719.968 719.513, 727.039 712.442, 734.110 705.371, 741.181 698.755, 747.797 " fill="none" stroke="#441BEE" stroke-linecap="butt" stroke-linejoin="round" stroke-opacity="1.0" stroke-width="1.0" />
            <path d=" M 774.338, 672.213 767.267, 679.284 760.196, 686.355 753.125, 693.426 750.821, 695.731 " fill="none" stroke="#441BEE" stroke-linecap="butt" stroke-linejoin="round" stroke-opacity="1.0" stroke-width="1.0" />
            <path d=" M 805.646, 640.905 798.575, 647.977 791.504, 655.048 784.433, 662.119 777.362, 669.190 775.975, 670.577 " fill="none" stroke="#441BEE" stroke-linecap="butt" stroke-linejoin="round" stroke-opacity="1.0" stroke-width="1.0" />
            <path d=" M 775.975, 529.423 783.046, 536.494 790.117, 543.565 797.188, 550.636 804.259, 557.707 805.646, 559.094 " fill="none" stroke="#441BEE" stroke-linecap="butt" stroke-linejoin="round" stroke-opacity="1.0" stroke-width="1.0" />
            <path d=" M 750.821, 504.269 757.892, 511.340 764.963, 518.411 772.034, 525.482 774.338, 527.787 " fill="none" stroke="#441BEE" stroke-linecap="butt" stroke-linejoin="round" stroke-opacity="1.0" stroke-width="1.0" />
            <path d=" M 698.755, 452.203 705.826, 459.274 712.897, 466.345 719.968, 473.416 727.039, 480.487 734.110, 487.558 741.181, 494.629 747.797, 501.245 " fill="none" stroke="#441BEE" stroke-linecap="butt" stroke-linejoin="round" stroke-opacity="1.0" stroke-width="1.0" />
            <path d=" M 672.213, 425.662 679.284, 432.733 686.355, 439.804 693.426, 446.875 695.731, 449.179 " fill="none" stroke="#441BEE" stroke-linecap="butt" stroke-linejoin="round" stroke-opacity="1.0" stroke-width="1.0" />
            <path d=" M 640.905, 394.354 647.977, 401.425 655.048, 408.496 662.119, 415.567 669.190, 422.638 670.577, 424.025 " fill="none" stroke="#441BEE" stroke-linecap="butt" stroke-linejoin="round" stroke-opacity="1.0" stroke-width="1.0" />
        </g>
    </g>
</svg>
